<?xml version="1.0" encoding="us-ascii" standalone="no"?><svg xmlns="http://www.w3.org/2000/svg" xmlns:xlink="http://www.w3.org/1999/xlink" contentStyleType="text/css" height="660px" preserveAspectRatio="none" style="width:1323px;height:660px;background:#FFFFFF;" version="1.1" viewBox="0 0 1323 660" width="1323px" zoomAndPan="magnify"><defs/><g><polygon fill="none" points="508.0938,15,508.0938,15.2102,518.2375,14.5857,528.3813,15.1933,538.525,15.3997,548.6688,14.2866,558.8125,14.9223,568.9563,14.5735,579.1,14.6165,589.2438,14.9318,599.3875,14.3086,609.5313,15.5536,619.675,14.3697,629.8188,14.8022,639.9625,15.4319,650.1063,14.9142,660.25,15.0682,670.3938,14.9681,680.5375,15.1785,690.6813,15.2391,700.825,15.5857,710.9688,15.6711,721.1125,15.6793,731.2563,15.2546,741.4,15.4636,751.5438,15.7022,761.6875,14.2788,771.8313,15.6785,781.975,14.7035,792.1188,15.5338,802.2625,14.505,812.4063,15,812.3834,15,812.6535,20.8136,812.39,26.6272,812.4414,32.4408,812.5191,38.2543,812.4063,44.0679,812.4063,44.4841,802.2625,44.064,792.1188,44.3551,781.975,43.4955,771.8313,44.3523,761.6875,44.6161,751.5438,44.5124,741.4,44.6809,731.2563,43.5848,721.1125,43.4157,710.9688,43.4465,700.825,44.009,690.6813,43.8714,680.5375,44.7493,670.3938,43.8932,660.25,43.7249,650.1063,44.2962,639.9625,43.4011,629.8188,43.5488,619.675,44.7169,609.5313,44.5036,599.3875,44.8024,589.2438,43.7461,579.1,44.3871,568.9563,44.6583,558.8125,43.5955,548.6688,43.9721,538.525,44.1939,528.3812,44.7197,518.2375,44.0637,508.0938,44.0679,508.2479,44.0679,507.9092,38.2543,507.868,32.4408,508.2616,26.6272,507.8548,20.8136,508.0938,15" style="stroke:#000000;stroke-width:1.0;"/><text fill="#000000" font-family="sans-serif" font-size="14" font-weight="bold" lengthAdjust="spacing" text-decoration="underline" textLength="294.3125" x="513.0938" y="34.9659">Get Current User Account Balance Details</text><path d="M834.75,50.0679 L834.9368,50.0679 L834.3817,52.0385 L834.9218,54.0091 L835.1053,55.9797 L834.1159,57.9503 L834.75,59.9209 L834.7365,59.8532 L830.6757,60.3492 L826.6831,61.1867 L822.7381,62.2615 L818.6295,62.5183 L814.75,63.9209 L814.8465,64.4035 L818.6401,64.1716 L822.7155,65.3485 L826.8253,66.6974 L830.735,67.0462 L834.75,67.9209 L834.8107,67.9209 L834.7216,69.8915 L834.9087,71.8621 L834.9626,73.8327 L835.2706,75.8033 L834.75,77.7739 L834.75,77.7739 L834.75,79.5634 L844.75,79.5853 L854.75,78.4529 L864.75,79.0102 L874.75,79.6466 L884.75,77.7739 L884.75,77.7739 L884.1089,77.7739 L885.3531,74.2327 L884.4864,70.6915 L885.2245,67.1503 L884.31,63.6091 L884.75,60.0679 L884.7069,60.0249 L883.2161,58.534 L880.7194,56.0373 L878.8162,54.1341 L876.9628,52.2808 L874.75,50.0679 L874.75,50.4379 L866.75,50.0644 L858.75,50.3232 L850.75,49.5591 L842.75,50.3207 L834.75,50.0679 L834.75,50.0679 " fill="#FEFFDD" style="stroke:#181818;stroke-width:0.5;"/><path d="M874.75,50.0679 L874.9368,50.0679 L874.3817,52.0679 L874.9218,54.0679 L875.1053,56.0679 L874.1159,58.0679 L874.75,60.0679 L874.75,59.9988 L876.75,59.6888 L878.75,59.727 L880.75,60.0073 L882.75,59.4534 L884.75,60.0679 L885.098,60.4159 L882.3538,57.6718 L880.6257,55.9436 L879.0215,54.3394 L876.6961,52.014 L874.75,50.0679 " fill="#FEFFDD" style="stroke:#181818;stroke-width:0.5;"/><text fill="#000000" font-family="sans-serif" font-size="13" lengthAdjust="spacing" textLength="29" x="840.75" y="68.9649">Start</text><polygon fill="#222222" points="814.8052,66.3533,813.3394,68.3562,811.6056,71.2897,809.126,73.2667,806.5203,74.3478,804.4427,74.4417,801.7724,73.0896,799.2529,72.2063,797.3405,70.4129,796.3373,68.3598,795.7424,66.725,795.1596,64.5897,794.2136,62.7523,794.9406,60.9582,795.5775,58.9929,797.9675,57.4386,799.6491,55.4219,801.7304,54.7522,804.2047,54.1755,807.3776,54.5182,809.1155,55.3378,811.1361,55.7093,813.5929,58.2264,814.4493,60.8836,814.8214,62.6967,814.4,65.6844" style="stroke:#222222;stroke-width:1.0;"/><path d="M444.25,93.24 L444.8105,93.24 L443.1451,102.3224 L444.7654,111.4048 L445.3158,120.4872 L442.3476,129.5696 L444.25,138.652 L444.25,138.652 L444.25,138.4448 L454.45,137.5147 L464.65,137.6293 L474.85,138.4703 L485.05,136.8084 L495.25,140.1284 L505.45,136.9713 L515.65,138.1246 L525.85,139.8039 L536.05,138.4233 L546.25,138.834 L556.45,138.5668 L566.65,139.1281 L576.85,139.2897 L587.05,140.2138 L597.25,138.652 L597.25,138.652 L597.8465,138.652 L597.8538,134.9108 L597.4763,131.1696 L597.6621,127.4284 L597.8742,123.6872 L597.25,119.946 L597.1243,119.3174 L601.3683,119.7374 L605.1983,118.0876 L609.3431,118.0113 L613.1637,116.3145 L617.25,115.946 L617.2381,115.8863 L613.3793,115.7924 L609.2415,114.3035 L605.2684,113.6378 L601.309,113.0411 L597.25,111.946 L597.62,111.946 L597.2465,110.2048 L597.5053,108.4636 L596.7412,106.7224 L597.5028,104.9812 L597.25,103.24 L597.5946,103.5845 L595.5294,101.5194 L593.6353,99.6253 L590.9464,96.9363 L588.8401,94.8301 L587.25,93.24 L587.25,91.5829 L577.0357,93.083 L566.8214,92.7159 L556.6071,95.0571 L546.3929,92.7742 L536.1786,92.3252 L525.9643,93.8487 L515.75,91.4617 L505.5357,91.8556 L495.3214,94.9705 L485.1071,94.4018 L474.8929,95.1986 L464.6786,92.3819 L454.4643,94.0912 L444.25,93.24 L444.25,93.24 " fill="#FEFFDD" style="stroke:#181818;stroke-width:0.5;"/><path d="M587.25,93.24 L587.4368,93.24 L586.8817,95.24 L587.4218,97.24 L587.6053,99.24 L586.6159,101.24 L587.25,103.24 L587.25,103.1709 L589.25,102.8609 L591.25,102.8991 L593.25,103.1794 L595.25,102.6254 L597.25,103.24 L597.598,103.588 L594.8538,100.8438 L593.1257,99.1157 L591.5215,97.5115 L589.1961,95.1861 L587.25,93.24 " fill="#FEFFDD" style="stroke:#181818;stroke-width:0.5;"/><text fill="#000000" font-family="sans-serif" font-size="13" lengthAdjust="spacing" textLength="132" x="450.25" y="112.137">Authorization Header:</text><text fill="#000000" font-family="sans-serif" font-size="13" lengthAdjust="spacing" textLength="119" x="450.25" y="129.843">Bearer &lt;JWT Token&gt;</text><polygon fill="#F1F1F1" points="629.75,97.7739,629.75,97.9841,639.75,97.3596,649.75,97.9672,659.75,98.1736,669.75,97.0605,679.75,97.6962,689.75,97.3474,699.75,97.3904,709.75,97.7058,719.75,97.0826,729.75,98.3276,739.75,97.1437,749.75,97.5762,759.75,98.2059,769.75,97.6882,779.75,97.8422,789.75,97.742,799.75,97.9525,809.75,98.0131,819.75,98.3596,829.75,98.445,839.75,98.4532,849.75,98.0286,859.75,98.2375,869.75,98.4762,879.75,97.0527,889.75,98.4524,899.75,97.4774,909.75,98.3077,919.75,97.2789,929.75,97.7054,939.75,98.5155,949.75,97.7252,959.75,97.8792,969.75,98.1126,979.75,97.7739,979.8031,97.9021,981.5173,98.505,983.3222,99.3268,984.9803,99.7944,986.8573,100.7904,988.5888,101.4351,988.7577,101.505,989.458,103.2596,990.2421,105.0488,990.6368,106.6768,991.3169,108.423,992.25,110.2739,992.0429,110.2739,992.2304,112.5428,992.1845,114.8116,992.4771,117.0804,992.1918,119.3492,992.25,121.618,992.1444,121.5743,991.5881,123.4149,990.5802,125.0685,989.8934,126.8551,989.5209,128.7719,988.5888,130.4569,988.6444,130.5911,986.9148,131.4153,985.0123,131.8222,983.3263,132.7519,981.5931,133.5676,979.75,134.118,979.75,133.6456,969.75,134.0222,959.75,134.244,949.75,134.7698,939.75,134.1139,929.75,134.5806,919.75,133.5643,909.75,133.4408,899.75,134.6217,889.75,133.4011,879.75,134.627,869.75,134.3247,859.75,133.8501,849.75,133.7643,839.75,134.5768,829.75,133.8187,819.75,134.7099,809.75,133.5653,799.75,134.7355,789.75,134.6024,779.75,134.363,769.75,134.1653,759.75,134.8447,749.75,134.7316,739.75,134.2873,729.75,134.3862,719.75,133.9878,709.75,134.8345,699.75,134.2729,689.75,134.2906,679.75,133.5097,669.75,133.7128,659.75,134.6488,649.75,134.5478,639.75,134.0751,629.75,134.118,629.7089,134.0188,627.9543,133.3184,626.1269,132.4423,624.4996,132.0491,622.7733,131.4169,620.9112,130.4569,621.0733,130.524,620.3929,128.7778,619.4046,126.9039,618.7413,125.1647,617.8629,123.3364,617.25,121.618,617.3447,121.618,617.3323,119.3492,617.4341,117.0804,617.1734,114.8116,617.2052,112.5428,617.25,110.2739,617.3866,110.3305,618.1569,108.5785,618.5566,106.673,619.387,104.9459,620.2249,103.2219,620.9112,101.4351,620.8332,101.247,622.724,100.8117,624.4796,100.0501,626.2016,99.2074,628.0004,98.55,629.75,97.7739" style="stroke:#181818;stroke-width:0.5;"/><text fill="#000000" font-family="sans-serif" font-size="12" lengthAdjust="spacing" textLength="355" x="627.25" y="120.602">Receive GET request to /accounts/me with Authorization header</text><polygon fill="#F1F1F1" points="683.25,158.652,683.25,158.8622,693.375,158.2377,703.5,158.8453,713.625,159.0517,723.75,157.9386,733.875,158.5743,744,158.2255,754.125,158.2685,764.25,158.5839,774.375,157.9606,784.5,159.2056,794.625,158.0217,804.75,158.4542,814.875,159.084,825,158.5662,835.125,158.7202,845.25,158.6201,855.375,158.8305,865.5,158.8911,875.625,159.2377,885.75,159.3231,895.875,159.3313,906,158.9066,916.125,159.1156,926.25,158.652,926.3396,158.8683,927.9258,159.1621,929.8721,160.3254,931.5155,160.7574,933.3892,161.7453,935.0888,162.3132,934.9364,162.25,935.8,164.0722,936.7817,165.9433,937.2705,167.6103,938.0502,169.3977,938.75,171.152,938.8629,171.152,938.8887,173.4208,938.7487,175.6897,938.8457,177.9585,938.5592,180.2273,938.75,182.4961,938.8376,182.5324,938.1866,184.3338,937.4224,186.0884,936.7421,187.8776,935.6723,189.5056,935.0888,191.335,935.0056,191.1341,933.2418,191.8758,931.5458,192.7813,929.7605,193.4711,928.1047,194.4737,926.25,194.9961,926.25,194.8214,916.125,194.6531,906,195.2244,895.875,194.3293,885.75,194.477,875.625,195.6451,865.5,195.4318,855.375,195.7306,845.25,194.6743,835.125,195.3153,825,195.5865,814.875,194.5237,804.75,194.9003,794.625,195.1221,784.5,195.6479,774.375,194.9919,764.25,195.4587,754.125,194.4423,744,194.3189,733.875,195.4997,723.75,194.2792,713.625,195.5051,703.5,195.2028,693.375,194.7282,683.25,194.9961,683.2049,194.8872,681.5408,194.4052,679.6763,193.4395,678.0222,192.9817,676.1084,191.897,674.4112,191.335,674.6013,191.4137,673.8281,189.629,673.0221,187.8307,672.229,186.0377,671.706,184.3566,670.75,182.4961,670.9545,182.4961,670.8064,180.2273,670.8394,177.9585,670.7066,175.6897,670.9888,173.4208,670.75,171.152,670.7977,171.1718,671.5354,169.4063,672.0271,167.5389,672.8219,165.797,673.8424,164.1486,674.4112,162.3132,674.466,162.4455,676.1735,161.5677,677.9056,160.7495,679.6865,160.0491,681.3947,159.1729,683.25,158.652" style="stroke:#181818;stroke-width:0.5;"/><text fill="#000000" font-family="sans-serif" font-size="12" lengthAdjust="spacing" textLength="248" x="680.75" y="181.4801">Extract JWT token from Authorization header</text><polygon fill="#F1F1F1" points="762.25,214.9961,762.25,215.2063,771.6944,214.5818,781.1389,215.1894,790.5833,215.3958,800.0278,214.2827,809.4722,214.9184,818.9167,214.5696,828.3611,214.6126,837.8056,214.928,847.25,214.9961,847.1618,214.7832,849.0884,215.8989,850.7051,216.2665,852.5281,217.1319,854.3762,218.0581,856.0888,218.6573,856.0624,218.6463,856.8421,220.4338,857.5435,222.1887,858.3405,223.9834,859.0914,225.7589,859.75,227.4961,859.9452,227.4961,859.9737,229.7649,859.9764,232.0338,859.8349,234.3026,859.9045,236.5714,859.75,238.8402,859.9663,238.9298,858.7957,240.516,858.4945,242.4623,857.462,244.1057,856.9855,245.9794,856.0888,247.6791,856.0257,247.5266,854.3123,248.3902,852.6479,249.3719,850.7793,249.8608,849.0312,250.6404,847.25,251.3402,847.25,251.6789,837.8056,251.7565,828.3611,251.3363,818.9167,251.6274,809.4722,250.7678,800.0278,251.6246,790.5833,251.8884,781.1389,251.7848,771.6944,251.9533,762.25,251.3402,762.1884,251.1915,760.399,250.4072,758.6352,249.6844,756.9392,249.1254,755.1539,248.3508,753.4112,247.6791,753.621,247.766,752.6251,245.889,751.8411,244.0998,751.2848,242.4049,750.2769,240.5229,749.75,238.8402,749.577,238.8402,749.9663,236.5714,749.8952,234.3026,749.9948,232.0338,749.6427,229.7649,749.75,227.4961,749.8483,227.5368,750.6641,225.8037,751.069,223.9003,751.9172,222.1806,752.7177,220.4411,753.4112,218.6573,753.4943,218.858,755.1784,217.9238,757.0057,217.3353,758.6438,216.29,760.3958,215.5198,762.25,214.9961" style="stroke:#181818;stroke-width:0.5;"/><text fill="#000000" font-family="sans-serif" font-size="12" lengthAdjust="spacing" textLength="90" x="759.75" y="237.8242">Verify JWT token</text><polygon fill="#F1F1F1" points="766.75,271.3402,766.75,271.5504,776.25,270.9259,785.75,271.5335,795.25,271.7399,804.75,270.6268,814.25,271.2625,823.75,270.9137,833.25,270.9567,842.75,271.3402,842.7339,271.3242,844.987,273.5773,847.6805,276.2707,849.8014,278.3917,852.3034,280.8936,854.75,283.3402,854.8518,283.442,852.3298,285.72,849.9661,288.1563,847.5425,290.5327,845.1921,292.9823,842.75,295.3402,842.75,295.5794,833.25,295.9259,823.75,296.0113,814.25,296.0195,804.75,295.5949,795.25,295.8038,785.75,296.0425,776.25,294.6191,766.75,295.3402,766.9099,295.5002,764.2801,292.8703,762.0758,290.6661,759.4333,288.0236,757.1339,285.7241,754.75,283.3402,754.9248,283.515,757.1385,280.9287,759.5748,278.5651,762.0298,276.2201,764.4481,273.8383,766.75,271.3402" style="stroke:#181818;stroke-width:0.5;"/><text fill="#000000" font-family="sans-serif" font-size="11" lengthAdjust="spacing" textLength="76" x="766.75" y="287.6082">Token is valid?</text><text fill="#000000" font-family="sans-serif" font-size="11" lengthAdjust="spacing" textLength="17" x="737.75" y="280.1173">yes</text><text fill="#000000" font-family="sans-serif" font-size="11" lengthAdjust="spacing" textLength="14" x="854.75" y="280.1173">no</text><polygon fill="#F1F1F1" points="294.5,305.3402,294.5,305.5504,304.2059,304.9259,313.9118,305.5335,323.6176,305.7399,333.3235,304.6268,343.0294,305.2625,352.7353,304.9137,362.4412,304.9567,372.1471,305.2721,381.8529,304.6489,391.5588,305.8939,401.2647,304.71,410.9706,305.1425,420.6765,305.7722,430.3824,305.2545,440.0882,305.4085,449.7941,305.3083,459.5,305.3402,459.5228,305.3952,461.2983,306.1461,463.1102,306.9851,464.8889,307.7436,466.6577,308.4784,468.3388,309.0014,468.4172,309.0339,469.2138,310.8283,470.0196,312.6265,470.3134,314.2127,471.4767,316.159,472,317.8402,471.9012,317.8402,472.1779,320.1091,471.835,322.3779,471.9772,324.6467,472.2472,326.9155,472,329.1844,471.985,329.1781,471.3002,330.9655,470.6398,332.7631,469.9315,334.5407,469.0699,336.2549,468.3388,338.0232,468.3755,338.1116,466.498,338.5791,464.8396,339.5752,463.1055,340.3887,461.3245,341.089,459.5,341.6844,459.5,342.2974,449.7941,341.2013,440.0882,341.0322,430.3824,341.0629,420.6765,341.6255,410.9706,341.4878,401.2647,342.3658,391.5588,341.5097,381.8529,341.3413,372.1471,341.9126,362.4412,341.0175,352.7353,341.1652,343.0294,342.3333,333.3235,342.12,323.6176,342.4188,313.9118,341.3626,304.2059,342.0035,294.5,341.6844,294.5753,341.8662,292.672,340.8066,290.9522,340.1904,289.2128,339.5264,287.5121,338.9561,285.6612,338.0232,285.6599,338.0227,285.0714,336.3144,284.0262,334.417,283.2559,332.6335,282.8873,331.0164,282,329.1844,281.761,329.1844,282.1697,326.9155,282.0689,324.6467,281.9107,322.3779,281.8821,320.1091,282,317.8402,282.1413,317.8988,282.6401,316.0343,283.6467,314.3802,284.0265,312.4664,285.1191,310.8479,285.6612,309.0014,285.7229,309.1505,287.4602,308.3446,289.2027,307.5515,291.0572,307.0285,292.8105,306.2614,294.5,305.3402" style="stroke:#181818;stroke-width:0.5;"/><text fill="#000000" font-family="sans-serif" font-size="12" lengthAdjust="spacing" textLength="170" x="292" y="328.1683">Extract user_id from JWT token</text><polygon fill="#F1F1F1" points="250,361.6844,250,361.8945,260.16,361.27,270.32,361.8776,280.48,362.084,290.64,360.971,300.8,361.6066,310.96,361.2579,321.12,361.3009,331.28,361.6162,341.44,360.993,351.6,362.238,361.76,361.0541,371.92,361.4866,382.08,362.1163,392.24,361.5986,402.4,361.7526,412.56,361.6524,422.72,361.8629,432.88,361.9235,443.04,362.27,453.2,362.3554,463.36,362.3636,473.52,361.939,483.68,362.1479,493.84,362.3866,504,361.6844,503.908,361.4623,505.8543,362.6255,507.4977,363.0575,509.3714,364.0454,511.0079,364.4608,512.8388,365.3455,512.8177,365.3368,513.7995,367.2079,514.2883,368.8748,515.068,370.6622,515.8721,372.4598,516.5,374.1844,516.6387,374.1844,516.4987,376.4532,516.5957,378.722,516.3092,380.9908,516.5948,383.2596,516.5,385.5285,516.6688,385.5984,515.9047,387.3529,515.2243,389.1422,514.1545,390.7701,513.3702,392.5163,512.8388,394.3673,512.7596,394.1759,511.0636,395.0814,509.2782,395.7712,507.6225,396.7738,505.7455,397.2424,504,398.0285,504,397.6854,493.84,398.2567,483.68,397.3616,473.52,397.5093,463.36,398.6774,453.2,398.4641,443.04,398.763,432.88,397.7067,422.72,398.3477,412.56,398.6189,402.4,397.5561,392.24,397.9326,382.08,398.1544,371.92,398.6802,361.76,398.0243,351.6,398.491,341.44,397.4747,331.28,397.3512,321.12,398.5321,310.96,397.3115,300.8,398.5374,290.64,398.2351,280.48,397.7605,270.32,397.6747,260.16,398.4872,250,398.0285,249.9618,397.9363,248.3077,397.4785,246.394,396.3938,244.7755,396.0219,242.9907,395.2487,241.1612,394.3673,241.2366,394.3985,240.4435,392.6056,239.9205,390.9245,239.1534,389.1423,238.2844,387.3178,237.5,385.5285,237.5894,385.5285,237.4566,383.2596,237.7388,380.9908,237.5516,378.722,237.5575,376.4532,237.5,374.1844,237.3127,374.1067,238.1074,372.3649,239.1279,370.7165,239.829,368.9359,240.4157,367.1078,241.1612,365.3455,241.1201,365.2463,242.901,364.5459,244.6092,363.6697,246.5174,363.2765,248.3266,362.6443,250,361.6844" style="stroke:#181818;stroke-width:0.5;"/><text fill="#000000" font-family="sans-serif" font-size="12" lengthAdjust="spacing" textLength="259" x="247.5" y="384.5124">Fetch user details from database using user_id</text><polygon fill="#F1F1F1" points="346.5,418.0285,346.5,418.2386,356.6667,417.6141,366.8333,418.2218,377,418.4281,387.1667,417.3151,397.3333,417.9508,407.5,418.0285,407.3995,417.9279,409.8096,420.3381,412.2839,422.8124,414.537,425.0655,417.2305,427.759,419.5,430.0285,419.3514,429.8799,417.0534,432.3819,414.8018,434.9303,412.2798,437.2082,409.9161,439.6445,407.5,442.0285,407.5,441.9965,397.3333,442.207,387.1667,442.2676,377,442.6142,366.8333,442.6995,356.6667,442.7077,346.5,442.0285,346.56,442.0885,344.2093,439.7377,341.8655,437.394,339.13,434.6585,337.0599,432.5884,334.5,430.0285,334.4301,429.9586,337.0258,427.7543,339.1833,425.1118,341.6839,422.8123,344.2748,420.6033,346.5,418.0285" style="stroke:#181818;stroke-width:0.5;"/><text fill="#000000" font-family="sans-serif" font-size="11" lengthAdjust="spacing" textLength="61" x="346.5" y="434.2964">User exists?</text><text fill="#000000" font-family="sans-serif" font-size="11" lengthAdjust="spacing" textLength="17" x="317.5" y="426.8055">yes</text><text fill="#000000" font-family="sans-serif" font-size="11" lengthAdjust="spacing" textLength="14" x="419.5" y="426.8055">no</text><path d="M319,452.0285 L319.5605,452.0285 L317.8951,462.289 L319.5154,472.5496 L320.0658,482.8102 L317.0976,493.0708 L318.7928,503.3314 L317.8627,513.5919 L319,523.8525 L318.9331,523.5183 L314.9881,524.5931 L310.8795,524.8499 L307.0965,526.7351 L302.8901,526.5032 L299,527.8525 L298.9655,527.6802 L303.0753,529.029 L306.985,529.3778 L311.0119,530.312 L314.9944,531.0247 L319,531.8525 L319.4761,531.8525 L319.6377,542.1131 L320.5618,552.3737 L320.7895,562.6343 L320.8114,572.8949 L319.679,583.1554 L320.2362,593.416 L319,603.6766 L319,603.6766 L319,605.5492 L328.7368,601.7534 L338.4737,605.486 L348.2105,602.8859 L357.9474,605.1001 L367.6842,602.3565 L377.4211,603.4939 L387.1579,605.6542 L396.8947,603.5466 L406.6316,603.9574 L416.3684,604.5796 L426.1053,604.7865 L435.8421,603.6662 L445.5789,604.4425 L455.3158,602.1501 L465.0526,604.435 L474.7895,605.1385 L484.5263,604.862 L494.2632,605.3113 L504,603.6766 L504,603.6766 L502.7118,603.6766 L502.2608,593.5589 L502.3429,583.4411 L503.843,573.3234 L503.4759,563.2057 L505.8171,553.088 L503.5342,542.9703 L503.0852,532.8525 L504.6087,522.7348 L502.2218,512.6171 L502.6157,502.4994 L505.7305,492.3816 L505.1618,482.2639 L505.9586,472.1462 L504,462.0285 L503.7977,461.8262 L502.2006,460.2291 L500.3711,458.3996 L497.7031,455.7315 L495.9397,453.9682 L494,452.0285 L494,452.3644 L484.2778,453.7665 L474.5556,452.0173 L464.8333,453.262 L455.1111,450.5517 L445.3889,450.2224 L435.6667,453.3714 L425.9444,450.1166 L416.2222,453.3857 L406.5,452.5795 L396.7778,451.314 L387.0556,451.0851 L377.3333,453.2518 L367.6111,451.2302 L357.8889,453.6068 L348.1667,450.5545 L338.4444,453.6749 L328.7222,453.3199 L319,452.0285 L319,452.0285 " fill="#FEFFDD" style="stroke:#181818;stroke-width:0.5;"/><path d="M494,452.0285 L494.1868,452.0285 L493.6317,454.0285 L494.1718,456.0285 L494.3553,458.0285 L493.3659,460.0285 L494,462.0285 L494,461.9594 L496,461.6494 L498,461.6876 L500,461.9679 L502,461.4139 L504,462.0285 L504.348,462.3764 L501.6038,459.6323 L499.8757,457.9042 L498.2715,456.3 L495.9461,453.9746 L494,452.0285 " fill="#FEFFDD" style="stroke:#181818;stroke-width:0.5;"/><text fill="#000000" font-family="sans-serif" font-size="13" lengthAdjust="spacing" textLength="68" x="325" y="470.9255">JSON Body:</text><text fill="#000000" font-family="sans-serif" font-size="13" lengthAdjust="spacing" textLength="5" x="325" y="488.6315">{</text><text fill="#000000" font-family="sans-serif" font-size="13" lengthAdjust="spacing" textLength="105" x="337" y="506.3375">"user_id": "UUID",</text><text fill="#000000" font-family="sans-serif" font-size="13" lengthAdjust="spacing" textLength="127" x="337" y="524.0435">"account_id": "UUID",</text><text fill="#000000" font-family="sans-serif" font-size="13" lengthAdjust="spacing" textLength="106" x="337" y="541.7495">"balance": "0.000",</text><text fill="#000000" font-family="sans-serif" font-size="13" lengthAdjust="spacing" textLength="108" x="337" y="559.4556">"currency": "BHD",</text><text fill="#000000" font-family="sans-serif" font-size="13" lengthAdjust="spacing" textLength="152" x="337" y="577.1616">"account_status": "active"</text><text fill="#000000" font-family="sans-serif" font-size="13" lengthAdjust="spacing" textLength="5" x="325" y="594.8676">}</text><polygon fill="#F1F1F1" points="23.5,509.6805,23.5,509.8907,33.6154,509.2662,43.7308,509.8738,53.8462,510.0802,63.9615,508.9671,74.0769,509.6028,84.1923,509.254,94.3077,509.297,104.4231,509.6123,114.5385,508.9891,124.6538,510.2341,134.7692,509.0502,144.8846,509.4827,155,510.1124,165.1154,509.5947,175.2308,509.7487,185.3462,509.6485,195.4615,509.859,205.5769,509.9196,215.6923,510.2662,225.8077,510.3515,235.9231,510.3597,246.0385,509.9351,256.1538,510.1441,266.2692,510.3827,276.3846,508.9593,286.5,509.6805,286.5866,509.8894,288.2299,510.3214,290.1036,511.3093,291.7402,511.7247,293.5623,512.5883,295.3388,513.3416,295.5672,513.4362,296.0561,515.1032,296.8357,516.8906,297.6398,518.6881,298.3959,520.4658,299,522.1805,298.9987,522.1805,299.0957,524.4493,298.8092,526.7181,299.0948,528.9869,299.1827,531.2558,299,533.5246,299.1369,533.5813,298.4566,535.3706,297.3868,536.9985,296.6025,538.7447,295.8797,540.5164,295.3388,542.3634,295.3313,542.3453,293.546,543.0351,291.8902,544.0377,290.0133,544.5063,288.224,545.1867,286.5,546.0246,286.5,546.2529,276.3846,545.3577,266.2692,545.5055,256.1538,546.6735,246.0385,546.4603,235.9231,546.7591,225.8077,545.7028,215.6923,546.3438,205.5769,546.615,195.4615,545.5522,185.3462,545.9287,175.2308,546.1506,165.1154,546.6763,155,546.0204,144.8846,546.4872,134.7692,545.4708,124.6538,545.3473,114.5385,546.5282,104.4231,545.3076,94.3077,546.5336,84.1923,546.2312,74.0769,545.7567,63.9615,545.6708,53.8462,546.4833,43.7308,545.7253,33.6154,546.6164,23.5,546.0246,23.4295,545.8544,21.811,545.4825,20.0262,544.7093,18.2279,543.9033,16.435,543.1102,14.6612,542.3634,14.8849,542.4561,14.1179,540.6739,13.2488,538.8495,12.5471,537.0943,11.6921,535.2757,11,533.5246,11.2388,533.5246,11.0516,531.2558,11.0575,528.9869,10.7972,526.7181,10.8649,524.4493,11,522.1805,11.1634,522.2482,11.8646,520.4675,12.4512,518.6395,13.0975,516.8361,13.8615,515.0815,14.6612,513.3416,14.5736,513.1303,16.4818,512.7371,18.291,512.1049,20.0316,511.307,21.8209,510.6267,23.5,509.6805" style="stroke:#181818;stroke-width:0.5;"/><text fill="#000000" font-family="sans-serif" font-size="12" lengthAdjust="spacing" textLength="268" x="21" y="532.5086">Return 200 OK with user account balance details</text><path d="M80,620.8236 L80.1868,620.8236 L79.6317,626.3648 L80.1718,631.906 L80.3553,637.4472 L79.3659,642.9884 L80,648.5296 L80,648.5296 L80,648.4605 L88.8,648.1505 L97.6,648.1887 L106.4,648.469 L115.2,647.9151 L124,648.5296 L124,648.5296 L124.4921,648.5296 L123.4398,646.5884 L123.8242,644.6472 L124.384,642.706 L123.9238,640.7648 L124,638.8236 L124.0123,638.883 L127.9942,637.9664 L132.0322,637.3202 L136.0432,636.5435 L140.1057,636.0158 L144,634.6766 L144.1128,635.2623 L140.1142,634.4989 L136.0428,633.3576 L132.078,632.7694 L128.1181,632.2071 L124,630.8236 L123.5467,630.3703 L122.4265,629.2501 L119.8136,626.6372 L118.3355,625.1591 L115.6889,622.5124 L114,620.8236 L114,620.7627 L107.2,621.4828 L100.4,620.7803 L93.6,620.9172 L86.8,621.1246 L80,620.8236 L80,620.8236 " fill="#FEFFDD" style="stroke:#181818;stroke-width:0.5;"/><path d="M114,620.8236 L114.1868,620.8236 L113.6317,622.8236 L114.1718,624.8236 L114.3553,626.8236 L113.3659,628.8236 L114,630.8236 L114,630.7545 L116,630.4445 L118,630.4827 L120,630.763 L122,630.209 L124,630.8236 L124.348,631.1716 L121.6038,628.4274 L119.8757,626.6993 L118.2715,625.0951 L115.9461,622.7697 L114,620.8236 " fill="#FEFFDD" style="stroke:#181818;stroke-width:0.5;"/><text fill="#000000" font-family="sans-serif" font-size="13" lengthAdjust="spacing" textLength="23" x="86" y="639.7206">End</text><polygon fill="none" points="166.0608,637.3522,164.4484,639.5554,162.5412,642.7823,159.8136,644.957,156.9474,646.1462,154.662,646.2494,151.7247,644.7621,148.9532,643.7905,146.8495,641.8178,145.7461,639.5594,145.0917,637.7611,144.4506,635.4123,143.41,633.3911,144.2096,631.4176,144.9102,629.2558,147.5393,627.5461,149.389,625.3277,151.6784,624.591,154.4001,623.9566,157.8904,624.3336,159.8021,625.2351,162.0247,625.6438,164.7272,628.4126,165.6693,631.3355,166.0786,633.3299,165.615,636.6165" style="stroke:#222222;stroke-width:1.0;"/><polygon fill="#222222" points="161.0331,636.136,160.1536,637.3378,159.1134,639.0979,157.6256,640.2841,156.0622,640.9327,154.8156,640.989,153.2135,640.1778,151.7017,639.6478,150.5543,638.5718,149.9524,637.3399,149.5955,636.3591,149.2458,635.0779,148.6782,633.9754,149.1143,632.899,149.4965,631.7198,150.9305,630.7872,151.9394,629.5772,153.1882,629.1754,154.6728,628.8294,156.5766,629.0349,157.6193,629.5267,158.8317,629.7496,160.3057,631.2599,160.8196,632.8542,161.0429,633.9421,160.79,635.7347" style="stroke:#222222;stroke-width:1.0;"/><path d="M689.5,456.3475 L689.6868,456.3475 L689.1317,458.3181 L689.6718,460.2887 L689.8553,462.2593 L688.8659,464.2299 L689.5,466.2005 L689.4865,466.1328 L685.4257,466.6288 L681.4331,467.4663 L677.4881,468.5411 L673.3795,468.7979 L669.5,470.2005 L669.5965,470.6831 L673.3901,470.4512 L677.4655,471.6281 L681.5753,472.977 L685.485,473.3258 L689.5,474.2005 L689.5607,474.2005 L689.4716,476.1711 L689.6587,478.1417 L689.7126,480.1123 L690.0206,482.0829 L689.5,484.0535 L689.5,484.0535 L689.5,485.843 L699.5556,485.8649 L709.6111,484.7325 L719.6667,485.2898 L729.7222,485.9261 L739.7778,482.1304 L749.8333,485.8629 L759.8889,483.2629 L769.9444,485.477 L780,482.7335 L790.0556,483.8709 L800.1111,486.0311 L810.1667,483.9236 L820.2222,484.3343 L830.2778,484.9565 L840.3333,485.1635 L850.3889,484.0431 L860.4444,484.8194 L870.5,484.0535 L870.5,484.0535 L869.9912,484.0535 L870.7528,480.5123 L870.9873,476.9711 L870.8951,473.4299 L871.0449,469.8887 L870.5,466.3475 L870.1964,466.0439 L868.0901,463.9376 L866.1094,461.9569 L864.463,460.3105 L862.3765,458.224 L860.5,456.3475 L860.5,458.1646 L850.4412,455.8817 L840.3824,455.4327 L830.3235,456.9562 L820.2647,454.5693 L810.2059,454.9632 L800.1471,458.078 L790.0882,457.5093 L780.0294,458.3062 L769.9706,455.4894 L759.9118,457.1987 L749.8529,457.922 L739.7941,455.0878 L729.7353,456.0919 L719.6765,456.6835 L709.6176,458.0855 L699.5588,456.3363 L689.5,456.3475 L689.5,456.3475 " fill="#FEFFDD" style="stroke:#181818;stroke-width:0.5;"/><path d="M860.5,456.3475 L860.6868,456.3475 L860.1317,458.3475 L860.6718,460.3475 L860.8553,462.3475 L859.8659,464.3475 L860.5,466.3475 L860.5,466.2784 L862.5,465.9684 L864.5,466.0066 L866.5,466.2869 L868.5,465.733 L870.5,466.3475 L870.848,466.6955 L868.1038,463.9514 L866.3757,462.2232 L864.7715,460.619 L862.4461,458.2936 L860.5,456.3475 " fill="#FEFFDD" style="stroke:#181818;stroke-width:0.5;"/><text fill="#000000" font-family="sans-serif" font-size="13" lengthAdjust="spacing" textLength="160" x="695.5" y="475.2445">{"detail": "User not found"}</text><polygon fill="#F1F1F1" points="541,452.0285,541,452.2386,550.6667,451.6141,560.3333,452.2218,570,452.4281,579.6667,451.3151,589.3333,451.9508,599,451.602,608.6667,451.645,618.3333,451.9603,628,451.3371,637.6667,452.5821,647.3333,451.3982,657,452.0285,656.9748,451.9676,658.8229,452.8937,660.5246,453.4665,662.312,454.2462,664.067,454.9476,665.8388,455.6896,665.8938,455.7124,666.6447,457.4879,667.4837,459.2999,668.2422,461.0785,668.977,462.8473,669.5,464.5285,669.5849,464.5285,669.6545,466.7973,669.7341,469.0661,669.2596,471.3349,669.7262,473.6038,669.5,475.8726,669.4087,475.8348,668.9322,477.7084,667.8831,479.345,667.2822,481.1671,666.7995,483.0382,665.8388,484.7114,665.8326,484.6964,664.0845,485.4761,662.3465,486.2802,660.5886,487.0363,658.7673,487.6391,657,488.3726,657,488.6598,647.3333,487.8002,637.6667,488.657,628,488.9208,618.3333,488.8171,608.6667,488.9856,599,487.8895,589.3333,487.7204,579.6667,487.7512,570,488.3137,560.3333,488.1761,550.6667,489.054,541,488.3726,540.9777,488.3188,539.1885,487.5347,537.4936,486.9784,535.6116,485.9705,533.8627,485.2838,532.1612,484.7114,532.361,484.7942,531.5631,482.9992,530.9229,481.2696,529.8654,479.3671,529.3305,477.6811,528.5,475.8726,528.6968,475.8726,528.3425,473.6038,528.468,471.3349,528.542,469.0661,528.7173,466.7973,528.5,464.5285,528.4987,464.5279,529.3747,462.8197,529.7939,460.9223,530.4881,459.1388,531.584,457.5216,532.1612,455.6896,532.0697,455.4688,533.9939,455.1141,535.7231,454.2888,537.4303,453.4104,539.1871,452.6517,541,452.0285" style="stroke:#181818;stroke-width:0.5;"/><text fill="#000000" font-family="sans-serif" font-size="12" lengthAdjust="spacing" textLength="121" x="538.5" y="474.8566">Return 404 Not Found</text><path d="M524,523.3726 L524.1868,523.3726 L523.6317,528.9138 L524.1718,534.455 L524.3553,539.9962 L523.3659,545.5374 L524,551.0786 L524,551.0786 L524,551.0095 L532.8,550.6995 L541.6,550.7377 L550.4,551.018 L559.2,550.464 L568,551.0786 L568,551.0786 L568.4921,551.0786 L567.4398,549.1374 L567.8242,547.1962 L568.384,545.255 L567.9238,543.3138 L568,541.3726 L568.0123,541.432 L571.9942,540.5154 L576.0322,539.8692 L580.0432,539.0925 L584.1057,538.5648 L588,537.2256 L588.1128,537.8113 L584.1142,537.0479 L580.0428,535.9066 L576.078,535.3184 L572.1181,534.7561 L568,533.3726 L567.5467,532.9193 L566.4265,531.799 L563.8136,529.1862 L562.3355,527.7081 L559.6889,525.0614 L558,523.3726 L558,523.3117 L551.2,524.0318 L544.4,523.3293 L537.6,523.4662 L530.8,523.6736 L524,523.3726 L524,523.3726 " fill="#FEFFDD" style="stroke:#181818;stroke-width:0.5;"/><path d="M558,523.3726 L558.1868,523.3726 L557.6317,525.3726 L558.1718,527.3726 L558.3553,529.3726 L557.3659,531.3726 L558,533.3726 L558,533.3035 L560,532.9935 L562,533.0317 L564,533.312 L566,532.758 L568,533.3726 L568.348,533.7206 L565.6038,530.9764 L563.8757,529.2483 L562.2715,527.6441 L559.9461,525.3187 L558,523.3726 " fill="#FEFFDD" style="stroke:#181818;stroke-width:0.5;"/><text fill="#000000" font-family="sans-serif" font-size="13" lengthAdjust="spacing" textLength="23" x="530" y="542.2696">End</text><polygon fill="none" points="610.0608,539.9012,608.4484,542.1044,606.5412,545.3313,603.8136,547.506,600.9474,548.6952,598.662,548.7984,595.7247,547.3111,592.9532,546.3395,590.8495,544.3668,589.7461,542.1084,589.0917,540.3101,588.4506,537.9613,587.41,535.9401,588.2096,533.9666,588.9102,531.8048,591.5393,530.0951,593.389,527.8767,595.6784,527.14,598.4001,526.5056,601.8904,526.8826,603.8021,527.7841,606.0247,528.1928,608.7272,530.9616,609.6693,533.8845,610.0786,535.8789,609.615,539.1655" style="stroke:#222222;stroke-width:1.0;"/><polygon fill="#222222" points="605.0331,538.685,604.1536,539.8867,603.1134,541.6469,601.6256,542.8331,600.0622,543.4817,598.8156,543.538,597.2135,542.7268,595.7017,542.1968,594.5543,541.1208,593.9524,539.8889,593.5955,538.9081,593.2458,537.6269,592.6782,536.5244,593.1143,535.448,593.4965,534.2688,594.9305,533.3362,595.9394,532.1262,597.1882,531.7244,598.6728,531.3783,600.5766,531.5839,601.6193,532.0757,602.8317,532.2986,604.3057,533.8088,604.8196,535.4032,605.0429,536.4911,604.79,538.2837" style="stroke:#222222;stroke-width:1.0;"/><path d="M900.5,309.6593 L900.6868,309.6593 L900.1317,315.2005 L900.6718,320.7417 L900.8553,326.2829 L899.8659,331.8241 L900.5,337.3653 L900.5,337.3653 L900.5,337.1581 L910.587,336.228 L920.6739,336.3426 L930.7609,337.1836 L940.8478,335.5217 L950.9348,338.8417 L961.0217,335.6846 L971.1087,336.8379 L981.1957,338.5172 L991.2826,337.1366 L1001.3696,337.5473 L1011.4565,337.2801 L1021.5435,337.8414 L1031.6304,338.003 L1041.7174,338.9271 L1051.8043,339.1548 L1061.8913,339.1767 L1071.9783,338.0443 L1082.0652,338.6015 L1092.1522,339.2379 L1102.2391,335.4421 L1112.3261,339.1747 L1122.413,336.5746 L1132.5,337.3653 L1132.5,337.3653 L1132.9745,337.3653 L1132.06,335.4241 L1132.4391,333.4829 L1133.1592,331.5417 L1132.4567,329.6005 L1132.5,327.6593 L1132.519,327.7509 L1136.5611,327.1246 L1140.5751,326.3628 L1144.4993,325.1677 L1148.5518,324.5917 L1152.5,323.5123 L1152.4037,323.0127 L1148.5478,322.9899 L1144.5922,322.4496 L1140.5747,321.5885 L1136.6031,320.965 L1132.5,319.6593 L1132.1964,319.3556 L1130.0901,317.2494 L1128.1094,315.2687 L1126.463,313.6223 L1124.3765,311.5358 L1122.5,309.6593 L1122.5,311.4764 L1112.4091,309.1935 L1102.3182,308.7445 L1092.2273,310.268 L1082.1364,307.881 L1072.0455,308.275 L1061.9545,311.3898 L1051.8636,310.8211 L1041.7727,311.6179 L1031.6818,308.8012 L1021.5909,310.5105 L1011.5,311.2337 L1001.4091,308.3995 L991.3182,309.4037 L981.2273,309.9952 L971.1364,311.3973 L961.0455,309.6481 L950.9545,310.8928 L940.8636,308.1825 L930.7727,307.8533 L920.6818,311.0023 L910.5909,307.7474 L900.5,309.6593 L900.5,309.6593 " fill="#FEFFDD" style="stroke:#181818;stroke-width:0.5;"/><path d="M1122.5,309.6593 L1122.6868,309.6593 L1122.1317,311.6593 L1122.6718,313.6593 L1122.8553,315.6593 L1121.8659,317.6593 L1122.5,319.6593 L1122.5,319.5902 L1124.5,319.2802 L1126.5,319.3184 L1128.5,319.5987 L1130.5,319.0447 L1132.5,319.6593 L1132.848,320.0073 L1130.1038,317.2631 L1128.3757,315.535 L1126.7715,313.9308 L1124.4461,311.6054 L1122.5,309.6593 " fill="#FEFFDD" style="stroke:#181818;stroke-width:0.5;"/><text fill="#000000" font-family="sans-serif" font-size="13" lengthAdjust="spacing" textLength="211" x="906.5" y="328.5563">{"detail": "Invalid or expired token"}</text><polygon fill="#F1F1F1" points="1165,305.3402,1165,305.5504,1174.6429,304.9259,1184.2857,305.5335,1193.9286,305.7399,1203.5714,304.6268,1213.2143,305.2625,1222.8571,304.9137,1232.5,304.9567,1242.1429,305.2721,1251.7857,304.6489,1261.4286,305.8939,1271.0714,304.71,1280.7143,305.1425,1290.3571,305.7722,1300,305.3402,1299.9891,305.3138,1301.7765,306.0935,1303.5315,306.7949,1305.3261,307.5919,1307.1016,308.3428,1308.8388,309.0014,1309.0192,309.0761,1309.7777,310.8548,1310.5125,312.6236,1311.1139,314.3372,1311.9105,316.1316,1312.5,317.8402,1312.7341,317.8402,1312.2596,320.1091,1312.7262,322.3779,1312.4012,324.6467,1312.6779,326.9155,1312.5,329.1844,1312.3476,329.1212,1311.7467,330.9434,1311.2639,332.8145,1310.2883,334.4814,1309.6035,336.2689,1308.8388,338.0232,1308.882,338.1275,1307.1242,338.8836,1305.3028,339.4864,1303.5722,340.3083,1301.6947,340.7758,1300,341.6844,1300,341.9687,1290.3571,342.2325,1280.7143,342.1289,1271.0714,342.2974,1261.4286,341.2013,1251.7857,341.0322,1242.1429,341.0629,1232.5,341.6255,1222.8571,341.4878,1213.2143,342.3658,1203.5714,341.5097,1193.9286,341.3413,1184.2857,341.9126,1174.6429,341.0175,1165,341.6844,1164.9338,341.5245,1163.315,341.152,1161.52,340.3541,1159.7904,339.7138,1157.8879,338.6563,1156.1612,338.0232,1156.2595,338.0639,1155.6108,336.3307,1154.5512,334.4274,1153.9349,332.7077,1153.271,330.9682,1152.5,329.1844,1152.7173,329.1844,1152.4986,326.9155,1152.6542,324.6467,1152.3154,322.3779,1152.2742,320.1091,1152.5,317.8402,1152.6551,317.9045,1153.0114,315.981,1154.1212,314.3696,1154.7603,312.5633,1155.3464,310.735,1156.1612,309.0014,1156.116,308.8925,1157.9875,308.4104,1159.6585,307.4448,1161.54,306.987,1163.1617,305.9022,1165,305.3402" style="stroke:#181818;stroke-width:0.5;"/><text fill="#000000" font-family="sans-serif" font-size="12" lengthAdjust="spacing" textLength="140" x="1162.5" y="328.1683">Return 401 Unauthorized</text><path d="M1157.5,361.6844 L1157.6868,361.6844 L1157.1317,367.2256 L1157.6718,372.7668 L1157.8553,378.308 L1156.8659,383.8492 L1157.5,389.3904 L1157.5,389.3904 L1157.5,389.3213 L1166.3,389.0113 L1175.1,389.0495 L1183.9,389.3298 L1192.7,388.7758 L1201.5,389.3904 L1201.5,389.3904 L1201.9921,389.3904 L1200.9398,387.4492 L1201.3242,385.508 L1201.884,383.5668 L1201.4238,381.6256 L1201.5,379.6844 L1201.5123,379.7437 L1205.4942,378.8271 L1209.5322,378.1809 L1213.5432,377.4043 L1217.6057,376.8765 L1221.5,375.5374 L1221.6128,376.1231 L1217.6142,375.3596 L1213.5428,374.2184 L1209.578,373.6302 L1205.6181,373.0679 L1201.5,371.6844 L1201.0467,371.2311 L1199.9265,370.1108 L1197.3136,367.498 L1195.8355,366.0199 L1193.1889,363.3732 L1191.5,361.6844 L1191.5,361.6235 L1184.7,362.3436 L1177.9,361.641 L1171.1,361.778 L1164.3,361.9854 L1157.5,361.6844 L1157.5,361.6844 " fill="#FEFFDD" style="stroke:#181818;stroke-width:0.5;"/><path d="M1191.5,361.6844 L1191.6868,361.6844 L1191.1317,363.6844 L1191.6718,365.6844 L1191.8553,367.6844 L1190.8659,369.6844 L1191.5,371.6844 L1191.5,371.6153 L1193.5,371.3052 L1195.5,371.3435 L1197.5,371.6238 L1199.5,371.0698 L1201.5,371.6844 L1201.848,372.0323 L1199.1038,369.2882 L1197.3757,367.56 L1195.7715,365.9558 L1193.4461,363.6304 L1191.5,361.6844 " fill="#FEFFDD" style="stroke:#181818;stroke-width:0.5;"/><text fill="#000000" font-family="sans-serif" font-size="13" lengthAdjust="spacing" textLength="23" x="1163.5" y="380.5814">End</text><polygon fill="none" points="1243.5608,378.213,1241.9484,380.4162,1240.0412,383.6431,1237.3136,385.8178,1234.4474,387.007,1232.162,387.1102,1229.2247,385.6229,1226.4532,384.6513,1224.3495,382.6785,1223.2461,380.4201,1222.5917,378.6219,1221.9506,376.2731,1220.91,374.2518,1221.7096,372.2784,1222.4102,370.1166,1225.0393,368.4068,1226.889,366.1885,1229.1784,365.4518,1231.9001,364.8174,1235.3904,365.1943,1237.3021,366.0959,1239.5247,366.5045,1242.2272,369.2733,1243.1693,372.1963,1243.5786,374.1907,1243.115,377.4772" style="stroke:#222222;stroke-width:1.0;"/><polygon fill="#222222" points="1238.5331,376.9968,1237.6536,378.1985,1236.6134,379.9587,1235.1256,381.1448,1233.5622,381.7935,1232.3156,381.8498,1230.7135,381.0386,1229.2017,380.5086,1228.0543,379.4325,1227.4524,378.2007,1227.0955,377.2198,1226.7458,375.9386,1226.1782,374.8362,1226.6143,373.7597,1226.9965,372.5806,1228.4305,371.648,1229.4394,370.438,1230.6882,370.0361,1232.1728,369.6901,1234.0766,369.8957,1235.1193,370.3875,1236.3317,370.6104,1237.8057,372.1206,1238.3196,373.715,1238.5429,374.8028,1238.29,376.5955" style="stroke:#222222;stroke-width:1.0;"/><path d="M804.75,73.9209 L804.8434,73.9209 L804.5659,78.6915 L804.8359,83.4621 L804.9276,88.2327 L804.4329,93.0033 L804.75,97.7739 " fill="#181818" style="stroke:#181818;stroke-width:1.0;"/><polygon fill="#181818" points="800.75,87.7739,800.815,87.8,801.4218,89.7226,802.4098,91.7979,803.2737,93.8234,803.7292,95.6856,804.75,97.7739,804.7259,97.7643,805.418,95.7211,806.2313,93.7265,807.1289,91.7655,807.736,89.6883,808.75,87.7739,808.8805,87.9044,807.8014,88.4254,807.1034,89.3273,806.4518,90.2757,805.5298,90.9537,804.75,91.7739,804.7661,91.79,803.9425,90.9664,803.1921,90.216,802.4064,89.4303,801.688,88.712,800.75,87.7739" style="stroke:#181818;stroke-width:1.0;"/><path d="M804.75,134.118 L804.8434,134.118 L804.5659,139.0248 L804.8359,143.9316 L804.9276,148.8384 L804.4329,153.7452 L804.75,158.652 " fill="#181818" style="stroke:#181818;stroke-width:1.0;"/><polygon fill="#181818" points="800.75,148.652,800.815,148.678,801.4218,150.6007,802.4098,152.6759,803.2737,154.7015,803.7292,156.5637,804.75,158.652,804.7259,158.6424,805.418,156.5992,806.2313,154.6045,807.1289,152.6436,807.736,150.5664,808.75,148.652,808.8805,148.7825,807.8014,149.3034,807.1034,150.2054,806.4518,151.1538,805.5298,151.8318,804.75,152.652,804.7661,152.6681,803.9425,151.8445,803.1921,151.0941,802.4064,150.3084,801.688,149.5901,800.75,148.652" style="stroke:#181818;stroke-width:1.0;"/><path d="M804.75,194.9961 L804.8434,194.9961 L804.5659,198.9961 L804.8359,202.9961 L804.9276,206.9961 L804.4329,210.9961 L804.75,214.9961 " fill="#181818" style="stroke:#181818;stroke-width:1.0;"/><polygon fill="#181818" points="800.75,204.9961,800.815,205.0221,801.4218,206.9448,802.4098,209.02,803.2737,211.0456,803.7292,212.9078,804.75,214.9961,804.7259,214.9865,805.418,212.9433,806.2313,210.9486,807.1289,208.9877,807.736,206.9105,808.75,204.9961,808.8805,205.1266,807.8014,205.6476,807.1034,206.5495,806.4518,207.4979,805.5298,208.1759,804.75,208.9961,804.7661,209.0122,803.9425,208.1886,803.1921,207.4382,802.4064,206.6525,801.688,205.9342,800.75,204.9961" style="stroke:#181818;stroke-width:1.0;"/><path d="M377,341.6844 L377.0934,341.6844 L376.8159,345.6844 L377.0859,349.6844 L377.1776,353.6844 L376.6829,357.6844 L377,361.6844 " fill="#181818" style="stroke:#181818;stroke-width:1.0;"/><polygon fill="#181818" points="373,351.6844,373.065,351.7104,373.6718,353.6331,374.6598,355.7083,375.5237,357.7338,375.9792,359.596,377,361.6844,376.9759,361.6747,377.668,359.6316,378.4813,357.6369,379.3789,355.6759,379.986,353.5988,381,351.6844,381.1305,351.8148,380.0514,352.3358,379.3534,353.2377,378.7018,354.1862,377.7798,354.8641,377,355.6844,377.0161,355.7004,376.1925,354.8768,375.4421,354.1264,374.6564,353.3407,373.938,352.6224,373,351.6844" style="stroke:#181818;stroke-width:1.0;"/><path d="M155,546.0246 L155.2802,546.0246 L154.4476,555.7311 L155.2577,565.4376 L155.5329,575.1441 L154.0488,584.8506 L154.8964,594.5571 L154.4313,604.2636 L154.4887,613.9701 L155,623.6766 " fill="#181818" style="stroke:#181818;stroke-width:1.0;"/><polygon fill="#181818" points="151,613.6766,151.065,613.7026,151.6718,615.6253,152.6598,617.7005,153.5237,619.7261,153.9792,621.5883,155,623.6766,154.9759,623.667,155.668,621.6238,156.4813,619.6291,157.3789,617.6682,157.986,615.591,159,613.6766,159.1305,613.8071,158.0514,614.328,157.3534,615.23,156.7018,616.1784,155.7798,616.8564,155,617.6766,155.0161,617.6927,154.1925,616.8691,153.4421,616.1187,152.6564,615.333,151.938,614.6146,151,613.6766" style="stroke:#181818;stroke-width:1.0;"/><path d="M599,488.3726 L599.0934,488.3726 L598.8159,495.9432 L599.0859,503.5138 L599.1776,511.0844 L598.6829,518.655 L599,526.2256 " fill="#181818" style="stroke:#181818;stroke-width:1.0;"/><polygon fill="#181818" points="595,516.2256,595.065,516.2516,595.6718,518.1743,596.6598,520.2495,597.5237,522.2751,597.9792,524.1373,599,526.2256,598.9759,526.216,599.668,524.1728,600.4813,522.1781,601.3789,520.2171,601.986,518.14,603,516.2256,603.1305,516.3561,602.0514,516.877,601.3534,517.779,600.7018,518.7274,599.7798,519.4054,599,520.2256,599.0161,520.2417,598.1925,519.4181,597.4421,518.6677,596.6564,517.882,595.938,517.1636,595,516.2256" style="stroke:#181818;stroke-width:1.0;"/><path d="M334.5,430.0285 L334.5,430.3087 L324.5278,429.476 L314.5556,430.2862 L304.5833,430.5614 L294.6111,429.0773 L284.6389,429.9248 L274.6667,429.4598 L264.6944,429.5171 L254.7222,429.9376 L244.75,429.1066 L234.7778,430.7667 L224.8056,429.1881 L214.8333,429.7648 L204.8611,430.6044 L194.8889,429.9141 L184.9167,430.1194 L174.9444,429.9859 L164.9722,430.2665 L155,430.0285 " fill="#181818" style="stroke:#181818;stroke-width:1.0;"/><path d="M155,430.0285 L155.2802,430.0285 L154.4476,439.985 L155.2577,449.9415 L155.5329,459.898 L154.0488,469.8545 L154.8964,479.811 L154.4313,489.7675 L154.4887,499.724 L155,509.6805 " fill="#181818" style="stroke:#181818;stroke-width:1.0;"/><polygon fill="#181818" points="151,499.6805,151.065,499.7065,151.6718,501.6292,152.6598,503.7044,153.5237,505.73,153.9792,507.5922,155,509.6805,154.9759,509.6709,155.668,507.6277,156.4813,505.633,157.3789,503.672,157.986,501.5949,159,499.6805,159.1305,499.811,158.0514,500.3319,157.3534,501.2339,156.7018,502.1823,155.7798,502.8603,155,503.6805,155.0161,503.6966,154.1925,502.8729,153.4421,502.1226,152.6564,501.3368,151.938,500.6185,151,499.6805" style="stroke:#181818;stroke-width:1.0;"/><path d="M419.5,430.0285 L419.5,430.3087 L429.4722,429.476 L439.4444,430.2862 L449.4167,430.5614 L459.3889,429.0773 L469.3611,429.9248 L479.3333,429.4598 L489.3056,429.5171 L499.2778,429.9376 L509.25,429.1066 L519.2222,430.7667 L529.1944,429.1881 L539.1667,429.7648 L549.1389,430.6044 L559.1111,429.9141 L569.0833,430.1194 L579.0556,429.9859 L589.0278,430.2665 L599,430.0285 " fill="#181818" style="stroke:#181818;stroke-width:1.0;"/><path d="M599,430.0285 L599.0934,430.0285 L598.8159,434.4285 L599.0859,438.8285 L599.1776,443.2285 L598.6829,447.6285 L599,452.0285 " fill="#181818" style="stroke:#181818;stroke-width:1.0;"/><polygon fill="#181818" points="595,442.0285,595.065,442.0545,595.6718,443.9772,596.6598,446.0524,597.5237,448.0779,597.9792,449.9401,599,452.0285,598.9759,452.0188,599.668,449.9757,600.4813,447.981,601.3789,446.02,601.986,443.9429,603,442.0285,603.1305,442.159,602.0514,442.6799,601.3534,443.5819,600.7018,444.5303,599.7798,445.2082,599,446.0285,599.0161,446.0445,598.1925,445.2209,597.4421,444.4705,596.6564,443.6848,595.938,442.9665,595,442.0285" style="stroke:#181818;stroke-width:1.0;"/><path d="M377,398.0285 L377.0934,398.0285 L376.8159,402.0285 L377.0859,406.0285 L377.1776,410.0285 L376.6829,414.0285 L377,418.0285 " fill="#181818" style="stroke:#181818;stroke-width:1.0;"/><polygon fill="#181818" points="373,408.0285,373.065,408.0545,373.6718,409.9772,374.6598,412.0524,375.5237,414.0779,375.9792,415.9401,377,418.0285,376.9759,418.0188,377.668,415.9757,378.4813,413.981,379.3789,412.02,379.986,409.9429,381,408.0285,381.1305,408.159,380.0514,408.6799,379.3534,409.5819,378.7018,410.5303,377.7798,411.2082,377,412.0285,377.0161,412.0445,376.1925,411.2209,375.4421,410.4705,374.6564,409.6848,373.938,408.9665,373,408.0285" style="stroke:#181818;stroke-width:1.0;"/><path d="M1232.5,341.6844 L1232.5934,341.6844 L1232.3159,346.255 L1232.5859,350.8256 L1232.6776,355.3962 L1232.1829,359.9668 L1232.5,364.5374 " fill="#181818" style="stroke:#181818;stroke-width:1.0;"/><polygon fill="#181818" points="1228.5,354.5374,1228.565,354.5634,1229.1718,356.4861,1230.1598,358.5613,1231.0237,360.5868,1231.4792,362.449,1232.5,364.5374,1232.4759,364.5277,1233.168,362.4846,1233.9813,360.4899,1234.8789,358.5289,1235.486,356.4518,1236.5,354.5374,1236.6305,354.6679,1235.5514,355.1888,1234.8534,356.0907,1234.2018,357.0392,1233.2798,357.7171,1232.5,358.5374,1232.5161,358.5534,1231.6925,357.7298,1230.9421,356.9794,1230.1564,356.1937,1229.438,355.4754,1228.5,354.5374" style="stroke:#181818;stroke-width:1.0;"/><path d="M754.75,283.3402 L754.75,283.6205 L744.8092,282.7878 L734.8684,283.598 L724.9276,283.8731 L714.9868,282.389 L705.0461,283.2366 L695.1053,282.7716 L685.1645,282.8289 L675.2237,283.2494 L665.2829,282.4184 L655.3421,284.0784 L645.4013,282.4999 L635.4605,283.0765 L625.5197,283.9162 L615.5789,283.2259 L605.6382,283.4312 L595.6974,283.2976 L585.7566,283.5783 L575.8158,283.6591 L565.875,284.1212 L555.9342,284.235 L545.9934,284.2459 L536.0526,283.6797 L526.1118,283.9583 L516.1711,284.2765 L506.2303,282.3787 L496.2895,284.2449 L486.3487,282.9449 L476.4079,284.052 L466.4671,282.6802 L456.5263,283.2489 L446.5855,284.329 L436.6447,283.2753 L426.7039,283.4806 L416.7632,283.7917 L406.8224,283.8952 L396.8816,283.335 L386.9408,283.7232 L377,283.3402 " fill="#181818" style="stroke:#181818;stroke-width:1.0;"/><path d="M377,283.3402 L377.0934,283.3402 L376.8159,287.7402 L377.0859,292.1402 L377.1776,296.5402 L376.6829,300.9402 L377,305.3402 " fill="#181818" style="stroke:#181818;stroke-width:1.0;"/><polygon fill="#181818" points="373,295.3402,373.065,295.3663,373.6718,297.2889,374.6598,299.3642,375.5237,301.3897,375.9792,303.2519,377,305.3402,376.9759,305.3306,377.668,303.2874,378.4813,301.2928,379.3789,299.3318,379.986,297.2546,381,295.3402,381.1305,295.4707,380.0514,295.9917,379.3534,296.8936,378.7018,297.842,377.7798,298.52,377,299.3402,377.0161,299.3563,376.1925,298.5327,375.4421,297.7823,374.6564,296.9966,373.938,296.2783,373,295.3402" style="stroke:#181818;stroke-width:1.0;"/><path d="M854.75,283.3402 L854.75,283.6205 L864.6908,282.7878 L874.6316,283.598 L884.5724,283.8731 L894.5132,282.389 L904.4539,283.2366 L914.3947,282.7716 L924.3355,282.8289 L934.2763,283.2494 L944.2171,282.4184 L954.1579,284.0784 L964.0987,282.4999 L974.0395,283.0765 L983.9803,283.9162 L993.9211,283.2259 L1003.8618,283.4312 L1013.8026,283.2976 L1023.7434,283.5783 L1033.6842,283.6591 L1043.625,284.1212 L1053.5658,284.235 L1063.5066,284.2459 L1073.4474,283.6797 L1083.3882,283.9583 L1093.3289,284.2765 L1103.2697,282.3787 L1113.2105,284.2449 L1123.1513,282.9449 L1133.0921,284.052 L1143.0329,282.6802 L1152.9737,283.2489 L1162.9145,284.329 L1172.8553,283.2753 L1182.7961,283.4806 L1192.7368,283.7917 L1202.6776,283.8952 L1212.6184,283.335 L1222.5592,283.7232 L1232.5,283.3402 " fill="#181818" style="stroke:#181818;stroke-width:1.0;"/><path d="M1232.5,283.3402 L1232.5934,283.3402 L1232.3159,287.7402 L1232.5859,292.1402 L1232.6776,296.5402 L1232.1829,300.9402 L1232.5,305.3402 " fill="#181818" style="stroke:#181818;stroke-width:1.0;"/><polygon fill="#181818" points="1228.5,295.3402,1228.565,295.3663,1229.1718,297.2889,1230.1598,299.3642,1231.0237,301.3897,1231.4792,303.2519,1232.5,305.3402,1232.4759,305.3306,1233.168,303.2874,1233.9813,301.2928,1234.8789,299.3318,1235.486,297.2546,1236.5,295.3402,1236.6305,295.4707,1235.5514,295.9917,1234.8534,296.8936,1234.2018,297.842,1233.2798,298.52,1232.5,299.3402,1232.5161,299.3563,1231.6925,298.5327,1230.9421,297.7823,1230.1564,296.9966,1229.438,296.2783,1228.5,295.3402" style="stroke:#181818;stroke-width:1.0;"/><path d="M804.75,251.3402 L804.8434,251.3402 L804.5659,255.3402 L804.8359,259.3402 L804.9276,263.3402 L804.4329,267.3402 L804.75,271.3402 " fill="#181818" style="stroke:#181818;stroke-width:1.0;"/><polygon fill="#181818" points="800.75,261.3402,800.815,261.3663,801.4218,263.2889,802.4098,265.3642,803.2737,267.3897,803.7292,269.2519,804.75,271.3402,804.7259,271.3306,805.418,269.2874,806.2313,267.2928,807.1289,265.3318,807.736,263.2546,808.75,261.3402,808.8805,261.4707,807.8014,261.9917,807.1034,262.8936,806.4518,263.842,805.5298,264.52,804.75,265.3402,804.7661,265.3563,803.9425,264.5327,803.1921,263.7823,802.4064,262.9966,801.688,262.2783,800.75,261.3402" style="stroke:#181818;stroke-width:1.0;"/><!--SRC=[ZLBBRjim4BppAnOwEKPHAqLEik4YJfnNWGH8xFPOqE8g8YoJBhbCuWRvzvAK8bkrWvO03zmTpWnsnowbMdF3Lr1o9PwD9485P1mosxP8KeKJRGGQE3vSFzELDh2eUBvaiGpz_iYDBv7Wp1c3Yc1k_VVJFDVEFoQyuYf7E4VYihAZWHlt-unPueQOqeHWv6D96Jp4IdQFESedXClf30p-ScW9ICE0rtnsi49ubbJ2gQDI6_cRazGAIkJUtB1chB0W1lvqCLSHayNE1BdnBaStFsOmqqjKOuPAGFZEikaB6PuJX2Q59XH6hpvGpBwZaSLc2nuoMK0laeAqyCGhARuU0PN-tTkWFOe6MX7df_LJYbfYXoI2Bf3oCa90r0EiSO8JNt2BlYNLupj7_IcennNWYxHazwKZypsICmg-f2dSVQid6cMQESEYsLiZEsn_RdVMbiAvURYxXOaMcwnJVlMtKmWdQVmc6IJp-VLvycaVqlZu1wfn6I3fvpHD3s7o6Cjy4q2JAqy37wlvM9Ap0UbNusEOTA1lxQlDodl1abvtHnH2cC5KYLZ6oY-hf_J-1axI4xZL11VUW3WqvWnUateBSH9XIRu9HS0dR__lG0bPiAwFhOTZc2lUv1iR6piakmwkLOmqw92mjJGewiWsNbeVVtc8-dy0]--></g></svg>