<?xml version="1.0" encoding="us-ascii" standalone="no"?><svg xmlns="http://www.w3.org/2000/svg" xmlns:xlink="http://www.w3.org/1999/xlink" contentStyleType="text/css" height="762px" preserveAspectRatio="none" style="width:1726px;height:762px;background:#FFFFFF;" version="1.1" viewBox="0 0 1726 762" width="1726px" zoomAndPan="magnify"><defs/><g><polygon fill="none" points="690.5,15,690.5,15.2102,700.5735,14.5857,710.6471,15.1933,720.7206,15.3997,730.7941,14.2866,740.8676,14.9223,750.9412,14.5735,761.0147,14.6165,771.0882,14.9318,781.1618,14.3086,791.2353,15.5536,801.3088,14.3697,811.3824,14.8022,821.4559,15.4319,831.5294,14.9142,841.6029,15.0682,851.6765,14.9681,861.75,15.1785,871.8235,15.2391,881.8971,15.5857,891.9706,15.6711,902.0441,15.6793,912.1176,15.2546,922.1912,15.4636,932.2647,15.7022,942.3382,14.2788,952.4118,15.6785,962.4853,14.7035,972.5588,15.5338,982.6324,14.505,992.7059,14.9315,1002.7794,15.7416,1012.8529,14.9513,1022.9265,15.1053,1033,15,1033.1129,15,1033.1387,20.8136,1032.9987,26.6272,1033.0957,32.4408,1032.8092,38.2543,1033,44.0679,1033,44.3523,1022.9265,44.6161,1012.8529,44.5124,1002.7794,44.6809,992.7059,43.5848,982.6324,43.4157,972.5588,43.4465,962.4853,44.009,952.4118,43.8714,942.3382,44.7493,932.2647,43.8932,922.1912,43.7249,912.1176,44.2962,902.0441,43.4011,891.9706,43.5488,881.8971,44.7169,871.8235,44.5036,861.75,44.8024,851.6765,43.7461,841.6029,44.3871,831.5294,44.6583,821.4559,43.5955,811.3824,43.9721,801.3088,44.1939,791.2353,44.7197,781.1618,44.0637,771.0882,44.5305,761.0147,43.5141,750.9412,43.3907,740.8676,44.5715,730.7941,43.351,720.7206,44.5769,710.6471,44.2745,700.5735,43.8,690.5,44.0679,690.3821,44.0679,690.6529,38.2543,690.4002,32.4408,690.6973,26.6272,690.3158,20.8136,690.5,15" style="stroke:#000000;stroke-width:1.0;"/><text fill="#000000" font-family="sans-serif" font-size="14" font-weight="bold" lengthAdjust="spacing" text-decoration="underline" textLength="332.5" x="695.5" y="34.9659">Admin Gets Selected User Transactions History</text><path d="M1038.375,50.0679 L1038.5618,50.0679 L1038.0067,52.0385 L1038.5468,54.0091 L1038.7303,55.9797 L1037.7409,57.9503 L1038.375,59.9209 L1038.3615,59.8532 L1034.3007,60.3492 L1030.3081,61.1867 L1026.3631,62.2615 L1022.2545,62.5183 L1018.375,63.9209 L1018.4715,64.4035 L1022.2651,64.1716 L1026.3405,65.3485 L1030.4503,66.6974 L1034.36,67.0462 L1038.375,67.9209 L1038.4357,67.9209 L1038.3466,69.8915 L1038.5337,71.8621 L1038.5876,73.8327 L1038.8956,75.8033 L1038.375,77.7739 L1038.375,77.7739 L1038.375,79.5634 L1048.375,79.5853 L1058.375,78.4529 L1068.375,79.0102 L1078.375,79.6466 L1088.375,77.7739 L1088.375,77.7739 L1087.7339,77.7739 L1088.9781,74.2327 L1088.1114,70.6915 L1088.8495,67.1503 L1087.935,63.6091 L1088.375,60.0679 L1088.3319,60.0249 L1086.8411,58.534 L1084.3444,56.0373 L1082.4412,54.1341 L1080.5878,52.2808 L1078.375,50.0679 L1078.375,50.4379 L1070.375,50.0644 L1062.375,50.3232 L1054.375,49.5591 L1046.375,50.3207 L1038.375,50.0679 L1038.375,50.0679 " fill="#FEFFDD" style="stroke:#181818;stroke-width:0.5;"/><path d="M1078.375,50.0679 L1078.5618,50.0679 L1078.0067,52.0679 L1078.5468,54.0679 L1078.7303,56.0679 L1077.7409,58.0679 L1078.375,60.0679 L1078.375,59.9988 L1080.375,59.6888 L1082.375,59.727 L1084.375,60.0073 L1086.375,59.4534 L1088.375,60.0679 L1088.723,60.4159 L1085.9788,57.6718 L1084.2507,55.9436 L1082.6465,54.3394 L1080.3211,52.014 L1078.375,50.0679 " fill="#FEFFDD" style="stroke:#181818;stroke-width:0.5;"/><text fill="#000000" font-family="sans-serif" font-size="13" lengthAdjust="spacing" textLength="29" x="1044.375" y="68.9649">Start</text><polygon fill="#222222" points="1018.4302,66.3533,1016.9644,68.3562,1015.2306,71.2897,1012.751,73.2667,1010.1453,74.3478,1008.0677,74.4417,1005.3974,73.0896,1002.8779,72.2063,1000.9655,70.4129,999.9623,68.3598,999.3674,66.725,998.7846,64.5897,997.8386,62.7523,998.5656,60.9582,999.2025,58.9929,1001.5925,57.4386,1003.2741,55.4219,1005.3554,54.7522,1007.8297,54.1755,1011.0026,54.5182,1012.7405,55.3378,1014.7611,55.7093,1017.2179,58.2264,1018.0743,60.8836,1018.4464,62.6967,1018.025,65.6844" style="stroke:#222222;stroke-width:1.0;"/><polygon fill="#F1F1F1" points="807.875,97.7739,807.875,97.9841,817.9,97.3596,827.925,97.9672,837.95,98.1736,847.975,97.0605,858,97.6962,868.025,97.3474,878.05,97.3904,888.075,97.7058,898.1,97.0826,908.125,98.3276,918.15,97.1437,928.175,97.5762,938.2,98.2059,948.225,97.6882,958.25,97.8422,968.275,97.742,978.3,97.9525,988.325,98.0131,998.35,98.3596,1008.375,98.445,1018.4,98.4532,1028.425,98.0286,1038.45,98.2375,1048.475,98.4762,1058.5,97.0527,1068.525,98.4524,1078.55,97.4774,1088.575,98.3077,1098.6,97.2789,1108.625,97.7054,1118.65,98.5155,1128.675,97.7252,1138.7,97.8792,1148.725,98.1126,1158.75,98.1902,1168.775,97.77,1178.8,98.0611,1188.825,97.2015,1198.85,98.0583,1208.875,97.7739,1208.9449,97.9428,1210.6995,98.6431,1212.4887,99.4272,1214.1167,99.8219,1215.8629,100.502,1217.7138,101.4351,1217.5225,101.3558,1218.4279,103.1954,1219.1178,104.9456,1220.1204,106.8253,1220.589,108.4839,1221.375,110.2739,1221.2606,110.2739,1221.4511,112.5428,1221.1527,114.8116,1221.202,117.0804,1221.5913,119.3492,1221.375,121.618,1221.5092,121.6736,1220.869,123.4795,1219.8114,125.1125,1219.2766,126.9621,1218.6279,128.7644,1217.7138,130.4569,1217.6536,130.3114,1215.9338,131.1596,1214.1944,131.9601,1212.4937,132.8543,1210.6422,133.3845,1208.875,134.118,1208.875,134.5806,1198.85,133.5643,1188.825,133.4408,1178.8,134.6217,1168.775,133.4011,1158.75,134.627,1148.725,134.3247,1138.7,133.8501,1128.675,133.7643,1118.65,134.5768,1108.625,133.8187,1098.6,134.7099,1088.575,133.5653,1078.55,134.7355,1068.525,134.6024,1058.5,134.363,1048.475,134.1653,1038.45,134.8447,1028.425,134.7316,1018.4,134.2873,1008.375,134.3862,998.35,133.9878,988.325,134.8345,978.3,134.2729,968.275,134.2906,958.25,133.5097,948.225,133.7128,938.2,134.6488,928.175,134.5478,918.15,134.0751,908.125,133.7959,898.1,133.8991,888.075,133.4319,878.05,134.5328,868.025,134.8576,858,134.6444,847.975,134.813,837.95,133.9813,827.925,134.2053,817.9,133.7305,807.875,134.118,807.9112,134.2055,806.1387,133.4618,804.4099,132.8237,802.5424,131.8506,800.7868,131.1477,799.0362,130.4569,799.1727,130.5135,798.4786,128.7615,797.4139,126.856,796.7798,125.1288,796.1532,123.4049,795.375,121.618,795.1714,121.618,795.4928,119.3492,795.461,117.0804,795.3414,114.8116,795.4224,112.5428,795.375,110.2739,795.5994,110.3669,796.0109,108.4663,796.9365,106.7786,797.6597,105.0071,798.3396,103.2176,799.0362,101.4351,799.0541,101.4785,800.8184,100.7378,802.4921,99.7784,804.2883,99.115,806.0484,98.364,807.875,97.7739" style="stroke:#181818;stroke-width:0.5;"/><text fill="#000000" font-family="sans-serif" font-size="12" lengthAdjust="spacing" textLength="406" x="805.375" y="120.602">Receive GET request to /transactions/{user_id} with Authorization header</text><polygon fill="#F1F1F1" points="890.375,154.118,890.375,154.3282,900.2083,153.7037,910.0417,154.3113,919.875,154.5177,929.7083,153.4047,939.5417,154.0403,949.375,153.6916,959.2083,153.7345,969.0417,154.0499,978.875,153.4267,988.7083,154.6717,998.5417,153.4878,1008.375,153.9203,1018.2083,154.55,1028.0417,154.0323,1037.875,154.1863,1047.7083,154.0861,1057.5417,154.2966,1067.375,154.3572,1077.2083,154.7037,1087.0417,154.7891,1096.875,154.7973,1106.7083,154.3727,1116.5417,154.5816,1126.375,154.118,1126.4646,154.3343,1128.0508,154.6282,1129.9971,155.7915,1131.6405,156.2234,1133.5142,157.2114,1135.2138,157.7792,1135.0614,157.7161,1135.925,159.5382,1136.9067,161.4093,1137.3955,163.0763,1138.1752,164.8637,1138.875,166.618,1138.9879,166.618,1139.0137,168.8869,1138.8737,171.1557,1138.9707,173.4245,1138.6842,175.6933,1138.875,177.9622,1138.9626,177.9984,1138.3116,179.7999,1137.5474,181.5544,1136.8671,183.3437,1135.7973,184.9716,1135.2138,186.801,1135.1306,186.6002,1133.3668,187.3419,1131.6708,188.2473,1129.8855,188.9372,1128.2297,189.9398,1126.375,190.4622,1126.375,190.2875,1116.5417,190.1191,1106.7083,190.6904,1096.875,189.7953,1087.0417,189.943,1077.2083,191.1111,1067.375,190.8978,1057.5417,191.1967,1047.7083,190.1404,1037.875,190.7814,1028.0417,191.0526,1018.2083,189.9898,1008.375,190.3663,998.5417,190.5881,988.7083,191.1139,978.875,190.458,969.0417,190.9247,959.2083,189.9084,949.375,189.7849,939.5417,190.9658,929.7083,189.7452,919.875,190.9711,910.0417,190.6688,900.2083,190.1942,890.375,190.4622,890.3299,190.3532,888.6658,189.8712,886.8013,188.9055,885.1472,188.4477,883.2334,187.363,881.5362,186.801,881.7263,186.8798,880.9531,185.095,880.1471,183.2967,879.354,181.5037,878.831,179.8226,877.875,177.9622,878.0795,177.9622,877.9314,175.6933,877.9644,173.4245,877.8316,171.1557,878.1138,168.8869,877.875,166.618,877.9227,166.6378,878.6604,164.8723,879.1521,163.0049,879.9469,161.2631,880.9674,159.6147,881.5362,157.7792,881.591,157.9116,883.2985,157.0338,885.0306,156.2155,886.8115,155.5151,888.5197,154.639,890.375,154.118" style="stroke:#181818;stroke-width:0.5;"/><text fill="#000000" font-family="sans-serif" font-size="12" lengthAdjust="spacing" textLength="241" x="887.875" y="176.9461">Run Authorization Token Validation Process</text><polygon fill="#F1F1F1" points="898.875,210.4622,898.875,210.6723,908.8295,210.0478,918.7841,210.6554,928.7386,210.8618,938.6932,209.7488,948.6477,210.3844,958.6023,210.0357,968.5568,210.0787,978.5114,210.394,988.4659,209.7708,998.4205,211.0158,1008.375,209.8319,1018.3295,210.2644,1028.2841,210.8941,1038.2386,210.3764,1048.1932,210.5304,1058.1477,210.4302,1068.1023,210.6407,1078.0568,210.7013,1088.0114,211.0479,1097.9659,211.1332,1107.9205,211.1414,1117.875,210.4622,1117.9075,210.5406,1119.7019,211.3372,1121.5001,212.1429,1123.0863,212.4368,1125.0326,213.6,1126.7138,214.1233,1126.6225,214.0855,1127.6105,215.9592,1128.0259,217.5957,1128.8894,219.4179,1129.8712,221.289,1130.375,222.9622,1130.3588,222.9622,1130.4101,225.231,1130.4879,227.4998,1130.5137,229.7686,1130.3737,232.0375,1130.375,234.3063,1130.4635,234.3429,1129.4665,236.001,1128.9981,237.8781,1128.3471,239.6795,1127.583,241.434,1126.7138,243.1451,1126.792,243.3339,1124.8844,243.7286,1123.0951,244.4087,1121.3313,245.1504,1119.6353,246.0559,1117.875,246.8063,1117.875,246.6097,1107.9205,247.4877,1097.9659,246.6316,1088.0114,246.4632,1078.0568,247.0345,1068.1023,246.1394,1058.1477,246.2872,1048.1932,247.4552,1038.2386,247.2419,1028.2841,247.5408,1018.3295,246.4845,1008.375,247.1255,998.4205,247.3967,988.4659,246.3339,978.5114,246.7104,968.5568,246.9323,958.6023,247.458,948.6477,246.8021,938.6932,247.2688,928.7386,246.2525,918.7841,246.129,908.8295,247.3099,898.875,246.8063,898.7835,246.5855,897.1722,246.2308,895.3658,245.4054,893.5375,244.5271,891.7588,243.7684,890.0362,243.1451,890.1774,243.2036,889.2117,241.3392,888.754,239.6851,887.6692,237.7713,887.2974,236.1528,886.375,234.3063,886.5364,234.3063,886.4567,232.0375,886.3907,229.7686,886.6172,227.4998,886.5795,225.231,886.375,222.9622,886.4271,222.9838,887.1898,221.2286,887.7993,219.41,888.7923,217.7503,889.3516,215.9108,890.0362,214.1233,890.0582,214.1765,891.7263,213.2037,893.52,212.5341,895.4072,212.0901,897.1621,211.3267,898.875,210.4622" style="stroke:#181818;stroke-width:0.5;"/><text fill="#000000" font-family="sans-serif" font-size="12" lengthAdjust="spacing" textLength="224" x="896.375" y="233.2903">Validate request body for required fields</text><polygon fill="#F1F1F1" points="839.875,266.8063,839.875,267.0165,849.7868,266.392,859.6985,266.9996,869.6103,267.206,879.5221,266.0929,889.4338,266.7286,899.3456,266.3798,909.2574,266.4228,919.1691,266.7381,929.0809,266.1149,938.9926,267.3599,948.9044,266.176,958.8162,266.6085,968.7279,267.2382,978.6397,266.7205,988.5515,266.8745,998.4632,266.7743,1008.375,266.9848,1018.2868,267.0454,1028.1985,267.392,1038.1103,267.4773,1048.0221,267.4855,1057.9338,267.0609,1067.8456,267.2699,1077.7574,267.5085,1087.6691,266.0851,1097.5809,267.4848,1107.4926,266.5098,1117.4044,267.3401,1127.3162,266.3113,1137.2279,266.7378,1147.1397,267.5479,1157.0515,266.7575,1166.9632,266.9116,1176.875,266.8063,1176.9548,266.8861,1179.3731,269.3044,1181.6741,271.6054,1184.1427,274.074,1186.3401,276.2714,1188.875,278.8063,1188.942,278.8733,1186.6042,281.3355,1184.1798,283.7111,1181.8195,286.1508,1179.1611,288.2924,1176.875,290.8063,1176.875,290.1541,1166.9632,290.1849,1157.0515,290.7474,1147.1397,290.6097,1137.2279,291.4877,1127.3162,290.6316,1117.4044,290.4632,1107.4926,291.0345,1097.5809,290.1394,1087.6691,290.2872,1077.7574,291.4552,1067.8456,291.2419,1057.9338,291.5408,1048.0221,290.4845,1038.1103,291.1255,1028.1985,291.3967,1018.2868,290.3339,1008.375,290.7104,998.4632,290.9323,988.5515,291.458,978.6397,290.8021,968.7279,291.2688,958.8162,290.2525,948.9044,290.129,938.9926,291.3099,929.0809,290.0893,919.1691,291.3152,909.2574,291.0129,899.3456,290.5384,889.4338,290.4525,879.5221,291.265,869.6103,290.5069,859.6985,291.3981,849.7868,290.2535,839.875,290.8063,840.0205,290.9518,837.5892,288.5204,835.1327,286.064,832.6861,283.6174,830.4463,281.3775,827.875,278.8063,828.0196,278.9509,830.3149,276.4462,832.7382,274.0695,835.0443,271.5756,837.6439,269.3751,839.875,266.8063" style="stroke:#181818;stroke-width:0.5;"/><text fill="#000000" font-family="sans-serif" font-size="11" lengthAdjust="spacing" textLength="337" x="839.875" y="283.0742">Authorizationn is successful and authenticated user is an admin?</text><text fill="#000000" font-family="sans-serif" font-size="11" lengthAdjust="spacing" textLength="17" x="810.875" y="275.5833">yes</text><text fill="#000000" font-family="sans-serif" font-size="11" lengthAdjust="spacing" textLength="14" x="1188.875" y="275.5833">no</text><polygon fill="#F1F1F1" points="290.75,300.8063,290.75,301.0165,300.8056,300.392,310.8611,300.9996,320.9167,301.206,330.9722,300.0929,341.0278,300.7286,351.0833,300.3798,361.1389,300.4228,371.1944,300.7381,381.25,300.1149,391.3056,301.3599,401.3611,300.176,411.4167,300.6085,421.4722,301.2382,431.5278,300.7205,441.5833,300.8745,451.6389,300.7743,461.6944,300.9848,471.75,300.8063,471.7805,300.8799,473.5925,301.7189,475.3711,302.4774,477.1399,303.2122,478.8535,303.8136,480.5888,304.4674,480.7316,304.5266,481.5373,306.3248,481.8312,307.911,482.9945,309.8573,483.4265,311.5007,484.25,313.3063,484.4279,313.3063,484.085,315.5751,484.2272,317.8439,484.4972,320.1127,484.2338,322.3816,484.25,324.6504,484.2824,324.6638,483.6221,326.4614,482.9137,328.239,482.0521,329.9532,481.4095,331.7581,480.5888,333.4892,480.5158,333.3129,478.8573,334.309,477.1232,335.1225,475.3422,335.8228,473.596,336.6069,471.75,337.1504,471.75,336.6673,461.6944,336.4982,451.6389,336.529,441.5833,337.0915,431.5278,336.9539,421.4722,337.8318,411.4167,336.9757,401.3611,336.8073,391.3056,337.3787,381.25,336.4836,371.1944,336.6313,361.1389,337.7993,351.0833,337.5861,341.0278,337.8849,330.9722,336.8286,320.9167,337.4696,310.8611,337.7408,300.8056,336.678,290.75,337.1504,290.7378,337.1209,288.9983,336.457,287.2976,335.8866,285.4462,334.9524,283.7379,334.3639,281.9112,333.4892,281.7406,333.4186,280.9704,331.6351,280.6018,330.0179,279.4937,328.0945,279.139,326.4831,278.25,324.6504,278.3189,324.6504,278.1607,322.3816,278.1321,320.1127,278.4029,317.8439,278.1502,315.5751,278.25,313.3063,278.4323,313.3818,278.812,311.468,279.9046,309.8495,280.5958,308.0648,281.2544,306.2665,281.9112,304.4674,281.9172,304.482,283.7716,303.959,285.525,303.1919,287.2361,302.3229,289.0164,301.6211,290.75,300.8063" style="stroke:#181818;stroke-width:0.5;"/><text fill="#000000" font-family="sans-serif" font-size="12" lengthAdjust="spacing" textLength="186" x="288.25" y="323.6344">Extract user_id from request path</text><polygon fill="#F1F1F1" points="238.25,357.1504,238.25,357.3606,248.1121,356.7361,257.9741,357.3437,267.8362,357.5501,277.6983,356.437,287.5603,357.0727,297.4224,356.7239,307.2845,356.7669,317.1466,357.0822,327.0086,356.459,336.8707,357.704,346.7328,356.5201,356.5948,356.9526,366.4569,357.5823,376.319,357.0646,386.181,357.2186,396.0431,357.1184,405.9052,357.3289,415.7672,357.3895,425.6293,357.7361,435.4914,357.8214,445.3534,357.8296,455.2155,357.405,465.0776,357.614,474.9397,357.8526,484.8017,356.4292,494.6638,357.8289,504.5259,356.8539,514.3879,357.6842,524.25,357.1504,524.1869,356.9979,526.009,357.8615,527.8801,358.8432,529.5471,359.3321,531.3345,360.1118,533.0888,360.8116,533.1931,360.8548,533.9493,362.6324,534.5521,364.3466,535.374,366.1515,535.8415,367.8096,536.75,369.6504,536.8448,369.6504,536.9327,371.9192,536.8982,374.188,536.9543,376.4569,536.589,378.7257,536.75,380.9945,536.5492,380.9113,535.8264,382.683,535.2674,384.5225,534.4928,386.2727,534.0309,388.1525,533.0888,389.8333,533.0666,389.7795,531.2773,390.4599,529.5824,391.3681,527.7005,391.8247,525.9515,392.6024,524.25,393.4945,524.25,394.1435,514.3879,393.9302,504.5259,394.229,494.6638,393.1727,484.8017,393.8137,474.9397,394.0849,465.0776,393.0221,455.2155,393.3986,445.3534,393.6205,435.4914,394.1463,425.6293,393.4903,415.7672,393.9571,405.9052,392.9407,396.0431,392.8172,386.181,393.9981,376.319,392.7776,366.4569,394.0035,356.5948,393.7011,346.7328,393.2266,336.8707,393.1407,327.0086,393.9533,317.1466,393.1952,307.2845,394.0864,297.4224,392.9418,287.5603,394.1119,277.6983,393.9788,267.8362,393.7395,257.9741,393.5417,248.1121,394.2211,238.25,393.4945,238.3283,393.6835,236.5038,392.8144,234.7487,392.1126,232.9301,391.2577,231.2703,390.7862,229.4112,389.8333,229.4589,389.8531,228.7321,388.0876,227.7594,386.2202,227.0897,384.4783,226.6457,382.83,225.75,380.9945,225.8933,380.9945,225.7357,378.7257,225.6426,376.4569,225.677,374.188,225.5213,371.9192,225.75,369.6504,225.8777,369.7033,226.71,367.977,227.3766,366.182,228.1607,364.4357,228.6368,362.5619,229.4112,360.8116,229.4223,360.8384,231.1295,359.96,232.9829,359.4346,234.7459,358.6909,236.5527,358.0527,238.25,357.1504" style="stroke:#181818;stroke-width:0.5;"/><text fill="#000000" font-family="sans-serif" font-size="12" lengthAdjust="spacing" textLength="291" x="235.75" y="379.9785">Fetch user transactions from database using user_id</text><polygon fill="#F1F1F1" points="278.75,413.4945,278.75,413.7047,288.5119,413.0802,298.2738,413.6878,308.0357,413.8942,317.7976,412.7811,327.5595,413.4168,337.3214,413.068,347.0833,413.111,356.8452,413.4263,366.6071,412.8031,376.369,414.0481,386.131,412.8642,395.8929,413.2967,405.6548,413.9265,415.4167,413.4087,425.1786,413.5627,434.9405,413.4626,444.7024,413.673,454.4643,413.7336,464.2262,414.0802,473.9881,414.1656,483.75,413.4945,483.9101,413.6546,486.21,415.9545,488.6593,418.4038,491.1155,420.86,493.18,422.9245,495.75,425.4945,495.9099,425.6544,493.2801,427.8246,491.0758,430.4203,488.4333,432.5778,486.1339,435.0784,483.75,437.4945,483.75,438.2361,473.9881,437.4458,464.2262,437.5998,454.4643,437.8331,444.7024,437.9107,434.9405,437.4906,425.1786,437.7817,415.4167,436.9221,405.6548,437.7789,395.8929,438.0427,386.131,437.939,376.369,438.1075,366.6071,437.0114,356.8452,436.8423,347.0833,436.8731,337.3214,437.4356,327.5595,437.298,317.7976,438.1759,308.0357,437.3198,298.2738,437.1515,288.5119,437.7228,278.75,437.4945,278.5928,437.3373,276.2276,434.9721,274.103,432.8475,271.6527,430.3972,269.3231,428.0676,266.75,425.4945,266.6742,425.4187,269.2252,423.1697,271.6892,420.8337,273.8387,418.1832,276.3274,415.8719,278.75,413.4945" style="stroke:#181818;stroke-width:0.5;"/><text fill="#000000" font-family="sans-serif" font-size="11" lengthAdjust="spacing" textLength="205" x="278.75" y="429.7625">User is found or User has transactions?</text><text fill="#000000" font-family="sans-serif" font-size="11" lengthAdjust="spacing" textLength="17" x="249.75" y="422.2715">yes</text><text fill="#000000" font-family="sans-serif" font-size="11" lengthAdjust="spacing" textLength="14" x="495.75" y="422.2715">no</text><path d="M298,447.4945 L298.5605,447.4945 L296.8951,457.9063 L298.5154,468.3182 L299.0658,478.73 L296.0976,489.1419 L297.7928,499.5537 L296.8627,509.9656 L296.9773,520.3774 L297.8182,530.7892 L296.1563,541.2011 L299.4764,551.6129 L296.3193,562.0248 L298,572.4366 L297.9655,572.2642 L294.0753,573.6131 L289.985,573.9619 L286.0119,574.8961 L281.9944,575.6088 L278,576.4366 L278.0311,576.5922 L282.0417,577.4451 L286.1021,578.5471 L290.117,579.4215 L294.1184,580.2287 L298,580.4366 L298.679,580.4366 L299.2362,590.8485 L299.8726,601.2603 L296.0768,611.6721 L299.8094,622.084 L297.2093,632.4958 L299.4235,642.9077 L296.6799,653.3195 L297.8173,663.7314 L299.9776,674.1432 L297.87,684.5551 L298.2808,694.9669 L298,705.3787 L298,705.3787 L298,706.2817 L307.7826,706.4887 L317.5652,705.3683 L327.3478,706.1446 L337.1304,703.8523 L346.913,706.1371 L356.6957,706.8406 L366.4783,706.5642 L376.2609,707.0135 L386.0435,704.0905 L395.8261,703.6396 L405.6087,703.7217 L415.3913,705.2217 L425.1739,704.8547 L434.9565,707.1958 L444.7391,704.9129 L454.5217,704.4639 L464.3043,705.9875 L474.087,703.6005 L483.8696,703.9944 L493.6522,707.1093 L503.4348,706.5405 L513.2174,707.3374 L523,705.3787 L523,705.3787 L522.1419,705.3787 L523.8512,695.4634 L524.5745,685.548 L521.7403,675.6326 L522.7444,665.7173 L523.336,655.8019 L524.738,645.8865 L522.9888,635.9712 L524.2335,626.0558 L521.5232,616.1404 L521.194,606.225 L524.343,596.3097 L521.0882,586.3943 L524.3572,576.4789 L523.551,566.5636 L522.2856,556.6482 L522.0566,546.7328 L524.2234,536.8175 L522.2018,526.9021 L524.5783,516.9867 L521.526,507.0714 L524.6465,497.156 L524.2915,487.2406 L523.6532,477.3252 L523.1259,467.4099 L523,457.4945 L523.4567,457.9512 L521.3857,455.8802 L519.1064,453.6009 L517.1686,451.6631 L514.9181,449.4126 L513,447.4945 L513,449.405 L503.2273,447.9075 L493.4545,447.9547 L483.6818,445.8722 L473.9091,446.4139 L464.1364,448.9098 L454.3636,448.6405 L444.5909,447.38 L434.8182,446.6354 L425.0455,446.9107 L415.2727,445.6647 L405.5,448.6005 L395.7273,449.4667 L385.9545,448.8982 L376.1818,449.3477 L366.4091,447.1299 L356.6364,447.7271 L346.8636,446.4609 L337.0909,448.2519 L327.3182,448.1525 L317.5455,448.9675 L307.7727,446.8821 L298,447.4945 L298,447.4945 " fill="#FEFFDD" style="stroke:#181818;stroke-width:0.5;"/><path d="M513,447.4945 L513.1868,447.4945 L512.6317,449.4945 L513.1718,451.4945 L513.3553,453.4945 L512.3659,455.4945 L513,457.4945 L513,457.4254 L515,457.1154 L517,457.1536 L519,457.4339 L521,456.88 L523,457.4945 L523.348,457.8425 L520.6038,455.0983 L518.8757,453.3702 L517.2715,451.766 L514.9461,449.4406 L513,447.4945 " fill="#FEFFDD" style="stroke:#181818;stroke-width:0.5;"/><text fill="#000000" font-family="sans-serif" font-size="13" lengthAdjust="spacing" textLength="68" x="304" y="466.3915">JSON Body:</text><text fill="#000000" font-family="sans-serif" font-size="13" lengthAdjust="spacing" textLength="4" x="304" y="484.0975">[</text><text fill="#000000" font-family="sans-serif" font-size="13" lengthAdjust="spacing" textLength="5" x="316" y="501.8036">{</text><text fill="#000000" font-family="sans-serif" font-size="13" lengthAdjust="spacing" textLength="147" x="328" y="519.5096">"transaction_id": "UUID",</text><text fill="#000000" font-family="sans-serif" font-size="13" lengthAdjust="spacing" textLength="174" x="328" y="537.2156">"sender_account_id": "UUID",</text><text fill="#000000" font-family="sans-serif" font-size="13" lengthAdjust="spacing" textLength="180" x="328" y="554.9216">"receiver_account_id": "UUID",</text><text fill="#000000" font-family="sans-serif" font-size="13" lengthAdjust="spacing" textLength="108" x="328" y="572.6276">"amount": "0.000",</text><text fill="#000000" font-family="sans-serif" font-size="13" lengthAdjust="spacing" textLength="143" x="328" y="590.3336">"from_currency": "BHD",</text><text fill="#000000" font-family="sans-serif" font-size="13" lengthAdjust="spacing" textLength="126" x="328" y="608.0397">"to_currency": "USD",</text><text fill="#000000" font-family="sans-serif" font-size="13" lengthAdjust="spacing" textLength="169" x="328" y="625.7457">"exchange_rate": "0.000000",</text><text fill="#000000" font-family="sans-serif" font-size="13" lengthAdjust="spacing" textLength="127" x="328" y="643.4517">"status": "completed"</text><text fill="#000000" font-family="sans-serif" font-size="13" lengthAdjust="spacing" textLength="8" x="316" y="661.1577">},</text><text fill="#000000" font-family="sans-serif" font-size="13" lengthAdjust="spacing" textLength="9" x="316" y="678.8637">...</text><text fill="#000000" font-family="sans-serif" font-size="13" lengthAdjust="spacing" textLength="4" x="304" y="696.5697">]</text><polygon fill="#F1F1F1" points="23.5,558.2646,23.5,558.4747,33.5833,557.8502,43.6667,558.4579,53.75,558.6642,63.8333,557.5512,73.9167,558.1869,84,557.8381,94.0833,557.8811,104.1667,558.1964,114.25,557.5732,124.3333,558.8182,134.4167,557.6343,144.5,558.0668,154.5833,558.6965,164.6667,558.1788,174.75,558.3328,184.8333,558.2326,194.9167,558.4431,205,558.5037,215.0833,558.8503,225.1667,558.9356,235.25,558.9438,245.3333,558.5192,255.4167,558.7281,265.5,558.2646,265.5896,558.4808,267.1758,558.7747,269.1221,559.938,270.7655,560.37,272.6392,561.3579,274.3388,561.9257,274.1864,561.8626,275.05,563.6848,276.0317,565.5559,276.5205,567.2228,277.3002,569.0102,278,570.7646,278.1129,570.7646,278.1387,573.0334,277.9987,575.3022,278.0957,577.571,277.8092,579.8399,278,582.1087,278.0876,582.145,277.4366,583.9464,276.6724,585.7009,275.9921,587.4902,274.9223,589.1181,274.3388,590.9475,274.2556,590.7467,272.4918,591.4884,270.7958,592.3938,269.0105,593.0837,267.3547,594.0863,265.5,594.6087,265.5,594.434,255.4167,594.2656,245.3333,594.8369,235.25,593.9418,225.1667,594.0896,215.0833,595.2576,205,595.0443,194.9167,595.3432,184.8333,594.2869,174.75,594.9279,164.6667,595.1991,154.5833,594.1363,144.5,594.5128,134.4167,594.7347,124.3333,595.2604,114.25,594.6045,104.1667,595.0712,94.0833,594.0549,84,593.9314,73.9167,595.1123,63.8333,593.8917,53.75,595.1176,43.6667,594.8153,33.5833,594.3408,23.5,594.6087,23.4549,594.4997,21.7908,594.0177,19.9263,593.052,18.2722,592.5942,16.3584,591.5095,14.6612,590.9475,14.8513,591.0263,14.0781,589.2415,13.2721,587.4432,12.479,585.6502,11.956,583.9691,11,582.1087,11.2045,582.1087,11.0564,579.8399,11.0894,577.571,10.9566,575.3022,11.2388,573.0334,11,570.7646,11.0477,570.7843,11.7854,569.0188,12.2771,567.1514,13.0719,565.4096,14.0924,563.7612,14.6612,561.9257,14.716,562.0581,16.4235,561.1803,18.1556,560.362,19.9365,559.6616,21.6447,558.7855,23.5,558.2646" style="stroke:#181818;stroke-width:0.5;"/><text fill="#000000" font-family="sans-serif" font-size="12" lengthAdjust="spacing" textLength="247" x="21" y="581.0927">Return 200 OK with user transactions history</text><path d="M69.5,722.5257 L69.6868,722.5257 L69.1317,728.0669 L69.6718,733.6081 L69.8553,739.1493 L68.8659,744.6905 L69.5,750.2317 L69.5,750.2317 L69.5,750.1627 L78.3,749.8526 L87.1,749.8909 L95.9,750.1712 L104.7,749.6172 L113.5,750.2317 L113.5,750.2317 L113.9921,750.2317 L112.9398,748.2905 L113.3242,746.3493 L113.884,744.4081 L113.4238,742.4669 L113.5,740.5257 L113.5123,740.5851 L117.4942,739.6685 L121.5322,739.0223 L125.5432,738.2457 L129.6057,737.7179 L133.5,736.3787 L133.6128,736.9645 L129.6142,736.201 L125.5428,735.0598 L121.578,734.4716 L117.6181,733.9093 L113.5,732.5257 L113.0467,732.0724 L111.9265,730.9522 L109.3136,728.3394 L107.8355,726.8613 L105.1889,724.2146 L103.5,722.5257 L103.5,722.4648 L96.7,723.1849 L89.9,722.4824 L83.1,722.6193 L76.3,722.8267 L69.5,722.5257 L69.5,722.5257 " fill="#FEFFDD" style="stroke:#181818;stroke-width:0.5;"/><path d="M103.5,722.5257 L103.6868,722.5257 L103.1317,724.5257 L103.6718,726.5257 L103.8553,728.5257 L102.8659,730.5257 L103.5,732.5257 L103.5,732.4566 L105.5,732.1466 L107.5,732.1848 L109.5,732.4651 L111.5,731.9112 L113.5,732.5257 L113.848,732.8737 L111.1038,730.1296 L109.3757,728.4014 L107.7715,726.7972 L105.4461,724.4718 L103.5,722.5257 " fill="#FEFFDD" style="stroke:#181818;stroke-width:0.5;"/><text fill="#000000" font-family="sans-serif" font-size="13" lengthAdjust="spacing" textLength="23" x="75.5" y="741.4227">End</text><polygon fill="none" points="155.5608,739.0544,153.9484,741.2575,152.0412,744.4844,149.3136,746.6591,146.4474,747.8483,144.162,747.9516,141.2247,746.4643,138.4532,745.4927,136.3495,743.5199,135.2461,741.2615,134.5917,739.4633,133.9506,737.1144,132.91,735.0932,133.7096,733.1197,134.4102,730.958,137.0393,729.2482,138.889,727.0298,141.1784,726.2932,143.9001,725.6588,147.3904,726.0357,149.3021,726.9373,151.5247,727.3459,154.2272,730.1147,155.1693,733.0377,155.5786,735.0321,155.115,738.3186" style="stroke:#222222;stroke-width:1.0;"/><polygon fill="#222222" points="150.5331,737.8382,149.6536,739.0399,148.6134,740.8,147.1256,741.9862,145.5622,742.6349,144.3156,742.6912,142.7135,741.8799,141.2017,741.35,140.0543,740.2739,139.4524,739.0421,139.0955,738.0612,138.7458,736.78,138.1782,735.6775,138.6143,734.6011,138.9965,733.422,140.4305,732.4894,141.4394,731.2793,142.6882,730.8775,144.1728,730.5315,146.0766,730.7371,147.1193,731.2288,148.3317,731.4517,149.8057,732.962,150.3196,734.5563,150.5429,735.6442,150.29,737.4369" style="stroke:#222222;stroke-width:1.0;"/><path d="M708.5,451.8136 L708.6868,451.8136 L708.1317,453.7842 L708.6718,455.7548 L708.8553,457.7254 L707.8659,459.696 L708.5,461.6666 L708.4865,461.5988 L704.4257,462.0948 L700.4331,462.9323 L696.4881,464.0072 L692.3795,464.2639 L688.5,465.6666 L688.5965,466.1491 L692.3901,465.9172 L696.4655,467.0942 L700.5753,468.4431 L704.485,468.7918 L708.5,469.6666 L708.5607,469.6666 L708.4716,471.6372 L708.6587,473.6078 L708.7126,475.5784 L709.0206,477.549 L708.5,479.5196 L708.5,479.5196 L708.5,481.309 L718.4024,481.3309 L728.3049,480.1986 L738.2073,480.7558 L748.1098,481.3922 L758.0122,477.5964 L767.9146,481.3289 L777.8171,478.7289 L787.7195,480.9431 L797.622,478.1995 L807.5244,479.3369 L817.4268,481.4972 L827.3293,479.3896 L837.2317,479.8004 L847.1341,480.4226 L857.0366,480.6295 L866.939,479.5092 L876.8415,480.2855 L886.7439,477.9931 L896.6463,480.2779 L906.5488,480.9814 L916.4512,480.705 L926.3537,481.1543 L936.2561,478.2314 L946.1585,477.7804 L956.061,477.8625 L965.9634,479.3626 L975.8659,478.9955 L985.7683,481.3367 L995.6707,479.0538 L1005.5732,478.6048 L1015.4756,480.1283 L1025.378,477.7413 L1035.2805,478.1352 L1045.1829,481.2501 L1055.0854,480.6814 L1064.9878,481.4782 L1074.8902,478.6615 L1084.7927,480.3708 L1094.6951,481.094 L1104.5976,478.2598 L1114.5,479.5196 L1114.5,479.5196 L1114.4148,479.5196 L1114.612,475.9784 L1115.0793,472.4372 L1114.4963,468.896 L1114.9112,465.3548 L1114.5,461.8136 L1114.1519,461.4655 L1112.0743,459.3879 L1110.8165,458.1301 L1108.0494,455.3629 L1106.8199,454.1335 L1104.5,451.8136 L1104.5,452.3646 L1094.6,451.0991 L1084.7,450.8702 L1074.8,453.0369 L1064.9,451.0153 L1055,453.3919 L1045.1,450.3396 L1035.2,453.46 L1025.3,453.105 L1015.4,452.4668 L1005.5,451.9395 L995.6,453.7512 L985.7,453.4498 L975.8,452.2649 L965.9,452.5287 L956,451.4662 L946.1,453.7241 L936.2,452.2265 L926.3,452.2737 L916.4,450.1913 L906.5,450.733 L896.6,453.2289 L886.7,452.9596 L876.8,451.6991 L866.9,450.9544 L857,451.2297 L847.1,449.9838 L837.2,452.9195 L827.3,453.7857 L817.4,453.2173 L807.5,453.6667 L797.6,451.4489 L787.7,452.0461 L777.8,450.78 L767.9,452.571 L758,452.4716 L748.1,453.2866 L738.2,451.2011 L728.3,451.4551 L718.4,452.9961 L708.5,451.8136 L708.5,451.8136 " fill="#FEFFDD" style="stroke:#181818;stroke-width:0.5;"/><path d="M1104.5,451.8136 L1104.6868,451.8136 L1104.1317,453.8136 L1104.6718,455.8136 L1104.8553,457.8136 L1103.8659,459.8136 L1104.5,461.8136 L1104.5,461.7445 L1106.5,461.4344 L1108.5,461.4727 L1110.5,461.753 L1112.5,461.199 L1114.5,461.8136 L1114.848,462.1615 L1112.1038,459.4174 L1110.3757,457.6892 L1108.7715,456.085 L1106.4461,453.7596 L1104.5,451.8136 " fill="#FEFFDD" style="stroke:#181818;stroke-width:0.5;"/><text fill="#000000" font-family="sans-serif" font-size="13" lengthAdjust="spacing" textLength="385" x="714.5" y="470.7106">{"detail": "No transactions found for this user or user not found"}</text><polygon fill="#F1F1F1" points="560,447.4945,560,447.7047,569.6667,447.0802,579.3333,447.6878,589,447.8942,598.6667,446.7811,608.3333,447.4168,618,447.068,627.6667,447.111,637.3333,447.4263,647,446.8031,656.6667,448.0481,666.3333,446.8642,676,447.4945,675.9748,447.4336,677.8229,448.3598,679.5246,448.9326,681.312,449.7122,683.067,450.4136,684.8388,451.1557,684.8938,451.1784,685.6447,452.9539,686.4837,454.7659,687.2422,456.5446,687.977,458.3134,688.5,459.9945,688.5849,459.9945,688.6545,462.2633,688.7341,464.5322,688.2596,466.801,688.7262,469.0698,688.5,471.3386,688.4087,471.3008,687.9322,473.1745,686.8831,474.811,686.2822,476.6332,685.7995,478.5043,684.8388,480.1775,684.8326,480.1624,683.0845,480.9421,681.3465,481.7462,679.5886,482.5023,677.7673,483.1052,676,483.8386,676,484.1258,666.3333,483.2662,656.6667,484.123,647,484.3868,637.3333,484.2832,627.6667,484.4516,618,483.3555,608.3333,483.1864,598.6667,483.2172,589,483.7797,579.3333,483.6421,569.6667,484.52,560,483.8386,559.9777,483.7848,558.1885,483.0007,556.4936,482.4445,554.6116,481.4366,552.8627,480.7498,551.1612,480.1775,551.361,480.2602,550.5631,478.4653,549.9229,476.7356,548.8654,474.8331,548.3305,473.1471,547.5,471.3386,547.6968,471.3386,547.3425,469.0698,547.468,466.801,547.542,464.5322,547.7173,462.2633,547.5,459.9945,547.4987,459.994,548.3747,458.2857,548.7939,456.3883,549.4881,454.6048,550.584,452.9877,551.1612,451.1557,551.0697,450.9349,552.9939,450.5802,554.7231,449.7548,556.4303,448.8765,558.1871,448.1178,560,447.4945" style="stroke:#181818;stroke-width:0.5;"/><text fill="#000000" font-family="sans-serif" font-size="12" lengthAdjust="spacing" textLength="121" x="557.5" y="470.3226">Return 404 Not Found</text><path d="M543,518.8386 L543.1868,518.8386 L542.6317,524.3798 L543.1718,529.921 L543.3553,535.4622 L542.3659,541.0034 L543,546.5446 L543,546.5446 L543,546.4756 L551.8,546.1655 L560.6,546.2037 L569.4,546.4841 L578.2,545.9301 L587,546.5446 L587,546.5446 L587.4921,546.5446 L586.4398,544.6034 L586.8242,542.6622 L587.384,540.721 L586.9238,538.7798 L587,536.8386 L587.0123,536.898 L590.9942,535.9814 L595.0322,535.3352 L599.0432,534.5586 L603.1057,534.0308 L607,532.6916 L607.1128,533.2773 L603.1142,532.5139 L599.0428,531.3727 L595.078,530.7845 L591.1181,530.2222 L587,528.8386 L586.5467,528.3853 L585.4265,527.2651 L582.8136,524.6523 L581.3355,523.1741 L578.6889,520.5275 L577,518.8386 L577,518.7777 L570.2,519.4978 L563.4,518.7953 L556.6,518.9322 L549.8,519.1396 L543,518.8386 L543,518.8386 " fill="#FEFFDD" style="stroke:#181818;stroke-width:0.5;"/><path d="M577,518.8386 L577.1868,518.8386 L576.6317,520.8386 L577.1718,522.8386 L577.3553,524.8386 L576.3659,526.8386 L577,528.8386 L577,528.7695 L579,528.4595 L581,528.4977 L583,528.778 L585,528.2241 L587,528.8386 L587.348,529.1866 L584.6038,526.4425 L582.8757,524.7143 L581.2715,523.1101 L578.9461,520.7847 L577,518.8386 " fill="#FEFFDD" style="stroke:#181818;stroke-width:0.5;"/><text fill="#000000" font-family="sans-serif" font-size="13" lengthAdjust="spacing" textLength="23" x="549" y="537.7356">End</text><polygon fill="none" points="629.0608,535.3673,627.4484,537.5704,625.5412,540.7973,622.8136,542.972,619.9474,544.1612,617.662,544.2645,614.7247,542.7772,611.9532,541.8055,609.8495,539.8328,608.7461,537.5744,608.0917,535.7762,607.4506,533.4273,606.41,531.4061,607.2096,529.4326,607.9102,527.2709,610.5393,525.5611,612.389,523.3427,614.6784,522.6061,617.4001,521.9717,620.8904,522.3486,622.8021,523.2502,625.0247,523.6588,627.7272,526.4276,628.6693,529.3506,629.0786,531.345,628.615,534.6315" style="stroke:#222222;stroke-width:1.0;"/><polygon fill="#222222" points="624.0331,534.1511,623.1536,535.3528,622.1134,537.1129,620.6256,538.2991,619.0622,538.9478,617.8156,539.0041,616.2135,538.1928,614.7017,537.6629,613.5543,536.5868,612.9524,535.355,612.5955,534.3741,612.2458,533.0929,611.6782,531.9904,612.1143,530.914,612.4965,529.7348,613.9305,528.8023,614.9394,527.5922,616.1882,527.1904,617.6728,526.8444,619.5766,527.05,620.6193,527.5417,621.8317,527.7646,623.3057,529.2749,623.8196,530.8692,624.0429,531.9571,623.79,533.7497" style="stroke:#222222;stroke-width:1.0;"/><path d="M1144.5,305.1253 L1144.6868,305.1253 L1144.1317,310.6665 L1144.6718,316.2077 L1144.8553,321.7489 L1143.8659,327.2901 L1144.5,332.8313 L1144.5,332.8313 L1144.5,332.6241 L1154.5256,331.694 L1164.5513,331.8087 L1174.5769,332.6496 L1184.6026,330.9877 L1194.6282,334.3077 L1204.6538,331.1506 L1214.6795,332.304 L1224.7051,333.9832 L1234.7308,332.6026 L1244.7564,333.0133 L1254.7821,332.7461 L1264.8077,333.3074 L1274.8333,333.469 L1284.859,334.3932 L1294.8846,334.6208 L1304.9103,334.6427 L1314.9359,333.5103 L1324.9615,334.0676 L1334.9872,334.704 L1345.0128,330.9082 L1355.0385,334.6407 L1365.0641,332.0407 L1375.0897,334.2548 L1385.1154,331.5113 L1395.141,332.6487 L1405.1667,334.809 L1415.1923,332.7014 L1425.2179,333.1121 L1435.2436,333.7343 L1445.2692,333.9413 L1455.2949,332.8209 L1465.3205,333.5972 L1475.3462,331.3049 L1485.3718,333.5897 L1495.3974,334.2932 L1505.4231,334.0168 L1515.4487,334.4661 L1525.4744,331.5431 L1535.5,332.8313 L1535.5,332.8313 L1534.9203,332.8313 L1534.9476,330.8901 L1535.4477,328.9489 L1535.3253,327.0077 L1536.1057,325.0665 L1535.5,323.1253 L1535.4685,322.9733 L1539.4381,321.9973 L1543.5412,321.6652 L1547.3797,320.0567 L1551.4063,319.3559 L1555.5,318.9783 L1555.6091,319.5448 L1551.5733,318.588 L1547.6235,318.0782 L1543.4459,316.3857 L1539.5537,316.1745 L1535.5,315.1253 L1535.8711,315.4964 L1533.2031,312.8284 L1531.4397,311.0651 L1529.5792,309.2045 L1527.9097,307.535 L1525.5,305.1253 L1525.5,305.1141 L1515.4737,306.3588 L1505.4474,303.6486 L1495.4211,303.3193 L1485.3947,306.4683 L1475.3684,303.2135 L1465.3421,306.4826 L1455.3158,305.6763 L1445.2895,304.4109 L1435.2632,304.1819 L1425.2368,306.3487 L1415.2105,304.3271 L1405.1842,306.7036 L1395.1579,303.6513 L1385.1316,306.7718 L1375.1053,306.4168 L1365.0789,305.7786 L1355.0526,305.2512 L1345.0263,307.063 L1335,306.7615 L1324.9737,305.5767 L1314.9474,305.8405 L1304.9211,304.778 L1294.8947,307.0359 L1284.8684,305.5383 L1274.8421,305.5855 L1264.8158,303.5031 L1254.7895,304.0447 L1244.7632,306.5407 L1234.7368,306.2714 L1224.7105,305.0108 L1214.6842,304.2662 L1204.6579,304.5415 L1194.6316,303.2955 L1184.6053,306.2313 L1174.5789,307.0975 L1164.5526,306.529 L1154.5263,306.9785 L1144.5,305.1253 L1144.5,305.1253 " fill="#FEFFDD" style="stroke:#181818;stroke-width:0.5;"/><path d="M1525.5,305.1253 L1525.6868,305.1253 L1525.1317,307.1253 L1525.6718,309.1253 L1525.8553,311.1253 L1524.8659,313.1253 L1525.5,315.1253 L1525.5,315.0562 L1527.5,314.7462 L1529.5,314.7844 L1531.5,315.0647 L1533.5,314.5108 L1535.5,315.1253 L1535.848,315.4733 L1533.1038,312.7292 L1531.3757,311.001 L1529.7715,309.3968 L1527.4461,307.0714 L1525.5,305.1253 " fill="#FEFFDD" style="stroke:#181818;stroke-width:0.5;"/><text fill="#000000" font-family="sans-serif" font-size="13" lengthAdjust="spacing" textLength="370" x="1150.5" y="324.0223">{"detail": "Invalid or expired token or insufficient permissions"}</text><polygon fill="#F1F1F1" points="1568,300.8063,1568,301.0165,1577.6429,300.392,1587.2857,300.9996,1596.9286,301.206,1606.5714,300.0929,1616.2143,300.7286,1625.8571,300.3798,1635.5,300.4228,1645.1429,300.7381,1654.7857,300.1149,1664.4286,301.3599,1674.0714,300.176,1683.7143,300.6085,1693.3571,301.2382,1703,300.8063,1702.9891,300.7799,1704.7765,301.5595,1706.5315,302.2609,1708.3261,303.058,1710.1016,303.8089,1711.8388,304.4674,1712.0192,304.5422,1712.7777,306.3208,1713.5125,308.0896,1714.1139,309.8032,1714.9105,311.5976,1715.5,313.3063,1715.7341,313.3063,1715.2596,315.5751,1715.7262,317.8439,1715.4012,320.1127,1715.6779,322.3816,1715.5,324.6504,1715.3476,324.5872,1714.7467,326.4094,1714.2639,328.2805,1713.2883,329.9475,1712.6035,331.7349,1711.8388,333.4892,1711.882,333.5935,1710.1242,334.3496,1708.3028,334.9525,1706.5722,335.7744,1704.6947,336.2419,1703,337.1504,1703,337.4348,1693.3571,337.6986,1683.7143,337.5949,1674.0714,337.7634,1664.4286,336.6673,1654.7857,336.4982,1645.1429,336.529,1635.5,337.0915,1625.8571,336.9539,1616.2143,337.8318,1606.5714,336.9757,1596.9286,336.8073,1587.2857,337.3787,1577.6429,336.4836,1568,337.1504,1567.9338,336.9905,1566.315,336.618,1564.52,335.8201,1562.7904,335.1799,1560.8879,334.1224,1559.1612,333.4892,1559.2595,333.5299,1558.6108,331.7968,1557.5512,329.8934,1556.9349,328.1737,1556.271,326.4342,1555.5,324.6504,1555.7173,324.6504,1555.4986,322.3816,1555.6542,320.1127,1555.3154,317.8439,1555.2742,315.5751,1555.5,313.3063,1555.6551,313.3705,1556.0114,311.4471,1557.1212,309.8357,1557.7603,308.0293,1558.3464,306.201,1559.1612,304.4674,1559.116,304.3585,1560.9875,303.8765,1562.6585,302.9108,1564.54,302.453,1566.1617,301.3683,1568,300.8063" style="stroke:#181818;stroke-width:0.5;"/><text fill="#000000" font-family="sans-serif" font-size="12" lengthAdjust="spacing" textLength="140" x="1565.5" y="323.6344">Return 401 Unauthorized</text><path d="M1560.5,357.1504 L1560.6868,357.1504 L1560.1317,362.6916 L1560.6718,368.2328 L1560.8553,373.774 L1559.8659,379.3152 L1560.5,384.8564 L1560.5,384.8564 L1560.5,384.7873 L1569.3,384.4773 L1578.1,384.5155 L1586.9,384.7958 L1595.7,384.2419 L1604.5,384.8564 L1604.5,384.8564 L1604.9921,384.8564 L1603.9398,382.9152 L1604.3242,380.974 L1604.884,379.0328 L1604.4238,377.0916 L1604.5,375.1504 L1604.5123,375.2098 L1608.4942,374.2932 L1612.5322,373.647 L1616.5432,372.8703 L1620.6057,372.3426 L1624.5,371.0034 L1624.6128,371.5891 L1620.6142,370.8257 L1616.5428,369.6844 L1612.578,369.0962 L1608.6181,368.5339 L1604.5,367.1504 L1604.0467,366.6971 L1602.9265,365.5769 L1600.3136,362.964 L1598.8355,361.4859 L1596.1889,358.8392 L1594.5,357.1504 L1594.5,357.0895 L1587.7,357.8096 L1580.9,357.1071 L1574.1,357.244 L1567.3,357.4514 L1560.5,357.1504 L1560.5,357.1504 " fill="#FEFFDD" style="stroke:#181818;stroke-width:0.5;"/><path d="M1594.5,357.1504 L1594.6868,357.1504 L1594.1317,359.1504 L1594.6718,361.1504 L1594.8553,363.1504 L1593.8659,365.1504 L1594.5,367.1504 L1594.5,367.0813 L1596.5,366.7713 L1598.5,366.8095 L1600.5,367.0898 L1602.5,366.5358 L1604.5,367.1504 L1604.848,367.4984 L1602.1038,364.7542 L1600.3757,363.0261 L1598.7715,361.4219 L1596.4461,359.0965 L1594.5,357.1504 " fill="#FEFFDD" style="stroke:#181818;stroke-width:0.5;"/><text fill="#000000" font-family="sans-serif" font-size="13" lengthAdjust="spacing" textLength="23" x="1566.5" y="376.0474">End</text><polygon fill="none" points="1646.5608,373.679,1644.9484,375.8822,1643.0412,379.1091,1640.3136,381.2838,1637.4474,382.473,1635.162,382.5762,1632.2247,381.0889,1629.4532,380.1173,1627.3495,378.1446,1626.2461,375.8862,1625.5917,374.0879,1624.9506,371.7391,1623.91,369.7179,1624.7096,367.7444,1625.4102,365.5826,1628.0393,363.8729,1629.889,361.6545,1632.1784,360.9178,1634.9001,360.2834,1638.3904,360.6604,1640.3021,361.5619,1642.5247,361.9706,1645.2272,364.7394,1646.1693,367.6623,1646.5786,369.6568,1646.115,372.9433" style="stroke:#222222;stroke-width:1.0;"/><polygon fill="#222222" points="1641.5331,372.4628,1640.6536,373.6646,1639.6134,375.4247,1638.1256,376.6109,1636.5622,377.2595,1635.3156,377.3158,1633.7135,376.5046,1632.2017,375.9746,1631.0543,374.8986,1630.4524,373.6667,1630.0955,372.6859,1629.7458,371.4047,1629.1782,370.3022,1629.6143,369.2258,1629.9965,368.0466,1631.4305,367.114,1632.4394,365.904,1633.6882,365.5022,1635.1728,365.1562,1637.0766,365.3617,1638.1193,365.8535,1639.3317,366.0764,1640.8057,367.5867,1641.3196,369.181,1641.5429,370.2689,1641.29,372.0615" style="stroke:#222222;stroke-width:1.0;"/><path d="M1008.375,73.9209 L1008.4684,73.9209 L1008.1909,78.6915 L1008.4609,83.4621 L1008.5526,88.2327 L1008.0579,93.0033 L1008.375,97.7739 " fill="#181818" style="stroke:#181818;stroke-width:1.0;"/><polygon fill="#181818" points="1004.375,87.7739,1004.44,87.8,1005.0468,89.7226,1006.0348,91.7979,1006.8987,93.8234,1007.3542,95.6856,1008.375,97.7739,1008.3509,97.7643,1009.043,95.7211,1009.8563,93.7265,1010.7539,91.7655,1011.361,89.6883,1012.375,87.7739,1012.5055,87.9044,1011.4264,88.4254,1010.7284,89.3273,1010.0768,90.2757,1009.1548,90.9537,1008.375,91.7739,1008.3911,91.79,1007.5675,90.9664,1006.8171,90.216,1006.0314,89.4303,1005.313,88.712,1004.375,87.7739" style="stroke:#181818;stroke-width:1.0;"/><path d="M1008.375,134.118 L1008.4684,134.118 L1008.1909,138.118 L1008.4609,142.118 L1008.5526,146.118 L1008.0579,150.118 L1008.375,154.118 " fill="#181818" style="stroke:#181818;stroke-width:1.0;"/><polygon fill="#181818" points="1004.375,144.118,1004.44,144.1441,1005.0468,146.0668,1006.0348,148.142,1006.8987,150.1675,1007.3542,152.0297,1008.375,154.118,1008.3509,154.1084,1009.043,152.0652,1009.8563,150.0706,1010.7539,148.1096,1011.361,146.0325,1012.375,144.118,1012.5055,144.2485,1011.4264,144.7695,1010.7284,145.6714,1010.0768,146.6199,1009.1548,147.2978,1008.375,148.118,1008.3911,148.1341,1007.5675,147.3105,1006.8171,146.5601,1006.0314,145.7744,1005.313,145.0561,1004.375,144.118" style="stroke:#181818;stroke-width:1.0;"/><path d="M1008.375,190.4622 L1008.4684,190.4622 L1008.1909,194.4622 L1008.4609,198.4622 L1008.5526,202.4622 L1008.0579,206.4622 L1008.375,210.4622 " fill="#181818" style="stroke:#181818;stroke-width:1.0;"/><polygon fill="#181818" points="1004.375,200.4622,1004.44,200.4882,1005.0468,202.4109,1006.0348,204.4861,1006.8987,206.5116,1007.3542,208.3738,1008.375,210.4622,1008.3509,210.4525,1009.043,208.4094,1009.8563,206.4147,1010.7539,204.4537,1011.361,202.3766,1012.375,200.4622,1012.5055,200.5927,1011.4264,201.1136,1010.7284,202.0155,1010.0768,202.964,1009.1548,203.6419,1008.375,204.4622,1008.3911,204.4782,1007.5675,203.6546,1006.8171,202.9042,1006.0314,202.1185,1005.313,201.4002,1004.375,200.4622" style="stroke:#181818;stroke-width:1.0;"/><path d="M381.25,337.1504 L381.3434,337.1504 L381.0659,341.1504 L381.3359,345.1504 L381.4276,349.1504 L380.9329,353.1504 L381.25,357.1504 " fill="#181818" style="stroke:#181818;stroke-width:1.0;"/><polygon fill="#181818" points="377.25,347.1504,377.315,347.1764,377.9218,349.0991,378.9098,351.1743,379.7737,353.1999,380.2292,355.0621,381.25,357.1504,381.2259,357.1408,381.918,355.0976,382.7313,353.1029,383.6289,351.142,384.236,349.0648,385.25,347.1504,385.3805,347.2809,384.3014,347.8018,383.6034,348.7038,382.9518,349.6522,382.0298,350.3302,381.25,351.1504,381.2661,351.1665,380.4425,350.3429,379.6921,349.5925,378.9064,348.8068,378.188,348.0884,377.25,347.1504" style="stroke:#181818;stroke-width:1.0;"/><path d="M144.5,594.6087 L144.7802,594.6087 L143.9476,604.6679 L144.7577,614.7271 L145.0329,624.7864 L143.5488,634.8456 L144.3964,644.9049 L143.9313,654.9641 L143.9887,665.0233 L144.4091,675.0826 L143.5782,685.1418 L145.2382,695.201 L143.6596,705.2603 L144.2363,715.3195 L144.5,725.3787 " fill="#181818" style="stroke:#181818;stroke-width:1.0;"/><polygon fill="#181818" points="140.5,715.3787,140.565,715.4048,141.1718,717.3274,142.1598,719.4027,143.0237,721.4282,143.4792,723.2904,144.5,725.3787,144.4759,725.3691,145.168,723.3259,145.9813,721.3313,146.8789,719.3703,147.486,717.2931,148.5,715.3787,148.6305,715.5092,147.5514,716.0302,146.8534,716.9321,146.2018,717.8805,145.2798,718.5585,144.5,719.3787,144.5161,719.3948,143.6925,718.5712,142.9421,717.8208,142.1564,717.0351,141.438,716.3168,140.5,715.3787" style="stroke:#181818;stroke-width:1.0;"/><path d="M618,483.8386 L618.0934,483.8386 L617.8159,491.4092 L618.0859,498.9798 L618.1776,506.5504 L617.6829,514.121 L618,521.6916 " fill="#181818" style="stroke:#181818;stroke-width:1.0;"/><polygon fill="#181818" points="614,511.6916,614.065,511.7176,614.6718,513.6403,615.6598,515.7156,616.5237,517.7411,616.9792,519.6033,618,521.6916,617.9759,521.682,618.668,519.6388,619.4813,517.6442,620.3789,515.6832,620.986,513.606,622,511.6916,622.1305,511.8221,621.0514,512.3431,620.3534,513.245,619.7018,514.1934,618.7798,514.8714,618,515.6916,618.0161,515.7077,617.1925,514.8841,616.4421,514.1337,615.6564,513.348,614.938,512.6297,614,511.6916" style="stroke:#181818;stroke-width:1.0;"/><path d="M266.75,425.4945 L266.75,425.7747 L256.5625,424.9421 L246.375,425.7522 L236.1875,426.0274 L226,424.5433 L215.8125,425.3909 L205.625,424.9258 L195.4375,424.9832 L185.25,425.4036 L175.0625,424.5727 L164.875,426.2327 L154.6875,424.6541 L144.5,425.4945 " fill="#181818" style="stroke:#181818;stroke-width:1.0;"/><path d="M144.5,425.4945 L144.7802,425.4945 L143.9476,435.7076 L144.7577,445.9207 L145.0329,456.1337 L143.5488,466.3468 L144.3964,476.5599 L143.9313,486.773 L143.9887,496.9861 L144.4091,507.1992 L143.5782,517.4122 L145.2382,527.6253 L143.6596,537.8384 L144.2363,548.0515 L144.5,558.2646 " fill="#181818" style="stroke:#181818;stroke-width:1.0;"/><polygon fill="#181818" points="140.5,548.2646,140.565,548.2906,141.1718,550.2133,142.1598,552.2885,143.0237,554.314,143.4792,556.1762,144.5,558.2646,144.4759,558.2549,145.168,556.2118,145.9813,554.2171,146.8789,552.2561,147.486,550.179,148.5,548.2646,148.6305,548.3951,147.5514,548.916,146.8534,549.8179,146.2018,550.7664,145.2798,551.4443,144.5,552.2646,144.5161,552.2806,143.6925,551.457,142.9421,550.7066,142.1564,549.9209,141.438,549.2026,140.5,548.2646" style="stroke:#181818;stroke-width:1.0;"/><path d="M495.75,425.4945 L495.75,425.7747 L505.9375,424.9421 L516.125,425.7522 L526.3125,426.0274 L536.5,424.5433 L546.6875,425.3909 L556.875,424.9258 L567.0625,424.9832 L577.25,425.4036 L587.4375,424.5727 L597.625,426.2327 L607.8125,424.6541 L618,425.4945 " fill="#181818" style="stroke:#181818;stroke-width:1.0;"/><path d="M618,425.4945 L618.0934,425.4945 L617.8159,429.8945 L618.0859,434.2945 L618.1776,438.6945 L617.6829,443.0945 L618,447.4945 " fill="#181818" style="stroke:#181818;stroke-width:1.0;"/><polygon fill="#181818" points="614,437.4945,614.065,437.5205,614.6718,439.4432,615.6598,441.5184,616.5237,443.544,616.9792,445.4062,618,447.4945,617.9759,447.4849,618.668,445.4417,619.4813,443.447,620.3789,441.4861,620.986,439.4089,622,437.4945,622.1305,437.625,621.0514,438.1459,620.3534,439.0479,619.7018,439.9963,618.7798,440.6743,618,441.4945,618.0161,441.5106,617.1925,440.687,616.4421,439.9366,615.6564,439.1509,614.938,438.4326,614,437.4945" style="stroke:#181818;stroke-width:1.0;"/><path d="M381.25,393.4945 L381.3434,393.4945 L381.0659,397.4945 L381.3359,401.4945 L381.4276,405.4945 L380.9329,409.4945 L381.25,413.4945 " fill="#181818" style="stroke:#181818;stroke-width:1.0;"/><polygon fill="#181818" points="377.25,403.4945,377.315,403.5205,377.9218,405.4432,378.9098,407.5184,379.7737,409.544,380.2292,411.4062,381.25,413.4945,381.2259,413.4849,381.918,411.4417,382.7313,409.447,383.6289,407.4861,384.236,405.4089,385.25,403.4945,385.3805,403.625,384.3014,404.1459,383.6034,405.0479,382.9518,405.9963,382.0298,406.6743,381.25,407.4945,381.2661,407.5106,380.4425,406.687,379.6921,405.9366,378.9064,405.1509,378.188,404.4326,377.25,403.4945" style="stroke:#181818;stroke-width:1.0;"/><path d="M1635.5,337.1504 L1635.5934,337.1504 L1635.3159,341.721 L1635.5859,346.2916 L1635.6776,350.8622 L1635.1829,355.4328 L1635.5,360.0034 " fill="#181818" style="stroke:#181818;stroke-width:1.0;"/><polygon fill="#181818" points="1631.5,350.0034,1631.565,350.0294,1632.1718,351.9521,1633.1598,354.0273,1634.0237,356.0529,1634.4792,357.9151,1635.5,360.0034,1635.4759,359.9938,1636.168,357.9506,1636.9813,355.9559,1637.8789,353.995,1638.486,351.9178,1639.5,350.0034,1639.6305,350.1339,1638.5514,350.6548,1637.8534,351.5568,1637.2018,352.5052,1636.2798,353.1832,1635.5,354.0034,1635.5161,354.0195,1634.6925,353.1959,1633.9421,352.4455,1633.1564,351.6598,1632.438,350.9414,1631.5,350.0034" style="stroke:#181818;stroke-width:1.0;"/><path d="M827.875,278.8063 L827.875,279.0865 L817.95,278.2538 L808.025,279.064 L798.1,279.3392 L788.175,277.8551 L778.25,278.7027 L768.325,278.2376 L758.4,278.2949 L748.475,278.7154 L738.55,277.8845 L728.625,279.5445 L718.7,277.9659 L708.775,278.5426 L698.85,279.3822 L688.925,278.6919 L679,278.8973 L669.075,278.7637 L659.15,279.0443 L649.225,279.1251 L639.3,279.5872 L629.375,279.701 L619.45,279.712 L609.525,279.1458 L599.6,279.4244 L589.675,279.7426 L579.75,277.8447 L569.825,279.711 L559.9,278.4109 L549.975,279.518 L540.05,278.1462 L530.125,278.7149 L520.2,279.7951 L510.275,278.7413 L500.35,278.9467 L490.425,279.2578 L480.5,279.3613 L470.575,278.8011 L460.65,279.1892 L450.725,278.0431 L440.8,279.1855 L430.875,279.5372 L420.95,279.399 L411.025,279.6236 L401.1,278.1622 L391.175,277.9367 L381.25,278.8063 " fill="#181818" style="stroke:#181818;stroke-width:1.0;"/><path d="M381.25,278.8063 L381.3434,278.8063 L381.0659,283.2063 L381.3359,287.6063 L381.4276,292.0063 L380.9329,296.4063 L381.25,300.8063 " fill="#181818" style="stroke:#181818;stroke-width:1.0;"/><polygon fill="#181818" points="377.25,290.8063,377.315,290.8323,377.9218,292.755,378.9098,294.8302,379.7737,296.8558,380.2292,298.718,381.25,300.8063,381.2259,300.7967,381.918,298.7535,382.7313,296.7588,383.6289,294.7978,384.236,292.7207,385.25,290.8063,385.3805,290.9368,384.3014,291.4577,383.6034,292.3597,382.9518,293.3081,382.0298,293.9861,381.25,294.8063,381.2661,294.8224,380.4425,293.9987,379.6921,293.2484,378.9064,292.4626,378.188,291.7443,377.25,290.8063" style="stroke:#181818;stroke-width:1.0;"/><path d="M1188.875,278.8063 L1188.875,279.0865 L1198.8,278.2538 L1208.725,279.064 L1218.65,279.3392 L1228.575,277.8551 L1238.5,278.7027 L1248.425,278.2376 L1258.35,278.2949 L1268.275,278.7154 L1278.2,277.8845 L1288.125,279.5445 L1298.05,277.9659 L1307.975,278.5426 L1317.9,279.3822 L1327.825,278.6919 L1337.75,278.8973 L1347.675,278.7637 L1357.6,279.0443 L1367.525,279.1251 L1377.45,279.5872 L1387.375,279.701 L1397.3,279.712 L1407.225,279.1458 L1417.15,279.4244 L1427.075,279.7426 L1437,277.8447 L1446.925,279.711 L1456.85,278.4109 L1466.775,279.518 L1476.7,278.1462 L1486.625,278.7149 L1496.55,279.7951 L1506.475,278.7413 L1516.4,278.9467 L1526.325,279.2578 L1536.25,279.3613 L1546.175,278.8011 L1556.1,279.1892 L1566.025,278.0431 L1575.95,279.1855 L1585.875,279.5372 L1595.8,279.399 L1605.725,279.6236 L1615.65,278.1622 L1625.575,277.9367 L1635.5,278.8063 " fill="#181818" style="stroke:#181818;stroke-width:1.0;"/><path d="M1635.5,278.8063 L1635.5934,278.8063 L1635.3159,283.2063 L1635.5859,287.6063 L1635.6776,292.0063 L1635.1829,296.4063 L1635.5,300.8063 " fill="#181818" style="stroke:#181818;stroke-width:1.0;"/><polygon fill="#181818" points="1631.5,290.8063,1631.565,290.8323,1632.1718,292.755,1633.1598,294.8302,1634.0237,296.8558,1634.4792,298.718,1635.5,300.8063,1635.4759,300.7967,1636.168,298.7535,1636.9813,296.7588,1637.8789,294.7978,1638.486,292.7207,1639.5,290.8063,1639.6305,290.9368,1638.5514,291.4577,1637.8534,292.3597,1637.2018,293.3081,1636.2798,293.9861,1635.5,294.8063,1635.5161,294.8224,1634.6925,293.9987,1633.9421,293.2484,1633.1564,292.4626,1632.438,291.7443,1631.5,290.8063" style="stroke:#181818;stroke-width:1.0;"/><path d="M1008.375,246.8063 L1008.4684,246.8063 L1008.1909,250.8063 L1008.4609,254.8063 L1008.5526,258.8063 L1008.0579,262.8063 L1008.375,266.8063 " fill="#181818" style="stroke:#181818;stroke-width:1.0;"/><polygon fill="#181818" points="1004.375,256.8063,1004.44,256.8323,1005.0468,258.755,1006.0348,260.8302,1006.8987,262.8558,1007.3542,264.718,1008.375,266.8063,1008.3509,266.7967,1009.043,264.7535,1009.8563,262.7588,1010.7539,260.7978,1011.361,258.7207,1012.375,256.8063,1012.5055,256.9368,1011.4264,257.4577,1010.7284,258.3597,1010.0768,259.3081,1009.1548,259.9861,1008.375,260.8063,1008.3911,260.8224,1007.5675,259.9987,1006.8171,259.2484,1006.0314,258.4626,1005.313,257.7443,1004.375,256.8063" style="stroke:#181818;stroke-width:1.0;"/><!--SRC=[bLHTJzim57tFhxZAKwccDamyfOW9Dhus2IRQx6MQAkFS48lKxknhe5JzxxjEkj2qC36_H3a-FZxt-jZkNkcvi686fT3verL4g86inyYrKwIemXDZSxIm_ph-sLJ6mcqbv7rKmz3l7_gZutocD9mZEHXZXP8mXyonpCGAxOGaPRI32-N8sCNXq1_r-r7aI5YAj244g-vAIc5S8-aDIbGF2EUd4x3uswCZ80D3sX0RBZthJrM-WaT59HnxAerLpoBCGec2pOuYrl9wQsvYxhdq7w9IUGDyjqQYSwCeNOFOxdfhyWKKN740bEMg2eLLpbnLGA-Zgq4vS5u6gS9Nm6q6mGJKfAG83Gc60qbe4A5Vd_OWJ4DlWMul0XxfwHFNA0dMjK5XpQmrCnTKZXhU6P8i6y7DfZHyha3S2eSyh_JTNorkHbWQV6Th8uNnR9Ahgu5Ik8xOhhrwwniaRpLyJ1Au_jRqVjT7sPpqg5tsSiej5CRNyVKLd72Jqmxyi_CNnd872IFUs9HBZ5E8i-poI_pXTRP3pQcO2YcvS7h70ji4yN-MY5aW1bOoI9BaBLeugAdqrgAMYy0-kNXJaao7cOtVPEAJvEjzXrFBWMiz_CC6Nq7oBZ2bcSqhv9Z6EypLxkB1OD31VhL_tEBwi5k0Wp3lng32Wk_wgSvh62jEQa-RtOWT90TmPGZEGanVYr8AopX74geA5LoPhRjGfpjSNk8uDY7bd_hB6iryl7g_KPsh8khQVR6w3vaMw_S0rsutH3QDNkg7yCu4C_WqhryLgjya1fHslYYKLFnim1pjJ3aNgbdxR3rk-Qkz_G40]--></g></svg>