<?xml version="1.0" encoding="us-ascii" standalone="no"?><svg xmlns="http://www.w3.org/2000/svg" xmlns:xlink="http://www.w3.org/1999/xlink" contentStyleType="text/css" height="598px" preserveAspectRatio="none" style="width:1760px;height:598px;background:#FFFFFF;" version="1.1" viewBox="0 0 1760 598" width="1760px" zoomAndPan="magnify"><defs/><g><polygon fill="none" points="808.9688,15,808.9688,15.2102,818.9375,14.5857,828.9063,15.1933,838.875,15.3997,848.8438,14.2866,858.8125,14.9223,868.7813,14.5735,878.75,14.6165,888.7188,14.9318,898.6875,14.3086,908.6563,15.5536,918.625,14.3697,928.5938,14.8022,938.5625,15.4319,948.5313,15,948.5027,15,948.554,20.8136,948.5206,26.6272,948.5908,32.4408,948.611,38.2543,948.5313,44.0679,948.5313,44.6536,938.5625,44.739,928.5938,44.7472,918.625,44.3225,908.6563,44.5315,898.6875,44.7701,888.7188,43.3467,878.75,44.7464,868.7813,43.7714,858.8125,44.6017,848.8438,43.5729,838.875,43.9994,828.9063,44.8095,818.9375,44.0192,808.9688,44.0679,809.0039,44.0679,809.0816,38.2543,809.1075,32.4408,808.9674,26.6272,809.0645,20.8136,808.9688,15" style="stroke:#000000;stroke-width:1.0;"/><text fill="#000000" font-family="sans-serif" font-size="14" font-weight="bold" lengthAdjust="spacing" text-decoration="underline" textLength="129.5625" x="813.9688" y="34.9659">Get exchange rate</text><path d="M1123.0625,50.0679 L1123.2493,50.0679 L1122.6942,52.0385 L1123.2343,54.0091 L1123.4178,55.9797 L1122.4284,57.9503 L1123.0625,59.9209 L1123.049,59.8532 L1118.9882,60.3492 L1114.9956,61.1867 L1111.0506,62.2615 L1106.942,62.5183 L1103.0625,63.9209 L1103.159,64.4035 L1106.9526,64.1716 L1111.028,65.3485 L1115.1378,66.6974 L1119.0475,67.0462 L1123.0625,67.9209 L1123.1232,67.9209 L1123.0341,69.8915 L1123.2212,71.8621 L1123.2751,73.8327 L1123.5831,75.8033 L1123.0625,77.7739 L1123.0625,77.7739 L1123.0625,79.5634 L1133.0625,79.5853 L1143.0625,78.4529 L1153.0625,79.0102 L1163.0625,79.6466 L1173.0625,77.7739 L1173.0625,77.7739 L1172.4214,77.7739 L1173.6656,74.2327 L1172.7989,70.6915 L1173.537,67.1503 L1172.6225,63.6091 L1173.0625,60.0679 L1173.0194,60.0249 L1171.5286,58.534 L1169.0319,56.0373 L1167.1287,54.1341 L1165.2753,52.2808 L1163.0625,50.0679 L1163.0625,50.4379 L1155.0625,50.0644 L1147.0625,50.3232 L1139.0625,49.5591 L1131.0625,50.3207 L1123.0625,50.0679 L1123.0625,50.0679 " fill="#FEFFDD" style="stroke:#181818;stroke-width:0.5;"/><path d="M1163.0625,50.0679 L1163.2493,50.0679 L1162.6942,52.0679 L1163.2343,54.0679 L1163.4178,56.0679 L1162.4284,58.0679 L1163.0625,60.0679 L1163.0625,59.9988 L1165.0625,59.6888 L1167.0625,59.727 L1169.0625,60.0073 L1171.0625,59.4534 L1173.0625,60.0679 L1173.4105,60.4159 L1170.6663,57.6718 L1168.9382,55.9436 L1167.334,54.3394 L1165.0086,52.014 L1163.0625,50.0679 " fill="#FEFFDD" style="stroke:#181818;stroke-width:0.5;"/><text fill="#000000" font-family="sans-serif" font-size="13" lengthAdjust="spacing" textLength="29" x="1129.0625" y="68.9649">Start</text><polygon fill="#222222" points="1103.1177,66.3533,1101.6519,68.3562,1099.9181,71.2897,1097.4385,73.2667,1094.8328,74.3478,1092.7552,74.4417,1090.0849,73.0896,1087.5654,72.2063,1085.653,70.4129,1084.6498,68.3598,1084.0549,66.725,1083.4721,64.5897,1082.5261,62.7523,1083.2531,60.9582,1083.89,58.9929,1086.28,57.4386,1087.9616,55.4219,1090.0429,54.7522,1092.5172,54.1755,1095.6901,54.5182,1097.428,55.3378,1099.4486,55.7093,1101.9054,58.2264,1102.7618,60.8836,1103.1339,62.6967,1102.7125,65.6844" style="stroke:#222222;stroke-width:1.0;"/><polygon fill="#F1F1F1" points="818.5625,97.7739,818.5625,97.9841,828.5443,97.3596,838.5261,97.9672,848.508,98.1736,858.4898,97.0605,868.4716,97.6962,878.4534,97.3474,888.4352,97.3904,898.417,97.7058,908.3989,97.0826,918.3807,98.3276,928.3625,97.1437,938.3443,97.5762,948.3261,98.2059,958.308,97.6882,968.2898,97.8422,978.2716,97.742,988.2534,97.9525,998.2352,98.0131,1008.217,98.3596,1018.1989,98.445,1028.1807,98.4532,1038.1625,98.0286,1048.1443,98.2375,1058.1261,98.4762,1068.108,97.0527,1078.0898,98.4524,1088.0716,97.4774,1098.0534,98.3077,1108.0352,97.2789,1118.017,97.7054,1127.9989,98.5155,1137.9807,97.7252,1147.9625,97.8792,1157.9443,98.1126,1167.9261,98.1902,1177.908,97.77,1187.8898,98.0611,1197.8716,97.2015,1207.8534,98.0583,1217.8352,98.3221,1227.817,98.2185,1237.7989,98.387,1247.7807,97.2909,1257.7625,97.1217,1267.7443,97.1525,1277.7261,97.7151,1287.708,97.5774,1297.6898,98.4553,1307.6716,97.5993,1317.6534,97.4309,1327.6352,98.0022,1337.617,97.1071,1347.5989,97.2548,1357.5807,98.4229,1367.5625,97.7739,1367.6181,97.9081,1369.424,98.7324,1371.057,99.1393,1372.9065,100.0689,1374.7089,100.8847,1376.4013,101.4351,1376.2559,101.3748,1377.104,103.1906,1377.9046,104.9867,1378.7987,106.8215,1379.329,108.5056,1380.0625,110.2739,1380.2167,110.2739,1379.8779,112.5428,1379.8367,114.8116,1380.2304,117.0804,1379.8235,119.3492,1380.0625,121.618,1380.2192,121.683,1379.3939,123.4122,1378.5155,125.1194,1377.7569,126.8762,1377.2748,128.7476,1376.4013,130.4569,1376.3632,130.3647,1374.7091,131.3714,1372.7953,131.7511,1371.1768,132.8437,1369.392,133.535,1367.5625,134.118,1367.5625,134.363,1357.5807,134.1653,1347.5989,134.8447,1337.617,134.7316,1327.6352,134.2873,1317.6534,134.3862,1307.6716,133.9878,1297.6898,134.8345,1287.708,134.2729,1277.7261,134.2906,1267.7443,133.5097,1257.7625,133.7128,1247.7807,134.6488,1237.7989,134.5478,1227.817,134.0751,1217.8352,133.7959,1207.8534,133.8991,1197.8716,133.4319,1187.8898,134.5328,1177.908,134.8576,1167.9261,134.6444,1157.9443,134.813,1147.9625,133.9813,1137.9807,134.2053,1127.9989,133.7305,1118.017,134.4021,1108.0352,134.3648,1098.0534,134.6704,1088.0716,133.8884,1078.0898,133.9836,1068.108,134.5615,1058.1261,134.6854,1048.1443,133.6055,1038.1625,133.9242,1028.1807,134.2673,1018.1989,133.5072,1008.217,134.4714,998.2352,134.376,988.2534,134.0173,978.2716,134.2603,968.2898,134.8467,958.308,133.8052,948.3261,134.433,938.3443,134.4037,928.3625,134.2338,918.3807,134.259,908.3989,134.2315,898.417,133.4939,888.4352,133.7172,878.4534,133.6565,868.4716,134.1819,858.4898,134.2062,848.508,134.2798,838.5261,133.8271,828.5443,134.0505,818.5625,134.118,818.5472,134.081,816.8683,133.5635,815.0814,132.7849,813.1973,131.7718,811.4821,131.1667,809.7237,130.4569,809.5459,130.3833,809.0802,128.7259,808.4466,126.999,807.6947,125.223,806.6606,123.3303,806.0625,121.618,806.2172,121.618,805.8149,119.3492,806.1292,117.0804,805.9627,114.8116,806.0947,112.5428,806.0625,110.2739,806.1365,110.3046,806.9401,108.5664,807.3053,106.6466,808.4056,105.0313,809.0463,103.2256,809.7237,101.4351,809.769,101.5445,811.5868,100.9332,813.2599,99.9723,815.0493,99.2924,816.822,98.5719,818.5625,97.7739" style="stroke:#181818;stroke-width:0.5;"/><text fill="#000000" font-family="sans-serif" font-size="12" lengthAdjust="spacing" textLength="554" x="816.0625" y="120.602">Receive GET request to /exchange-rate?from=CURRENCY&amp;to=CURRENCY with Authorization header</text><polygon fill="#F1F1F1" points="1018.5625,154.118,1018.5625,154.3282,1028.4958,153.7037,1038.4292,154.3113,1048.3625,154.5177,1058.2958,153.4047,1068.2292,154.0403,1078.1625,153.6916,1088.0958,153.7345,1098.0292,154.0499,1107.9625,153.4267,1117.8958,154.6717,1127.8292,153.4878,1137.7625,153.9203,1147.6958,154.55,1157.6292,154.0323,1167.5625,154.118,1167.5786,154.1341,1169.955,156.5105,1172.4046,158.9601,1174.8189,161.3744,1177.3005,163.8561,1179.5625,166.118,1179.7207,166.2762,1177.3226,168.6782,1174.8225,170.9781,1172.4718,173.4273,1170.128,175.8836,1167.5625,178.118,1167.5625,177.3969,1157.6292,178.7966,1147.6958,177.8215,1137.7625,178.6519,1127.8292,177.623,1117.8958,178.0495,1107.9625,178.8597,1098.0292,178.0693,1088.0958,178.2233,1078.1625,178.4567,1068.2292,178.5343,1058.2958,178.1141,1048.3625,178.4053,1038.4292,177.5456,1028.4958,178.4024,1018.5625,178.118,1018.6917,178.2473,1016.2673,175.8228,1013.907,173.4625,1011.2486,170.8042,1008.8088,168.3643,1006.5625,166.118,1006.416,165.9716,1008.9486,163.7042,1011.3162,161.2717,1013.9231,159.0787,1016.1213,156.4769,1018.5625,154.118" style="stroke:#181818;stroke-width:0.5;"/><text fill="#000000" font-family="sans-serif" font-size="11" lengthAdjust="spacing" textLength="149" x="1018.5625" y="170.386">Query parameters are valid?</text><text fill="#000000" font-family="sans-serif" font-size="11" lengthAdjust="spacing" textLength="17" x="989.5625" y="162.8951">yes</text><text fill="#000000" font-family="sans-serif" font-size="11" lengthAdjust="spacing" textLength="14" x="1179.5625" y="162.8951">no</text><polygon fill="#F1F1F1" points="656.625,188.118,656.625,188.3282,666.4583,187.7037,676.2917,188.3113,686.125,188.5177,695.9583,187.4047,705.7917,188.0403,715.625,187.6916,725.4583,187.7345,735.2917,188.0499,745.125,187.4267,754.9583,188.6717,764.7917,187.4878,774.625,187.9203,784.4583,188.55,794.2917,188.0323,804.125,188.1863,813.9583,188.0861,823.7917,188.2966,833.625,188.3572,843.4583,188.7037,853.2917,188.7891,863.125,188.7973,872.9583,188.3727,882.7917,188.5816,892.625,188.118,892.7146,188.3343,894.3008,188.6282,896.2471,189.7915,897.8905,190.2234,899.7642,191.2114,901.4638,191.7792,901.3114,191.7161,902.175,193.5382,903.1567,195.4093,903.6455,197.0763,904.4252,198.8637,905.125,200.618,905.2379,200.618,905.2637,202.8869,905.1237,205.1557,905.2207,207.4245,904.9342,209.6933,905.125,211.9622,905.2126,211.9984,904.5616,213.7999,903.7974,215.5544,903.1171,217.3437,902.0473,218.9716,901.4638,220.801,901.3806,220.6002,899.6168,221.3419,897.9208,222.2473,896.1355,222.9372,894.4797,223.9398,892.625,224.4622,892.625,224.2875,882.7917,224.1191,872.9583,224.6904,863.125,223.7953,853.2917,223.943,843.4583,225.1111,833.625,224.8978,823.7917,225.1967,813.9583,224.1404,804.125,224.7814,794.2917,225.0526,784.4583,223.9898,774.625,224.3663,764.7917,224.5881,754.9583,225.1139,745.125,224.458,735.2917,224.9247,725.4583,223.9084,715.625,223.7849,705.7917,224.9658,695.9583,223.7452,686.125,224.9711,676.2917,224.6688,666.4583,224.1942,656.625,224.4622,656.5799,224.3532,654.9158,223.8712,653.0513,222.9055,651.3972,222.4477,649.4834,221.363,647.7862,220.801,647.9763,220.8798,647.2031,219.095,646.3971,217.2967,645.604,215.5037,645.081,213.8226,644.125,211.9622,644.3295,211.9622,644.1814,209.6933,644.2144,207.4245,644.0816,205.1557,644.3638,202.8869,644.125,200.618,644.1727,200.6378,644.9104,198.8723,645.4021,197.0049,646.1969,195.2631,647.2174,193.6147,647.7862,191.7792,647.841,191.9116,649.5485,191.0338,651.2806,190.2155,653.0615,189.5151,654.7697,188.639,656.625,188.118" style="stroke:#181818;stroke-width:0.5;"/><text fill="#000000" font-family="sans-serif" font-size="12" lengthAdjust="spacing" textLength="241" x="654.125" y="210.9461">Run Authorization Token Validation Process</text><polygon fill="#F1F1F1" points="703.125,244.4622,703.125,244.6723,713.3393,244.0478,723.5536,244.6554,733.7679,244.8618,743.9821,243.7488,754.1964,244.3844,764.4107,244.0357,774.625,244.0787,784.8393,244.394,795.0536,243.7708,805.2679,245.0158,815.4821,243.8319,825.6964,244.2644,835.9107,244.8941,846.125,244.4622,846.1048,244.4419,848.5411,246.8782,850.9175,249.2546,853.3671,251.7042,855.7814,254.1185,858.125,256.4622,858.263,256.6002,855.8832,259.0203,853.4851,261.4223,850.985,263.7222,848.6343,266.1714,846.125,268.4622,846.125,269.1644,835.9107,267.741,825.6964,269.1407,815.4821,268.1657,805.2679,268.996,795.0536,267.9671,784.8393,268.3937,774.625,269.2038,764.4107,268.4134,754.1964,268.5675,743.9821,268.8008,733.7679,268.8784,723.5536,268.4583,713.3393,268.7494,703.125,268.4622,702.9901,268.3272,700.792,266.1292,698.4542,263.7914,696.0298,261.3669,693.6695,259.0067,691.125,256.4622,691.0111,256.3483,693.3713,253.9084,695.7785,251.5157,698.3111,249.2483,700.6787,246.8158,703.125,244.4622" style="stroke:#181818;stroke-width:0.5;"/><text fill="#000000" font-family="sans-serif" font-size="11" lengthAdjust="spacing" textLength="143" x="703.125" y="260.7301">Authorization is successful?</text><text fill="#000000" font-family="sans-serif" font-size="11" lengthAdjust="spacing" textLength="17" x="674.125" y="253.2392">yes</text><text fill="#000000" font-family="sans-serif" font-size="11" lengthAdjust="spacing" textLength="14" x="858.125" y="253.2392">no</text><polygon fill="#F1F1F1" points="152.75,278.4622,152.75,278.6723,162.8676,278.0478,172.9853,278.6554,183.1029,278.8618,193.2206,277.7488,203.3382,278.3844,213.4559,278.0357,223.5735,278.0787,233.6912,278.394,243.8088,277.7708,253.9265,279.0158,264.0441,277.8319,274.1618,278.2644,284.2794,278.8941,294.3971,278.3764,304.5147,278.5304,314.6324,278.4302,324.75,278.6407,334.8676,278.7013,344.9853,279.0479,355.1029,279.1332,365.2206,279.1414,375.3382,278.7168,385.4559,278.9257,395.5735,279.1644,405.6912,277.741,415.8088,279.1407,425.9265,278.1657,436.0441,278.996,446.1618,277.9671,456.2794,278.3937,466.3971,279.2038,476.5147,278.4134,486.6324,278.5675,496.75,278.4622,496.7932,278.5664,498.5709,279.3226,500.285,279.9254,502.0899,280.7473,503.748,281.2148,505.5888,282.1233,505.6764,282.1596,506.4899,283.961,507.1902,285.7156,507.9743,287.5048,508.369,289.1328,509.25,290.9622,509.0326,290.9622,509.0429,293.231,509.2304,295.4998,509.1845,297.7686,509.4771,300.0375,509.25,302.3063,509.1962,302.284,508.4121,304.0303,507.8558,305.8709,506.8479,307.5245,506.1612,309.3111,505.5888,311.1451,505.6716,311.345,503.8766,312.0115,502.147,312.8358,500.2445,313.2427,498.5585,314.1723,496.75,314.8063,496.75,315.3967,486.6324,314.3339,476.5147,314.7104,466.3971,314.9323,456.2794,315.458,446.1618,314.8021,436.0441,315.2688,425.9265,314.2525,415.8088,314.129,405.6912,315.3099,395.5735,314.0893,385.4559,315.3152,375.3382,315.0129,365.2206,314.5384,355.1029,314.4525,344.9853,315.265,334.8676,314.5069,324.75,315.3981,314.6324,314.2535,304.5147,315.4237,294.3971,315.2906,284.2794,315.0512,274.1618,314.8535,264.0441,315.5329,253.9265,315.4199,243.8088,314.9755,233.6912,315.0745,223.5735,314.676,213.4559,315.5227,203.3382,314.9611,193.2206,314.9788,183.1029,314.1979,172.9853,314.4011,162.8676,315.337,152.75,314.8063,152.8048,314.9386,150.9768,314.0608,149.1734,313.2426,147.4188,312.5422,145.5914,311.666,143.9112,311.1451,144.0389,311.198,143.4067,309.4717,142.6088,307.6767,141.9285,305.9305,140.9401,304.0566,140.25,302.3063,140.2791,302.3063,140.1208,300.0375,140.3447,297.7686,140.3323,295.4998,140.4341,293.231,140.25,290.9622,140.1793,290.9329,140.9408,289.1773,141.851,287.4832,142.6214,285.7312,143.0211,283.8257,143.9112,282.1233,143.8864,282.0636,145.698,281.4371,147.3688,280.4707,149.2595,280.0355,151.0151,279.2738,152.75,278.4622" style="stroke:#181818;stroke-width:0.5;"/><text fill="#000000" font-family="sans-serif" font-size="12" lengthAdjust="spacing" textLength="349" x="150.25" y="301.2903">Extract from_currency and to_currency from query parameters</text><polygon fill="#F1F1F1" points="32.25,334.8063,32.25,335.0165,42.1653,334.392,52.0805,334.9996,61.9958,335.206,71.911,334.0929,81.8263,334.7286,91.7415,334.3798,101.6568,334.4228,111.572,334.7381,121.4873,334.1149,131.4025,335.3599,141.3178,334.176,151.2331,334.6085,161.1483,335.2382,171.0636,334.7205,180.9788,334.8745,190.8941,334.7743,200.8093,334.9848,210.7246,335.0454,220.6398,335.392,230.5551,335.4773,240.4703,335.4855,250.3856,335.0609,260.3008,335.2699,270.2161,335.5085,280.1314,334.0851,290.0466,335.4848,299.9619,334.5098,309.8771,335.3401,319.7924,334.3113,329.7076,334.7378,339.6229,335.5479,349.5381,334.7575,359.4534,334.9116,369.3686,335.1449,379.2839,335.2225,389.1992,334.8024,399.1144,335.0935,409.0297,334.2339,418.9449,335.0907,428.8602,335.3545,438.7754,335.2508,448.6907,335.4193,458.6059,334.3232,468.5212,334.1541,478.4364,334.1849,488.3517,334.7474,498.2669,334.6097,508.1822,335.4877,518.0975,334.6316,528.0127,334.4632,537.928,335.0345,547.8432,334.1394,557.7585,334.2872,567.6737,335.4552,577.589,335.2419,587.5042,335.5408,597.4195,334.4845,607.3347,335.1255,617.25,334.8063,617.3253,334.9881,618.9575,335.393,620.7733,336.2412,622.5694,337.0418,624.4042,337.9359,626.0888,338.4674,626.0875,338.4669,626.9635,340.2942,627.3828,341.9323,628.077,343.6844,629.1729,345.6028,629.75,347.3063,629.511,347.3063,629.9197,349.5751,629.8189,351.8439,629.6607,354.1127,629.6321,356.3816,629.75,358.6504,629.8913,358.7089,628.9256,360.38,628.4678,362.2614,627.3831,363.8832,627.0112,365.8002,626.0888,367.4892,626.1506,367.6384,624.3523,368.2969,622.5593,368.9682,620.8782,369.9097,619.096,370.6071,617.25,371.1504,617.25,371.3196,607.3347,371.4186,597.4195,371.0201,587.5042,371.8668,577.589,371.3053,567.6737,371.323,557.7585,370.542,547.8432,370.7452,537.928,371.6811,528.0127,371.5802,518.0975,371.1075,508.1822,370.8282,498.2669,370.9315,488.3517,370.4642,478.4364,371.5651,468.5212,371.89,458.6059,371.6768,448.6907,371.8453,438.7754,371.0137,428.8602,371.2376,418.9449,370.7628,409.0297,371.4344,399.1144,371.3972,389.1992,371.7028,379.2839,370.9207,369.3686,371.016,359.4534,371.5939,349.5381,371.7177,339.6229,370.6379,329.7076,370.9565,319.7924,371.2997,309.8771,370.5395,299.9619,371.5038,290.0466,371.4084,280.1314,371.0496,270.2161,371.2926,260.3008,371.8791,250.3856,370.8375,240.4703,371.4654,230.5551,371.436,220.6398,371.2662,210.7246,371.2913,200.8093,371.2639,190.8941,370.5262,180.9788,370.7496,171.0636,370.6889,161.1483,371.2142,151.2331,371.2385,141.3178,371.3121,131.4025,370.8594,121.4873,371.0829,111.572,371.0302,101.6568,371.7272,91.7415,371.577,81.8263,370.6649,71.911,371.0775,61.9958,370.5732,52.0805,371.4388,42.1653,371.7589,32.25,371.1504,32.3195,371.3181,30.4267,370.284,28.7737,369.8288,26.8519,368.7249,25.2045,368.2831,23.4112,367.4892,23.319,367.451,22.7087,365.7338,22.0207,363.9843,21.3599,362.2461,20.2605,360.3263,19.75,358.6504,19.9085,358.6504,19.8094,356.3816,19.8684,354.1127,19.9993,351.8439,19.7518,349.5751,19.75,347.3063,19.804,347.3286,20.548,345.5657,21.2752,343.7959,21.9464,342.0029,22.8978,340.3259,23.4112,338.4674,23.3334,338.2797,25.251,337.9093,26.8671,336.8108,28.6455,336.1043,30.4873,335.5508,32.25,334.8063" style="stroke:#181818;stroke-width:0.5;"/><text fill="#000000" font-family="sans-serif" font-size="12" lengthAdjust="spacing" textLength="590" x="29.75" y="357.6344">Fetch exchange rate from an external api using from_currency and to_currency and add 5% processig fees</text><polygon fill="#F1F1F1" points="269.25,391.1504,269.25,391.3606,279.3409,390.7361,289.4318,391.3437,299.5227,391.5501,309.6136,390.437,319.7045,391.0727,329.7955,390.7239,339.8864,390.7669,349.9773,391.0822,360.0682,390.459,370.1591,391.704,380.25,391.1504,380.1014,391.0018,382.6034,393.5038,385.1518,396.0522,387.4298,398.3302,389.8661,400.7665,392.25,403.1504,392.2425,403.1429,389.8921,405.5925,387.5064,408.0068,385.188,410.4884,382.8082,412.9086,380.25,415.1504,380.25,415.8296,370.1591,415.405,360.0682,415.614,349.9773,415.8526,339.8864,414.4292,329.7955,415.8289,319.7045,414.8539,309.6136,415.6842,299.5227,414.6554,289.4318,415.0819,279.3409,415.892,269.25,415.1504,269.2385,415.1389,266.8748,412.7752,264.5298,410.4302,262.1481,408.0485,259.6491,405.5495,257.25,403.1504,257.3177,403.2181,259.5151,400.6155,262.117,398.4174,264.5792,396.0796,266.9548,393.6552,269.25,391.1504" style="stroke:#181818;stroke-width:0.5;"/><text fill="#000000" font-family="sans-serif" font-size="11" lengthAdjust="spacing" textLength="111" x="269.25" y="407.4184">Exchange rate exists?</text><text fill="#000000" font-family="sans-serif" font-size="11" lengthAdjust="spacing" textLength="17" x="240.25" y="399.9274">yes</text><text fill="#000000" font-family="sans-serif" font-size="11" lengthAdjust="spacing" textLength="14" x="392.25" y="399.9274">no</text><path d="M240,425.1504 L240.5605,425.1504 L238.8951,435.974 L240.5154,446.7976 L241.0658,457.6212 L238.0976,468.4448 L240,479.2684 L239.9865,479.2007 L235.9257,479.6967 L231.9331,480.5342 L227.9881,481.609 L223.8795,481.8658 L220,483.2684 L220.0965,483.751 L223.8901,483.5191 L227.9655,484.6961 L232.0753,486.0449 L235.985,486.3937 L240,487.2684 L240.182,487.2684 L239.9148,498.0921 L240.4761,508.9157 L240.6377,519.7393 L241.5618,530.5629 L240,541.3865 L240,541.3865 L240,543.176 L249.95,543.1978 L259.9,542.0655 L269.85,542.6227 L279.8,543.2591 L289.75,539.4633 L299.7,543.1959 L309.65,540.5958 L319.6,542.81 L329.55,540.0664 L339.5,541.2038 L349.45,543.3641 L359.4,541.2565 L369.35,541.6673 L379.3,542.2895 L389.25,542.4964 L399.2,541.3761 L409.15,542.1524 L419.1,539.86 L429.05,542.1449 L439,541.3865 L439,541.3865 L440.4619,541.3865 L440.1854,531.7287 L440.6347,522.0708 L437.7118,512.413 L437.2608,502.7552 L437.3429,493.0974 L438.843,483.4395 L438.4759,473.7817 L440.8171,464.1239 L438.5342,454.466 L438.0852,444.8082 L439,435.1504 L439.1435,435.2939 L436.5809,432.7313 L434.6737,430.8241 L433.4079,429.5583 L431.2738,427.4242 L429,425.1504 L429,427.109 L419.0526,424.2923 L409.1053,426.0016 L399.1579,426.7248 L389.2105,423.8906 L379.2632,424.8948 L369.3158,425.4863 L359.3684,426.8884 L349.4211,425.1392 L339.4737,426.3839 L329.5263,423.6736 L319.5789,423.3444 L309.6316,426.4934 L299.6842,423.2385 L289.7368,426.5076 L279.7895,425.7014 L269.8421,424.4359 L259.8947,424.207 L249.9474,426.3737 L240,425.1504 L240,425.1504 " fill="#FEFFDD" style="stroke:#181818;stroke-width:0.5;"/><path d="M429,425.1504 L429.1868,425.1504 L428.6317,427.1504 L429.1718,429.1504 L429.3553,431.1504 L428.3659,433.1504 L429,435.1504 L429,435.0813 L431,434.7713 L433,434.8095 L435,435.0898 L437,434.5358 L439,435.1504 L439.348,435.4984 L436.6038,432.7542 L434.8757,431.0261 L433.2715,429.4219 L430.9461,427.0965 L429,425.1504 " fill="#FEFFDD" style="stroke:#181818;stroke-width:0.5;"/><text fill="#000000" font-family="sans-serif" font-size="13" lengthAdjust="spacing" textLength="68" x="246" y="444.0474">JSON Body:</text><text fill="#000000" font-family="sans-serif" font-size="13" lengthAdjust="spacing" textLength="5" x="246" y="461.7534">{</text><text fill="#000000" font-family="sans-serif" font-size="13" lengthAdjust="spacing" textLength="143" x="258" y="479.4594">"from_currency": "BHD",</text><text fill="#000000" font-family="sans-serif" font-size="13" lengthAdjust="spacing" textLength="126" x="258" y="497.1655">"to_currency": "USD",</text><text fill="#000000" font-family="sans-serif" font-size="13" lengthAdjust="spacing" textLength="166" x="258" y="514.8715">"exchange_rate": "0.000000"</text><text fill="#000000" font-family="sans-serif" font-size="13" lengthAdjust="spacing" textLength="5" x="246" y="532.5775">}</text><polygon fill="#F1F1F1" points="23.5,465.0964,23.5,465.3066,33.7222,464.6821,43.9444,465.2897,54.1667,465.4961,64.3889,464.383,74.6111,465.0187,84.8333,464.6699,95.0556,464.7129,105.2778,465.0282,115.5,464.405,125.7222,465.65,135.9444,464.4661,146.1667,464.8986,156.3889,465.5283,166.6111,465.0106,176.8333,465.1646,187.0556,465.0644,197.2778,465.2749,207.5,465.0964,207.5305,465.17,209.3425,466.009,211.1211,466.7675,212.8899,467.5023,214.6035,468.1037,216.3388,468.7575,216.4816,468.8167,217.2873,470.6149,217.5812,472.2011,218.7445,474.1474,219.1765,475.7908,220,477.5964,220.1779,477.5964,219.835,479.8652,219.9772,482.134,220.2472,484.4029,219.9838,486.6717,220,488.9405,220.0324,488.9539,219.3721,490.7515,218.6637,492.5291,217.8021,494.2433,217.1595,496.0482,216.3388,497.7793,216.2658,497.6031,214.6073,498.5991,212.8732,499.4126,211.0922,500.1129,209.346,500.8971,207.5,501.4405,207.5,500.9574,197.2778,500.7883,187.0556,500.8191,176.8333,501.3816,166.6111,501.244,156.3889,502.1219,146.1667,501.2658,135.9444,501.0974,125.7222,501.6688,115.5,500.7737,105.2778,500.9214,95.0556,502.0894,84.8333,501.8762,74.6111,502.175,64.3889,501.1187,54.1667,501.7597,43.9444,502.0309,33.7222,500.9681,23.5,501.4405,23.4878,501.411,21.7483,500.7471,20.0476,500.1767,18.1962,499.2425,16.4879,498.654,14.6612,497.7793,14.4906,497.7087,13.7204,495.9252,13.3518,494.308,12.2437,492.3846,11.889,490.7732,11,488.9405,11.0689,488.9405,10.9107,486.6717,10.8821,484.4029,11.1529,482.134,10.9002,479.8652,11,477.5964,11.1823,477.6719,11.562,475.7581,12.6546,474.1396,13.3458,472.3549,14.0044,470.5566,14.6612,468.7575,14.6672,468.7721,16.5216,468.2491,18.275,467.482,19.9861,466.613,21.7664,465.9112,23.5,465.0964" style="stroke:#181818;stroke-width:0.5;"/><text fill="#000000" font-family="sans-serif" font-size="12" lengthAdjust="spacing" textLength="189" x="21" y="487.9245">Return 200 OK with exchange rate</text><path d="M40.5,558.5335 L40.6868,558.5335 L40.1317,564.0747 L40.6718,569.6159 L40.8553,575.1571 L39.8659,580.6983 L40.5,586.2395 L40.5,586.2395 L40.5,586.1704 L49.3,585.8604 L58.1,585.8986 L66.9,586.1789 L75.7,585.6249 L84.5,586.2395 L84.5,586.2395 L84.9921,586.2395 L83.9398,584.2983 L84.3242,582.3571 L84.884,580.4159 L84.4238,578.4747 L84.5,576.5335 L84.5123,576.5929 L88.4942,575.6763 L92.5322,575.0301 L96.5432,574.2534 L100.6057,573.7257 L104.5,572.3865 L104.6128,572.9722 L100.6142,572.2088 L96.5428,571.0675 L92.578,570.4793 L88.6181,569.917 L84.5,568.5335 L84.0467,568.0802 L82.9265,566.96 L80.3136,564.3471 L78.8355,562.869 L76.1889,560.2223 L74.5,558.5335 L74.5,558.4726 L67.7,559.1927 L60.9,558.4902 L54.1,558.6271 L47.3,558.8345 L40.5,558.5335 L40.5,558.5335 " fill="#FEFFDD" style="stroke:#181818;stroke-width:0.5;"/><path d="M74.5,558.5335 L74.6868,558.5335 L74.1317,560.5335 L74.6718,562.5335 L74.8553,564.5335 L73.8659,566.5335 L74.5,568.5335 L74.5,568.4644 L76.5,568.1544 L78.5,568.1926 L80.5,568.4729 L82.5,567.9189 L84.5,568.5335 L84.848,568.8815 L82.1038,566.1373 L80.3757,564.4092 L78.7715,562.805 L76.4461,560.4796 L74.5,558.5335 " fill="#FEFFDD" style="stroke:#181818;stroke-width:0.5;"/><text fill="#000000" font-family="sans-serif" font-size="13" lengthAdjust="spacing" textLength="23" x="46.5" y="577.4305">End</text><polygon fill="none" points="126.5608,575.0621,124.9484,577.2653,123.0412,580.4922,120.3136,582.6669,117.4474,583.8561,115.162,583.9593,112.2247,582.472,109.4532,581.5004,107.3495,579.5277,106.2461,577.2693,105.5917,575.471,104.9506,573.1222,103.91,571.101,104.7096,569.1275,105.4102,566.9657,108.0393,565.256,109.889,563.0376,112.1784,562.3009,114.9001,561.6665,118.3904,562.0435,120.3021,562.945,122.5247,563.3537,125.2272,566.1225,126.1693,569.0454,126.5786,571.0398,126.115,574.3264" style="stroke:#222222;stroke-width:1.0;"/><polygon fill="#222222" points="121.5331,573.8459,120.6536,575.0476,119.6134,576.8078,118.1256,577.994,116.5622,578.6426,115.3156,578.6989,113.7135,577.8877,112.2017,577.3577,111.0543,576.2817,110.4524,575.0498,110.0955,574.069,109.7458,572.7878,109.1782,571.6853,109.6143,570.6089,109.9965,569.4297,111.4305,568.4971,112.4394,567.2871,113.6882,566.8853,115.1728,566.5392,117.0766,566.7448,118.1193,567.2366,119.3317,567.4595,120.8057,568.9698,121.3196,570.5641,121.5429,571.652,121.29,573.4446" style="stroke:#222222;stroke-width:1.0;"/><path d="M624.5,429.4694 L624.6868,429.4694 L624.1317,431.44 L624.6718,433.4106 L624.8553,435.3812 L623.8659,437.3518 L624.5,439.3224 L624.4865,439.2547 L620.4257,439.7507 L616.4331,440.5882 L612.4881,441.663 L608.3795,441.9198 L604.5,443.3224 L604.5965,443.805 L608.3901,443.5731 L612.4655,444.7501 L616.5753,446.0989 L620.485,446.4477 L624.5,447.3224 L624.5607,447.3224 L624.4716,449.293 L624.6587,451.2637 L624.7126,453.2343 L625.0206,455.2049 L624.5,457.1755 L624.5,457.1755 L624.5,458.9649 L634.4167,458.9868 L644.3333,457.8545 L654.25,458.4117 L664.1667,459.0481 L674.0833,455.2523 L684,458.9848 L693.9167,456.3848 L703.8333,458.599 L713.75,455.8554 L723.6667,456.9928 L733.5833,459.1531 L743.5,457.0455 L753.4167,457.4563 L763.3333,458.0785 L773.25,458.2854 L783.1667,457.165 L793.0833,457.9414 L803,455.649 L812.9167,457.9338 L822.8333,458.6373 L832.75,458.3609 L842.6667,458.8102 L852.5833,455.8872 L862.5,457.1755 L862.5,457.1755 L861.9203,457.1755 L861.9476,453.6343 L862.4477,450.093 L862.3253,446.5518 L863.1057,443.0106 L862.5,439.4694 L862.3902,439.3596 L860.2844,437.2538 L858.6435,435.6129 L856.0809,433.0503 L854.1737,431.1431 L852.5,429.4694 L852.5,431.2 L842.587,430.6312 L832.6739,431.4281 L822.7609,428.6113 L812.8478,430.3206 L802.9348,431.0439 L793.0217,428.2097 L783.1087,429.2138 L773.1957,429.8054 L763.2826,431.2075 L753.3696,429.4583 L743.4565,430.703 L733.5435,427.9927 L723.6304,427.6634 L713.7174,430.8124 L703.8043,427.5576 L693.8913,430.8267 L683.9783,430.0204 L674.0652,428.755 L664.1522,428.526 L654.2391,430.6928 L644.3261,428.6712 L634.413,431.0477 L624.5,429.4694 L624.5,429.4694 " fill="#FEFFDD" style="stroke:#181818;stroke-width:0.5;"/><path d="M852.5,429.4694 L852.6868,429.4694 L852.1317,431.4694 L852.6718,433.4694 L852.8553,435.4694 L851.8659,437.4694 L852.5,439.4694 L852.5,439.4004 L854.5,439.0903 L856.5,439.1286 L858.5,439.4089 L860.5,438.8549 L862.5,439.4694 L862.848,439.8174 L860.1038,437.0733 L858.3757,435.3451 L856.7715,433.7409 L854.4461,431.4155 L852.5,429.4694 " fill="#FEFFDD" style="stroke:#181818;stroke-width:0.5;"/><text fill="#000000" font-family="sans-serif" font-size="13" lengthAdjust="spacing" textLength="217" x="630.5" y="448.3665">{"detail": "Exchange rate not found"}</text><polygon fill="#F1F1F1" points="476,425.1504,476,425.3606,485.6667,424.7361,495.3333,425.3437,505,425.5501,514.6667,424.437,524.3333,425.0727,534,424.7239,543.6667,424.7669,553.3333,425.0822,563,424.459,572.6667,425.704,582.3333,424.5201,592,425.1504,591.9748,425.0895,593.8229,426.0156,595.5246,426.5884,597.312,427.3681,599.067,428.0695,600.8388,428.8116,600.8938,428.8343,601.6447,430.6098,602.4837,432.4218,603.2422,434.2005,603.977,435.9693,604.5,437.6504,604.5849,437.6504,604.6545,439.9192,604.7341,442.188,604.2596,444.4569,604.7262,446.7257,604.5,448.9945,604.4087,448.9567,603.9322,450.8304,602.8831,452.4669,602.2822,454.2891,601.7995,456.1602,600.8388,457.8333,600.8326,457.8183,599.0845,458.598,597.3465,459.4021,595.5886,460.1582,593.7673,460.7611,592,461.4945,592,461.7817,582.3333,460.9221,572.6667,461.7789,563,462.0427,553.3333,461.939,543.6667,462.1075,534,461.0114,524.3333,460.8423,514.6667,460.8731,505,461.4356,495.3333,461.298,485.6667,462.1759,476,461.4945,475.9777,461.4407,474.1885,460.6566,472.4936,460.1003,470.6116,459.0924,468.8627,458.4057,467.1612,457.8333,467.361,457.9161,466.5631,456.1211,465.9229,454.3915,464.8654,452.489,464.3305,450.803,463.5,448.9945,463.6968,448.9945,463.3425,446.7257,463.468,444.4569,463.542,442.188,463.7173,439.9192,463.5,437.6504,463.4987,437.6499,464.3747,435.9416,464.7939,434.0442,465.4881,432.2607,466.584,430.6436,467.1612,428.8116,467.0697,428.5908,468.9939,428.2361,470.7231,427.4107,472.4303,426.5323,474.1871,425.7737,476,425.1504" style="stroke:#181818;stroke-width:0.5;"/><text fill="#000000" font-family="sans-serif" font-size="12" lengthAdjust="spacing" textLength="121" x="473.5" y="447.9785">Return 404 Not Found</text><path d="M459,496.4945 L459.1868,496.4945 L458.6317,502.0357 L459.1718,507.5769 L459.3553,513.1181 L458.3659,518.6593 L459,524.2005 L459,524.2005 L459,524.1314 L467.8,523.8214 L476.6,523.8596 L485.4,524.1399 L494.2,523.586 L503,524.2005 L503,524.2005 L503.4921,524.2005 L502.4398,522.2593 L502.8242,520.3181 L503.384,518.3769 L502.9238,516.4357 L503,514.4945 L503.0123,514.5539 L506.9942,513.6373 L511.0322,512.9911 L515.0432,512.2144 L519.1057,511.6867 L523,510.3475 L523.1128,510.9332 L519.1142,510.1698 L515.0428,509.0286 L511.078,508.4403 L507.1181,507.878 L503,506.4945 L502.5467,506.0412 L501.4265,504.921 L498.8136,502.3081 L497.3355,500.83 L494.6889,498.1834 L493,496.4945 L493,496.4336 L486.2,497.1537 L479.4,496.4512 L472.6,496.5881 L465.8,496.7955 L459,496.4945 L459,496.4945 " fill="#FEFFDD" style="stroke:#181818;stroke-width:0.5;"/><path d="M493,496.4945 L493.1868,496.4945 L492.6317,498.4945 L493.1718,500.4945 L493.3553,502.4945 L492.3659,504.4945 L493,506.4945 L493,506.4254 L495,506.1154 L497,506.1536 L499,506.4339 L501,505.88 L503,506.4945 L503.348,506.8425 L500.6038,504.0983 L498.8757,502.3702 L497.2715,500.766 L494.9461,498.4406 L493,496.4945 " fill="#FEFFDD" style="stroke:#181818;stroke-width:0.5;"/><text fill="#000000" font-family="sans-serif" font-size="13" lengthAdjust="spacing" textLength="23" x="465" y="515.3915">End</text><polygon fill="none" points="545.0608,513.0231,543.4484,515.2263,541.5412,518.4532,538.8136,520.6279,535.9474,521.8171,533.662,521.9203,530.7247,520.4331,527.9532,519.4614,525.8495,517.4887,524.7461,515.2303,524.0917,513.432,523.4506,511.0832,522.41,509.062,523.2096,507.0885,523.9102,504.9267,526.5393,503.217,528.389,500.9986,530.6784,500.262,533.4001,499.6276,536.8904,500.0045,538.8021,500.906,541.0247,501.3147,543.7272,504.0835,544.6693,507.0065,545.0786,509.0009,544.615,512.2874" style="stroke:#222222;stroke-width:1.0;"/><polygon fill="#222222" points="540.0331,511.807,539.1536,513.0087,538.1134,514.7688,536.6256,515.955,535.0622,516.6037,533.8156,516.66,532.2135,515.8487,530.7017,515.3187,529.5543,514.2427,528.9524,513.0108,528.5955,512.03,528.2458,510.7488,527.6782,509.6463,528.1143,508.5699,528.4965,507.3907,529.9305,506.4581,530.9394,505.2481,532.1882,504.8463,533.6728,504.5003,535.5766,504.7059,536.6193,505.1976,537.8317,505.4205,539.3057,506.9308,539.8196,508.5251,540.0429,509.613,539.79,511.4056" style="stroke:#222222;stroke-width:1.0;"/><path d="M892.5,282.7812 L892.6868,282.7812 L892.1317,288.3224 L892.6718,293.8636 L892.8553,299.4048 L891.8659,304.946 L892.5,310.4872 L892.5,310.4872 L892.5,310.28 L902.587,309.3499 L912.6739,309.4646 L922.7609,310.3055 L932.8478,308.6436 L942.9348,311.9636 L953.0217,308.8065 L963.1087,309.9598 L973.1957,311.6391 L983.2826,310.2585 L993.3696,310.6692 L1003.4565,310.402 L1013.5435,310.9633 L1023.6304,311.1249 L1033.7174,312.0491 L1043.8043,312.2767 L1053.8913,312.2986 L1063.9783,311.1662 L1074.0652,311.7235 L1084.1522,312.3598 L1094.2391,308.5641 L1104.3261,312.2966 L1114.413,309.6966 L1124.5,310.4872 L1124.5,310.4872 L1124.9745,310.4872 L1124.06,308.546 L1124.4391,306.6048 L1125.1592,304.6636 L1124.4567,302.7224 L1124.5,300.7812 L1124.519,300.8729 L1128.5611,300.2465 L1132.5751,299.4847 L1136.4993,298.2896 L1140.5518,297.7136 L1144.5,296.6342 L1144.4037,296.1346 L1140.5478,296.1118 L1136.5922,295.5715 L1132.5747,294.7104 L1128.6031,294.0869 L1124.5,292.7812 L1124.1964,292.4776 L1122.0901,290.3713 L1120.1094,288.3906 L1118.463,286.7442 L1116.3765,284.6577 L1114.5,282.7812 L1114.5,284.5983 L1104.4091,282.3154 L1094.3182,281.8664 L1084.2273,283.3899 L1074.1364,281.003 L1064.0455,281.3969 L1053.9545,284.5117 L1043.8636,283.943 L1033.7727,284.7399 L1023.6818,281.9231 L1013.5909,283.6324 L1003.5,284.3557 L993.4091,281.5215 L983.3182,282.5256 L973.2273,283.1172 L963.1364,284.5192 L953.0455,282.77 L942.9545,284.0147 L932.8636,281.3044 L922.7727,280.9752 L912.6818,284.1242 L902.5909,280.8694 L892.5,282.7812 L892.5,282.7812 " fill="#FEFFDD" style="stroke:#181818;stroke-width:0.5;"/><path d="M1114.5,282.7812 L1114.6868,282.7812 L1114.1317,284.7812 L1114.6718,286.7812 L1114.8553,288.7812 L1113.8659,290.7812 L1114.5,292.7812 L1114.5,292.7121 L1116.5,292.4021 L1118.5,292.4403 L1120.5,292.7206 L1122.5,292.1667 L1124.5,292.7812 L1124.848,293.1292 L1122.1038,290.3851 L1120.3757,288.6569 L1118.7715,287.0527 L1116.4461,284.7273 L1114.5,282.7812 " fill="#FEFFDD" style="stroke:#181818;stroke-width:0.5;"/><text fill="#000000" font-family="sans-serif" font-size="13" lengthAdjust="spacing" textLength="211" x="898.5" y="301.6782">{"detail": "Invalid or expired token"}</text><polygon fill="#F1F1F1" points="1157,278.4622,1157,278.6723,1166.6429,278.0478,1176.2857,278.6554,1185.9286,278.8618,1195.5714,277.7488,1205.2143,278.3844,1214.8571,278.0357,1224.5,278.0787,1234.1429,278.394,1243.7857,277.7708,1253.4286,279.0158,1263.0714,277.8319,1272.7143,278.2644,1282.3571,278.8941,1292,278.4622,1291.9891,278.4357,1293.7765,279.2154,1295.5315,279.9168,1297.3261,280.7138,1299.1016,281.4647,1300.8388,282.1233,1301.0192,282.198,1301.7777,283.9767,1302.5125,285.7455,1303.1139,287.4591,1303.9105,289.2535,1304.5,290.9622,1304.7341,290.9622,1304.2596,293.231,1304.7262,295.4998,1304.4012,297.7686,1304.6779,300.0375,1304.5,302.3063,1304.3476,302.2431,1303.7467,304.0653,1303.2639,305.9364,1302.2883,307.6034,1301.6035,309.3908,1300.8388,311.1451,1300.882,311.2494,1299.1242,312.0055,1297.3028,312.6084,1295.5722,313.4303,1293.6947,313.8978,1292,314.8063,1292,315.0907,1282.3571,315.3545,1272.7143,315.2508,1263.0714,315.4193,1253.4286,314.3232,1243.7857,314.1541,1234.1429,314.1849,1224.5,314.7474,1214.8571,314.6097,1205.2143,315.4877,1195.5714,314.6316,1185.9286,314.4632,1176.2857,315.0345,1166.6429,314.1394,1157,314.8063,1156.9338,314.6464,1155.315,314.2739,1153.52,313.476,1151.7904,312.8358,1149.8879,311.7782,1148.1612,311.1451,1148.2595,311.1858,1147.6108,309.4527,1146.5512,307.5493,1145.9349,305.8296,1145.271,304.0901,1144.5,302.3063,1144.7173,302.3063,1144.4986,300.0375,1144.6542,297.7686,1144.3154,295.4998,1144.2742,293.231,1144.5,290.9622,1144.6551,291.0264,1145.0114,289.1029,1146.1212,287.4916,1146.7603,285.6852,1147.3464,283.8569,1148.1612,282.1233,1148.116,282.0144,1149.9875,281.5324,1151.6585,280.5667,1153.54,280.1089,1155.1617,279.0242,1157,278.4622" style="stroke:#181818;stroke-width:0.5;"/><text fill="#000000" font-family="sans-serif" font-size="12" lengthAdjust="spacing" textLength="140" x="1154.5" y="301.2903">Return 401 Unauthorized</text><path d="M1149.5,334.8063 L1149.6868,334.8063 L1149.1317,340.3475 L1149.6718,345.8887 L1149.8553,351.4299 L1148.8659,356.9711 L1149.5,362.5123 L1149.5,362.5123 L1149.5,362.4432 L1158.3,362.1332 L1167.1,362.1714 L1175.9,362.4517 L1184.7,361.8977 L1193.5,362.5123 L1193.5,362.5123 L1193.9921,362.5123 L1192.9398,360.5711 L1193.3242,358.6299 L1193.884,356.6887 L1193.4238,354.7475 L1193.5,352.8063 L1193.5123,352.8657 L1197.4942,351.9491 L1201.5322,351.3029 L1205.5432,350.5262 L1209.6057,349.9985 L1213.5,348.6593 L1213.6128,349.245 L1209.6142,348.4816 L1205.5428,347.3403 L1201.578,346.7521 L1197.6181,346.1898 L1193.5,344.8063 L1193.0467,344.353 L1191.9265,343.2327 L1189.3136,340.6199 L1187.8355,339.1418 L1185.1889,336.4951 L1183.5,334.8063 L1183.5,334.7454 L1176.7,335.4655 L1169.9,334.763 L1163.1,334.8999 L1156.3,335.1073 L1149.5,334.8063 L1149.5,334.8063 " fill="#FEFFDD" style="stroke:#181818;stroke-width:0.5;"/><path d="M1183.5,334.8063 L1183.6868,334.8063 L1183.1317,336.8063 L1183.6718,338.8063 L1183.8553,340.8063 L1182.8659,342.8063 L1183.5,344.8063 L1183.5,344.7372 L1185.5,344.4272 L1187.5,344.4654 L1189.5,344.7457 L1191.5,344.1917 L1193.5,344.8063 L1193.848,345.1543 L1191.1038,342.4101 L1189.3757,340.682 L1187.7715,339.0778 L1185.4461,336.7524 L1183.5,334.8063 " fill="#FEFFDD" style="stroke:#181818;stroke-width:0.5;"/><text fill="#000000" font-family="sans-serif" font-size="13" lengthAdjust="spacing" textLength="23" x="1155.5" y="353.7033">End</text><polygon fill="none" points="1235.5608,351.3349,1233.9484,353.5381,1232.0412,356.765,1229.3136,358.9397,1226.4474,360.1289,1224.162,360.2321,1221.2247,358.7448,1218.4532,357.7732,1216.3495,355.8005,1215.2461,353.5421,1214.5917,351.7438,1213.9506,349.395,1212.91,347.3738,1213.7096,345.4003,1214.4102,343.2385,1217.0393,341.5288,1218.889,339.3104,1221.1784,338.5737,1223.9001,337.9393,1227.3904,338.3162,1229.3021,339.2178,1231.5247,339.6265,1234.2272,342.3953,1235.1693,345.3182,1235.5786,347.3126,1235.115,350.5992" style="stroke:#222222;stroke-width:1.0;"/><polygon fill="#222222" points="1230.5331,350.1187,1229.6536,351.3204,1228.6134,353.0806,1227.1256,354.2668,1225.5622,354.9154,1224.3156,354.9717,1222.7135,354.1605,1221.2017,353.6305,1220.0543,352.5545,1219.4524,351.3226,1219.0955,350.3418,1218.7458,349.0606,1218.1782,347.9581,1218.6143,346.8816,1218.9965,345.7025,1220.4305,344.7699,1221.4394,343.5599,1222.6882,343.1581,1224.1728,342.812,1226.0766,343.0176,1227.1193,343.5094,1228.3317,343.7323,1229.8057,345.2425,1230.3196,346.8369,1230.5429,347.9247,1230.29,349.7174" style="stroke:#222222;stroke-width:1.0;"/><path d="M1508.5,192.4371 L1508.6868,192.4371 L1508.1317,194.4077 L1508.6718,196.3783 L1508.8553,198.3489 L1507.8659,200.3195 L1508.5,202.2901 L1508.4865,202.2224 L1504.4257,202.7184 L1500.4331,203.5558 L1496.4881,204.6307 L1492.3795,204.8875 L1488.5,206.2901 L1488.5965,206.7727 L1492.3901,206.5407 L1496.4655,207.7177 L1500.5753,209.0666 L1504.485,209.4153 L1508.5,210.2901 L1508.5607,210.2901 L1508.4716,212.2607 L1508.6587,214.2313 L1508.7126,216.2019 L1509.0206,218.1725 L1508.5,220.1431 L1508.5,220.1431 L1508.5,221.9326 L1518.5,221.9545 L1528.5,220.8221 L1538.5,221.3793 L1548.5,222.0157 L1558.5,218.22 L1568.5,221.9525 L1578.5,219.3524 L1588.5,221.5666 L1598.5,218.8231 L1608.5,219.9605 L1618.5,222.1207 L1628.5,220.0132 L1638.5,220.4239 L1648.5,221.0461 L1658.5,221.2531 L1668.5,220.1327 L1678.5,220.909 L1688.5,218.6167 L1698.5,220.9015 L1708.5,221.605 L1718.5,221.3285 L1728.5,221.7778 L1738.5,218.8549 L1748.5,220.1431 L1748.5,220.1431 L1747.9203,220.1431 L1747.9476,216.6019 L1748.4477,213.0607 L1748.3253,209.5195 L1749.1057,205.9783 L1748.5,202.4371 L1748.3902,202.3273 L1746.2844,200.2215 L1744.6435,198.5806 L1742.0809,196.018 L1740.1737,194.1108 L1738.5,192.4371 L1738.5,194.1676 L1728.5,193.5989 L1718.5,194.3957 L1708.5,191.579 L1698.5,193.2883 L1688.5,194.0115 L1678.5,191.1773 L1668.5,192.1815 L1658.5,192.7731 L1648.5,194.1751 L1638.5,192.4259 L1628.5,193.6706 L1618.5,190.9603 L1608.5,190.6311 L1598.5,193.7801 L1588.5,190.5253 L1578.5,193.7943 L1568.5,192.9881 L1558.5,191.7227 L1548.5,191.4937 L1538.5,193.6605 L1528.5,191.6389 L1518.5,194.0154 L1508.5,192.4371 L1508.5,192.4371 " fill="#FEFFDD" style="stroke:#181818;stroke-width:0.5;"/><path d="M1738.5,192.4371 L1738.6868,192.4371 L1738.1317,194.4371 L1738.6718,196.4371 L1738.8553,198.4371 L1737.8659,200.4371 L1738.5,202.4371 L1738.5,202.368 L1740.5,202.058 L1742.5,202.0962 L1744.5,202.3765 L1746.5,201.8225 L1748.5,202.4371 L1748.848,202.7851 L1746.1038,200.0409 L1744.3757,198.3128 L1742.7715,196.7086 L1740.4461,194.3832 L1738.5,192.4371 " fill="#FEFFDD" style="stroke:#181818;stroke-width:0.5;"/><text fill="#000000" font-family="sans-serif" font-size="13" lengthAdjust="spacing" textLength="219" x="1514.5" y="211.3341">{"detail": "Invalid query parameters"}</text><polygon fill="#F1F1F1" points="1347,188.118,1347,188.3282,1356.9231,187.7037,1366.8462,188.3113,1376.7692,188.5177,1386.6923,187.4047,1396.6154,188.0403,1406.5385,187.6916,1416.4615,187.7345,1426.3846,188.0499,1436.3077,187.4267,1446.2308,188.6717,1456.1538,187.4878,1466.0769,187.9203,1476,188.118,1476.0551,188.2511,1477.7568,188.8239,1479.5442,189.6035,1481.2992,190.3049,1483.0938,191.102,1484.8388,191.7792,1484.9125,191.8097,1485.7514,193.6217,1486.51,195.4003,1487.2447,197.1692,1487.8462,198.8828,1488.5,200.618,1488.6545,200.618,1488.7341,202.8869,1488.2596,205.1557,1488.7262,207.4245,1488.4012,209.6933,1488.5,211.9622,1488.6644,212.0303,1487.6153,213.6668,1487.0144,215.489,1486.5317,217.3601,1485.5561,219.027,1484.8388,220.801,1484.8523,220.8334,1483.1143,221.6375,1481.3564,222.3936,1479.535,222.9965,1477.8044,223.8184,1476,224.4622,1476,223.8897,1466.0769,224.7465,1456.1538,225.0104,1446.2308,224.9067,1436.3077,225.0752,1426.3846,223.9791,1416.4615,223.81,1406.5385,223.8408,1396.6154,224.4033,1386.6923,224.2656,1376.7692,225.1436,1366.8462,224.2875,1356.9231,224.1191,1347,224.4622,1347.0291,224.5325,1345.1472,223.5246,1343.3982,222.8378,1341.7795,222.4653,1339.9845,221.6674,1338.1612,220.801,1338.3874,220.8947,1337.3298,218.9922,1336.795,217.3062,1336.1463,215.573,1335.0868,213.6697,1334.5,211.9622,1334.468,211.9622,1334.542,209.6933,1334.7173,207.4245,1334.4986,205.1557,1334.6542,202.8869,1334.5,200.618,1334.3295,200.5474,1335.0237,198.7639,1336.1196,197.1468,1336.4759,195.2233,1337.5857,193.6119,1338.1612,191.7792,1338.1875,191.8428,1339.8948,190.9645,1341.6516,190.2058,1343.523,189.7238,1345.194,188.7581,1347,188.118" style="stroke:#181818;stroke-width:0.5;"/><text fill="#000000" font-family="sans-serif" font-size="12" lengthAdjust="spacing" textLength="134" x="1344.5" y="210.9461">Return 400 Bad Request</text><path d="M1336.5,244.4622 L1336.6868,244.4622 L1336.1317,250.0034 L1336.6718,255.5446 L1336.8553,261.0858 L1335.8659,266.627 L1336.5,272.1682 L1336.5,272.1682 L1336.5,272.0991 L1345.3,271.7891 L1354.1,271.8273 L1362.9,272.1076 L1371.7,271.5536 L1380.5,272.1682 L1380.5,272.1682 L1380.9921,272.1682 L1379.9398,270.227 L1380.3242,268.2858 L1380.884,266.3446 L1380.4238,264.4034 L1380.5,262.4622 L1380.5123,262.5216 L1384.4942,261.605 L1388.5322,260.9588 L1392.5432,260.1821 L1396.6057,259.6543 L1400.5,258.3152 L1400.6128,258.9009 L1396.6142,258.1375 L1392.5428,256.9962 L1388.578,256.408 L1384.6181,255.8457 L1380.5,254.4622 L1380.0467,254.0089 L1378.9265,252.8886 L1376.3136,250.2758 L1374.8355,248.7977 L1372.1889,246.151 L1370.5,244.4622 L1370.5,244.4013 L1363.7,245.1214 L1356.9,244.4188 L1350.1,244.5558 L1343.3,244.7632 L1336.5,244.4622 L1336.5,244.4622 " fill="#FEFFDD" style="stroke:#181818;stroke-width:0.5;"/><path d="M1370.5,244.4622 L1370.6868,244.4622 L1370.1317,246.4622 L1370.6718,248.4622 L1370.8553,250.4622 L1369.8659,252.4622 L1370.5,254.4622 L1370.5,254.3931 L1372.5,254.0831 L1374.5,254.1213 L1376.5,254.4016 L1378.5,253.8476 L1380.5,254.4622 L1380.848,254.8101 L1378.1038,252.066 L1376.3757,250.3379 L1374.7715,248.7337 L1372.4461,246.4082 L1370.5,244.4622 " fill="#FEFFDD" style="stroke:#181818;stroke-width:0.5;"/><text fill="#000000" font-family="sans-serif" font-size="13" lengthAdjust="spacing" textLength="23" x="1342.5" y="263.3592">End</text><polygon fill="none" points="1422.5608,260.9908,1420.9484,263.194,1419.0412,266.4209,1416.3136,268.5956,1413.4474,269.7848,1411.162,269.888,1408.2247,268.4007,1405.4532,267.4291,1403.3495,265.4564,1402.2461,263.1979,1401.5917,261.3997,1400.9506,259.0509,1399.91,257.0296,1400.7096,255.0562,1401.4102,252.8944,1404.0393,251.1846,1405.889,248.9663,1408.1784,248.2296,1410.9001,247.5952,1414.3904,247.9721,1416.3021,248.8737,1418.5247,249.2824,1421.2272,252.0512,1422.1693,254.9741,1422.5786,256.9685,1422.115,260.255" style="stroke:#222222;stroke-width:1.0;"/><polygon fill="#222222" points="1417.5331,259.7746,1416.6536,260.9763,1415.6134,262.7365,1414.1256,263.9227,1412.5622,264.5713,1411.3156,264.6276,1409.7135,263.8164,1408.2017,263.2864,1407.0543,262.2104,1406.4524,260.9785,1406.0955,259.9976,1405.7458,258.7165,1405.1782,257.614,1405.6143,256.5375,1405.9965,255.3584,1407.4305,254.4258,1408.4394,253.2158,1409.6882,252.814,1411.1728,252.4679,1413.0766,252.6735,1414.1193,253.1653,1415.3317,253.3882,1416.8057,254.8984,1417.3196,256.4928,1417.5429,257.5806,1417.29,259.3733" style="stroke:#222222;stroke-width:1.0;"/><path d="M1093.0625,73.9209 L1093.1559,73.9209 L1092.8784,78.6915 L1093.1484,83.4621 L1093.2401,88.2327 L1092.7454,93.0033 L1093.0625,97.7739 " fill="#181818" style="stroke:#181818;stroke-width:1.0;"/><polygon fill="#181818" points="1089.0625,87.7739,1089.1275,87.8,1089.7343,89.7226,1090.7223,91.7979,1091.5862,93.8234,1092.0417,95.6856,1093.0625,97.7739,1093.0384,97.7643,1093.7305,95.7211,1094.5438,93.7265,1095.4414,91.7655,1096.0485,89.6883,1097.0625,87.7739,1097.193,87.9044,1096.1139,88.4254,1095.4159,89.3273,1094.7643,90.2757,1093.8423,90.9537,1093.0625,91.7739,1093.0786,91.79,1092.255,90.9664,1091.5046,90.216,1090.7189,89.4303,1090.0005,88.712,1089.0625,87.7739" style="stroke:#181818;stroke-width:1.0;"/><path d="M324.75,314.8063 L324.8434,314.8063 L324.5659,318.8063 L324.8359,322.8063 L324.9276,326.8063 L324.4329,330.8063 L324.75,334.8063 " fill="#181818" style="stroke:#181818;stroke-width:1.0;"/><polygon fill="#181818" points="320.75,324.8063,320.815,324.8323,321.4218,326.755,322.4098,328.8302,323.2737,330.8558,323.7292,332.718,324.75,334.8063,324.7259,334.7967,325.418,332.7535,326.2313,330.7588,327.1289,328.7978,327.736,326.7207,328.75,324.8063,328.8805,324.9368,327.8014,325.4577,327.1034,326.3597,326.4518,327.3081,325.5298,327.9861,324.75,328.8063,324.7661,328.8224,323.9425,327.9987,323.1921,327.2484,322.4064,326.4626,321.688,325.7443,320.75,324.8063" style="stroke:#181818;stroke-width:1.0;"/><path d="M115.5,501.4405 L115.7802,501.4405 L114.9476,511.4315 L115.7577,521.4225 L116.0329,531.4135 L114.5488,541.4045 L115.3964,551.3955 L115.5,561.3865 " fill="#181818" style="stroke:#181818;stroke-width:1.0;"/><polygon fill="#181818" points="111.5,551.3865,111.565,551.4125,112.1718,553.3352,113.1598,555.4104,114.0237,557.436,114.4792,559.2982,115.5,561.3865,115.4759,561.3769,116.168,559.3337,116.9813,557.339,117.8789,555.3781,118.486,553.3009,119.5,551.3865,119.6305,551.517,118.5514,552.0379,117.8534,552.9399,117.2018,553.8883,116.2798,554.5663,115.5,555.3865,115.5161,555.4026,114.6925,554.579,113.9421,553.8286,113.1564,553.0429,112.438,552.3245,111.5,551.3865" style="stroke:#181818;stroke-width:1.0;"/><path d="M534,461.4945 L534.0934,461.4945 L533.8159,469.0651 L534.0859,476.6357 L534.1776,484.2063 L533.6829,491.7769 L534,499.3475 " fill="#181818" style="stroke:#181818;stroke-width:1.0;"/><polygon fill="#181818" points="530,489.3475,530.065,489.3735,530.6718,491.2962,531.6598,493.3714,532.5237,495.397,532.9792,497.2592,534,499.3475,533.9759,499.3379,534.668,497.2947,535.4813,495.3,536.3789,493.3391,536.986,491.2619,538,489.3475,538.1305,489.478,537.0514,489.999,536.3534,490.9009,535.7018,491.8493,534.7798,492.5273,534,493.3475,534.0161,493.3636,533.1925,492.54,532.4421,491.7896,531.6564,491.0039,530.938,490.2856,530,489.3475" style="stroke:#181818;stroke-width:1.0;"/><path d="M257.25,403.1504 L257.25,403.4306 L247.125,402.598 L237,403.4081 L226.875,403.6833 L216.75,402.1992 L206.625,403.0468 L196.5,402.5817 L186.375,402.6391 L176.25,403.0595 L166.125,402.2286 L156,403.8886 L145.875,402.31 L135.75,402.8867 L125.625,403.7263 L115.5,403.1504 " fill="#181818" style="stroke:#181818;stroke-width:1.0;"/><path d="M115.5,403.1504 L115.7802,403.1504 L114.9476,413.4747 L115.7577,423.7991 L116.0329,434.1234 L114.5488,444.4477 L115.3964,454.7721 L115.5,465.0964 " fill="#181818" style="stroke:#181818;stroke-width:1.0;"/><polygon fill="#181818" points="111.5,455.0964,111.565,455.1224,112.1718,457.0451,113.1598,459.1203,114.0237,461.1459,114.4792,463.0081,115.5,465.0964,115.4759,465.0868,116.168,463.0436,116.9813,461.0489,117.8789,459.0879,118.486,457.0108,119.5,455.0964,119.6305,455.2269,118.5514,455.7478,117.8534,456.6498,117.2018,457.5982,116.2798,458.2762,115.5,459.0964,115.5161,459.1125,114.6925,458.2889,113.9421,457.5385,113.1564,456.7527,112.438,456.0344,111.5,455.0964" style="stroke:#181818;stroke-width:1.0;"/><path d="M392.25,403.1504 L392.25,403.4306 L402.375,402.598 L412.5,403.4081 L422.625,403.6833 L432.75,402.1992 L442.875,403.0468 L453,402.5817 L463.125,402.6391 L473.25,403.0595 L483.375,402.2286 L493.5,403.8886 L503.625,402.31 L513.75,402.8867 L523.875,403.7263 L534,403.1504 " fill="#181818" style="stroke:#181818;stroke-width:1.0;"/><path d="M534,403.1504 L534.0934,403.1504 L533.8159,407.5504 L534.0859,411.9504 L534.1776,416.3504 L533.6829,420.7504 L534,425.1504 " fill="#181818" style="stroke:#181818;stroke-width:1.0;"/><polygon fill="#181818" points="530,415.1504,530.065,415.1764,530.6718,417.0991,531.6598,419.1743,532.5237,421.1999,532.9792,423.0621,534,425.1504,533.9759,425.1408,534.668,423.0976,535.4813,421.1029,536.3789,419.142,536.986,417.0648,538,415.1504,538.1305,415.2809,537.0514,415.8018,536.3534,416.7038,535.7018,417.6522,534.7798,418.3302,534,419.1504,534.0161,419.1665,533.1925,418.3429,532.4421,417.5925,531.6564,416.8068,530.938,416.0884,530,415.1504" style="stroke:#181818;stroke-width:1.0;"/><path d="M324.75,371.1504 L324.8434,371.1504 L324.5659,375.1504 L324.8359,379.1504 L324.9276,383.1504 L324.4329,387.1504 L324.75,391.1504 " fill="#181818" style="stroke:#181818;stroke-width:1.0;"/><polygon fill="#181818" points="320.75,381.1504,320.815,381.1764,321.4218,383.0991,322.4098,385.1743,323.2737,387.1999,323.7292,389.0621,324.75,391.1504,324.7259,391.1408,325.418,389.0976,326.2313,387.1029,327.1289,385.142,327.736,383.0648,328.75,381.1504,328.8805,381.2809,327.8014,381.8018,327.1034,382.7038,326.4518,383.6522,325.5298,384.3302,324.75,385.1504,324.7661,385.1665,323.9425,384.3429,323.1921,383.5925,322.4064,382.8068,321.688,382.0884,320.75,381.1504" style="stroke:#181818;stroke-width:1.0;"/><path d="M1224.5,314.8063 L1224.5934,314.8063 L1224.3159,319.3769 L1224.5859,323.9475 L1224.6776,328.5181 L1224.1829,333.0887 L1224.5,337.6593 " fill="#181818" style="stroke:#181818;stroke-width:1.0;"/><polygon fill="#181818" points="1220.5,327.6593,1220.565,327.6853,1221.1718,329.608,1222.1598,331.6832,1223.0237,333.7088,1223.4792,335.571,1224.5,337.6593,1224.4759,337.6497,1225.168,335.6065,1225.9813,333.6118,1226.8789,331.6508,1227.486,329.5737,1228.5,327.6593,1228.6305,327.7898,1227.5514,328.3107,1226.8534,329.2127,1226.2018,330.1611,1225.2798,330.8391,1224.5,331.6593,1224.5161,331.6754,1223.6925,330.8518,1222.9421,330.1014,1222.1564,329.3156,1221.438,328.5973,1220.5,327.6593" style="stroke:#181818;stroke-width:1.0;"/><path d="M691.125,256.4622 L691.125,256.7424 L681.223,255.9097 L671.3209,256.7199 L661.4189,256.9951 L651.5169,255.511 L641.6149,256.3585 L631.7128,255.8935 L621.8108,255.9508 L611.9088,256.3713 L602.0068,255.5403 L592.1047,257.2004 L582.2027,255.6218 L572.3007,256.1985 L562.3986,257.0381 L552.4966,256.3478 L542.5946,256.5531 L532.6926,256.4196 L522.7905,256.7002 L512.8885,256.781 L502.9865,257.2431 L493.0845,257.3569 L483.1824,257.3678 L473.2804,256.8017 L463.3784,257.0803 L453.4764,257.3985 L443.5743,255.5006 L433.6723,257.3668 L423.7703,256.0668 L413.8682,257.1739 L403.9662,255.8021 L394.0642,256.3708 L384.1622,257.451 L374.2601,256.3972 L364.3581,256.6026 L354.4561,256.9137 L344.5541,257.0171 L334.652,256.457 L324.75,256.4622 " fill="#181818" style="stroke:#181818;stroke-width:1.0;"/><path d="M324.75,256.4622 L324.8434,256.4622 L324.5659,260.8622 L324.8359,265.2622 L324.9276,269.6622 L324.4329,274.0622 L324.75,278.4622 " fill="#181818" style="stroke:#181818;stroke-width:1.0;"/><polygon fill="#181818" points="320.75,268.4622,320.815,268.4882,321.4218,270.4109,322.4098,272.4861,323.2737,274.5116,323.7292,276.3738,324.75,278.4622,324.7259,278.4525,325.418,276.4094,326.2313,274.4147,327.1289,272.4537,327.736,270.3766,328.75,268.4622,328.8805,268.5927,327.8014,269.1136,327.1034,270.0155,326.4518,270.964,325.5298,271.6419,324.75,272.4622,324.7661,272.4782,323.9425,271.6546,323.1921,270.9042,322.4064,270.1185,321.688,269.4002,320.75,268.4622" style="stroke:#181818;stroke-width:1.0;"/><path d="M858.125,256.4622 L858.125,256.7424 L868.027,255.9097 L877.9291,256.7199 L887.8311,256.9951 L897.7331,255.511 L907.6351,256.3585 L917.5372,255.8935 L927.4392,255.9508 L937.3412,256.3713 L947.2432,255.5403 L957.1453,257.2004 L967.0473,255.6218 L976.9493,256.1985 L986.8514,257.0381 L996.7534,256.3478 L1006.6554,256.5531 L1016.5574,256.4196 L1026.4595,256.7002 L1036.3615,256.781 L1046.2635,257.2431 L1056.1655,257.3569 L1066.0676,257.3678 L1075.9696,256.8017 L1085.8716,257.0803 L1095.7736,257.3985 L1105.6757,255.5006 L1115.5777,257.3668 L1125.4797,256.0668 L1135.3818,257.1739 L1145.2838,255.8021 L1155.1858,256.3708 L1165.0878,257.451 L1174.9899,256.3972 L1184.8919,256.6026 L1194.7939,256.9137 L1204.6959,257.0171 L1214.598,256.457 L1224.5,256.4622 " fill="#181818" style="stroke:#181818;stroke-width:1.0;"/><path d="M1224.5,256.4622 L1224.5934,256.4622 L1224.3159,260.8622 L1224.5859,265.2622 L1224.6776,269.6622 L1224.1829,274.0622 L1224.5,278.4622 " fill="#181818" style="stroke:#181818;stroke-width:1.0;"/><polygon fill="#181818" points="1220.5,268.4622,1220.565,268.4882,1221.1718,270.4109,1222.1598,272.4861,1223.0237,274.5116,1223.4792,276.3738,1224.5,278.4622,1224.4759,278.4525,1225.168,276.4094,1225.9813,274.4147,1226.8789,272.4537,1227.486,270.3766,1228.5,268.4622,1228.6305,268.5927,1227.5514,269.1136,1226.8534,270.0155,1226.2018,270.964,1225.2798,271.6419,1224.5,272.4622,1224.5161,272.4782,1223.6925,271.6546,1222.9421,270.9042,1222.1564,270.1185,1221.438,269.4002,1220.5,268.4622" style="stroke:#181818;stroke-width:1.0;"/><path d="M774.625,224.4622 L774.7184,224.4622 L774.4409,228.4622 L774.7109,232.4622 L774.8026,236.4622 L774.3079,240.4622 L774.625,244.4622 " fill="#181818" style="stroke:#181818;stroke-width:1.0;"/><polygon fill="#181818" points="770.625,234.4622,770.69,234.4882,771.2968,236.4109,772.2848,238.4861,773.1487,240.5116,773.6042,242.3738,774.625,244.4622,774.6009,244.4525,775.293,242.4094,776.1063,240.4147,777.0039,238.4537,777.611,236.3766,778.625,234.4622,778.7555,234.5927,777.6764,235.1136,776.9784,236.0155,776.3268,236.964,775.4048,237.6419,774.625,238.4622,774.6411,238.4782,773.8175,237.6546,773.0671,236.9042,772.2814,236.1185,771.563,235.4002,770.625,234.4622" style="stroke:#181818;stroke-width:1.0;"/><path d="M1411.5,224.4622 L1411.5934,224.4622 L1411.3159,229.0328 L1411.5859,233.6034 L1411.6776,238.174 L1411.1829,242.7446 L1411.5,247.3152 " fill="#181818" style="stroke:#181818;stroke-width:1.0;"/><polygon fill="#181818" points="1407.5,237.3152,1407.565,237.3412,1408.1718,239.2639,1409.1598,241.3391,1410.0237,243.3646,1410.4792,245.2269,1411.5,247.3152,1411.4759,247.3055,1412.168,245.2624,1412.9813,243.2677,1413.8789,241.3067,1414.486,239.2296,1415.5,237.3152,1415.6305,237.4457,1414.5514,237.9666,1413.8534,238.8686,1413.2018,239.817,1412.2798,240.495,1411.5,241.3152,1411.5161,241.3313,1410.6925,240.5076,1409.9421,239.7572,1409.1564,238.9715,1408.438,238.2532,1407.5,237.3152" style="stroke:#181818;stroke-width:1.0;"/><path d="M1006.5625,166.118 L1006.5625,166.3983 L996.4783,165.5656 L986.394,166.3758 L976.3098,166.651 L966.2255,165.1669 L956.1413,166.0144 L946.0571,165.5494 L935.9728,165.6067 L925.8886,166.0272 L915.8043,165.1962 L905.7201,166.8562 L895.6359,165.2777 L885.5516,165.8544 L875.4674,166.694 L865.3832,166.0037 L855.2989,166.209 L845.2147,166.0755 L835.1304,166.3561 L825.0462,166.4369 L814.962,166.899 L804.8777,167.0128 L794.7935,167.0237 L784.7092,166.4576 L774.625,166.118 " fill="#181818" style="stroke:#181818;stroke-width:1.0;"/><path d="M774.625,166.118 L774.7184,166.118 L774.4409,170.518 L774.7109,174.918 L774.8026,179.318 L774.3079,183.718 L774.625,188.118 " fill="#181818" style="stroke:#181818;stroke-width:1.0;"/><polygon fill="#181818" points="770.625,178.118,770.69,178.1441,771.2968,180.0668,772.2848,182.142,773.1487,184.1675,773.6042,186.0297,774.625,188.118,774.6009,188.1084,775.293,186.0652,776.1063,184.0706,777.0039,182.1096,777.611,180.0325,778.625,178.118,778.7555,178.2485,777.6764,178.7695,776.9784,179.6714,776.3268,180.6199,775.4048,181.2978,774.625,182.118,774.6411,182.1341,773.8175,181.3105,773.0671,180.5601,772.2814,179.7744,771.563,179.0561,770.625,178.118" style="stroke:#181818;stroke-width:1.0;"/><path d="M1179.5625,166.118 L1179.5625,166.3983 L1189.6467,165.5656 L1199.731,166.3758 L1209.8152,166.651 L1219.8995,165.1669 L1229.9837,166.0144 L1240.0679,165.5494 L1250.1522,165.6067 L1260.2364,166.0272 L1270.3207,165.1962 L1280.4049,166.8562 L1290.4891,165.2777 L1300.5734,165.8544 L1310.6576,166.694 L1320.7418,166.0037 L1330.8261,166.209 L1340.9103,166.0755 L1350.9946,166.3561 L1361.0788,166.4369 L1371.163,166.899 L1381.2473,167.0128 L1391.3315,167.0237 L1401.4158,166.4576 L1411.5,166.118 " fill="#181818" style="stroke:#181818;stroke-width:1.0;"/><path d="M1411.5,166.118 L1411.5934,166.118 L1411.3159,170.518 L1411.5859,174.918 L1411.6776,179.318 L1411.1829,183.718 L1411.5,188.118 " fill="#181818" style="stroke:#181818;stroke-width:1.0;"/><polygon fill="#181818" points="1407.5,178.118,1407.565,178.1441,1408.1718,180.0668,1409.1598,182.142,1410.0237,184.1675,1410.4792,186.0297,1411.5,188.118,1411.4759,188.1084,1412.168,186.0652,1412.9813,184.0706,1413.8789,182.1096,1414.486,180.0325,1415.5,178.118,1415.6305,178.2485,1414.5514,178.7695,1413.8534,179.6714,1413.2018,180.6199,1412.2798,181.2978,1411.5,182.118,1411.5161,182.1341,1410.6925,181.3105,1409.9421,180.5601,1409.1564,179.7744,1408.438,179.0561,1407.5,178.118" style="stroke:#181818;stroke-width:1.0;"/><path d="M1093.0625,134.118 L1093.1559,134.118 L1092.8784,138.118 L1093.1484,142.118 L1093.2401,146.118 L1092.7454,150.118 L1093.0625,154.118 " fill="#181818" style="stroke:#181818;stroke-width:1.0;"/><polygon fill="#181818" points="1089.0625,144.118,1089.1275,144.1441,1089.7343,146.0668,1090.7223,148.142,1091.5862,150.1675,1092.0417,152.0297,1093.0625,154.118,1093.0384,154.1084,1093.7305,152.0652,1094.5438,150.0706,1095.4414,148.1096,1096.0485,146.0325,1097.0625,144.118,1097.193,144.2485,1096.1139,144.7695,1095.4159,145.6714,1094.7643,146.6199,1093.8423,147.2978,1093.0625,148.118,1093.0786,148.1341,1092.255,147.3105,1091.5046,146.5601,1090.7189,145.7744,1090.0005,145.0561,1089.0625,144.118" style="stroke:#181818;stroke-width:1.0;"/><!--SRC=[dPHlJzim4CRVvrES8cqgrJR2nDwa3BHsXR59XRLqqbuXBxuqLeDTx3EqGtntx8J-SPjgqlmgUVpuxdVdNCnKo1dJx0uA9lcZ5aGeWRJ5oAosI529NQKvQZXgrdkgL1h-b2oRHfKCxVQ9FRr00fndBlO4GJF2aqDxscv7aI6cAPAAd2mc1QKmgfHqY1cA1uIB_WrelBTe24Z1uJBAUn_bBDVgxdDlF1ps1xtVRqcjdk5HK05VB1LAYx-CX99G87E4dIWIERH-MjGBgFYHK1jW6k61bOAV7G0LhlZM0ir116wbGoktOjsegRFyylvQkDOgGsCwrG6V8FGB0yPctf7RSZT3bQK_9yqo0b_KRMQrHfajm5s7AtpzxdVXVek-iuvoZfGLORFhCqmwrPabAu7D15WZvEGVoVmxunm-lO5PNQ1mHn1TmbL6Nsm_I8TpOSWqLrdt4ybg2H-J1Av-r5SL07S2-_hh26I_le-k1j1LV97kR3tjA7x5GRrn2d7tszVuNRDtenFUEHxjTIxfRpszzoOVach5E_xdG47NO5zV81fIizqEb9YxyUXBljh2qY2qf6hkxd5o30D5SAwivFiwci9Jp96OA3rrU8tE1Ra_73__7vxa8e-QGTUGHp2Mx7LMS8Dp8-WcugMiXXJSNmRdCw7HVx1k5ZSO0xu6jfehP5hp9D1b78RrBwV6sTUk9SlsDBwoh3Ys6EhyBm00]--></g></svg>