<?xml version="1.0" encoding="us-ascii" standalone="no"?><svg xmlns="http://www.w3.org/2000/svg" xmlns:xlink="http://www.w3.org/1999/xlink" contentStyleType="text/css" height="695px" preserveAspectRatio="none" style="width:1250px;height:695px;background:#FFFFFF;" version="1.1" viewBox="0 0 1250 695" width="1250px" zoomAndPan="magnify"><defs/><g><polygon fill="none" points="532.1563,15,532.1563,15.2102,542.3333,14.5857,552.5104,15.1933,562.6875,15.3997,572.8646,14.2866,583.0417,14.9223,593.2188,14.5735,603.3958,14.6165,613.5729,14.9318,623.75,14.3086,633.9271,15.5536,644.1042,14.3697,654.2813,14.8022,664.4583,15.4319,674.6354,14.9142,684.8125,15.0682,694.9896,14.9681,705.1667,15.1785,715.3438,15,715.4235,15,715.539,20.8136,715.5674,26.6272,715.5702,32.4408,715.4286,38.2543,715.3438,44.0679,715.3438,44.5315,705.1667,44.7701,694.9896,43.3467,684.8125,44.7464,674.6354,43.7714,664.4583,44.6017,654.2813,43.5729,644.1042,43.9994,633.9271,44.8095,623.75,44.0192,613.5729,44.1732,603.3958,44.4065,593.2188,44.4841,583.0417,44.064,572.8646,44.3551,562.6875,43.4955,552.5104,44.3523,542.3333,44.6161,532.1563,44.0679,532.3044,44.0679,532.3606,38.2543,531.9952,32.4408,531.9389,26.6272,531.9491,20.8136,532.1563,15" style="stroke:#000000;stroke-width:1.0;"/><text fill="#000000" font-family="sans-serif" font-size="14" font-weight="bold" lengthAdjust="spacing" text-decoration="underline" textLength="173.1875" x="537.1563" y="34.9659">Get Current User Details</text><path d="M768.25,50.0679 L768.4368,50.0679 L767.8817,52.0385 L768.4218,54.0091 L768.6053,55.9797 L767.6159,57.9503 L768.25,59.9209 L768.2365,59.8532 L764.1757,60.3492 L760.1831,61.1867 L756.2381,62.2615 L752.1295,62.5183 L748.25,63.9209 L748.3465,64.4035 L752.1401,64.1716 L756.2155,65.3485 L760.3253,66.6974 L764.235,67.0462 L768.25,67.9209 L768.3107,67.9209 L768.2216,69.8915 L768.4087,71.8621 L768.4626,73.8327 L768.7706,75.8033 L768.25,77.7739 L768.25,77.7739 L768.25,79.5634 L778.25,79.5853 L788.25,78.4529 L798.25,79.0102 L808.25,79.6466 L818.25,77.7739 L818.25,77.7739 L817.6089,77.7739 L818.8531,74.2327 L817.9864,70.6915 L818.7245,67.1503 L817.81,63.6091 L818.25,60.0679 L818.2069,60.0249 L816.7161,58.534 L814.2194,56.0373 L812.3162,54.1341 L810.4628,52.2808 L808.25,50.0679 L808.25,50.4379 L800.25,50.0644 L792.25,50.3232 L784.25,49.5591 L776.25,50.3207 L768.25,50.0679 L768.25,50.0679 " fill="#FEFFDD" style="stroke:#181818;stroke-width:0.5;"/><path d="M808.25,50.0679 L808.4368,50.0679 L807.8817,52.0679 L808.4218,54.0679 L808.6053,56.0679 L807.6159,58.0679 L808.25,60.0679 L808.25,59.9988 L810.25,59.6888 L812.25,59.727 L814.25,60.0073 L816.25,59.4534 L818.25,60.0679 L818.598,60.4159 L815.8538,57.6718 L814.1257,55.9436 L812.5215,54.3394 L810.1961,52.014 L808.25,50.0679 " fill="#FEFFDD" style="stroke:#181818;stroke-width:0.5;"/><text fill="#000000" font-family="sans-serif" font-size="13" lengthAdjust="spacing" textLength="29" x="774.25" y="68.9649">Start</text><polygon fill="#222222" points="748.3052,66.3533,746.8394,68.3562,745.1056,71.2897,742.626,73.2667,740.0203,74.3478,737.9427,74.4417,735.2724,73.0896,732.7529,72.2063,730.8405,70.4129,729.8373,68.3598,729.2424,66.725,728.6596,64.5897,727.7136,62.7523,728.4406,60.9582,729.0775,58.9929,731.4675,57.4386,733.1491,55.4219,735.2304,54.7522,737.7047,54.1755,740.8776,54.5182,742.6155,55.3378,744.6361,55.7093,747.0929,58.2264,747.9493,60.8836,748.3214,62.6967,747.9,65.6844" style="stroke:#222222;stroke-width:1.0;"/><path d="M387.25,93.24 L387.8105,93.24 L386.1451,102.3224 L387.7654,111.4048 L388.3158,120.4872 L385.3476,129.5696 L387.25,138.652 L387.25,138.652 L387.25,138.4448 L397.45,137.5147 L407.65,137.6293 L417.85,138.4703 L428.05,136.8084 L438.25,140.1284 L448.45,136.9713 L458.65,138.1246 L468.85,139.8039 L479.05,138.4233 L489.25,138.834 L499.45,138.5668 L509.65,139.1281 L519.85,139.2897 L530.05,140.2138 L540.25,138.652 L540.25,138.652 L540.8465,138.652 L540.8538,134.9108 L540.4763,131.1696 L540.6621,127.4284 L540.8742,123.6872 L540.25,119.946 L540.1243,119.3174 L544.3683,119.7374 L548.1983,118.0876 L552.3431,118.0113 L556.1637,116.3145 L560.25,115.946 L560.2381,115.8863 L556.3793,115.7924 L552.2415,114.3035 L548.2684,113.6378 L544.309,113.0411 L540.25,111.946 L540.62,111.946 L540.2465,110.2048 L540.5053,108.4636 L539.7412,106.7224 L540.5028,104.9812 L540.25,103.24 L540.5946,103.5845 L538.5294,101.5194 L536.6353,99.6253 L533.9464,96.9363 L531.8401,94.8301 L530.25,93.24 L530.25,91.5829 L520.0357,93.083 L509.8214,92.7159 L499.6071,95.0571 L489.3929,92.7742 L479.1786,92.3252 L468.9643,93.8487 L458.75,91.4617 L448.5357,91.8556 L438.3214,94.9705 L428.1071,94.4018 L417.8929,95.1986 L407.6786,92.3819 L397.4643,94.0912 L387.25,93.24 L387.25,93.24 " fill="#FEFFDD" style="stroke:#181818;stroke-width:0.5;"/><path d="M530.25,93.24 L530.4368,93.24 L529.8817,95.24 L530.4218,97.24 L530.6053,99.24 L529.6159,101.24 L530.25,103.24 L530.25,103.1709 L532.25,102.8609 L534.25,102.8991 L536.25,103.1794 L538.25,102.6254 L540.25,103.24 L540.598,103.588 L537.8538,100.8438 L536.1257,99.1157 L534.5215,97.5115 L532.1961,95.1861 L530.25,93.24 " fill="#FEFFDD" style="stroke:#181818;stroke-width:0.5;"/><text fill="#000000" font-family="sans-serif" font-size="13" lengthAdjust="spacing" textLength="132" x="393.25" y="112.137">Authorization Header:</text><text fill="#000000" font-family="sans-serif" font-size="13" lengthAdjust="spacing" textLength="119" x="393.25" y="129.843">Bearer &lt;JWT Token&gt;</text><polygon fill="#F1F1F1" points="572.75,97.7739,572.75,97.9841,582.7803,97.3596,592.8106,97.9672,602.8409,98.1736,612.8712,97.0605,622.9015,97.6962,632.9318,97.3474,642.9621,97.3904,652.9924,97.7058,663.0227,97.0826,673.053,98.3276,683.0833,97.1437,693.1136,97.5762,703.1439,98.2059,713.1742,97.6882,723.2045,97.8422,733.2348,97.742,743.2652,97.9525,753.2955,98.0131,763.3258,98.3596,773.3561,98.445,783.3864,98.4532,793.4167,98.0286,803.447,98.2375,813.4773,98.4762,823.5076,97.0527,833.5379,98.4524,843.5682,97.4774,853.5985,98.3077,863.6288,97.2789,873.6591,97.7054,883.6894,98.5155,893.7197,97.7252,903.75,97.7739,903.7634,97.8064,905.561,98.6105,907.3386,99.3666,909.0528,99.9694,910.8577,100.7913,912.5888,101.4351,912.4126,101.3621,913.4086,103.2391,914.2221,105.0406,914.9224,106.7951,915.7066,108.5844,916.25,110.2739,916.089,110.2739,916.0326,112.5428,916.0429,114.8116,916.2304,117.0804,916.1845,119.3492,916.25,121.618,916.4598,121.705,915.464,123.3635,914.6799,125.1098,914.1236,126.9505,913.1157,128.6041,912.5888,130.4569,912.5226,130.297,910.9038,131.389,909.1089,132.0555,907.3792,132.8798,905.4767,133.2867,903.75,134.118,903.75,134.4372,893.7197,134.7085,883.6894,133.6456,873.6591,134.0222,863.6288,134.244,853.5985,134.7698,843.5682,134.1139,833.5379,134.5806,823.5076,133.5643,813.4773,133.4408,803.447,134.6217,793.4167,133.4011,783.3864,134.627,773.3561,134.3247,763.3258,133.8501,753.2955,133.7643,743.2652,134.5768,733.2348,133.8187,723.2045,134.7099,713.1742,133.5653,703.1439,134.7355,693.1136,134.6024,683.0833,134.363,673.053,134.1653,663.0227,134.8447,652.9924,134.7316,642.9621,134.2873,632.9318,134.3862,622.9015,133.9878,612.8712,134.8345,602.8409,134.2729,592.8106,134.2906,582.7803,133.5097,572.75,134.118,572.6983,133.9933,571.0499,133.5493,569.2693,132.7859,567.4412,131.9081,565.6378,131.0899,563.9112,130.4569,563.8437,130.429,562.9676,128.6016,562.5744,126.9743,561.9422,125.2479,561.1443,123.453,560.25,121.618,560.4816,121.618,560.2044,119.3492,560.2791,117.0804,560.1208,114.8116,560.3447,112.5428,560.25,110.2739,560.326,110.3054,561.1523,108.5766,561.6437,106.7091,562.4053,104.9535,563.3155,103.2594,563.9112,101.4351,563.9835,101.6098,565.6136,100.545,567.422,99.9109,569.2335,99.2844,570.9043,98.3181,572.75,97.7739" style="stroke:#181818;stroke-width:0.5;"/><text fill="#000000" font-family="sans-serif" font-size="12" lengthAdjust="spacing" textLength="336" x="570.25" y="120.602">Receive GET request to /users/me with Authorization header</text><polygon fill="#F1F1F1" points="616.75,158.652,616.75,158.8622,626.875,158.2377,637,158.8453,647.125,159.0517,657.25,157.9386,667.375,158.5743,677.5,158.2255,687.625,158.2685,697.75,158.5839,707.875,157.9606,718,159.2056,728.125,158.0217,738.25,158.4542,748.375,159.084,758.5,158.5662,768.625,158.7202,778.75,158.6201,788.875,158.8305,799,158.8911,809.125,159.2377,819.25,159.3231,829.375,159.3313,839.5,158.9066,849.625,159.1156,859.75,158.652,859.8396,158.8683,861.4258,159.1621,863.3721,160.3254,865.0155,160.7574,866.8892,161.7453,868.5888,162.3132,868.4364,162.25,869.3,164.0722,870.2817,165.9433,870.7705,167.6103,871.5502,169.3977,872.25,171.152,872.3629,171.152,872.3887,173.4208,872.2487,175.6897,872.3457,177.9585,872.0592,180.2273,872.25,182.4961,872.3376,182.5324,871.6866,184.3338,870.9224,186.0884,870.2421,187.8776,869.1723,189.5056,868.5888,191.335,868.5056,191.1341,866.7418,191.8758,865.0458,192.7813,863.2605,193.4711,861.6047,194.4737,859.75,194.9961,859.75,194.8214,849.625,194.6531,839.5,195.2244,829.375,194.3293,819.25,194.477,809.125,195.6451,799,195.4318,788.875,195.7306,778.75,194.6743,768.625,195.3153,758.5,195.5865,748.375,194.5237,738.25,194.9003,728.125,195.1221,718,195.6479,707.875,194.9919,697.75,195.4587,687.625,194.4423,677.5,194.3189,667.375,195.4997,657.25,194.2792,647.125,195.5051,637,195.2028,626.875,194.7282,616.75,194.9961,616.7049,194.8872,615.0408,194.4052,613.1763,193.4395,611.5222,192.9817,609.6084,191.897,607.9112,191.335,608.1013,191.4137,607.3281,189.629,606.5221,187.8307,605.729,186.0377,605.206,184.3566,604.25,182.4961,604.4545,182.4961,604.3064,180.2273,604.3394,177.9585,604.2066,175.6897,604.4888,173.4208,604.25,171.152,604.2977,171.1718,605.0354,169.4063,605.5271,167.5389,606.3219,165.797,607.3424,164.1486,607.9112,162.3132,607.966,162.4455,609.6735,161.5677,611.4056,160.7495,613.1865,160.0491,614.8947,159.1729,616.75,158.652" style="stroke:#181818;stroke-width:0.5;"/><text fill="#000000" font-family="sans-serif" font-size="12" lengthAdjust="spacing" textLength="248" x="614.25" y="181.4801">Extract JWT token from Authorization header</text><polygon fill="#F1F1F1" points="695.75,214.9961,695.75,215.2063,705.1944,214.5818,714.6389,215.1894,724.0833,215.3958,733.5278,214.2827,742.9722,214.9184,752.4167,214.5696,761.8611,214.6126,771.3056,214.928,780.75,214.9961,780.6618,214.7832,782.5884,215.8989,784.2051,216.2665,786.0281,217.1319,787.8762,218.0581,789.5888,218.6573,789.5624,218.6463,790.3421,220.4338,791.0435,222.1887,791.8405,223.9834,792.5914,225.7589,793.25,227.4961,793.4452,227.4961,793.4737,229.7649,793.4764,232.0338,793.3349,234.3026,793.4045,236.5714,793.25,238.8402,793.4663,238.9298,792.2957,240.516,791.9945,242.4623,790.962,244.1057,790.4855,245.9794,789.5888,247.6791,789.5257,247.5266,787.8123,248.3902,786.1479,249.3719,784.2793,249.8608,782.5312,250.6404,780.75,251.3402,780.75,251.6789,771.3056,251.7565,761.8611,251.3363,752.4167,251.6274,742.9722,250.7678,733.5278,251.6246,724.0833,251.8884,714.6389,251.7848,705.1944,251.9533,695.75,251.3402,695.6884,251.1915,693.899,250.4072,692.1352,249.6844,690.4392,249.1254,688.6539,248.3508,686.9112,247.6791,687.121,247.766,686.1251,245.889,685.3411,244.0998,684.7848,242.4049,683.7769,240.5229,683.25,238.8402,683.077,238.8402,683.4663,236.5714,683.3952,234.3026,683.4948,232.0338,683.1427,229.7649,683.25,227.4961,683.3483,227.5368,684.1641,225.8037,684.569,223.9003,685.4172,222.1806,686.2177,220.4411,686.9112,218.6573,686.9943,218.858,688.6784,217.9238,690.5057,217.3353,692.1438,216.29,693.8958,215.5198,695.75,214.9961" style="stroke:#181818;stroke-width:0.5;"/><text fill="#000000" font-family="sans-serif" font-size="12" lengthAdjust="spacing" textLength="90" x="693.25" y="237.8242">Verify JWT token</text><polygon fill="#F1F1F1" points="700.25,271.3402,700.25,271.5504,709.75,270.9259,719.25,271.5335,728.75,271.7399,738.25,270.6268,747.75,271.2625,757.25,270.9137,766.75,270.9567,776.25,271.3402,776.2339,271.3242,778.487,273.5773,781.1805,276.2707,783.3014,278.3917,785.8034,280.8936,788.25,283.3402,788.3518,283.442,785.8298,285.72,783.4661,288.1563,781.0425,290.5327,778.6921,292.9823,776.25,295.3402,776.25,295.5794,766.75,295.9259,757.25,296.0113,747.75,296.0195,738.25,295.5949,728.75,295.8038,719.25,296.0425,709.75,294.6191,700.25,295.3402,700.4099,295.5002,697.7801,292.8703,695.5758,290.6661,692.9333,288.0236,690.6339,285.7241,688.25,283.3402,688.4248,283.515,690.6385,280.9287,693.0748,278.5651,695.5298,276.2201,697.9481,273.8383,700.25,271.3402" style="stroke:#181818;stroke-width:0.5;"/><text fill="#000000" font-family="sans-serif" font-size="11" lengthAdjust="spacing" textLength="76" x="700.25" y="287.6082">Token is valid?</text><text fill="#000000" font-family="sans-serif" font-size="11" lengthAdjust="spacing" textLength="17" x="671.25" y="280.1173">yes</text><text fill="#000000" font-family="sans-serif" font-size="11" lengthAdjust="spacing" textLength="14" x="788.25" y="280.1173">no</text><polygon fill="#F1F1F1" points="234.5,305.3402,234.5,305.5504,244.2059,304.9259,253.9118,305.5335,263.6176,305.7399,273.3235,304.6268,283.0294,305.2625,292.7353,304.9137,302.4412,304.9567,312.1471,305.2721,321.8529,304.6489,331.5588,305.8939,341.2647,304.71,350.9706,305.1425,360.6765,305.7722,370.3824,305.2545,380.0882,305.4085,389.7941,305.3083,399.5,305.3402,399.5228,305.3952,401.2983,306.1461,403.1102,306.9851,404.8889,307.7436,406.6577,308.4784,408.3388,309.0014,408.4172,309.0339,409.2138,310.8283,410.0196,312.6265,410.3134,314.2127,411.4767,316.159,412,317.8402,411.9012,317.8402,412.1779,320.1091,411.835,322.3779,411.9772,324.6467,412.2472,326.9155,412,329.1844,411.985,329.1781,411.3002,330.9655,410.6398,332.7631,409.9315,334.5407,409.0699,336.2549,408.3388,338.0232,408.3755,338.1116,406.498,338.5791,404.8396,339.5752,403.1055,340.3887,401.3245,341.089,399.5,341.6844,399.5,342.2974,389.7941,341.2013,380.0882,341.0322,370.3824,341.0629,360.6765,341.6255,350.9706,341.4878,341.2647,342.3658,331.5588,341.5097,321.8529,341.3413,312.1471,341.9126,302.4412,341.0175,292.7353,341.1652,283.0294,342.3333,273.3235,342.12,263.6176,342.4188,253.9118,341.3626,244.2059,342.0035,234.5,341.6844,234.5753,341.8662,232.672,340.8066,230.9522,340.1904,229.2128,339.5264,227.5121,338.9561,225.6612,338.0232,225.6599,338.0227,225.0714,336.3144,224.0262,334.417,223.2559,332.6335,222.8873,331.0164,222,329.1844,221.761,329.1844,222.1697,326.9155,222.0689,324.6467,221.9107,322.3779,221.8821,320.1091,222,317.8402,222.1413,317.8988,222.6401,316.0343,223.6467,314.3802,224.0265,312.4664,225.1191,310.8479,225.6612,309.0014,225.7229,309.1505,227.4602,308.3446,229.2027,307.5515,231.0572,307.0285,232.8105,306.2614,234.5,305.3402" style="stroke:#181818;stroke-width:0.5;"/><text fill="#000000" font-family="sans-serif" font-size="12" lengthAdjust="spacing" textLength="170" x="232" y="328.1683">Extract user_id from JWT token</text><polygon fill="#F1F1F1" points="190,361.6844,190,361.8945,200.16,361.27,210.32,361.8776,220.48,362.084,230.64,360.971,240.8,361.6066,250.96,361.2579,261.12,361.3009,271.28,361.6162,281.44,360.993,291.6,362.238,301.76,361.0541,311.92,361.4866,322.08,362.1163,332.24,361.5986,342.4,361.7526,352.56,361.6524,362.72,361.8629,372.88,361.9235,383.04,362.27,393.2,362.3554,403.36,362.3636,413.52,361.939,423.68,362.1479,433.84,362.3866,444,361.6844,443.908,361.4623,445.8543,362.6255,447.4977,363.0575,449.3714,364.0454,451.0079,364.4608,452.8388,365.3455,452.8177,365.3368,453.7995,367.2079,454.2883,368.8748,455.068,370.6622,455.8721,372.4598,456.5,374.1844,456.6387,374.1844,456.4987,376.4532,456.5957,378.722,456.3092,380.9908,456.5948,383.2596,456.5,385.5285,456.6688,385.5984,455.9047,387.3529,455.2243,389.1422,454.1545,390.7701,453.3702,392.5163,452.8388,394.3673,452.7596,394.1759,451.0636,395.0814,449.2782,395.7712,447.6225,396.7738,445.7455,397.2424,444,398.0285,444,397.6854,433.84,398.2567,423.68,397.3616,413.52,397.5093,403.36,398.6774,393.2,398.4641,383.04,398.763,372.88,397.7067,362.72,398.3477,352.56,398.6189,342.4,397.5561,332.24,397.9326,322.08,398.1544,311.92,398.6802,301.76,398.0243,291.6,398.491,281.44,397.4747,271.28,397.3512,261.12,398.5321,250.96,397.3115,240.8,398.5374,230.64,398.2351,220.48,397.7605,210.32,397.6747,200.16,398.4872,190,398.0285,189.9618,397.9363,188.3077,397.4785,186.394,396.3938,184.7755,396.0219,182.9907,395.2487,181.1612,394.3673,181.2366,394.3985,180.4435,392.6056,179.9205,390.9245,179.1534,389.1423,178.2844,387.3178,177.5,385.5285,177.5894,385.5285,177.4566,383.2596,177.7388,380.9908,177.5516,378.722,177.5575,376.4532,177.5,374.1844,177.3127,374.1067,178.1074,372.3649,179.1279,370.7165,179.829,368.9359,180.4157,367.1078,181.1612,365.3455,181.1201,365.2463,182.901,364.5459,184.6092,363.6697,186.5174,363.2765,188.3266,362.6443,190,361.6844" style="stroke:#181818;stroke-width:0.5;"/><text fill="#000000" font-family="sans-serif" font-size="12" lengthAdjust="spacing" textLength="259" x="187.5" y="384.5124">Fetch user details from database using user_id</text><polygon fill="#F1F1F1" points="286.5,418.0285,286.5,418.2386,296.6667,417.6141,306.8333,418.2218,317,418.4281,327.1667,417.3151,337.3333,417.9508,347.5,418.0285,347.3995,417.9279,349.8096,420.3381,352.2839,422.8124,354.537,425.0655,357.2305,427.759,359.5,430.0285,359.3514,429.8799,357.0534,432.3819,354.8018,434.9303,352.2798,437.2082,349.9161,439.6445,347.5,442.0285,347.5,441.9965,337.3333,442.207,327.1667,442.2676,317,442.6142,306.8333,442.6995,296.6667,442.7077,286.5,442.0285,286.56,442.0885,284.2093,439.7377,281.8655,437.394,279.13,434.6585,277.0599,432.5884,274.5,430.0285,274.4301,429.9586,277.0258,427.7543,279.1833,425.1118,281.6839,422.8123,284.2748,420.6033,286.5,418.0285" style="stroke:#181818;stroke-width:0.5;"/><text fill="#000000" font-family="sans-serif" font-size="11" lengthAdjust="spacing" textLength="61" x="286.5" y="434.2964">User exists?</text><text fill="#000000" font-family="sans-serif" font-size="11" lengthAdjust="spacing" textLength="17" x="257.5" y="426.8055">yes</text><text fill="#000000" font-family="sans-serif" font-size="11" lengthAdjust="spacing" textLength="14" x="359.5" y="426.8055">no</text><path d="M225,452.0285 L225.5605,452.0285 L223.8951,461.9763 L225.5154,471.924 L226.0658,481.8718 L223.0976,491.8196 L224.7928,501.7674 L223.8627,511.7152 L223.9773,521.663 L224.8182,531.6108 L225,541.5585 L224.8795,540.9559 L221.0965,542.8411 L216.8901,542.6092 L212.9655,543.7862 L209.0753,545.135 L205,545.5585 L204.985,545.4838 L209.0119,546.418 L212.9944,547.1307 L217.0311,548.1142 L221.0417,548.967 L225,549.5585 L226.5618,549.5585 L226.7895,559.5063 L226.8114,569.4541 L225.679,579.4019 L226.2362,589.3497 L226.8726,599.2975 L223.0768,609.2453 L226.8094,619.1931 L224.2093,629.1408 L225,639.0886 L225,639.0886 L225,640.5121 L234.8095,637.7686 L244.619,638.906 L254.4286,641.0662 L264.2381,638.9587 L274.0476,639.3694 L283.8571,639.9916 L293.6667,640.1986 L303.4762,639.0782 L313.2857,639.8545 L323.0952,637.5622 L332.9048,639.847 L342.7143,640.5505 L352.5238,640.2741 L362.3333,640.7234 L372.1429,637.8004 L381.9524,637.3495 L391.7619,637.4316 L401.5714,638.9316 L411.381,638.5646 L421.1905,640.9057 L431,639.0886 L431,639.0886 L430.5342,639.0886 L430.0852,629.252 L431.6087,619.4153 L429.2218,609.5786 L429.6157,599.7419 L432.7305,589.9053 L432.1618,580.0686 L432.9586,570.2319 L430.1419,560.3952 L431.8512,550.5585 L432.5745,540.7219 L429.7403,530.8852 L430.7444,521.0485 L431.336,511.2118 L432.738,501.3752 L430.9888,491.5385 L432.2335,481.7018 L429.5232,471.8651 L431,462.0285 L430.5743,461.6028 L429.3165,460.345 L426.5494,457.5778 L425.3199,456.3484 L423.1299,454.1583 L421,452.0285 L421,451.314 L411.2,451.0851 L401.4,453.2518 L391.6,451.2302 L381.8,453.6068 L372,450.5545 L362.2,453.6749 L352.4,453.3199 L342.6,452.6817 L332.8,452.1544 L323,453.9661 L313.2,453.6647 L303.4,452.4798 L293.6,452.7436 L283.8,451.6811 L274,453.939 L264.2,452.4414 L254.4,452.4887 L244.6,450.4062 L234.8,450.9479 L225,452.0285 L225,452.0285 " fill="#FEFFDD" style="stroke:#181818;stroke-width:0.5;"/><path d="M421,452.0285 L421.1868,452.0285 L420.6317,454.0285 L421.1718,456.0285 L421.3553,458.0285 L420.3659,460.0285 L421,462.0285 L421,461.9594 L423,461.6494 L425,461.6876 L427,461.9679 L429,461.4139 L431,462.0285 L431.348,462.3764 L428.6038,459.6323 L426.8757,457.9042 L425.2715,456.3 L422.9461,453.9746 L421,452.0285 " fill="#FEFFDD" style="stroke:#181818;stroke-width:0.5;"/><text fill="#000000" font-family="sans-serif" font-size="13" lengthAdjust="spacing" textLength="68" x="231" y="470.9255">JSON Body:</text><text fill="#000000" font-family="sans-serif" font-size="13" lengthAdjust="spacing" textLength="5" x="231" y="488.6315">{</text><text fill="#000000" font-family="sans-serif" font-size="13" lengthAdjust="spacing" textLength="105" x="243" y="506.3375">"user_id": "UUID",</text><text fill="#000000" font-family="sans-serif" font-size="13" lengthAdjust="spacing" textLength="132" x="243" y="524.0435">"user_name": "jassim",</text><text fill="#000000" font-family="sans-serif" font-size="13" lengthAdjust="spacing" textLength="173" x="243" y="541.7495">"email": "emailexample.com",</text><text fill="#000000" font-family="sans-serif" font-size="13" lengthAdjust="spacing" textLength="130" x="243" y="559.4556">"first_name": "Jassim",</text><text fill="#000000" font-family="sans-serif" font-size="13" lengthAdjust="spacing" textLength="154" x="243" y="577.1616">"middle_name": "Salman",</text><text fill="#000000" font-family="sans-serif" font-size="13" lengthAdjust="spacing" textLength="155" x="243" y="594.8676">"last_name": "Alshomaliy",</text><text fill="#000000" font-family="sans-serif" font-size="13" lengthAdjust="spacing" textLength="96" x="243" y="612.5736">"is_admin": false</text><text fill="#000000" font-family="sans-serif" font-size="13" lengthAdjust="spacing" textLength="5" x="231" y="630.2796">}</text><polygon fill="#F1F1F1" points="23.5,527.3865,23.5,527.5967,33.4412,526.9722,43.3824,527.5798,53.3235,527.7862,63.2647,526.6731,73.2059,527.3088,83.1471,526.96,93.0882,527.003,103.0294,527.3183,112.9706,526.6951,122.9118,527.9401,132.8529,526.7562,142.7941,527.1887,152.7353,527.8184,162.6765,527.3007,172.6176,527.4547,182.5588,527.3545,192.5,527.3865,192.5228,527.4415,194.2983,528.1924,196.1102,529.0313,197.8889,529.7898,199.6577,530.5246,201.3388,531.0477,201.4172,531.0801,202.2138,532.8746,203.0196,534.6728,203.3134,536.259,204.4767,538.2053,205,539.8865,204.9012,539.8865,205.1779,542.1553,204.835,544.4241,204.9772,546.693,205.2472,548.9618,205,551.2306,204.985,551.2244,204.3002,553.0118,203.6398,554.8093,202.9315,556.587,202.0699,558.3012,201.3388,560.0694,201.3755,560.1579,199.498,560.6254,197.8396,561.6215,196.1055,562.435,194.3245,563.1353,192.5,563.7306,192.5,564.3436,182.5588,563.2475,172.6176,563.0784,162.6765,563.1092,152.7353,563.6717,142.7941,563.5341,132.8529,564.412,122.9118,563.5559,112.9706,563.3876,103.0294,563.9589,93.0882,563.0638,83.1471,563.2115,73.2059,564.3796,63.2647,564.1663,53.3235,564.4651,43.3824,563.4088,33.4412,564.0498,23.5,563.7306,23.5753,563.9124,21.672,562.8529,19.9522,562.2366,18.2128,561.5727,16.5121,561.0024,14.6612,560.0694,14.6599,560.0689,14.0714,558.3607,13.0262,556.4633,12.2559,554.6797,11.8873,553.0626,11,551.2306,10.761,551.2306,11.1697,548.9618,11.0689,546.693,10.9107,544.4241,10.8821,542.1553,11,539.8865,11.1413,539.945,11.6401,538.0805,12.6467,536.4265,13.0265,534.5127,14.1191,532.8942,14.6612,531.0477,14.7229,531.1968,16.4602,530.3909,18.2027,529.5977,20.0572,529.0747,21.8105,528.3077,23.5,527.3865" style="stroke:#181818;stroke-width:0.5;"/><text fill="#000000" font-family="sans-serif" font-size="12" lengthAdjust="spacing" textLength="174" x="21" y="550.2146">Return 200 OK with user details</text><path d="M33,656.2356 L33.1868,656.2356 L32.6317,661.7768 L33.1718,667.318 L33.3553,672.8592 L32.3659,678.4004 L33,683.9416 L33,683.9416 L33,683.8726 L41.8,683.5625 L50.6,683.6008 L59.4,683.8811 L68.2,683.3271 L77,683.9416 L77,683.9416 L77.4921,683.9416 L76.4398,682.0004 L76.8242,680.0592 L77.384,678.118 L76.9238,676.1768 L77,674.2356 L77.0123,674.295 L80.9942,673.3784 L85.0322,672.7322 L89.0432,671.9556 L93.1057,671.4278 L97,670.0886 L97.1128,670.6744 L93.1142,669.9109 L89.0428,668.7697 L85.078,668.1815 L81.1181,667.6192 L77,666.2356 L76.5467,665.7823 L75.4265,664.6621 L72.8136,662.0493 L71.3355,660.5711 L68.6889,657.9245 L67,656.2356 L67,656.1747 L60.2,656.8948 L53.4,656.1923 L46.6,656.3292 L39.8,656.5366 L33,656.2356 L33,656.2356 " fill="#FEFFDD" style="stroke:#181818;stroke-width:0.5;"/><path d="M67,656.2356 L67.1868,656.2356 L66.6317,658.2356 L67.1718,660.2356 L67.3553,662.2356 L66.3659,664.2356 L67,666.2356 L67,666.1665 L69,665.8565 L71,665.8947 L73,666.175 L75,665.6211 L77,666.2356 L77.348,666.5836 L74.6038,663.8395 L72.8757,662.1113 L71.2715,660.5071 L68.9461,658.1817 L67,656.2356 " fill="#FEFFDD" style="stroke:#181818;stroke-width:0.5;"/><text fill="#000000" font-family="sans-serif" font-size="13" lengthAdjust="spacing" textLength="23" x="39" y="675.1326">End</text><polygon fill="none" points="119.0608,672.7643,117.4484,674.9674,115.5412,678.1943,112.8136,680.369,109.9474,681.5582,107.662,681.6615,104.7247,680.1742,101.9532,679.2025,99.8495,677.2298,98.7461,674.9714,98.0917,673.1732,97.4506,670.8243,96.41,668.8031,97.2096,666.8296,97.9102,664.6679,100.5393,662.9581,102.389,660.7397,104.6784,660.0031,107.4001,659.3687,110.8904,659.7456,112.8021,660.6472,115.0247,661.0558,117.7272,663.8246,118.6693,666.7476,119.0786,668.742,118.615,672.0285" style="stroke:#222222;stroke-width:1.0;"/><polygon fill="#222222" points="114.0331,671.5481,113.1536,672.7498,112.1134,674.5099,110.6256,675.6961,109.0622,676.3448,107.8156,676.4011,106.2135,675.5898,104.7017,675.0599,103.5543,673.9838,102.9524,672.752,102.5955,671.7711,102.2458,670.4899,101.6782,669.3874,102.1143,668.311,102.4965,667.1318,103.9305,666.1993,104.9394,664.9892,106.1882,664.5874,107.6728,664.2414,109.5766,664.447,110.6193,664.9387,111.8317,665.1616,113.3057,666.6719,113.8196,668.2662,114.0429,669.3541,113.79,671.1467" style="stroke:#222222;stroke-width:1.0;"/><path d="M616.5,456.3475 L616.6868,456.3475 L616.1317,458.3181 L616.6718,460.2887 L616.8553,462.2593 L615.8659,464.2299 L616.5,466.2005 L616.4865,466.1328 L612.4257,466.6288 L608.4331,467.4663 L604.4881,468.5411 L600.3795,468.7979 L596.5,470.2005 L596.5965,470.6831 L600.3901,470.4512 L604.4655,471.6281 L608.5753,472.977 L612.485,473.3258 L616.5,474.2005 L616.5607,474.2005 L616.4716,476.1711 L616.6587,478.1417 L616.7126,480.1123 L617.0206,482.0829 L616.5,484.0535 L616.5,484.0535 L616.5,485.843 L626.5556,485.8649 L636.6111,484.7325 L646.6667,485.2898 L656.7222,485.9261 L666.7778,482.1304 L676.8333,485.8629 L686.8889,483.2629 L696.9444,485.477 L707,482.7335 L717.0556,483.8709 L727.1111,486.0311 L737.1667,483.9236 L747.2222,484.3343 L757.2778,484.9565 L767.3333,485.1635 L777.3889,484.0431 L787.4444,484.8194 L797.5,484.0535 L797.5,484.0535 L796.9912,484.0535 L797.7528,480.5123 L797.9873,476.9711 L797.8951,473.4299 L798.0449,469.8887 L797.5,466.3475 L797.1964,466.0439 L795.0901,463.9376 L793.1094,461.9569 L791.463,460.3105 L789.3765,458.224 L787.5,456.3475 L787.5,458.1646 L777.4412,455.8817 L767.3824,455.4327 L757.3235,456.9562 L747.2647,454.5693 L737.2059,454.9632 L727.1471,458.078 L717.0882,457.5093 L707.0294,458.3062 L696.9706,455.4894 L686.9118,457.1987 L676.8529,457.922 L666.7941,455.0878 L656.7353,456.0919 L646.6765,456.6835 L636.6176,458.0855 L626.5588,456.3363 L616.5,456.3475 L616.5,456.3475 " fill="#FEFFDD" style="stroke:#181818;stroke-width:0.5;"/><path d="M787.5,456.3475 L787.6868,456.3475 L787.1317,458.3475 L787.6718,460.3475 L787.8553,462.3475 L786.8659,464.3475 L787.5,466.3475 L787.5,466.2784 L789.5,465.9684 L791.5,466.0066 L793.5,466.2869 L795.5,465.733 L797.5,466.3475 L797.848,466.6955 L795.1038,463.9514 L793.3757,462.2232 L791.7715,460.619 L789.4461,458.2936 L787.5,456.3475 " fill="#FEFFDD" style="stroke:#181818;stroke-width:0.5;"/><text fill="#000000" font-family="sans-serif" font-size="13" lengthAdjust="spacing" textLength="160" x="622.5" y="475.2445">{"detail": "User not found"}</text><polygon fill="#F1F1F1" points="468,452.0285,468,452.2386,477.6667,451.6141,487.3333,452.2218,497,452.4281,506.6667,451.3151,516.3333,451.9508,526,451.602,535.6667,451.645,545.3333,451.9603,555,451.3371,564.6667,452.5821,574.3333,451.3982,584,452.0285,583.9748,451.9676,585.8229,452.8937,587.5246,453.4665,589.312,454.2462,591.067,454.9476,592.8388,455.6896,592.8938,455.7124,593.6447,457.4879,594.4837,459.2999,595.2422,461.0785,595.977,462.8473,596.5,464.5285,596.5849,464.5285,596.6545,466.7973,596.7341,469.0661,596.2596,471.3349,596.7262,473.6038,596.5,475.8726,596.4087,475.8348,595.9322,477.7084,594.8831,479.345,594.2822,481.1671,593.7995,483.0382,592.8388,484.7114,592.8326,484.6964,591.0845,485.4761,589.3465,486.2802,587.5886,487.0363,585.7673,487.6391,584,488.3726,584,488.6598,574.3333,487.8002,564.6667,488.657,555,488.9208,545.3333,488.8171,535.6667,488.9856,526,487.8895,516.3333,487.7204,506.6667,487.7512,497,488.3137,487.3333,488.1761,477.6667,489.054,468,488.3726,467.9777,488.3188,466.1885,487.5347,464.4936,486.9784,462.6116,485.9705,460.8627,485.2838,459.1612,484.7114,459.361,484.7942,458.5631,482.9992,457.9229,481.2696,456.8654,479.3671,456.3305,477.6811,455.5,475.8726,455.6968,475.8726,455.3425,473.6038,455.468,471.3349,455.542,469.0661,455.7173,466.7973,455.5,464.5285,455.4987,464.5279,456.3747,462.8197,456.7939,460.9223,457.4881,459.1388,458.584,457.5216,459.1612,455.6896,459.0697,455.4688,460.9939,455.1141,462.7231,454.2888,464.4303,453.4104,466.1871,452.6517,468,452.0285" style="stroke:#181818;stroke-width:0.5;"/><text fill="#000000" font-family="sans-serif" font-size="12" lengthAdjust="spacing" textLength="121" x="465.5" y="474.8566">Return 404 Not Found</text><path d="M451,523.3726 L451.1868,523.3726 L450.6317,528.9138 L451.1718,534.455 L451.3553,539.9962 L450.3659,545.5374 L451,551.0786 L451,551.0786 L451,551.0095 L459.8,550.6995 L468.6,550.7377 L477.4,551.018 L486.2,550.464 L495,551.0786 L495,551.0786 L495.4921,551.0786 L494.4398,549.1374 L494.8242,547.1962 L495.384,545.255 L494.9238,543.3138 L495,541.3726 L495.0123,541.432 L498.9942,540.5154 L503.0322,539.8692 L507.0432,539.0925 L511.1057,538.5648 L515,537.2256 L515.1128,537.8113 L511.1142,537.0479 L507.0428,535.9066 L503.078,535.3184 L499.1181,534.7561 L495,533.3726 L494.5467,532.9193 L493.4265,531.799 L490.8136,529.1862 L489.3355,527.7081 L486.6889,525.0614 L485,523.3726 L485,523.3117 L478.2,524.0318 L471.4,523.3293 L464.6,523.4662 L457.8,523.6736 L451,523.3726 L451,523.3726 " fill="#FEFFDD" style="stroke:#181818;stroke-width:0.5;"/><path d="M485,523.3726 L485.1868,523.3726 L484.6317,525.3726 L485.1718,527.3726 L485.3553,529.3726 L484.3659,531.3726 L485,533.3726 L485,533.3035 L487,532.9935 L489,533.0317 L491,533.312 L493,532.758 L495,533.3726 L495.348,533.7206 L492.6038,530.9764 L490.8757,529.2483 L489.2715,527.6441 L486.9461,525.3187 L485,523.3726 " fill="#FEFFDD" style="stroke:#181818;stroke-width:0.5;"/><text fill="#000000" font-family="sans-serif" font-size="13" lengthAdjust="spacing" textLength="23" x="457" y="542.2696">End</text><polygon fill="none" points="537.0608,539.9012,535.4484,542.1044,533.5412,545.3313,530.8136,547.506,527.9474,548.6952,525.662,548.7984,522.7247,547.3111,519.9532,546.3395,517.8495,544.3668,516.7461,542.1084,516.0917,540.3101,515.4506,537.9613,514.41,535.9401,515.2096,533.9666,515.9102,531.8048,518.5393,530.0951,520.389,527.8767,522.6784,527.14,525.4001,526.5056,528.8904,526.8826,530.8021,527.7841,533.0247,528.1928,535.7272,530.9616,536.6693,533.8845,537.0786,535.8789,536.615,539.1655" style="stroke:#222222;stroke-width:1.0;"/><polygon fill="#222222" points="532.0331,538.685,531.1536,539.8867,530.1134,541.6469,528.6256,542.8331,527.0622,543.4817,525.8156,543.538,524.2135,542.7268,522.7017,542.1968,521.5543,541.1208,520.9524,539.8889,520.5955,538.9081,520.2458,537.6269,519.6782,536.5244,520.1143,535.448,520.4965,534.2688,521.9305,533.3362,522.9394,532.1262,524.1882,531.7244,525.6728,531.3783,527.5766,531.5839,528.6193,532.0757,529.8317,532.2986,531.3057,533.8088,531.8196,535.4032,532.0429,536.4911,531.79,538.2837" style="stroke:#222222;stroke-width:1.0;"/><path d="M827.5,309.6593 L827.6868,309.6593 L827.1317,315.2005 L827.6718,320.7417 L827.8553,326.2829 L826.8659,331.8241 L827.5,337.3653 L827.5,337.3653 L827.5,337.1581 L837.587,336.228 L847.6739,336.3426 L857.7609,337.1836 L867.8478,335.5217 L877.9348,338.8417 L888.0217,335.6846 L898.1087,336.8379 L908.1957,338.5172 L918.2826,337.1366 L928.3696,337.5473 L938.4565,337.2801 L948.5435,337.8414 L958.6304,338.003 L968.7174,338.9271 L978.8043,339.1548 L988.8913,339.1767 L998.9783,338.0443 L1009.0652,338.6015 L1019.1522,339.2379 L1029.2391,335.4421 L1039.3261,339.1747 L1049.413,336.5746 L1059.5,337.3653 L1059.5,337.3653 L1059.9745,337.3653 L1059.06,335.4241 L1059.4391,333.4829 L1060.1592,331.5417 L1059.4567,329.6005 L1059.5,327.6593 L1059.519,327.7509 L1063.5611,327.1246 L1067.5751,326.3628 L1071.4993,325.1677 L1075.5518,324.5917 L1079.5,323.5123 L1079.4037,323.0127 L1075.5478,322.9899 L1071.5922,322.4496 L1067.5747,321.5885 L1063.6031,320.965 L1059.5,319.6593 L1059.1964,319.3556 L1057.0901,317.2494 L1055.1094,315.2687 L1053.463,313.6223 L1051.3765,311.5358 L1049.5,309.6593 L1049.5,311.4764 L1039.4091,309.1935 L1029.3182,308.7445 L1019.2273,310.268 L1009.1364,307.881 L999.0455,308.275 L988.9545,311.3898 L978.8636,310.8211 L968.7727,311.6179 L958.6818,308.8012 L948.5909,310.5105 L938.5,311.2337 L928.4091,308.3995 L918.3182,309.4037 L908.2273,309.9952 L898.1364,311.3973 L888.0455,309.6481 L877.9545,310.8928 L867.8636,308.1825 L857.7727,307.8533 L847.6818,311.0023 L837.5909,307.7474 L827.5,309.6593 L827.5,309.6593 " fill="#FEFFDD" style="stroke:#181818;stroke-width:0.5;"/><path d="M1049.5,309.6593 L1049.6868,309.6593 L1049.1317,311.6593 L1049.6718,313.6593 L1049.8553,315.6593 L1048.8659,317.6593 L1049.5,319.6593 L1049.5,319.5902 L1051.5,319.2802 L1053.5,319.3184 L1055.5,319.5987 L1057.5,319.0447 L1059.5,319.6593 L1059.848,320.0073 L1057.1038,317.2631 L1055.3757,315.535 L1053.7715,313.9308 L1051.4461,311.6054 L1049.5,309.6593 " fill="#FEFFDD" style="stroke:#181818;stroke-width:0.5;"/><text fill="#000000" font-family="sans-serif" font-size="13" lengthAdjust="spacing" textLength="211" x="833.5" y="328.5563">{"detail": "Invalid or expired token"}</text><polygon fill="#F1F1F1" points="1092,305.3402,1092,305.5504,1101.6429,304.9259,1111.2857,305.5335,1120.9286,305.7399,1130.5714,304.6268,1140.2143,305.2625,1149.8571,304.9137,1159.5,304.9567,1169.1429,305.2721,1178.7857,304.6489,1188.4286,305.8939,1198.0714,304.71,1207.7143,305.1425,1217.3571,305.7722,1227,305.3402,1226.9891,305.3138,1228.7765,306.0935,1230.5315,306.7949,1232.3261,307.5919,1234.1016,308.3428,1235.8388,309.0014,1236.0192,309.0761,1236.7777,310.8548,1237.5125,312.6236,1238.1139,314.3372,1238.9105,316.1316,1239.5,317.8402,1239.7341,317.8402,1239.2596,320.1091,1239.7262,322.3779,1239.4012,324.6467,1239.6779,326.9155,1239.5,329.1844,1239.3476,329.1212,1238.7467,330.9434,1238.2639,332.8145,1237.2883,334.4814,1236.6035,336.2689,1235.8388,338.0232,1235.882,338.1275,1234.1242,338.8836,1232.3028,339.4864,1230.5722,340.3083,1228.6947,340.7758,1227,341.6844,1227,341.9687,1217.3571,342.2325,1207.7143,342.1289,1198.0714,342.2974,1188.4286,341.2013,1178.7857,341.0322,1169.1429,341.0629,1159.5,341.6255,1149.8571,341.4878,1140.2143,342.3658,1130.5714,341.5097,1120.9286,341.3413,1111.2857,341.9126,1101.6429,341.0175,1092,341.6844,1091.9338,341.5245,1090.315,341.152,1088.52,340.3541,1086.7904,339.7138,1084.8879,338.6563,1083.1612,338.0232,1083.2595,338.0639,1082.6108,336.3307,1081.5512,334.4274,1080.9349,332.7077,1080.271,330.9682,1079.5,329.1844,1079.7173,329.1844,1079.4986,326.9155,1079.6542,324.6467,1079.3154,322.3779,1079.2742,320.1091,1079.5,317.8402,1079.6551,317.9045,1080.0114,315.981,1081.1212,314.3696,1081.7603,312.5633,1082.3464,310.735,1083.1612,309.0014,1083.116,308.8925,1084.9875,308.4104,1086.6585,307.4448,1088.54,306.987,1090.1617,305.9022,1092,305.3402" style="stroke:#181818;stroke-width:0.5;"/><text fill="#000000" font-family="sans-serif" font-size="12" lengthAdjust="spacing" textLength="140" x="1089.5" y="328.1683">Return 401 Unauthorized</text><path d="M1084.5,361.6844 L1084.6868,361.6844 L1084.1317,367.2256 L1084.6718,372.7668 L1084.8553,378.308 L1083.8659,383.8492 L1084.5,389.3904 L1084.5,389.3904 L1084.5,389.3213 L1093.3,389.0113 L1102.1,389.0495 L1110.9,389.3298 L1119.7,388.7758 L1128.5,389.3904 L1128.5,389.3904 L1128.9921,389.3904 L1127.9398,387.4492 L1128.3242,385.508 L1128.884,383.5668 L1128.4238,381.6256 L1128.5,379.6844 L1128.5123,379.7437 L1132.4942,378.8271 L1136.5322,378.1809 L1140.5432,377.4043 L1144.6057,376.8765 L1148.5,375.5374 L1148.6128,376.1231 L1144.6142,375.3596 L1140.5428,374.2184 L1136.578,373.6302 L1132.6181,373.0679 L1128.5,371.6844 L1128.0467,371.2311 L1126.9265,370.1108 L1124.3136,367.498 L1122.8355,366.0199 L1120.1889,363.3732 L1118.5,361.6844 L1118.5,361.6235 L1111.7,362.3436 L1104.9,361.641 L1098.1,361.778 L1091.3,361.9854 L1084.5,361.6844 L1084.5,361.6844 " fill="#FEFFDD" style="stroke:#181818;stroke-width:0.5;"/><path d="M1118.5,361.6844 L1118.6868,361.6844 L1118.1317,363.6844 L1118.6718,365.6844 L1118.8553,367.6844 L1117.8659,369.6844 L1118.5,371.6844 L1118.5,371.6153 L1120.5,371.3052 L1122.5,371.3435 L1124.5,371.6238 L1126.5,371.0698 L1128.5,371.6844 L1128.848,372.0323 L1126.1038,369.2882 L1124.3757,367.56 L1122.7715,365.9558 L1120.4461,363.6304 L1118.5,361.6844 " fill="#FEFFDD" style="stroke:#181818;stroke-width:0.5;"/><text fill="#000000" font-family="sans-serif" font-size="13" lengthAdjust="spacing" textLength="23" x="1090.5" y="380.5814">End</text><polygon fill="none" points="1170.5608,378.213,1168.9484,380.4162,1167.0412,383.6431,1164.3136,385.8178,1161.4474,387.007,1159.162,387.1102,1156.2247,385.6229,1153.4532,384.6513,1151.3495,382.6785,1150.2461,380.4201,1149.5917,378.6219,1148.9506,376.2731,1147.91,374.2518,1148.7096,372.2784,1149.4102,370.1166,1152.0393,368.4068,1153.889,366.1885,1156.1784,365.4518,1158.9001,364.8174,1162.3904,365.1943,1164.3021,366.0959,1166.5247,366.5045,1169.2272,369.2733,1170.1693,372.1963,1170.5786,374.1907,1170.115,377.4772" style="stroke:#222222;stroke-width:1.0;"/><polygon fill="#222222" points="1165.5331,376.9968,1164.6536,378.1985,1163.6134,379.9587,1162.1256,381.1448,1160.5622,381.7935,1159.3156,381.8498,1157.7135,381.0386,1156.2017,380.5086,1155.0543,379.4325,1154.4524,378.2007,1154.0955,377.2198,1153.7458,375.9386,1153.1782,374.8362,1153.6143,373.7597,1153.9965,372.5806,1155.4305,371.648,1156.4394,370.438,1157.6882,370.0361,1159.1728,369.6901,1161.0766,369.8957,1162.1193,370.3875,1163.3317,370.6104,1164.8057,372.1206,1165.3196,373.715,1165.5429,374.8028,1165.29,376.5955" style="stroke:#222222;stroke-width:1.0;"/><path d="M738.25,73.9209 L738.3434,73.9209 L738.0659,78.6915 L738.3359,83.4621 L738.4276,88.2327 L737.9329,93.0033 L738.25,97.7739 " fill="#181818" style="stroke:#181818;stroke-width:1.0;"/><polygon fill="#181818" points="734.25,87.7739,734.315,87.8,734.9218,89.7226,735.9098,91.7979,736.7737,93.8234,737.2292,95.6856,738.25,97.7739,738.2259,97.7643,738.918,95.7211,739.7313,93.7265,740.6289,91.7655,741.236,89.6883,742.25,87.7739,742.3805,87.9044,741.3014,88.4254,740.6034,89.3273,739.9518,90.2757,739.0298,90.9537,738.25,91.7739,738.2661,91.79,737.4425,90.9664,736.6921,90.216,735.9064,89.4303,735.188,88.712,734.25,87.7739" style="stroke:#181818;stroke-width:1.0;"/><path d="M738.25,134.118 L738.3434,134.118 L738.0659,139.0248 L738.3359,143.9316 L738.4276,148.8384 L737.9329,153.7452 L738.25,158.652 " fill="#181818" style="stroke:#181818;stroke-width:1.0;"/><polygon fill="#181818" points="734.25,148.652,734.315,148.678,734.9218,150.6007,735.9098,152.6759,736.7737,154.7015,737.2292,156.5637,738.25,158.652,738.2259,158.6424,738.918,156.5992,739.7313,154.6045,740.6289,152.6436,741.236,150.5664,742.25,148.652,742.3805,148.7825,741.3014,149.3034,740.6034,150.2054,739.9518,151.1538,739.0298,151.8318,738.25,152.652,738.2661,152.6681,737.4425,151.8445,736.6921,151.0941,735.9064,150.3084,735.188,149.5901,734.25,148.652" style="stroke:#181818;stroke-width:1.0;"/><path d="M738.25,194.9961 L738.3434,194.9961 L738.0659,198.9961 L738.3359,202.9961 L738.4276,206.9961 L737.9329,210.9961 L738.25,214.9961 " fill="#181818" style="stroke:#181818;stroke-width:1.0;"/><polygon fill="#181818" points="734.25,204.9961,734.315,205.0221,734.9218,206.9448,735.9098,209.02,736.7737,211.0456,737.2292,212.9078,738.25,214.9961,738.2259,214.9865,738.918,212.9433,739.7313,210.9486,740.6289,208.9877,741.236,206.9105,742.25,204.9961,742.3805,205.1266,741.3014,205.6476,740.6034,206.5495,739.9518,207.4979,739.0298,208.1759,738.25,208.9961,738.2661,209.0122,737.4425,208.1886,736.6921,207.4382,735.9064,206.6525,735.188,205.9342,734.25,204.9961" style="stroke:#181818;stroke-width:1.0;"/><path d="M317,341.6844 L317.0934,341.6844 L316.8159,345.6844 L317.0859,349.6844 L317.1776,353.6844 L316.6829,357.6844 L317,361.6844 " fill="#181818" style="stroke:#181818;stroke-width:1.0;"/><polygon fill="#181818" points="313,351.6844,313.065,351.7104,313.6718,353.6331,314.6598,355.7083,315.5237,357.7338,315.9792,359.596,317,361.6844,316.9759,361.6747,317.668,359.6316,318.4813,357.6369,319.3789,355.6759,319.986,353.5988,321,351.6844,321.1305,351.8148,320.0514,352.3358,319.3534,353.2377,318.7018,354.1862,317.7798,354.8641,317,355.6844,317.0161,355.7004,316.1925,354.8768,315.4421,354.1264,314.6564,353.3407,313.938,352.6224,313,351.6844" style="stroke:#181818;stroke-width:1.0;"/><path d="M108,563.7306 L108.2802,563.7306 L107.4476,573.2664 L108.2577,582.8022 L108.5329,592.338 L107.0488,601.8738 L107.8964,611.4096 L107.4313,620.9454 L107.4887,630.4812 L107.9091,640.017 L107.0782,649.5528 L108,659.0886 " fill="#181818" style="stroke:#181818;stroke-width:1.0;"/><polygon fill="#181818" points="104,649.0886,104.065,649.1146,104.6718,651.0373,105.6598,653.1126,106.5237,655.1381,106.9792,657.0003,108,659.0886,107.9759,659.079,108.668,657.0358,109.4813,655.0412,110.3789,653.0802,110.986,651.003,112,649.0886,112.1305,649.2191,111.0514,649.7401,110.3534,650.642,109.7018,651.5904,108.7798,652.2684,108,653.0886,108.0161,653.1047,107.1925,652.2811,106.4421,651.5307,105.6564,650.745,104.938,650.0267,104,649.0886" style="stroke:#181818;stroke-width:1.0;"/><path d="M526,488.3726 L526.0934,488.3726 L525.8159,495.9432 L526.0859,503.5138 L526.1776,511.0844 L525.6829,518.655 L526,526.2256 " fill="#181818" style="stroke:#181818;stroke-width:1.0;"/><polygon fill="#181818" points="522,516.2256,522.065,516.2516,522.6718,518.1743,523.6598,520.2495,524.5237,522.2751,524.9792,524.1373,526,526.2256,525.9759,526.216,526.668,524.1728,527.4813,522.1781,528.3789,520.2171,528.986,518.14,530,516.2256,530.1305,516.3561,529.0514,516.877,528.3534,517.779,527.7018,518.7274,526.7798,519.4054,526,520.2256,526.0161,520.2417,525.1925,519.4181,524.4421,518.6677,523.6564,517.882,522.938,517.1636,522,516.2256" style="stroke:#181818;stroke-width:1.0;"/><path d="M274.5,430.0285 L274.5,430.3087 L264.7059,429.476 L254.9118,430.2862 L245.1176,430.5614 L235.3235,429.0773 L225.5294,429.9248 L215.7353,429.4598 L205.9412,429.5171 L196.1471,429.9376 L186.3529,429.1066 L176.5588,430.7667 L166.7647,429.1881 L156.9706,429.7648 L147.1765,430.6044 L137.3824,429.9141 L127.5882,430.1194 L117.7941,429.9859 L108,430.0285 " fill="#181818" style="stroke:#181818;stroke-width:1.0;"/><path d="M108,430.0285 L108.2802,430.0285 L107.4476,439.7643 L108.2577,449.5001 L108.5329,459.2359 L107.0488,468.9717 L107.8964,478.7075 L107.4313,488.4433 L107.4887,498.1791 L107.9091,507.9149 L107.0782,517.6507 L108,527.3865 " fill="#181818" style="stroke:#181818;stroke-width:1.0;"/><polygon fill="#181818" points="104,517.3865,104.065,517.4125,104.6718,519.3352,105.6598,521.4104,106.5237,523.436,106.9792,525.2982,108,527.3865,107.9759,527.3769,108.668,525.3337,109.4813,523.339,110.3789,521.3781,110.986,519.3009,112,517.3865,112.1305,517.517,111.0514,518.0379,110.3534,518.9399,109.7018,519.8883,108.7798,520.5663,108,521.3865,108.0161,521.4026,107.1925,520.579,106.4421,519.8286,105.6564,519.0429,104.938,518.3245,104,517.3865" style="stroke:#181818;stroke-width:1.0;"/><path d="M359.5,430.0285 L359.5,430.3087 L369.2941,429.476 L379.0882,430.2862 L388.8824,430.5614 L398.6765,429.0773 L408.4706,429.9248 L418.2647,429.4598 L428.0588,429.5171 L437.8529,429.9376 L447.6471,429.1066 L457.4412,430.7667 L467.2353,429.1881 L477.0294,429.7648 L486.8235,430.6044 L496.6176,429.9141 L506.4118,430.1194 L516.2059,429.9859 L526,430.0285 " fill="#181818" style="stroke:#181818;stroke-width:1.0;"/><path d="M526,430.0285 L526.0934,430.0285 L525.8159,434.4285 L526.0859,438.8285 L526.1776,443.2285 L525.6829,447.6285 L526,452.0285 " fill="#181818" style="stroke:#181818;stroke-width:1.0;"/><polygon fill="#181818" points="522,442.0285,522.065,442.0545,522.6718,443.9772,523.6598,446.0524,524.5237,448.0779,524.9792,449.9401,526,452.0285,525.9759,452.0188,526.668,449.9757,527.4813,447.981,528.3789,446.02,528.986,443.9429,530,442.0285,530.1305,442.159,529.0514,442.6799,528.3534,443.5819,527.7018,444.5303,526.7798,445.2082,526,446.0285,526.0161,446.0445,525.1925,445.2209,524.4421,444.4705,523.6564,443.6848,522.938,442.9665,522,442.0285" style="stroke:#181818;stroke-width:1.0;"/><path d="M317,398.0285 L317.0934,398.0285 L316.8159,402.0285 L317.0859,406.0285 L317.1776,410.0285 L316.6829,414.0285 L317,418.0285 " fill="#181818" style="stroke:#181818;stroke-width:1.0;"/><polygon fill="#181818" points="313,408.0285,313.065,408.0545,313.6718,409.9772,314.6598,412.0524,315.5237,414.0779,315.9792,415.9401,317,418.0285,316.9759,418.0188,317.668,415.9757,318.4813,413.981,319.3789,412.02,319.986,409.9429,321,408.0285,321.1305,408.159,320.0514,408.6799,319.3534,409.5819,318.7018,410.5303,317.7798,411.2082,317,412.0285,317.0161,412.0445,316.1925,411.2209,315.4421,410.4705,314.6564,409.6848,313.938,408.9665,313,408.0285" style="stroke:#181818;stroke-width:1.0;"/><path d="M1159.5,341.6844 L1159.5934,341.6844 L1159.3159,346.255 L1159.5859,350.8256 L1159.6776,355.3962 L1159.1829,359.9668 L1159.5,364.5374 " fill="#181818" style="stroke:#181818;stroke-width:1.0;"/><polygon fill="#181818" points="1155.5,354.5374,1155.565,354.5634,1156.1718,356.4861,1157.1598,358.5613,1158.0237,360.5868,1158.4792,362.449,1159.5,364.5374,1159.4759,364.5277,1160.168,362.4846,1160.9813,360.4899,1161.8789,358.5289,1162.486,356.4518,1163.5,354.5374,1163.6305,354.6679,1162.5514,355.1888,1161.8534,356.0907,1161.2018,357.0392,1160.2798,357.7171,1159.5,358.5374,1159.5161,358.5534,1158.6925,357.7298,1157.9421,356.9794,1157.1564,356.1937,1156.438,355.4754,1155.5,354.5374" style="stroke:#181818;stroke-width:1.0;"/><path d="M688.25,283.3402 L688.25,283.6205 L678.2162,282.7878 L668.1824,283.598 L658.1486,283.8731 L648.1149,282.389 L638.0811,283.2366 L628.0473,282.7716 L618.0135,282.8289 L607.9797,283.2494 L597.9459,282.4184 L587.9122,284.0784 L577.8784,282.4999 L567.8446,283.0765 L557.8108,283.9162 L547.777,283.2259 L537.7432,283.4312 L527.7095,283.2976 L517.6757,283.5783 L507.6419,283.6591 L497.6081,284.1212 L487.5743,284.235 L477.5405,284.2459 L467.5068,283.6797 L457.473,283.9583 L447.4392,284.2765 L437.4054,282.3787 L427.3716,284.2449 L417.3378,282.9449 L407.3041,284.052 L397.2703,282.6802 L387.2365,283.2489 L377.2027,284.329 L367.1689,283.2753 L357.1351,283.4806 L347.1014,283.7917 L337.0676,283.8952 L327.0338,283.335 L317,283.3402 " fill="#181818" style="stroke:#181818;stroke-width:1.0;"/><path d="M317,283.3402 L317.0934,283.3402 L316.8159,287.7402 L317.0859,292.1402 L317.1776,296.5402 L316.6829,300.9402 L317,305.3402 " fill="#181818" style="stroke:#181818;stroke-width:1.0;"/><polygon fill="#181818" points="313,295.3402,313.065,295.3663,313.6718,297.2889,314.6598,299.3642,315.5237,301.3897,315.9792,303.2519,317,305.3402,316.9759,305.3306,317.668,303.2874,318.4813,301.2928,319.3789,299.3318,319.986,297.2546,321,295.3402,321.1305,295.4707,320.0514,295.9917,319.3534,296.8936,318.7018,297.842,317.7798,298.52,317,299.3402,317.0161,299.3563,316.1925,298.5327,315.4421,297.7823,314.6564,296.9966,313.938,296.2783,313,295.3402" style="stroke:#181818;stroke-width:1.0;"/><path d="M788.25,283.3402 L788.25,283.6205 L798.2838,282.7878 L808.3176,283.598 L818.3514,283.8731 L828.3851,282.389 L838.4189,283.2366 L848.4527,282.7716 L858.4865,282.8289 L868.5203,283.2494 L878.5541,282.4184 L888.5878,284.0784 L898.6216,282.4999 L908.6554,283.0765 L918.6892,283.9162 L928.723,283.2259 L938.7568,283.4312 L948.7905,283.2976 L958.8243,283.5783 L968.8581,283.6591 L978.8919,284.1212 L988.9257,284.235 L998.9595,284.2459 L1008.9932,283.6797 L1019.027,283.9583 L1029.0608,284.2765 L1039.0946,282.3787 L1049.1284,284.2449 L1059.1622,282.9449 L1069.1959,284.052 L1079.2297,282.6802 L1089.2635,283.2489 L1099.2973,284.329 L1109.3311,283.2753 L1119.3649,283.4806 L1129.3986,283.7917 L1139.4324,283.8952 L1149.4662,283.335 L1159.5,283.3402 " fill="#181818" style="stroke:#181818;stroke-width:1.0;"/><path d="M1159.5,283.3402 L1159.5934,283.3402 L1159.3159,287.7402 L1159.5859,292.1402 L1159.6776,296.5402 L1159.1829,300.9402 L1159.5,305.3402 " fill="#181818" style="stroke:#181818;stroke-width:1.0;"/><polygon fill="#181818" points="1155.5,295.3402,1155.565,295.3663,1156.1718,297.2889,1157.1598,299.3642,1158.0237,301.3897,1158.4792,303.2519,1159.5,305.3402,1159.4759,305.3306,1160.168,303.2874,1160.9813,301.2928,1161.8789,299.3318,1162.486,297.2546,1163.5,295.3402,1163.6305,295.4707,1162.5514,295.9917,1161.8534,296.8936,1161.2018,297.842,1160.2798,298.52,1159.5,299.3402,1159.5161,299.3563,1158.6925,298.5327,1157.9421,297.7823,1157.1564,296.9966,1156.438,296.2783,1155.5,295.3402" style="stroke:#181818;stroke-width:1.0;"/><path d="M738.25,251.3402 L738.3434,251.3402 L738.0659,255.3402 L738.3359,259.3402 L738.4276,263.3402 L737.9329,267.3402 L738.25,271.3402 " fill="#181818" style="stroke:#181818;stroke-width:1.0;"/><polygon fill="#181818" points="734.25,261.3402,734.315,261.3663,734.9218,263.2889,735.9098,265.3642,736.7737,267.3897,737.2292,269.2519,738.25,271.3402,738.2259,271.3306,738.918,269.2874,739.7313,267.2928,740.6289,265.3318,741.236,263.2546,742.25,261.3402,742.3805,261.4707,741.3014,261.9917,740.6034,262.8936,739.9518,263.842,739.0298,264.52,738.25,265.3402,738.2661,265.3563,737.4425,264.5327,736.6921,263.7823,735.9064,262.9966,735.188,262.2783,734.25,261.3402" style="stroke:#181818;stroke-width:1.0;"/><!--SRC=[ZPFVRzem4CVVyrUSyaJHDEZKfu2OIakxCgcL2coFbOilZOT_CFlImgh-xxCT265DfVaXIku-_jutTxPR2RrcbYaecEOlLX2X1h8b9gvEaI29OsCvMZXjZryOQImyIhPS9J4CtUwm75qZmKLfBMg2XVFRBv6Oa6xOAqVTRf8uOfOIRGZ1YgU2CfZ5I7QFInJF2DUJELZyNQ8Z80Ezqekuda9u4LJ0UKc5iU8F8s4q5CYyaq4b9p6d1FmwPhv59ekPCJBhBGsdF-SmDolKemGrXx0zoIORicn9498Kaf1RepwecFr0A_Bj0Hua8eTE50NXu9b9mR-U01N-kxD5Tn8Dr4N2Npq8NfLeY4Je2cbPH0HurRsAuupO8tFeKq8_xJMgJV4HBCIcuqOuSk_hH_bxfD9g-DBlmzttggtDMeEQF4of3eKrdTtTmjZmRNOKVjsxQAvqPpBD85qiRYxJJnyWcYaCq2_cd51j62hlBY3n1JTChIL-NffME1VMKIqwtOcs-5E2SuarEMDICTscA5b3y5owmYW_usqRAjm3uqfeJ-PCEZmYtkgl-kZj0uxC-hZvuKndCD4yXj5hGKURzxCywv_1hI6uCgNcRGFCu3MjvXid4SRjav07FdtxVmUQYpmvzd7mS0eBpNRN1NSs6Y9D1pSwtX0muQokXKLUtO2Tbzh7FnvY_Ry0]--></g></svg>