<?xml version="1.0" encoding="us-ascii" standalone="no"?><svg xmlns="http://www.w3.org/2000/svg" xmlns:xlink="http://www.w3.org/1999/xlink" contentStyleType="text/css" height="705px" preserveAspectRatio="none" style="width:1459px;height:705px;background:#FFFFFF;" version="1.1" viewBox="0 0 1459 705" width="1459px" zoomAndPan="magnify"><defs/><g><polygon fill="none" points="620.5625,15,620.5625,15.2102,630.3523,14.5857,640.142,15.1933,649.9318,15.3997,659.7216,14.2866,669.5114,14.9223,679.3011,14.5735,689.0909,14.6165,698.8807,14.9318,708.6705,14.3086,718.4602,15.5536,728.25,14.3697,738.0398,14.8022,747.8295,15.4319,757.6193,14.9142,767.4091,15.0682,777.1989,14.9681,786.9886,15.1785,796.7784,15.2391,806.5682,15.5857,816.358,15.6711,826.1477,15.6793,835.9375,15,836.0224,15,836.092,20.8136,836.1716,26.6272,835.6971,32.4408,836.1637,38.2543,835.9375,44.0679,835.9375,43.7714,826.1477,44.6017,816.358,43.5729,806.5682,43.9994,796.7784,44.8095,786.9886,44.0192,777.1989,44.1732,767.4091,44.4065,757.6193,44.4841,747.8295,44.064,738.0398,44.3551,728.25,43.4955,718.4602,44.3523,708.6705,44.6161,698.8807,44.5124,689.0909,44.6809,679.3011,43.5848,669.5114,43.4157,659.7216,43.4465,649.9318,44.009,640.142,43.8714,630.3523,44.7493,620.5625,44.0679,620.5043,44.0679,620.4481,38.2543,620.6386,32.4408,620.3402,26.6272,620.3895,20.8136,620.5625,15" style="stroke:#000000;stroke-width:1.0;"/><text fill="#000000" font-family="sans-serif" font-size="14" font-weight="bold" lengthAdjust="spacing" text-decoration="underline" textLength="205.375" x="625.5625" y="34.9659">Get user transactions history</text><path d="M904.875,50.0679 L905.0618,50.0679 L904.5067,52.0385 L905.0468,54.0091 L905.2303,55.9797 L904.2409,57.9503 L904.875,59.9209 L904.8615,59.8532 L900.8007,60.3492 L896.8081,61.1867 L892.8631,62.2615 L888.7545,62.5183 L884.875,63.9209 L884.9715,64.4035 L888.7651,64.1716 L892.8405,65.3485 L896.9503,66.6974 L900.86,67.0462 L904.875,67.9209 L904.9357,67.9209 L904.8466,69.8915 L905.0337,71.8621 L905.0876,73.8327 L905.3956,75.8033 L904.875,77.7739 L904.875,77.7739 L904.875,79.5634 L914.875,79.5853 L924.875,78.4529 L934.875,79.0102 L944.875,79.6466 L954.875,77.7739 L954.875,77.7739 L954.2339,77.7739 L955.4781,74.2327 L954.6114,70.6915 L955.3495,67.1503 L954.435,63.6091 L954.875,60.0679 L954.8319,60.0249 L953.3411,58.534 L950.8444,56.0373 L948.9412,54.1341 L947.0878,52.2808 L944.875,50.0679 L944.875,50.4379 L936.875,50.0644 L928.875,50.3232 L920.875,49.5591 L912.875,50.3207 L904.875,50.0679 L904.875,50.0679 " fill="#FEFFDD" style="stroke:#181818;stroke-width:0.5;"/><path d="M944.875,50.0679 L945.0618,50.0679 L944.5067,52.0679 L945.0468,54.0679 L945.2303,56.0679 L944.2409,58.0679 L944.875,60.0679 L944.875,59.9988 L946.875,59.6888 L948.875,59.727 L950.875,60.0073 L952.875,59.4534 L954.875,60.0679 L955.223,60.4159 L952.4788,57.6718 L950.7507,55.9436 L949.1465,54.3394 L946.8211,52.014 L944.875,50.0679 " fill="#FEFFDD" style="stroke:#181818;stroke-width:0.5;"/><text fill="#000000" font-family="sans-serif" font-size="13" lengthAdjust="spacing" textLength="29" x="910.875" y="68.9649">Start</text><polygon fill="#222222" points="884.9302,66.3533,883.4644,68.3562,881.7306,71.2897,879.251,73.2667,876.6453,74.3478,874.5677,74.4417,871.8974,73.0896,869.3779,72.2063,867.4655,70.4129,866.4623,68.3598,865.8674,66.725,865.2846,64.5897,864.3386,62.7523,865.0656,60.9582,865.7025,58.9929,868.0925,57.4386,869.7741,55.4219,871.8554,54.7522,874.3297,54.1755,877.5026,54.5182,879.2405,55.3378,881.2611,55.7093,883.7179,58.2264,884.5743,60.8836,884.9464,62.6967,884.525,65.6844" style="stroke:#222222;stroke-width:1.0;"/><polygon fill="#F1F1F1" points="680.375,97.7739,680.375,97.9841,690.3494,97.3596,700.3237,97.9672,710.2981,98.1736,720.2724,97.0605,730.2468,97.6962,740.2212,97.3474,750.1955,97.3904,760.1699,97.7058,770.1442,97.0826,780.1186,98.3276,790.0929,97.1437,800.0673,97.5762,810.0417,98.2059,820.016,97.6882,829.9904,97.8422,839.9647,97.742,849.9391,97.9525,859.9135,98.0131,869.8878,98.3596,879.8622,98.445,889.8365,98.4532,899.8109,98.0286,909.7853,98.2375,919.7596,98.4762,929.734,97.0527,939.7083,98.4524,949.6827,97.4774,959.6571,98.3077,969.6314,97.2789,979.6058,97.7054,989.5801,98.5155,999.5545,97.7252,1009.5288,97.8792,1019.5032,98.1126,1029.4776,98.1902,1039.4519,97.77,1049.4263,98.0611,1059.4006,97.2015,1069.375,97.7739,1069.4113,97.8615,1071.2127,98.675,1072.9672,99.3753,1074.7565,100.1594,1076.3844,100.5541,1078.2138,101.4351,1078.013,101.3519,1078.7547,103.1236,1079.6602,104.9631,1080.35,106.7133,1081.3526,108.5931,1081.875,110.2739,1081.8168,110.2739,1081.7606,112.5428,1081.9511,114.8116,1081.6527,117.0804,1081.702,119.3492,1081.875,121.618,1082.0749,121.7008,1081.2769,123.4414,1080.6367,125.2473,1079.5792,126.8803,1079.0444,128.7298,1078.2138,130.4569,1078.2891,130.6387,1076.3858,131.0436,1074.6661,131.8918,1072.9266,132.6924,1071.2259,133.5865,1069.375,134.118,1069.375,134.1139,1059.4006,134.5806,1049.4263,133.5643,1039.4519,133.4408,1029.4776,134.6217,1019.5032,133.4011,1009.5288,134.627,999.5545,134.3247,989.5801,133.8501,979.6058,133.7643,969.6314,134.5768,959.6571,133.8187,949.6827,134.7099,939.7083,133.5653,929.734,134.7355,919.7596,134.6024,909.7853,134.363,899.8109,134.1653,889.8365,134.8447,879.8622,134.7316,869.8878,134.2873,859.9135,134.3862,849.9391,133.9878,839.9647,134.8345,829.9904,134.2729,820.016,134.2906,810.0417,133.5097,800.0673,133.7128,790.0929,134.6488,780.1186,134.5478,770.1442,134.0751,760.1699,133.7959,750.1955,133.8991,740.2212,133.4319,730.2468,134.5328,720.2724,134.8576,710.2981,134.6444,700.3237,134.813,690.3494,133.9813,680.375,134.118,680.3861,134.1449,678.5578,133.2665,676.8757,132.7411,675.1032,131.9973,673.3744,131.3592,671.5362,130.4569,671.4654,130.4276,670.7625,128.672,670.2083,126.9779,669.5142,125.226,668.4494,123.3204,667.875,121.618,667.8104,121.618,667.9248,119.3492,667.6714,117.0804,667.9928,114.8116,667.961,112.5428,667.875,110.2739,667.844,110.2611,668.651,108.5243,669.5639,106.8314,669.9753,104.9307,670.9009,103.243,671.5362,101.4351,671.5726,101.5231,673.3187,100.7385,675.0897,100.014,676.8539,99.2733,678.5276,98.314,680.375,97.7739" style="stroke:#181818;stroke-width:0.5;"/><text fill="#000000" font-family="sans-serif" font-size="12" lengthAdjust="spacing" textLength="394" x="677.875" y="120.602">Receive GET request to /transactions/history with Authorization header</text><polygon fill="#F1F1F1" points="756.875,154.118,756.875,154.3282,766.7083,153.7037,776.5417,154.3113,786.375,154.5177,796.2083,153.4047,806.0417,154.0403,815.875,153.6916,825.7083,153.7345,835.5417,154.0499,845.375,153.4267,855.2083,154.6717,865.0417,153.4878,874.875,153.9203,884.7083,154.55,894.5417,154.0323,904.375,154.1863,914.2083,154.0861,924.0417,154.2966,933.875,154.3572,943.7083,154.7037,953.5417,154.7891,963.375,154.7973,973.2083,154.3727,983.0417,154.5816,992.875,154.118,992.9646,154.3343,994.5508,154.6282,996.4971,155.7915,998.1405,156.2234,1000.0142,157.2114,1001.7138,157.7792,1001.5614,157.7161,1002.425,159.5382,1003.4067,161.4093,1003.8955,163.0763,1004.6752,164.8637,1005.375,166.618,1005.4879,166.618,1005.5137,168.8869,1005.3737,171.1557,1005.4707,173.4245,1005.1842,175.6933,1005.375,177.9622,1005.4626,177.9984,1004.8116,179.7999,1004.0474,181.5544,1003.3671,183.3437,1002.2973,184.9716,1001.7138,186.801,1001.6306,186.6002,999.8668,187.3419,998.1708,188.2473,996.3855,188.9372,994.7297,189.9398,992.875,190.4622,992.875,190.2875,983.0417,190.1191,973.2083,190.6904,963.375,189.7953,953.5417,189.943,943.7083,191.1111,933.875,190.8978,924.0417,191.1967,914.2083,190.1404,904.375,190.7814,894.5417,191.0526,884.7083,189.9898,874.875,190.3663,865.0417,190.5881,855.2083,191.1139,845.375,190.458,835.5417,190.9247,825.7083,189.9084,815.875,189.7849,806.0417,190.9658,796.2083,189.7452,786.375,190.9711,776.5417,190.6688,766.7083,190.1942,756.875,190.4622,756.8299,190.3532,755.1658,189.8712,753.3013,188.9055,751.6472,188.4477,749.7334,187.363,748.0362,186.801,748.2263,186.8798,747.4531,185.095,746.6471,183.2967,745.854,181.5037,745.331,179.8226,744.375,177.9622,744.5795,177.9622,744.4314,175.6933,744.4644,173.4245,744.3316,171.1557,744.6138,168.8869,744.375,166.618,744.4227,166.6378,745.1604,164.8723,745.6521,163.0049,746.4469,161.2631,747.4674,159.6147,748.0362,157.7792,748.091,157.9116,749.7985,157.0338,751.5306,156.2155,753.3115,155.5151,755.0197,154.639,756.875,154.118" style="stroke:#181818;stroke-width:0.5;"/><text fill="#000000" font-family="sans-serif" font-size="12" lengthAdjust="spacing" textLength="241" x="754.375" y="176.9461">Run Authorization Token Validation Process</text><polygon fill="#F1F1F1" points="803.375,210.4622,803.375,210.6723,813.5893,210.0478,823.8036,210.6554,834.0179,210.8618,844.2321,209.7488,854.4464,210.3844,864.6607,210.0357,874.875,210.0787,885.0893,210.394,895.3036,209.7708,905.5179,211.0158,915.7321,209.8319,925.9464,210.2644,936.1607,210.8941,946.375,210.4622,946.3548,210.4419,948.7911,212.8782,951.1675,215.2546,953.6171,217.7042,956.0314,220.1185,958.375,222.4622,958.513,222.6002,956.1332,225.0203,953.7351,227.4223,951.235,229.7222,948.8843,232.1714,946.375,234.4622,946.375,235.1644,936.1607,233.741,925.9464,235.1407,915.7321,234.1657,905.5179,234.996,895.3036,233.9671,885.0893,234.3937,874.875,235.2038,864.6607,234.4134,854.4464,234.5675,844.2321,234.8008,834.0179,234.8784,823.8036,234.4583,813.5893,234.7494,803.375,234.4622,803.2401,234.3272,801.042,232.1292,798.7042,229.7914,796.2798,227.3669,793.9195,225.0067,791.375,222.4622,791.2611,222.3483,793.6213,219.9084,796.0285,217.5157,798.5611,215.2483,800.9287,212.8158,803.375,210.4622" style="stroke:#181818;stroke-width:0.5;"/><text fill="#000000" font-family="sans-serif" font-size="11" lengthAdjust="spacing" textLength="143" x="803.375" y="226.7301">Authorization is successful?</text><text fill="#000000" font-family="sans-serif" font-size="11" lengthAdjust="spacing" textLength="17" x="774.375" y="219.2392">yes</text><text fill="#000000" font-family="sans-serif" font-size="11" lengthAdjust="spacing" textLength="14" x="958.375" y="219.2392">no</text><polygon fill="#F1F1F1" points="298.75,244.4622,298.75,244.6723,308.4559,244.0478,318.1618,244.6554,327.8676,244.8618,337.5735,243.7488,347.2794,244.3844,356.9853,244.0357,366.6912,244.0787,376.3971,244.394,386.1029,243.7708,395.8088,245.0158,405.5147,243.8319,415.2206,244.2644,424.9265,244.8941,434.6324,244.3764,444.3382,244.5304,454.0441,244.4302,463.75,244.4622,463.7728,244.5171,465.5483,245.268,467.3602,246.107,469.1389,246.8655,470.9077,247.6003,472.5888,248.1233,472.6672,248.1558,473.4638,249.9502,474.2696,251.7484,474.5634,253.3346,475.7267,255.2809,476.25,256.9622,476.1512,256.9622,476.4279,259.231,476.085,261.4998,476.2272,263.7686,476.4972,266.0375,476.25,268.3063,476.235,268.3001,475.5502,270.0875,474.8898,271.885,474.1815,273.6627,473.3199,275.3768,472.5888,277.1451,472.6255,277.2336,470.748,277.7011,469.0896,278.6972,467.3555,279.5106,465.5745,280.2109,463.75,280.8063,463.75,281.4193,454.0441,280.3232,444.3382,280.1541,434.6324,280.1849,424.9265,280.7474,415.2206,280.6097,405.5147,281.4877,395.8088,280.6316,386.1029,280.4632,376.3971,281.0345,366.6912,280.1394,356.9853,280.2872,347.2794,281.4552,337.5735,281.2419,327.8676,281.5408,318.1618,280.4845,308.4559,281.1255,298.75,280.8063,298.8253,280.9881,296.922,279.9286,295.2022,279.3123,293.4628,278.6484,291.7621,278.0781,289.9112,277.1451,289.9099,277.1446,289.3214,275.4363,288.2762,273.5389,287.5059,271.7554,287.1373,270.1383,286.25,268.3063,286.011,268.3063,286.4197,266.0375,286.3189,263.7686,286.1607,261.4998,286.1321,259.231,286.25,256.9622,286.3913,257.0207,286.8901,255.1562,287.8967,253.5021,288.2765,251.5884,289.3691,249.9699,289.9112,248.1233,289.9729,248.2725,291.7102,247.4665,293.4527,246.6734,295.3072,246.1504,297.0605,245.3834,298.75,244.4622" style="stroke:#181818;stroke-width:0.5;"/><text fill="#000000" font-family="sans-serif" font-size="12" lengthAdjust="spacing" textLength="170" x="296.25" y="267.2903">Extract user_id from JWT token</text><polygon fill="#F1F1F1" points="216.25,300.8063,216.25,301.0165,226.25,300.392,236.25,300.9996,246.25,301.206,256.25,300.0929,266.25,300.7286,276.25,300.3798,286.25,300.4228,296.25,300.7381,306.25,300.1149,316.25,301.3599,326.25,300.176,336.25,300.6085,346.25,301.2382,356.25,300.7205,366.25,300.8745,376.25,300.7743,386.25,300.9848,396.25,301.0454,406.25,301.392,416.25,301.4773,426.25,301.4855,436.25,301.0609,446.25,301.2699,456.25,301.5085,466.25,300.0851,476.25,301.4848,486.25,300.5098,496.25,301.3401,506.25,300.3113,516.25,300.7378,526.25,301.5479,536.25,300.7575,546.25,300.8063,546.2634,300.8387,548.061,301.6428,549.8386,302.3989,551.5528,303.0018,553.3577,303.8237,555.0888,304.4674,554.9126,304.3944,555.9086,306.2715,556.7221,308.0729,557.4224,309.8274,558.2066,311.6167,558.75,313.3063,558.589,313.3063,558.5326,315.5751,558.5429,317.8439,558.7304,320.1127,558.6845,322.3816,558.75,324.6504,558.9598,324.7373,557.964,326.3959,557.1799,328.1422,556.6236,329.9828,555.6157,331.6364,555.0888,333.4892,555.0226,333.3294,553.4038,334.4213,551.6089,335.0879,549.8792,335.9121,547.9767,336.3191,546.25,337.1504,546.25,337.4696,536.25,337.7408,526.25,336.678,516.25,337.0545,506.25,337.2764,496.25,337.8022,486.25,337.1462,476.25,337.613,466.25,336.5966,456.25,336.4731,446.25,337.654,436.25,336.4334,426.25,337.6594,416.25,337.357,406.25,336.8825,396.25,336.7966,386.25,337.6092,376.25,336.8511,366.25,337.7423,356.25,336.5976,346.25,337.7678,336.25,337.6347,326.25,337.3954,316.25,337.1976,306.25,337.877,296.25,337.764,286.25,337.3196,276.25,337.4186,266.25,337.0201,256.25,337.8668,246.25,337.3053,236.25,337.323,226.25,336.542,216.25,337.1504,216.1983,337.0256,214.5499,336.5816,212.7693,335.8183,210.9412,334.9405,209.1378,334.1222,207.4112,333.4892,207.3437,333.4613,206.4676,331.6339,206.0744,330.0066,205.4422,328.2803,204.6443,326.4853,203.75,324.6504,203.9816,324.6504,203.7044,322.3816,203.7791,320.1127,203.6208,317.8439,203.8447,315.5751,203.75,313.3063,203.826,313.3378,204.6523,311.609,205.1437,309.7414,205.9053,307.9858,206.8155,306.2918,207.4112,304.4674,207.4835,304.6422,209.1136,303.5774,210.922,302.9433,212.7335,302.3167,214.4043,301.3504,216.25,300.8063" style="stroke:#181818;stroke-width:0.5;"/><text fill="#000000" font-family="sans-serif" font-size="12" lengthAdjust="spacing" textLength="335" x="213.75" y="323.6344">Fetch current user transactions from database using user_id</text><polygon fill="#F1F1F1" points="322.75,357.1504,322.75,357.3606,332.5,356.7361,342.25,357.3437,352,357.5501,361.75,356.437,371.5,357.0727,381.25,356.7239,391,356.7669,400.75,357.0822,410.5,356.459,420.25,357.704,430,356.5201,439.75,357.1504,439.7034,357.1038,442.2518,359.6522,444.5298,361.9302,446.9661,364.3665,449.3425,366.7429,451.75,369.1504,451.7921,369.1925,449.4064,371.6068,447.088,374.0884,444.7082,376.5086,442.3101,378.9105,439.75,381.1504,439.75,381.405,430,381.614,420.25,381.8526,410.5,380.4292,400.75,381.8289,391,380.8539,381.25,381.6842,371.5,380.6554,361.75,381.0819,352,381.892,342.25,381.1017,332.5,381.2557,322.75,381.1504,322.8298,381.2302,320.4481,378.8485,317.9491,376.3495,315.6177,374.0181,313.0151,371.4155,310.75,369.1504,310.817,369.2174,313.2792,366.8796,315.6548,364.4552,318.0945,362.0949,320.2361,359.4365,322.75,357.1504" style="stroke:#181818;stroke-width:0.5;"/><text fill="#000000" font-family="sans-serif" font-size="11" lengthAdjust="spacing" textLength="117" x="322.75" y="373.4184">User has transactions?</text><text fill="#000000" font-family="sans-serif" font-size="11" lengthAdjust="spacing" textLength="17" x="293.75" y="365.9274">yes</text><text fill="#000000" font-family="sans-serif" font-size="11" lengthAdjust="spacing" textLength="14" x="451.75" y="365.9274">no</text><path d="M298,391.1504 L298.5605,391.1504 L296.8951,401.5622 L298.5154,411.9741 L299.0658,422.3859 L296.0976,432.7978 L297.7928,443.2096 L296.8627,453.6214 L296.9773,464.0333 L297.8182,474.4451 L296.1563,484.857 L299.4764,495.2688 L296.3193,505.6807 L298,516.0925 L297.9655,515.9201 L294.0753,517.269 L289.985,517.6177 L286.0119,518.552 L281.9944,519.2647 L278,520.0925 L278.0311,520.2481 L282.0417,521.1009 L286.1021,522.203 L290.117,523.0774 L294.1184,523.8846 L298,524.0925 L298.679,524.0925 L299.2362,534.5043 L299.8726,544.9162 L296.0768,555.328 L299.8094,565.7399 L297.2093,576.1517 L299.4235,586.5636 L296.6799,596.9754 L297.8173,607.3873 L299.9776,617.7991 L297.87,628.2109 L298.2808,638.6228 L298,649.0346 L298,649.0346 L298,649.9376 L307.7826,650.1446 L317.5652,649.0242 L327.3478,649.8005 L337.1304,647.5082 L346.913,649.793 L356.6957,650.4965 L366.4783,650.22 L376.2609,650.6694 L386.0435,647.7464 L395.8261,647.2955 L405.6087,647.3776 L415.3913,648.8776 L425.1739,648.5105 L434.9565,650.8517 L444.7391,648.5688 L454.5217,648.1198 L464.3043,649.6433 L474.087,647.2564 L483.8696,647.6503 L493.6522,650.7652 L503.4348,650.1964 L513.2174,650.9933 L523,649.0346 L523,649.0346 L522.1419,649.0346 L523.8512,639.1193 L524.5745,629.2039 L521.7403,619.2885 L522.7444,609.3731 L523.336,599.4578 L524.738,589.5424 L522.9888,579.627 L524.2335,569.7117 L521.5232,559.7963 L521.194,549.8809 L524.343,539.9656 L521.0882,530.0502 L524.3572,520.1348 L523.551,510.2195 L522.2856,500.3041 L522.0566,490.3887 L524.2234,480.4733 L522.2018,470.558 L524.5783,460.6426 L521.526,450.7272 L524.6465,440.8119 L524.2915,430.8965 L523.6532,420.9811 L523.1259,411.0658 L523,401.1504 L523.4567,401.6071 L521.3857,399.536 L519.1064,397.2568 L517.1686,395.319 L514.9181,393.0685 L513,391.1504 L513,393.0609 L503.2273,391.5634 L493.4545,391.6106 L483.6818,389.5281 L473.9091,390.0698 L464.1364,392.5657 L454.3636,392.2964 L444.5909,391.0359 L434.8182,390.2913 L425.0455,390.5666 L415.2727,389.3206 L405.5,392.2564 L395.7273,393.1226 L385.9545,392.5541 L376.1818,393.0035 L366.4091,390.7858 L356.6364,391.383 L346.8636,390.1168 L337.0909,391.9078 L327.3182,391.8084 L317.5455,392.6234 L307.7727,390.538 L298,391.1504 L298,391.1504 " fill="#FEFFDD" style="stroke:#181818;stroke-width:0.5;"/><path d="M513,391.1504 L513.1868,391.1504 L512.6317,393.1504 L513.1718,395.1504 L513.3553,397.1504 L512.3659,399.1504 L513,401.1504 L513,401.0813 L515,400.7713 L517,400.8095 L519,401.0898 L521,400.5358 L523,401.1504 L523.348,401.4984 L520.6038,398.7542 L518.8757,397.0261 L517.2715,395.4219 L514.9461,393.0965 L513,391.1504 " fill="#FEFFDD" style="stroke:#181818;stroke-width:0.5;"/><text fill="#000000" font-family="sans-serif" font-size="13" lengthAdjust="spacing" textLength="68" x="304" y="410.0474">JSON Body:</text><text fill="#000000" font-family="sans-serif" font-size="13" lengthAdjust="spacing" textLength="4" x="304" y="427.7534">[</text><text fill="#000000" font-family="sans-serif" font-size="13" lengthAdjust="spacing" textLength="5" x="316" y="445.4594">{</text><text fill="#000000" font-family="sans-serif" font-size="13" lengthAdjust="spacing" textLength="147" x="328" y="463.1655">"transaction_id": "UUID",</text><text fill="#000000" font-family="sans-serif" font-size="13" lengthAdjust="spacing" textLength="174" x="328" y="480.8715">"sender_account_id": "UUID",</text><text fill="#000000" font-family="sans-serif" font-size="13" lengthAdjust="spacing" textLength="180" x="328" y="498.5775">"receiver_account_id": "UUID",</text><text fill="#000000" font-family="sans-serif" font-size="13" lengthAdjust="spacing" textLength="108" x="328" y="516.2835">"amount": "0.000",</text><text fill="#000000" font-family="sans-serif" font-size="13" lengthAdjust="spacing" textLength="143" x="328" y="533.9895">"from_currency": "BHD",</text><text fill="#000000" font-family="sans-serif" font-size="13" lengthAdjust="spacing" textLength="126" x="328" y="551.6955">"to_currency": "USD",</text><text fill="#000000" font-family="sans-serif" font-size="13" lengthAdjust="spacing" textLength="169" x="328" y="569.4016">"exchange_rate": "0.000000",</text><text fill="#000000" font-family="sans-serif" font-size="13" lengthAdjust="spacing" textLength="127" x="328" y="587.1076">"status": "completed"</text><text fill="#000000" font-family="sans-serif" font-size="13" lengthAdjust="spacing" textLength="8" x="316" y="604.8136">},</text><text fill="#000000" font-family="sans-serif" font-size="13" lengthAdjust="spacing" textLength="9" x="316" y="622.5196">...</text><text fill="#000000" font-family="sans-serif" font-size="13" lengthAdjust="spacing" textLength="4" x="304" y="640.2256">]</text><polygon fill="#F1F1F1" points="23.5,501.9204,23.5,502.1306,33.5833,501.5061,43.6667,502.1137,53.75,502.3201,63.8333,501.2071,73.9167,501.8427,84,501.494,94.0833,501.537,104.1667,501.8523,114.25,501.2291,124.3333,502.4741,134.4167,501.2902,144.5,501.7227,154.5833,502.3524,164.6667,501.8347,174.75,501.9887,184.8333,501.8885,194.9167,502.099,205,502.1596,215.0833,502.5061,225.1667,502.5915,235.25,502.5997,245.3333,502.1751,255.4167,502.384,265.5,501.9204,265.5896,502.1367,267.1758,502.4306,269.1221,503.5939,270.7655,504.0258,272.6392,505.0138,274.3388,505.5816,274.1864,505.5185,275.05,507.3406,276.0317,509.2117,276.5205,510.8787,277.3002,512.6661,278,514.4204,278.1129,514.4204,278.1387,516.6893,277.9987,518.9581,278.0957,521.2269,277.8092,523.4957,278,525.7646,278.0876,525.8008,277.4366,527.6023,276.6724,529.3568,275.9921,531.1461,274.9223,532.774,274.3388,534.6034,274.2556,534.4026,272.4918,535.1443,270.7958,536.0497,269.0105,536.7396,267.3547,537.7422,265.5,538.2646,265.5,538.0899,255.4167,537.9215,245.3333,538.4928,235.25,537.5977,225.1667,537.7454,215.0833,538.9135,205,538.7002,194.9167,538.9991,184.8333,537.9428,174.75,538.5838,164.6667,538.855,154.5833,537.7922,144.5,538.1687,134.4167,538.3905,124.3333,538.9163,114.25,538.2604,104.1667,538.7271,94.0833,537.7108,84,537.5873,73.9167,538.7682,63.8333,537.5476,53.75,538.7735,43.6667,538.4712,33.5833,537.9966,23.5,538.2646,23.4549,538.1556,21.7908,537.6736,19.9263,536.7079,18.2722,536.2501,16.3584,535.1654,14.6612,534.6034,14.8513,534.6822,14.0781,532.8974,13.2721,531.0991,12.479,529.3061,11.956,527.625,11,525.7646,11.2045,525.7646,11.0564,523.4957,11.0894,521.2269,10.9566,518.9581,11.2388,516.6893,11,514.4204,11.0477,514.4402,11.7854,512.6747,12.2771,510.8073,13.0719,509.0655,14.0924,507.4171,14.6612,505.5816,14.716,505.714,16.4235,504.8362,18.1556,504.0179,19.9365,503.3175,21.6447,502.4414,23.5,501.9204" style="stroke:#181818;stroke-width:0.5;"/><text fill="#000000" font-family="sans-serif" font-size="12" lengthAdjust="spacing" textLength="247" x="21" y="524.7485">Return 200 OK with user transactions history</text><path d="M69.5,666.1816 L69.6868,666.1816 L69.1317,671.7228 L69.6718,677.264 L69.8553,682.8052 L68.8659,688.3464 L69.5,693.8876 L69.5,693.8876 L69.5,693.8186 L78.3,693.5085 L87.1,693.5467 L95.9,693.827 L104.7,693.2731 L113.5,693.8876 L113.5,693.8876 L113.9921,693.8876 L112.9398,691.9464 L113.3242,690.0052 L113.884,688.064 L113.4238,686.1228 L113.5,684.1816 L113.5123,684.241 L117.4942,683.3244 L121.5322,682.6782 L125.5432,681.9016 L129.6057,681.3738 L133.5,680.0346 L133.6128,680.6203 L129.6142,679.8569 L125.5428,678.7157 L121.578,678.1275 L117.6181,677.5652 L113.5,676.1816 L113.0467,675.7283 L111.9265,674.6081 L109.3136,671.9952 L107.8355,670.5171 L105.1889,667.8705 L103.5,666.1816 L103.5,666.1207 L96.7,666.8408 L89.9,666.1383 L83.1,666.2752 L76.3,666.4826 L69.5,666.1816 L69.5,666.1816 " fill="#FEFFDD" style="stroke:#181818;stroke-width:0.5;"/><path d="M103.5,666.1816 L103.6868,666.1816 L103.1317,668.1816 L103.6718,670.1816 L103.8553,672.1816 L102.8659,674.1816 L103.5,676.1816 L103.5,676.1125 L105.5,675.8025 L107.5,675.8407 L109.5,676.121 L111.5,675.5671 L113.5,676.1816 L113.848,676.5296 L111.1038,673.7855 L109.3757,672.0573 L107.7715,670.4531 L105.4461,668.1277 L103.5,666.1816 " fill="#FEFFDD" style="stroke:#181818;stroke-width:0.5;"/><text fill="#000000" font-family="sans-serif" font-size="13" lengthAdjust="spacing" textLength="23" x="75.5" y="685.0786">End</text><polygon fill="none" points="155.5608,682.7103,153.9484,684.9134,152.0412,688.1403,149.3136,690.315,146.4474,691.5042,144.162,691.6074,141.2247,690.1202,138.4532,689.1485,136.3495,687.1758,135.2461,684.9174,134.5917,683.1192,133.9506,680.7703,132.91,678.7491,133.7096,676.7756,134.4102,674.6138,137.0393,672.9041,138.889,670.6857,141.1784,669.9491,143.9001,669.3147,147.3904,669.6916,149.3021,670.5932,151.5247,671.0018,154.2272,673.7706,155.1693,676.6936,155.5786,678.688,155.115,681.9745" style="stroke:#222222;stroke-width:1.0;"/><polygon fill="#222222" points="150.5331,681.4941,149.6536,682.6958,148.6134,684.4559,147.1256,685.6421,145.5622,686.2908,144.3156,686.3471,142.7135,685.5358,141.2017,685.0059,140.0543,683.9298,139.4524,682.698,139.0955,681.7171,138.7458,680.4359,138.1782,679.3334,138.6143,678.257,138.9965,677.0778,140.4305,676.1452,141.4394,674.9352,142.6882,674.5334,144.1728,674.1874,146.0766,674.393,147.1193,674.8847,148.3317,675.1076,149.8057,676.6179,150.3196,678.2122,150.5429,679.3001,150.29,681.0927" style="stroke:#222222;stroke-width:1.0;"/><path d="M708.5,395.4694 L708.6868,395.4694 L708.1317,397.44 L708.6718,399.4106 L708.8553,401.3812 L707.8659,403.3518 L708.5,405.3224 L708.4865,405.2547 L704.4257,405.7507 L700.4331,406.5882 L696.4881,407.663 L692.3795,407.9198 L688.5,409.3224 L688.5965,409.805 L692.3901,409.5731 L696.4655,410.7501 L700.5753,412.0989 L704.485,412.4477 L708.5,413.3224 L708.5607,413.3224 L708.4716,415.293 L708.6587,417.2637 L708.7126,419.2343 L709.0206,421.2049 L708.5,423.1755 L708.5,423.1755 L708.5,424.9649 L718.4333,424.9868 L728.3667,423.8545 L738.3,424.4117 L748.2333,425.0481 L758.1667,421.2523 L768.1,424.9848 L778.0333,422.3848 L787.9667,424.599 L797.9,421.8554 L807.8333,422.9928 L817.7667,425.1531 L827.7,423.0455 L837.6333,423.4563 L847.5667,424.0785 L857.5,424.2854 L867.4333,423.165 L877.3667,423.9414 L887.3,421.649 L897.2333,423.9338 L907.1667,424.6373 L917.1,424.3609 L927.0333,424.8102 L936.9667,421.8872 L946.9,421.4363 L956.8333,421.5184 L966.7667,423.0184 L976.7,422.6514 L986.6333,424.9926 L996.5667,422.7096 L1006.5,423.1755 L1006.5,423.1755 L1006.1951,423.1755 L1006.7029,419.6343 L1005.9073,416.093 L1006.0386,412.5518 L1007.0768,409.0106 L1006.5,405.4694 L1006.7738,405.7433 L1004.9617,403.9311 L1002.2977,401.2672 L1000.7006,399.6701 L998.8711,397.8405 L996.5,395.4694 L996.5,394.2097 L986.569,395.2138 L976.6379,395.8054 L966.7069,397.2075 L956.7759,395.4583 L946.8448,396.703 L936.9138,393.9927 L926.9828,393.6634 L917.0517,396.8124 L907.1207,393.5576 L897.1897,396.8267 L887.2586,396.0204 L877.3276,394.755 L867.3966,394.526 L857.4655,396.6928 L847.5345,394.6712 L837.6034,397.0477 L827.6724,393.9955 L817.7414,397.1159 L807.8103,396.7609 L797.8793,396.1227 L787.9483,395.5954 L778.0172,397.4071 L768.0862,397.1056 L758.1552,395.9208 L748.2241,396.1846 L738.2931,395.1221 L728.3621,397.38 L718.431,395.8824 L708.5,395.4694 L708.5,395.4694 " fill="#FEFFDD" style="stroke:#181818;stroke-width:0.5;"/><path d="M996.5,395.4694 L996.6868,395.4694 L996.1317,397.4694 L996.6718,399.4694 L996.8553,401.4694 L995.8659,403.4694 L996.5,405.4694 L996.5,405.4004 L998.5,405.0903 L1000.5,405.1286 L1002.5,405.4089 L1004.5,404.8549 L1006.5,405.4694 L1006.848,405.8174 L1004.1038,403.0733 L1002.3757,401.3451 L1000.7715,399.7409 L998.4461,397.4155 L996.5,395.4694 " fill="#FEFFDD" style="stroke:#181818;stroke-width:0.5;"/><text fill="#000000" font-family="sans-serif" font-size="13" lengthAdjust="spacing" textLength="277" x="714.5" y="414.3665">{"detail": "No transactions found for this user"}</text><polygon fill="#F1F1F1" points="560,391.1504,560,391.3606,569.6667,390.7361,579.3333,391.3437,589,391.5501,598.6667,390.437,608.3333,391.0727,618,390.7239,627.6667,390.7669,637.3333,391.0822,647,390.459,656.6667,391.704,666.3333,390.5201,676,391.1504,675.9748,391.0895,677.8229,392.0156,679.5246,392.5884,681.312,393.3681,683.067,394.0695,684.8388,394.8116,684.8938,394.8343,685.6447,396.6098,686.4837,398.4218,687.2422,400.2005,687.977,401.9693,688.5,403.6504,688.5849,403.6504,688.6545,405.9192,688.7341,408.188,688.2596,410.4569,688.7262,412.7257,688.5,414.9945,688.4087,414.9567,687.9322,416.8304,686.8831,418.4669,686.2822,420.2891,685.7995,422.1602,684.8388,423.8333,684.8326,423.8183,683.0845,424.598,681.3465,425.4021,679.5886,426.1582,677.7673,426.7611,676,427.4945,676,427.7817,666.3333,426.9221,656.6667,427.7789,647,428.0427,637.3333,427.939,627.6667,428.1075,618,427.0114,608.3333,426.8423,598.6667,426.8731,589,427.4356,579.3333,427.298,569.6667,428.1759,560,427.4945,559.9777,427.4407,558.1885,426.6566,556.4936,426.1003,554.6116,425.0924,552.8627,424.4057,551.1612,423.8333,551.361,423.9161,550.5631,422.1211,549.9229,420.3915,548.8654,418.489,548.3305,416.803,547.5,414.9945,547.6968,414.9945,547.3425,412.7257,547.468,410.4569,547.542,408.188,547.7173,405.9192,547.5,403.6504,547.4987,403.6499,548.3747,401.9416,548.7939,400.0442,549.4881,398.2607,550.584,396.6436,551.1612,394.8116,551.0697,394.5908,552.9939,394.2361,554.7231,393.4107,556.4303,392.5323,558.1871,391.7737,560,391.1504" style="stroke:#181818;stroke-width:0.5;"/><text fill="#000000" font-family="sans-serif" font-size="12" lengthAdjust="spacing" textLength="121" x="557.5" y="413.9785">Return 404 Not Found</text><path d="M543,462.4945 L543.1868,462.4945 L542.6317,468.0357 L543.1718,473.5769 L543.3553,479.1181 L542.3659,484.6593 L543,490.2005 L543,490.2005 L543,490.1314 L551.8,489.8214 L560.6,489.8596 L569.4,490.1399 L578.2,489.586 L587,490.2005 L587,490.2005 L587.4921,490.2005 L586.4398,488.2593 L586.8242,486.3181 L587.384,484.3769 L586.9238,482.4357 L587,480.4945 L587.0123,480.5539 L590.9942,479.6373 L595.0322,478.9911 L599.0432,478.2144 L603.1057,477.6867 L607,476.3475 L607.1128,476.9332 L603.1142,476.1698 L599.0428,475.0286 L595.078,474.4403 L591.1181,473.878 L587,472.4945 L586.5467,472.0412 L585.4265,470.921 L582.8136,468.3081 L581.3355,466.83 L578.6889,464.1834 L577,462.4945 L577,462.4336 L570.2,463.1537 L563.4,462.4512 L556.6,462.5881 L549.8,462.7955 L543,462.4945 L543,462.4945 " fill="#FEFFDD" style="stroke:#181818;stroke-width:0.5;"/><path d="M577,462.4945 L577.1868,462.4945 L576.6317,464.4945 L577.1718,466.4945 L577.3553,468.4945 L576.3659,470.4945 L577,472.4945 L577,472.4254 L579,472.1154 L581,472.1536 L583,472.4339 L585,471.88 L587,472.4945 L587.348,472.8425 L584.6038,470.0983 L582.8757,468.3702 L581.2715,466.766 L578.9461,464.4406 L577,462.4945 " fill="#FEFFDD" style="stroke:#181818;stroke-width:0.5;"/><text fill="#000000" font-family="sans-serif" font-size="13" lengthAdjust="spacing" textLength="23" x="549" y="481.3915">End</text><polygon fill="none" points="629.0608,479.0231,627.4484,481.2263,625.5412,484.4532,622.8136,486.6279,619.9474,487.8171,617.662,487.9203,614.7247,486.4331,611.9532,485.4614,609.8495,483.4887,608.7461,481.2303,608.0917,479.432,607.4506,477.0832,606.41,475.062,607.2096,473.0885,607.9102,470.9267,610.5393,469.217,612.389,466.9986,614.6784,466.262,617.4001,465.6276,620.8904,466.0045,622.8021,466.906,625.0247,467.3147,627.7272,470.0835,628.6693,473.0065,629.0786,475.0009,628.615,478.2874" style="stroke:#222222;stroke-width:1.0;"/><polygon fill="#222222" points="624.0331,477.807,623.1536,479.0087,622.1134,480.7688,620.6256,481.955,619.0622,482.6037,617.8156,482.66,616.2135,481.8487,614.7017,481.3187,613.5543,480.2427,612.9524,479.0108,612.5955,478.03,612.2458,476.7488,611.6782,475.6463,612.1143,474.5699,612.4965,473.3907,613.9305,472.4581,614.9394,471.2481,616.1882,470.8463,617.6728,470.5003,619.5766,470.7059,620.6193,471.1976,621.8317,471.4205,623.3057,472.9308,623.8196,474.5251,624.0429,475.613,623.79,477.4056" style="stroke:#222222;stroke-width:1.0;"/><path d="M1036.5,248.7812 L1036.6868,248.7812 L1036.1317,254.3224 L1036.6718,259.8636 L1036.8553,265.4048 L1035.8659,270.946 L1036.5,276.4872 L1036.5,276.4872 L1036.5,276.28 L1046.587,275.3499 L1056.6739,275.4646 L1066.7609,276.3055 L1076.8478,274.6436 L1086.9348,277.9636 L1097.0217,274.8065 L1107.1087,275.9598 L1117.1957,277.6391 L1127.2826,276.2585 L1137.3696,276.6692 L1147.4565,276.402 L1157.5435,276.9633 L1167.6304,277.1249 L1177.7174,278.0491 L1187.8043,278.2767 L1197.8913,278.2986 L1207.9783,277.1662 L1218.0652,277.7235 L1228.1522,278.3598 L1238.2391,274.5641 L1248.3261,278.2966 L1258.413,275.6966 L1268.5,276.4872 L1268.5,276.4872 L1268.9745,276.4872 L1268.06,274.546 L1268.4391,272.6048 L1269.1592,270.6636 L1268.4567,268.7224 L1268.5,266.7812 L1268.519,266.8729 L1272.5611,266.2465 L1276.5751,265.4847 L1280.4993,264.2896 L1284.5518,263.7136 L1288.5,262.6342 L1288.4037,262.1346 L1284.5478,262.1118 L1280.5922,261.5715 L1276.5747,260.7104 L1272.6031,260.0869 L1268.5,258.7812 L1268.1964,258.4776 L1266.0901,256.3713 L1264.1094,254.3906 L1262.463,252.7442 L1260.3765,250.6577 L1258.5,248.7812 L1258.5,250.5983 L1248.4091,248.3154 L1238.3182,247.8664 L1228.2273,249.3899 L1218.1364,247.003 L1208.0455,247.3969 L1197.9545,250.5117 L1187.8636,249.943 L1177.7727,250.7399 L1167.6818,247.9231 L1157.5909,249.6324 L1147.5,250.3557 L1137.4091,247.5215 L1127.3182,248.5256 L1117.2273,249.1172 L1107.1364,250.5192 L1097.0455,248.77 L1086.9545,250.0147 L1076.8636,247.3044 L1066.7727,246.9752 L1056.6818,250.1242 L1046.5909,246.8694 L1036.5,248.7812 L1036.5,248.7812 " fill="#FEFFDD" style="stroke:#181818;stroke-width:0.5;"/><path d="M1258.5,248.7812 L1258.6868,248.7812 L1258.1317,250.7812 L1258.6718,252.7812 L1258.8553,254.7812 L1257.8659,256.7812 L1258.5,258.7812 L1258.5,258.7121 L1260.5,258.4021 L1262.5,258.4403 L1264.5,258.7206 L1266.5,258.1667 L1268.5,258.7812 L1268.848,259.1292 L1266.1038,256.3851 L1264.3757,254.6569 L1262.7715,253.0527 L1260.4461,250.7273 L1258.5,248.7812 " fill="#FEFFDD" style="stroke:#181818;stroke-width:0.5;"/><text fill="#000000" font-family="sans-serif" font-size="13" lengthAdjust="spacing" textLength="211" x="1042.5" y="267.6782">{"detail": "Invalid or expired token"}</text><polygon fill="#F1F1F1" points="1301,244.4622,1301,244.6723,1310.6429,244.0478,1320.2857,244.6554,1329.9286,244.8618,1339.5714,243.7488,1349.2143,244.3844,1358.8571,244.0357,1368.5,244.0787,1378.1429,244.394,1387.7857,243.7708,1397.4286,245.0158,1407.0714,243.8319,1416.7143,244.2644,1426.3571,244.8941,1436,244.4622,1435.9891,244.4357,1437.7765,245.2154,1439.5315,245.9168,1441.3261,246.7138,1443.1016,247.4647,1444.8388,248.1233,1445.0192,248.198,1445.7777,249.9767,1446.5125,251.7455,1447.1139,253.4591,1447.9105,255.2535,1448.5,256.9622,1448.7341,256.9622,1448.2596,259.231,1448.7262,261.4998,1448.4012,263.7686,1448.6779,266.0375,1448.5,268.3063,1448.3476,268.2431,1447.7467,270.0653,1447.2639,271.9364,1446.2883,273.6034,1445.6035,275.3908,1444.8388,277.1451,1444.882,277.2494,1443.1242,278.0055,1441.3028,278.6084,1439.5722,279.4303,1437.6947,279.8978,1436,280.8063,1436,281.0907,1426.3571,281.3545,1416.7143,281.2508,1407.0714,281.4193,1397.4286,280.3232,1387.7857,280.1541,1378.1429,280.1849,1368.5,280.7474,1358.8571,280.6097,1349.2143,281.4877,1339.5714,280.6316,1329.9286,280.4632,1320.2857,281.0345,1310.6429,280.1394,1301,280.8063,1300.9338,280.6464,1299.315,280.2739,1297.52,279.476,1295.7904,278.8358,1293.8879,277.7782,1292.1612,277.1451,1292.2595,277.1858,1291.6108,275.4527,1290.5512,273.5493,1289.9349,271.8296,1289.271,270.0901,1288.5,268.3063,1288.7173,268.3063,1288.4986,266.0375,1288.6542,263.7686,1288.3154,261.4998,1288.2742,259.231,1288.5,256.9622,1288.6551,257.0264,1289.0114,255.1029,1290.1212,253.4916,1290.7603,251.6852,1291.3464,249.8569,1292.1612,248.1233,1292.116,248.0144,1293.9875,247.5324,1295.6585,246.5667,1297.54,246.1089,1299.1617,245.0242,1301,244.4622" style="stroke:#181818;stroke-width:0.5;"/><text fill="#000000" font-family="sans-serif" font-size="12" lengthAdjust="spacing" textLength="140" x="1298.5" y="267.2903">Return 401 Unauthorized</text><path d="M1293.5,300.8063 L1293.6868,300.8063 L1293.1317,306.3475 L1293.6718,311.8887 L1293.8553,317.4299 L1292.8659,322.9711 L1293.5,328.5123 L1293.5,328.5123 L1293.5,328.4432 L1302.3,328.1332 L1311.1,328.1714 L1319.9,328.4517 L1328.7,327.8977 L1337.5,328.5123 L1337.5,328.5123 L1337.9921,328.5123 L1336.9398,326.5711 L1337.3242,324.6299 L1337.884,322.6887 L1337.4238,320.7475 L1337.5,318.8063 L1337.5123,318.8657 L1341.4942,317.9491 L1345.5322,317.3029 L1349.5432,316.5262 L1353.6057,315.9985 L1357.5,314.6593 L1357.6128,315.245 L1353.6142,314.4816 L1349.5428,313.3403 L1345.578,312.7521 L1341.6181,312.1898 L1337.5,310.8063 L1337.0467,310.353 L1335.9265,309.2327 L1333.3136,306.6199 L1331.8355,305.1418 L1329.1889,302.4951 L1327.5,300.8063 L1327.5,300.7454 L1320.7,301.4655 L1313.9,300.763 L1307.1,300.8999 L1300.3,301.1073 L1293.5,300.8063 L1293.5,300.8063 " fill="#FEFFDD" style="stroke:#181818;stroke-width:0.5;"/><path d="M1327.5,300.8063 L1327.6868,300.8063 L1327.1317,302.8063 L1327.6718,304.8063 L1327.8553,306.8063 L1326.8659,308.8063 L1327.5,310.8063 L1327.5,310.7372 L1329.5,310.4272 L1331.5,310.4654 L1333.5,310.7457 L1335.5,310.1917 L1337.5,310.8063 L1337.848,311.1543 L1335.1038,308.4101 L1333.3757,306.682 L1331.7715,305.0778 L1329.4461,302.7524 L1327.5,300.8063 " fill="#FEFFDD" style="stroke:#181818;stroke-width:0.5;"/><text fill="#000000" font-family="sans-serif" font-size="13" lengthAdjust="spacing" textLength="23" x="1299.5" y="319.7033">End</text><polygon fill="none" points="1379.5608,317.3349,1377.9484,319.5381,1376.0412,322.765,1373.3136,324.9397,1370.4474,326.1289,1368.162,326.2321,1365.2247,324.7448,1362.4532,323.7732,1360.3495,321.8005,1359.2461,319.5421,1358.5917,317.7438,1357.9506,315.395,1356.91,313.3738,1357.7096,311.4003,1358.4102,309.2385,1361.0393,307.5288,1362.889,305.3104,1365.1784,304.5737,1367.9001,303.9393,1371.3904,304.3162,1373.3021,305.2178,1375.5247,305.6265,1378.2272,308.3953,1379.1693,311.3182,1379.5786,313.3126,1379.115,316.5992" style="stroke:#222222;stroke-width:1.0;"/><polygon fill="#222222" points="1374.5331,316.1187,1373.6536,317.3204,1372.6134,319.0806,1371.1256,320.2668,1369.5622,320.9154,1368.3156,320.9717,1366.7135,320.1605,1365.2017,319.6305,1364.0543,318.5545,1363.4524,317.3226,1363.0955,316.3418,1362.7458,315.0606,1362.1782,313.9581,1362.6143,312.8816,1362.9965,311.7025,1364.4305,310.7699,1365.4394,309.5599,1366.6882,309.1581,1368.1728,308.812,1370.0766,309.0176,1371.1193,309.5094,1372.3317,309.7323,1373.8057,311.2425,1374.3196,312.8369,1374.5429,313.9247,1374.29,315.7174" style="stroke:#222222;stroke-width:1.0;"/><path d="M874.875,73.9209 L874.9684,73.9209 L874.6909,78.6915 L874.9609,83.4621 L875.0526,88.2327 L874.5579,93.0033 L874.875,97.7739 " fill="#181818" style="stroke:#181818;stroke-width:1.0;"/><polygon fill="#181818" points="870.875,87.7739,870.94,87.8,871.5468,89.7226,872.5348,91.7979,873.3987,93.8234,873.8542,95.6856,874.875,97.7739,874.8509,97.7643,875.543,95.7211,876.3563,93.7265,877.2539,91.7655,877.861,89.6883,878.875,87.7739,879.0055,87.9044,877.9264,88.4254,877.2284,89.3273,876.5768,90.2757,875.6548,90.9537,874.875,91.7739,874.8911,91.79,874.0675,90.9664,873.3171,90.216,872.5314,89.4303,871.813,88.712,870.875,87.7739" style="stroke:#181818;stroke-width:1.0;"/><path d="M874.875,134.118 L874.9684,134.118 L874.6909,138.118 L874.9609,142.118 L875.0526,146.118 L874.5579,150.118 L874.875,154.118 " fill="#181818" style="stroke:#181818;stroke-width:1.0;"/><polygon fill="#181818" points="870.875,144.118,870.94,144.1441,871.5468,146.0668,872.5348,148.142,873.3987,150.1675,873.8542,152.0297,874.875,154.118,874.8509,154.1084,875.543,152.0652,876.3563,150.0706,877.2539,148.1096,877.861,146.0325,878.875,144.118,879.0055,144.2485,877.9264,144.7695,877.2284,145.6714,876.5768,146.6199,875.6548,147.2978,874.875,148.118,874.8911,148.1341,874.0675,147.3105,873.3171,146.5601,872.5314,145.7744,871.813,145.0561,870.875,144.118" style="stroke:#181818;stroke-width:1.0;"/><path d="M381.25,280.8063 L381.3434,280.8063 L381.0659,284.8063 L381.3359,288.8063 L381.4276,292.8063 L380.9329,296.8063 L381.25,300.8063 " fill="#181818" style="stroke:#181818;stroke-width:1.0;"/><polygon fill="#181818" points="377.25,290.8063,377.315,290.8323,377.9218,292.755,378.9098,294.8302,379.7737,296.8558,380.2292,298.718,381.25,300.8063,381.2259,300.7967,381.918,298.7535,382.7313,296.7588,383.6289,294.7978,384.236,292.7207,385.25,290.8063,385.3805,290.9368,384.3014,291.4577,383.6034,292.3597,382.9518,293.3081,382.0298,293.9861,381.25,294.8063,381.2661,294.8224,380.4425,293.9987,379.6921,293.2484,378.9064,292.4626,378.188,291.7443,377.25,290.8063" style="stroke:#181818;stroke-width:1.0;"/><path d="M144.5,538.2646 L144.7802,538.2646 L143.9476,548.3238 L144.7577,558.383 L145.0329,568.4423 L143.5488,578.5015 L144.3964,588.5607 L143.9313,598.62 L143.9887,608.6792 L144.4091,618.7384 L143.5782,628.7977 L145.2382,638.8569 L143.6596,648.9162 L144.2363,658.9754 L144.5,669.0346 " fill="#181818" style="stroke:#181818;stroke-width:1.0;"/><polygon fill="#181818" points="140.5,659.0346,140.565,659.0606,141.1718,660.9833,142.1598,663.0586,143.0237,665.0841,143.4792,666.9463,144.5,669.0346,144.4759,669.025,145.168,666.9818,145.9813,664.9871,146.8789,663.0262,147.486,660.949,148.5,659.0346,148.6305,659.1651,147.5514,659.6861,146.8534,660.588,146.2018,661.5364,145.2798,662.2144,144.5,663.0346,144.5161,663.0507,143.6925,662.2271,142.9421,661.4767,142.1564,660.691,141.438,659.9727,140.5,659.0346" style="stroke:#181818;stroke-width:1.0;"/><path d="M618,427.4945 L618.0934,427.4945 L617.8159,435.0651 L618.0859,442.6357 L618.1776,450.2063 L617.6829,457.7769 L618,465.3475 " fill="#181818" style="stroke:#181818;stroke-width:1.0;"/><polygon fill="#181818" points="614,455.3475,614.065,455.3735,614.6718,457.2962,615.6598,459.3714,616.5237,461.397,616.9792,463.2592,618,465.3475,617.9759,465.3379,618.668,463.2947,619.4813,461.3,620.3789,459.3391,620.986,457.2619,622,455.3475,622.1305,455.478,621.0514,455.999,620.3534,456.9009,619.7018,457.8493,618.7798,458.5273,618,459.3475,618.0161,459.3636,617.1925,458.54,616.4421,457.7896,615.6564,457.0039,614.938,456.2856,614,455.3475" style="stroke:#181818;stroke-width:1.0;"/><path d="M310.75,369.1504 L310.75,369.4306 L300.9706,368.598 L291.1912,369.4081 L281.4118,369.6833 L271.6324,368.1992 L261.8529,369.0468 L252.0735,368.5817 L242.2941,368.6391 L232.5147,369.0595 L222.7353,368.2286 L212.9559,369.8886 L203.1765,368.31 L193.3971,368.8867 L183.6176,369.7263 L173.8382,369.036 L164.0588,369.2414 L154.2794,369.1078 L144.5,369.1504 " fill="#181818" style="stroke:#181818;stroke-width:1.0;"/><path d="M144.5,369.1504 L144.7802,369.1504 L143.9476,379.3635 L144.7577,389.5766 L145.0329,399.7896 L143.5488,410.0027 L144.3964,420.2158 L143.9313,430.4289 L143.9887,440.642 L144.4091,450.855 L143.5782,461.0681 L145.2382,471.2812 L143.6596,481.4943 L144.2363,491.7074 L144.5,501.9204 " fill="#181818" style="stroke:#181818;stroke-width:1.0;"/><polygon fill="#181818" points="140.5,491.9204,140.565,491.9465,141.1718,493.8692,142.1598,495.9444,143.0237,497.9699,143.4792,499.8321,144.5,501.9204,144.4759,501.9108,145.168,499.8677,145.9813,497.873,146.8789,495.912,147.486,493.8349,148.5,491.9204,148.6305,492.0509,147.5514,492.5719,146.8534,493.4738,146.2018,494.4223,145.2798,495.1002,144.5,495.9204,144.5161,495.9365,143.6925,495.1129,142.9421,494.3625,142.1564,493.5768,141.438,492.8585,140.5,491.9204" style="stroke:#181818;stroke-width:1.0;"/><path d="M451.75,369.1504 L451.75,369.4306 L461.5294,368.598 L471.3088,369.4081 L481.0882,369.6833 L490.8676,368.1992 L500.6471,369.0468 L510.4265,368.5817 L520.2059,368.6391 L529.9853,369.0595 L539.7647,368.2286 L549.5441,369.8886 L559.3235,368.31 L569.1029,368.8867 L578.8824,369.7263 L588.6618,369.036 L598.4412,369.2414 L608.2206,369.1078 L618,369.1504 " fill="#181818" style="stroke:#181818;stroke-width:1.0;"/><path d="M618,369.1504 L618.0934,369.1504 L617.8159,373.5504 L618.0859,377.9504 L618.1776,382.3504 L617.6829,386.7504 L618,391.1504 " fill="#181818" style="stroke:#181818;stroke-width:1.0;"/><polygon fill="#181818" points="614,381.1504,614.065,381.1764,614.6718,383.0991,615.6598,385.1743,616.5237,387.1999,616.9792,389.0621,618,391.1504,617.9759,391.1408,618.668,389.0976,619.4813,387.1029,620.3789,385.142,620.986,383.0648,622,381.1504,622.1305,381.2809,621.0514,381.8018,620.3534,382.7038,619.7018,383.6522,618.7798,384.3302,618,385.1504,618.0161,385.1665,617.1925,384.3429,616.4421,383.5925,615.6564,382.8068,614.938,382.0884,614,381.1504" style="stroke:#181818;stroke-width:1.0;"/><path d="M381.25,337.1504 L381.3434,337.1504 L381.0659,341.1504 L381.3359,345.1504 L381.4276,349.1504 L380.9329,353.1504 L381.25,357.1504 " fill="#181818" style="stroke:#181818;stroke-width:1.0;"/><polygon fill="#181818" points="377.25,347.1504,377.315,347.1764,377.9218,349.0991,378.9098,351.1743,379.7737,353.1999,380.2292,355.0621,381.25,357.1504,381.2259,357.1408,381.918,355.0976,382.7313,353.1029,383.6289,351.142,384.236,349.0648,385.25,347.1504,385.3805,347.2809,384.3014,347.8018,383.6034,348.7038,382.9518,349.6522,382.0298,350.3302,381.25,351.1504,381.2661,351.1665,380.4425,350.3429,379.6921,349.5925,378.9064,348.8068,378.188,348.0884,377.25,347.1504" style="stroke:#181818;stroke-width:1.0;"/><path d="M1368.5,280.8063 L1368.5934,280.8063 L1368.3159,285.3769 L1368.5859,289.9475 L1368.6776,294.5181 L1368.1829,299.0887 L1368.5,303.6593 " fill="#181818" style="stroke:#181818;stroke-width:1.0;"/><polygon fill="#181818" points="1364.5,293.6593,1364.565,293.6853,1365.1718,295.608,1366.1598,297.6832,1367.0237,299.7088,1367.4792,301.571,1368.5,303.6593,1368.4759,303.6497,1369.168,301.6065,1369.9813,299.6118,1370.8789,297.6508,1371.486,295.5737,1372.5,293.6593,1372.6305,293.7898,1371.5514,294.3107,1370.8534,295.2127,1370.2018,296.1611,1369.2798,296.8391,1368.5,297.6593,1368.5161,297.6754,1367.6925,296.8518,1366.9421,296.1014,1366.1564,295.3156,1365.438,294.5973,1364.5,293.6593" style="stroke:#181818;stroke-width:1.0;"/><path d="M791.375,222.4622 L791.375,222.7424 L781.372,221.9097 L771.3689,222.7199 L761.3659,222.9951 L751.3628,221.511 L741.3598,222.3585 L731.3567,221.8935 L721.3537,221.9508 L711.3506,222.3713 L701.3476,221.5403 L691.3445,223.2004 L681.3415,221.6218 L671.3384,222.1985 L661.3354,223.0381 L651.3323,222.3478 L641.3293,222.5531 L631.3262,222.4196 L621.3232,222.7002 L611.3201,222.781 L601.3171,223.2431 L591.314,223.3569 L581.311,223.3678 L571.3079,222.8017 L561.3049,223.0803 L551.3018,223.3985 L541.2988,221.5006 L531.2957,223.3668 L521.2927,222.0668 L511.2896,223.1739 L501.2866,221.8021 L491.2835,222.3708 L481.2805,223.451 L471.2774,222.3972 L461.2744,222.6026 L451.2713,222.9137 L441.2683,223.0171 L431.2652,222.457 L421.2622,222.8451 L411.2591,221.6989 L401.2561,222.8413 L391.253,223.1931 L381.25,222.4622 " fill="#181818" style="stroke:#181818;stroke-width:1.0;"/><path d="M381.25,222.4622 L381.3434,222.4622 L381.0659,226.8622 L381.3359,231.2622 L381.4276,235.6622 L380.9329,240.0622 L381.25,244.4622 " fill="#181818" style="stroke:#181818;stroke-width:1.0;"/><polygon fill="#181818" points="377.25,234.4622,377.315,234.4882,377.9218,236.4109,378.9098,238.4861,379.7737,240.5116,380.2292,242.3738,381.25,244.4622,381.2259,244.4525,381.918,242.4094,382.7313,240.4147,383.6289,238.4537,384.236,236.3766,385.25,234.4622,385.3805,234.5927,384.3014,235.1136,383.6034,236.0155,382.9518,236.964,382.0298,237.6419,381.25,238.4622,381.2661,238.4782,380.4425,237.6546,379.6921,236.9042,378.9064,236.1185,378.188,235.4002,377.25,234.4622" style="stroke:#181818;stroke-width:1.0;"/><path d="M958.375,222.4622 L958.375,222.7424 L968.378,221.9097 L978.3811,222.7199 L988.3841,222.9951 L998.3872,221.511 L1008.3902,222.3585 L1018.3933,221.8935 L1028.3963,221.9508 L1038.3994,222.3713 L1048.4024,221.5403 L1058.4055,223.2004 L1068.4085,221.6218 L1078.4116,222.1985 L1088.4146,223.0381 L1098.4177,222.3478 L1108.4207,222.5531 L1118.4238,222.4196 L1128.4268,222.7002 L1138.4299,222.781 L1148.4329,223.2431 L1158.436,223.3569 L1168.439,223.3678 L1178.4421,222.8017 L1188.4451,223.0803 L1198.4482,223.3985 L1208.4512,221.5006 L1218.4543,223.3668 L1228.4573,222.0668 L1238.4604,223.1739 L1248.4634,221.8021 L1258.4665,222.3708 L1268.4695,223.451 L1278.4726,222.3972 L1288.4756,222.6026 L1298.4787,222.9137 L1308.4817,223.0171 L1318.4848,222.457 L1328.4878,222.8451 L1338.4909,221.6989 L1348.4939,222.8413 L1358.497,223.1931 L1368.5,222.4622 " fill="#181818" style="stroke:#181818;stroke-width:1.0;"/><path d="M1368.5,222.4622 L1368.5934,222.4622 L1368.3159,226.8622 L1368.5859,231.2622 L1368.6776,235.6622 L1368.1829,240.0622 L1368.5,244.4622 " fill="#181818" style="stroke:#181818;stroke-width:1.0;"/><polygon fill="#181818" points="1364.5,234.4622,1364.565,234.4882,1365.1718,236.4109,1366.1598,238.4861,1367.0237,240.5116,1367.4792,242.3738,1368.5,244.4622,1368.4759,244.4525,1369.168,242.4094,1369.9813,240.4147,1370.8789,238.4537,1371.486,236.3766,1372.5,234.4622,1372.6305,234.5927,1371.5514,235.1136,1370.8534,236.0155,1370.2018,236.964,1369.2798,237.6419,1368.5,238.4622,1368.5161,238.4782,1367.6925,237.6546,1366.9421,236.9042,1366.1564,236.1185,1365.438,235.4002,1364.5,234.4622" style="stroke:#181818;stroke-width:1.0;"/><path d="M874.875,190.4622 L874.9684,190.4622 L874.6909,194.4622 L874.9609,198.4622 L875.0526,202.4622 L874.5579,206.4622 L874.875,210.4622 " fill="#181818" style="stroke:#181818;stroke-width:1.0;"/><polygon fill="#181818" points="870.875,200.4622,870.94,200.4882,871.5468,202.4109,872.5348,204.4861,873.3987,206.5116,873.8542,208.3738,874.875,210.4622,874.8509,210.4525,875.543,208.4094,876.3563,206.4147,877.2539,204.4537,877.861,202.3766,878.875,200.4622,879.0055,200.5927,877.9264,201.1136,877.2284,202.0155,876.5768,202.964,875.6548,203.6419,874.875,204.4622,874.8911,204.4782,874.0675,203.6546,873.3171,202.9042,872.5314,202.1185,871.813,201.4002,870.875,200.4622" style="stroke:#181818;stroke-width:1.0;"/><!--SRC=[bLHDRnen4BtlhnZjYQ0ADbLE4AKgBKcJIYGAq1wg2ZdUWRLOR6gF4sYK_zxnBjsmV5If3qZxvituZUSDRgxqKbYnW4pezCag8jH0rcFagX0foh5dR8eMJW_ZdqnkB3paGiwZ0ePcyznVN261Tvn6LcWd92cZ7MJAaR7hyxQ_Q3QZo96m56b325RDCkh0i40wzoXHFI9SzKTWyPT7Hq06sjl5sfjYyAGeWu-UCcFLRn5YaA5WQTs8Atcz4nkPEJVwJUGgBO4xQoGwrutK51frhdBWl0pHgSy_d01bdDfOepk9W4-dls95iknqebAOMhE0c-yZ5ikNT4lI9PBCG7fhKHzwb2A9jOW7uP3ZIi_-5kGEGeaWR1poCk5gkVkIYXllaRpLy3v9uFPh-Jv7Pz6jqbxdK47Xt0nl1z0pwRfJWt_Kli9vtaF2YRSkvOxY3iJZyVNd-DrXjaFDavi8AOtNz8O4MrhbVrB48X03AsabINAC5kOoASScru7T-tAq99aQSpmyoiILv8MRuSGAmah3FsJmaf1tWIdDOfaZOHhlCL_sarkjLWtxMNtn4nV3hW0smh9kWnodl8rzdHOmvcpCXZRx5ZjBpc1W22xvHTD3Lkh0SvmY2PM73WPcn_eXZN_Pccp7mgJnozjbwLHDexguLs6dCDPYiysuqRPLP5lMjNuCVmV0Ed2rL1RJSe4tMYeTEngA-_y0]--></g></svg>