<?xml version="1.0" encoding="us-ascii" standalone="no"?><svg xmlns="http://www.w3.org/2000/svg" xmlns:xlink="http://www.w3.org/1999/xlink" contentStyleType="text/css" height="781px" preserveAspectRatio="none" style="width:845px;height:781px;background:#FFFFFF;" version="1.1" viewBox="0 0 845 781" width="845px" zoomAndPan="magnify"><defs/><g><polygon fill="none" points="367.5,15,367.5,15.2102,377.25,14.5857,387,15.1933,396.75,15.3997,406.5,14.2866,416.25,14.9223,426,14.5735,435.75,14.6165,445.5,14.9318,455.25,14.3086,465,15.5536,474.75,15,474.5399,15,474.6841,20.8136,474.894,26.6272,474.7214,32.4408,474.7727,38.2543,474.75,44.0679,474.75,44.036,465,44.2464,455.25,44.3071,445.5,44.6536,435.75,44.739,426,44.7472,416.25,44.3225,406.5,44.5315,396.75,44.7701,387,43.3467,377.25,44.7464,367.5,44.0679,367.4012,44.0679,367.6779,38.2543,367.335,32.4408,367.4772,26.6272,367.7472,20.8136,367.5,15" style="stroke:#000000;stroke-width:1.0;"/><text fill="#000000" font-family="sans-serif" font-size="14" font-weight="bold" lengthAdjust="spacing" text-decoration="underline" textLength="97.25" x="372.5" y="34.9659">Login Process</text><path d="M332.75,50.0679 L332.9368,50.0679 L332.3817,52.0385 L332.9218,54.0091 L333.1053,55.9797 L332.1159,57.9503 L332.75,59.9209 L332.7365,59.8532 L328.6757,60.3492 L324.6831,61.1867 L320.7381,62.2615 L316.6295,62.5183 L312.75,63.9209 L312.8465,64.4035 L316.6401,64.1716 L320.7155,65.3485 L324.8253,66.6974 L328.735,67.0462 L332.75,67.9209 L332.8107,67.9209 L332.7216,69.8915 L332.9087,71.8621 L332.9626,73.8327 L333.2706,75.8033 L332.75,77.7739 L332.75,77.7739 L332.75,79.5634 L342.75,79.5853 L352.75,78.4529 L362.75,79.0102 L372.75,79.6466 L382.75,77.7739 L382.75,77.7739 L382.1089,77.7739 L383.3531,74.2327 L382.4864,70.6915 L383.2245,67.1503 L382.31,63.6091 L382.75,60.0679 L382.7069,60.0249 L381.2161,58.534 L378.7194,56.0373 L376.8162,54.1341 L374.9628,52.2808 L372.75,50.0679 L372.75,50.4379 L364.75,50.0644 L356.75,50.3232 L348.75,49.5591 L340.75,50.3207 L332.75,50.0679 L332.75,50.0679 " fill="#FEFFDD" style="stroke:#181818;stroke-width:0.5;"/><path d="M372.75,50.0679 L372.9368,50.0679 L372.3817,52.0679 L372.9218,54.0679 L373.1053,56.0679 L372.1159,58.0679 L372.75,60.0679 L372.75,59.9988 L374.75,59.6888 L376.75,59.727 L378.75,60.0073 L380.75,59.4534 L382.75,60.0679 L383.098,60.4159 L380.3538,57.6718 L378.6257,55.9436 L377.0215,54.3394 L374.6961,52.014 L372.75,50.0679 " fill="#FEFFDD" style="stroke:#181818;stroke-width:0.5;"/><text fill="#000000" font-family="sans-serif" font-size="13" lengthAdjust="spacing" textLength="29" x="338.75" y="68.9649">Start</text><polygon fill="#222222" points="312.8052,66.3533,311.3394,68.3562,309.6056,71.2897,307.126,73.2667,304.5203,74.3478,302.4427,74.4417,299.7724,73.0896,297.2529,72.2063,295.3405,70.4129,294.3373,68.3598,293.7424,66.725,293.1596,64.5897,292.2136,62.7523,292.9406,60.9582,293.5775,58.9929,295.9675,57.4386,297.6491,55.4219,299.7304,54.7522,302.2047,54.1755,305.3776,54.5182,307.1155,55.3378,309.1361,55.7093,311.5929,58.2264,312.4493,60.8836,312.8214,62.6967,312.4,65.6844" style="stroke:#222222;stroke-width:1.0;"/><path d="M432.25,87.7739 L432.8105,87.7739 L431.1451,96.8269 L432.7654,105.8799 L433.3158,114.933 L430.3476,123.986 L432.25,133.039 L432.2365,132.9712 L428.1757,133.4672 L424.1831,134.3047 L420.2381,135.3796 L416.1295,135.6364 L412.25,137.039 L412.3465,137.5215 L416.1401,137.2896 L420.2155,138.4666 L424.3253,139.8155 L428.235,140.1642 L432.25,141.039 L432.432,141.039 L432.1648,150.092 L432.7261,159.145 L432.8877,168.198 L433.8118,177.251 L432.25,186.304 L432.25,186.304 L432.25,188.0935 L441.9722,188.1154 L451.6944,186.983 L461.4167,187.5402 L471.1389,188.1766 L480.8611,184.3809 L490.5833,188.1134 L500.3056,185.5133 L510.0278,187.7275 L519.75,184.984 L529.4722,186.1214 L539.1944,188.2816 L548.9167,186.1741 L558.6389,186.5848 L568.3611,187.207 L578.0833,187.414 L587.8056,186.2936 L597.5278,187.0699 L607.25,186.304 L607.25,186.304 L605.7236,186.304 L608.0084,176.4673 L608.7119,166.6307 L608.4354,156.794 L608.8847,146.9573 L605.9618,137.1206 L605.5108,127.284 L605.5929,117.4473 L607.093,107.6106 L607.25,97.7739 L607.1265,97.6504 L605.6783,96.2022 L603.1402,93.6641 L601.0344,91.5583 L599.3935,89.9174 L597.25,87.7739 L597.25,85.9957 L587.5441,86.3896 L577.8382,89.5045 L568.1324,88.9357 L558.4265,89.7326 L548.7206,86.9158 L539.0147,88.6251 L529.3088,89.3484 L519.6029,86.5142 L509.8971,87.5183 L500.1912,88.1099 L490.4853,89.512 L480.7794,87.7628 L471.0735,89.0074 L461.3676,86.2972 L451.6618,85.9679 L441.9559,89.1169 L432.25,87.7739 L432.25,87.7739 " fill="#FEFFDD" style="stroke:#181818;stroke-width:0.5;"/><path d="M597.25,87.7739 L597.4368,87.7739 L596.8817,89.7739 L597.4218,91.7739 L597.6053,93.7739 L596.6159,95.7739 L597.25,97.7739 L597.25,97.7049 L599.25,97.3948 L601.25,97.433 L603.25,97.7133 L605.25,97.1594 L607.25,97.7739 L607.598,98.1219 L604.8538,95.3778 L603.1257,93.6496 L601.5215,92.0454 L599.1961,89.72 L597.25,87.7739 " fill="#FEFFDD" style="stroke:#181818;stroke-width:0.5;"/><text fill="#000000" font-family="sans-serif" font-size="13" lengthAdjust="spacing" textLength="68" x="438.25" y="106.6709">JSON Body:</text><text fill="#000000" font-family="sans-serif" font-size="13" lengthAdjust="spacing" textLength="5" x="438.25" y="124.377">{</text><text fill="#000000" font-family="sans-serif" font-size="13" lengthAdjust="spacing" textLength="132" x="450.25" y="142.083">"user_name": "jassim",</text><text fill="#000000" font-family="sans-serif" font-size="13" lengthAdjust="spacing" textLength="142" x="450.25" y="159.789">"password": "jassim123"</text><text fill="#000000" font-family="sans-serif" font-size="13" lengthAdjust="spacing" textLength="5" x="438.25" y="177.495">}</text><polygon fill="#F1F1F1" points="205.75,118.8669,205.75,119.0771,215.9605,118.4526,226.1711,119.0602,236.3816,119.2666,246.5921,118.1535,256.8026,118.7892,267.0132,118.4404,277.2237,118.4834,287.4342,118.7988,297.6447,118.1755,307.8553,119.4206,318.0658,118.2366,328.2763,118.6692,338.4868,119.2989,348.6974,118.7811,358.9079,118.9352,369.1184,118.835,379.3289,119.0454,389.5395,119.1061,399.75,118.8669,399.8247,119.0473,401.6034,119.8058,403.3722,120.5406,405.0858,121.142,406.8802,121.9386,408.5888,122.5281,408.8051,122.6177,409.099,124.2039,410.2623,126.1502,410.6942,127.7936,411.6822,129.6672,412.25,131.3669,412.085,131.3669,412.2272,133.6357,412.4972,135.9046,412.2338,138.1734,412.2851,140.4422,412.25,142.711,412.3543,142.7542,411.6459,144.5319,410.7843,146.2461,410.1418,148.051,409.1448,149.7091,408.5888,151.5499,408.6251,151.6374,406.891,152.4509,405.11,153.1512,403.3637,153.9354,401.4561,154.33,399.75,155.211,399.75,154.5588,389.5395,154.5896,379.3289,155.1522,369.1184,155.0145,358.9079,155.8924,348.6974,155.0364,338.4868,154.868,328.2763,155.4393,318.0658,154.5442,307.8553,154.6919,297.6447,155.86,287.4342,155.6467,277.2237,155.9455,267.0132,154.8892,256.8026,155.5302,246.5921,155.8015,236.3816,154.7386,226.1711,155.1152,215.9605,155.337,205.75,155.211,205.8331,155.4117,203.9817,154.4775,202.2735,153.889,200.3761,152.8438,198.5925,152.0735,196.9112,151.5499,197.0663,151.6141,195.9581,149.6906,195.6034,148.0793,194.7781,146.2729,193.8997,144.4446,193.25,142.711,193.1321,142.711,193.4029,140.4422,193.1502,138.1734,193.4473,135.9046,193.0658,133.6357,193.25,131.3669,193.4401,131.4457,194.1314,129.6609,194.7899,127.8626,195.4612,126.0696,196.4027,124.3885,196.9112,122.5281,196.9894,122.717,198.7005,121.848,200.4809,121.1462,202.1978,120.2913,204.0736,119.8198,205.75,118.8669" style="stroke:#181818;stroke-width:0.5;"/><text fill="#000000" font-family="sans-serif" font-size="12" lengthAdjust="spacing" textLength="199" x="203.25" y="141.695">Receive POST request to /auth/login</text><polygon fill="#F1F1F1" points="258.75,206.304,258.75,206.5142,268.5278,205.8897,278.3056,206.4973,288.0833,206.7037,297.8611,205.5906,307.6389,206.2263,317.4167,205.8775,327.1944,205.9205,336.9722,206.2359,346.75,206.304,346.6618,206.0911,348.5884,207.2067,350.2051,207.5744,352.0281,208.4398,353.8762,209.366,355.5888,209.9652,355.5624,209.9542,356.3421,211.7417,357.0435,213.4966,357.8405,215.2913,358.5914,217.0668,359.25,218.804,359.4452,218.804,359.4737,221.0728,359.4764,223.3417,359.3349,225.6105,359.4045,227.8793,359.25,230.1481,359.4663,230.2377,358.2957,231.8239,357.9945,233.7702,356.962,235.4136,356.4855,237.2873,355.5888,238.987,355.5257,238.8345,353.8123,239.6981,352.1479,240.6798,350.2793,241.1687,348.5312,241.9483,346.75,242.6481,346.75,242.9868,336.9722,243.0644,327.1944,242.6442,317.4167,242.9353,307.6389,242.0757,297.8611,242.9325,288.0833,243.1963,278.3056,243.0927,268.5278,243.2612,258.75,242.6481,258.6884,242.4994,256.899,241.7151,255.1352,240.9923,253.4392,240.4333,251.6539,239.6587,249.9112,238.987,250.121,239.0739,249.1251,237.1969,248.3411,235.4077,247.7848,233.7128,246.7769,231.8308,246.25,230.1481,246.077,230.1481,246.4663,227.8793,246.3952,225.6105,246.4948,223.3417,246.1427,221.0728,246.25,218.804,246.3483,218.8447,247.1641,217.1116,247.569,215.2082,248.4172,213.4885,249.2177,211.749,249.9112,209.9652,249.9943,210.1659,251.6784,209.2317,253.5057,208.6432,255.1438,207.5979,256.8958,206.8277,258.75,206.304" style="stroke:#181818;stroke-width:0.5;"/><text fill="#000000" font-family="sans-serif" font-size="12" lengthAdjust="spacing" textLength="93" x="256.25" y="229.1321">Parse JSON body</text><polygon fill="none" points="73.25,252.6481,73.25,252.8583,83.2632,252.2338,93.2763,252.8414,103.2895,253.0478,113.3026,251.9347,123.3158,252.5704,133.3289,252.2216,143.3421,252.2646,153.3553,252.58,163.3684,251.9568,173.3816,253.2018,183.3947,252.0178,193.4079,252.4504,203.4211,253.0801,213.4342,252.5624,223.4474,252.7164,233.4605,252.6162,243.4737,252.8267,253.4868,252.8873,263.5,253.2338,273.5132,253.3192,283.5263,253.3274,293.5395,252.9028,303.5526,253.1117,313.5658,253.3504,323.5789,251.9269,333.5921,253.3266,343.6053,252.3516,353.6184,253.1819,363.6316,252.1531,373.6447,252.5796,383.6579,253.3897,393.6711,252.5994,403.6842,252.7534,413.6974,252.9868,423.7105,253.0644,433.7237,252.6442,443.7368,252.9353,453.75,252.0757,463.7632,252.9325,473.7763,253.1963,483.7895,253.0927,493.8026,253.2612,503.8158,252.1651,513.8289,251.9959,523.8421,252.0267,533.8553,252.5892,543.8684,252.4516,553.8816,253.3295,563.8947,252.4735,573.9079,252.3051,583.9211,252.8764,593.9342,251.9813,603.9474,252.129,613.9605,253.2971,623.9737,253.0838,633.9868,253.3826,644,252.3263,654.0132,252.9673,664.0263,253.2385,674.0395,252.1757,684.0526,252.5523,694.0658,252.7741,704.0789,253.2999,714.0921,252.6439,724.1053,253.1107,734.1184,252.0943,744.1316,251.9709,754.1447,253.1517,764.1579,251.9312,774.1711,253.1571,784.1842,252.8548,794.1974,252.3802,804.2105,252.2944,814.2237,253.1069,824.2368,252.3488,834.25,252.6481,834.8419,252.6481,833.6973,262.4284,834.8674,272.2087,834.7343,281.989,834.495,291.7693,834.2972,301.5496,834.9766,311.3299,834.8636,321.1102,834.4193,330.8905,834.5182,340.6708,834.1197,350.4511,834.9665,360.2314,834.4049,370.0117,834.4226,379.792,833.6416,389.5723,833.8448,399.3526,834.7807,409.1329,834.25,418.9132,834.25,419.3429,824.2368,418.8702,814.2237,418.591,804.2105,418.6942,794.1974,418.227,784.1842,419.3279,774.1711,419.6527,764.1579,419.4396,754.1447,419.6081,744.1316,418.7764,734.1184,419.0004,724.1053,418.5256,714.0921,419.1972,704.0789,419.1599,694.0658,419.4656,684.0526,418.6835,674.0395,418.7788,664.0263,419.3566,654.0132,419.4805,644,418.4006,633.9868,418.7193,623.9737,419.0624,613.9605,418.3023,603.9474,419.2666,593.9342,419.1712,583.9211,418.8124,573.9079,419.0554,563.8947,419.6418,553.8816,418.6003,543.8684,419.2282,533.8553,419.1988,523.8421,419.0289,513.8289,419.0541,503.8158,419.0266,493.8026,418.289,483.7895,418.5124,473.7763,418.4516,463.7632,418.977,453.75,419.0013,443.7368,419.0749,433.7237,418.6222,423.7105,418.8457,413.6974,418.793,403.6842,419.49,393.6711,419.3397,383.6579,418.4276,373.6447,418.8402,363.6316,418.3359,353.6184,419.2016,343.6053,419.5217,333.5921,419.4577,323.5789,418.4776,313.5658,419.3771,303.5526,418.1704,293.5395,419.1133,283.5263,418.6139,273.5132,419.0099,263.5,419.1535,253.4868,419.3853,243.4737,418.1933,233.4605,419.3886,223.4474,419.0913,213.4342,419.2685,203.4211,419.661,193.4079,418.9186,183.3947,419.0884,173.3816,419.1266,163.3684,419.1104,153.3553,418.9124,143.3421,419.6239,133.3289,418.3034,123.3158,419.4784,113.3026,418.2892,103.2895,418.3729,93.2763,418.9532,83.2632,418.9414,73.25,418.9132,72.7572,418.9132,73.6637,409.1329,73.3589,399.3526,73.9767,389.5723,73.9171,379.792,72.8017,370.0117,72.8521,360.2314,73.1208,350.4511,73.6055,340.6708,73.653,330.8905,73.5512,321.1102,72.908,311.3299,73.8864,301.5496,73.8838,291.7693,73.2027,281.989,73.0109,272.2087,72.8486,262.4284,73.25,252.6481" style="stroke:#000000;stroke-width:1.5;"/><path d="M150.25,252.6481 L150.4368,252.6481 L149.8817,255.0617 L150.4218,257.4753 L150.6053,259.8889 L149.6159,262.3025 L150.25,264.716 L150.2012,264.6672 L147.9819,266.448 L146.009,268.475 L144.2072,270.6732 L141.8154,272.2815 L140.25,274.716 L140.25,276.1924 L130.6786,273.0353 L121.1071,274.1887 L111.5357,275.8679 L101.9643,274.4873 L92.3929,274.898 L82.8214,274.6309 L73.25,274.716 " fill="none" style="stroke:#000000;stroke-width:1.5;"/><text fill="#000000" font-family="sans-serif" font-size="14" lengthAdjust="spacing" textLength="67" x="76.25" y="268.6141">Validation</text><polygon fill="#F1F1F1" points="150.25,291.716,150.25,291.9262,160.0887,291.3017,169.9274,291.9093,179.7661,292.1157,189.6048,291.0027,199.4435,291.6383,209.2823,291.2896,219.121,291.3325,228.9597,291.6479,238.7984,291.0247,248.6371,292.2697,258.4758,291.0858,268.3145,291.5183,278.1532,292.148,287.9919,291.6303,297.8306,291.7843,307.6694,291.6841,317.5081,291.8946,327.3468,291.9552,337.1855,292.3017,347.0242,292.3871,356.8629,292.3953,366.7016,291.9707,376.5403,292.1796,386.379,292.4183,396.2177,290.9949,406.0565,292.3946,415.8952,291.4195,425.7339,292.2499,435.5726,291.221,445.4113,291.6475,455.25,291.716,455.4248,291.8908,457.6385,294.1046,460.0748,296.5409,462.5298,298.9959,464.9481,301.4142,467.25,303.716,467.2491,303.7151,464.9177,306.1837,462.3151,308.3811,460.117,310.9831,457.7792,313.4453,455.25,315.716,455.25,316.1606,445.4113,316.3291,435.5726,315.233,425.7339,315.0639,415.8952,315.0946,406.0565,315.6572,396.2177,315.5195,386.379,316.3975,376.5403,315.5414,366.7016,315.373,356.8629,315.9443,347.0242,315.0492,337.1855,315.1969,327.3468,316.365,317.5081,316.1517,307.6694,316.4505,297.8306,315.3943,287.9919,316.0352,278.1532,316.3065,268.3145,315.2436,258.4758,315.6202,248.6371,315.842,238.7984,316.3678,228.9597,315.7119,219.121,316.1786,209.2823,315.1623,199.4435,315.0388,189.6048,316.2197,179.7661,314.9991,169.9274,316.225,160.0887,315.9227,150.25,315.716,150.1869,315.6529,147.7666,313.2327,145.5581,311.0242,142.9794,308.4455,140.7895,306.2556,138.25,303.716,138.1197,303.5858,140.7955,301.4616,143.1642,299.0302,145.5077,296.5738,147.8611,294.1272,150.25,291.716" style="stroke:#181818;stroke-width:0.5;"/><text fill="#000000" font-family="sans-serif" font-size="11" lengthAdjust="spacing" textLength="305" x="150.25" y="307.984">All mandatory fields provided and are in the right format?</text><text fill="#000000" font-family="sans-serif" font-size="11" lengthAdjust="spacing" textLength="17" x="121.25" y="300.4931">yes</text><text fill="#000000" font-family="sans-serif" font-size="11" lengthAdjust="spacing" textLength="14" x="467.25" y="300.4931">no</text><polygon fill="#F1F1F1" points="105.75,325.716,105.75,325.9262,114.75,325.3017,123.75,325.9093,132.75,326.1157,141.75,325.0027,150.75,325.716,150.7401,325.6921,152.4634,326.3169,154.2366,327.0624,156.0446,327.8918,157.7329,328.4321,159.5888,329.3772,159.7593,329.4478,160.127,331.0646,160.9924,332.8875,161.9186,334.7356,162.4914,336.4373,163.25,338.216,163.2727,338.216,163.2394,340.4849,163.3095,342.7537,163.3297,345.0225,163.4452,347.2913,163.25,349.5602,163.4567,349.6458,162.727,351.4146,161.8639,353.1282,161.1961,354.9226,160.5373,356.7208,159.5888,358.399,159.4968,358.1769,157.9076,359.3402,156.0155,359.7722,154.3536,360.7601,152.4546,361.1755,150.75,362.0602,150.75,361.9917,141.75,362.8018,132.75,362.0114,123.75,362.1655,114.75,362.3988,105.75,362.0602,105.8031,362.1883,103.9817,361.3267,102.2511,360.6841,100.3737,359.6872,98.7152,359.2188,96.9112,358.399,97.08,358.4689,96.3158,356.6879,95.6355,354.9417,94.5657,353.0341,93.7814,351.2447,93.25,349.5602,93.0429,349.5602,93.2304,347.2913,93.1845,345.0225,93.4771,342.7537,93.1918,340.4849,93.25,338.216,93.1444,338.1723,94.0525,336.4774,94.5091,334.5955,95.2868,332.8465,96.3788,331.2278,96.9112,329.3772,96.9667,329.5114,98.7726,328.8712,100.4057,327.8136,102.2552,327.2788,104.0575,326.6301,105.75,325.716" style="stroke:#181818;stroke-width:0.5;"/><text fill="#000000" font-family="sans-serif" font-size="12" lengthAdjust="spacing" textLength="50" x="103.25" y="348.5441">Continue</text><path d="M598.25,330.0351 L598.4368,330.0351 L597.8817,332.0057 L598.4218,333.9763 L598.6053,335.9469 L597.6159,337.9175 L598.25,339.8881 L598.2365,339.8204 L594.1757,340.3164 L590.1831,341.1538 L586.2381,342.2287 L582.1295,342.4855 L578.25,343.8881 L578.3465,344.3707 L582.1401,344.1387 L586.2155,345.3157 L590.3253,346.6646 L594.235,347.0133 L598.25,347.8881 L598.3107,347.8881 L598.2216,349.8587 L598.4087,351.8293 L598.4626,353.7999 L598.7706,355.7705 L598.25,357.7411 L598.25,357.7411 L598.25,359.5306 L608.4318,359.5525 L618.6136,358.4201 L628.7955,358.9773 L638.9773,359.6137 L649.1591,355.818 L659.3409,359.5505 L669.5227,356.9504 L679.7045,359.1646 L689.8864,356.4211 L700.0682,357.5584 L710.25,359.7187 L720.4318,357.6112 L730.6136,358.0219 L740.7955,358.6441 L750.9773,358.8511 L761.1591,357.7307 L771.3409,358.507 L781.5227,356.2147 L791.7045,358.4995 L801.8864,359.203 L812.0682,358.9265 L822.25,357.7411 L822.25,357.7411 L822.7949,357.7411 L821.8206,354.1999 L821.6703,350.6587 L821.6976,347.1175 L822.1977,343.5763 L822.25,340.0351 L822.1265,339.9116 L820.6783,338.4634 L818.1402,335.9253 L816.0344,333.8195 L814.3935,332.1786 L812.25,330.0351 L812.25,328.2569 L802.0595,328.6508 L791.869,331.7656 L781.6786,331.1969 L771.4881,331.9937 L761.2976,329.177 L751.1071,330.8863 L740.9167,331.6095 L730.7262,328.7753 L720.5357,329.7795 L710.3452,330.3711 L700.1548,331.7731 L689.9643,330.0239 L679.7738,331.2686 L669.5833,328.5583 L659.3929,328.2291 L649.2024,331.3781 L639.0119,328.1233 L628.8214,331.3923 L618.631,330.5861 L608.4405,329.3207 L598.25,330.0351 L598.25,330.0351 " fill="#FEFFDD" style="stroke:#181818;stroke-width:0.5;"/><path d="M812.25,330.0351 L812.4368,330.0351 L811.8817,332.0351 L812.4218,334.0351 L812.6053,336.0351 L811.6159,338.0351 L812.25,340.0351 L812.25,339.966 L814.25,339.656 L816.25,339.6942 L818.25,339.9745 L820.25,339.4205 L822.25,340.0351 L822.598,340.3831 L819.8538,337.6389 L818.1257,335.9108 L816.5215,334.3066 L814.1961,331.9812 L812.25,330.0351 " fill="#FEFFDD" style="stroke:#181818;stroke-width:0.5;"/><text fill="#000000" font-family="sans-serif" font-size="13" lengthAdjust="spacing" textLength="203" x="604.25" y="348.9321">{"detail": "Missing required fields"}</text><polygon fill="#F1F1F1" points="388.75,325.716,388.75,325.9262,398.5833,325.3017,408.4167,325.9093,418.25,326.1157,428.0833,325.0027,437.9167,325.6383,447.75,325.2896,457.5833,325.3325,467.4167,325.6479,477.25,325.0247,487.0833,326.2697,496.9167,325.0858,506.75,325.5183,516.5833,326.148,526.4167,325.6303,536.25,325.7843,546.0833,325.6841,555.9167,325.8946,565.75,325.716,565.7805,325.7897,567.5925,326.6286,569.3711,327.3872,571.1399,328.1219,572.8535,328.7234,574.5888,329.3772,574.7316,329.4363,575.5373,331.2346,575.8312,332.8208,576.9945,334.7671,577.4265,336.4105,578.25,338.216,578.4279,338.216,578.085,340.4849,578.2272,342.7537,578.4972,345.0225,578.2338,347.2913,578.25,349.5602,578.2824,349.5736,577.6221,351.3711,576.9137,353.1488,576.0521,354.863,575.4095,356.6679,574.5888,358.399,574.5158,358.2227,572.8573,359.2188,571.1232,360.0323,569.3422,360.7326,567.596,361.5167,565.75,362.0602,565.75,361.5771,555.9167,361.408,546.0833,361.4388,536.25,362.0013,526.4167,361.8636,516.5833,362.7416,506.75,361.8855,496.9167,361.7171,487.0833,362.2884,477.25,361.3933,467.4167,361.541,457.5833,362.7091,447.75,362.4958,437.9167,362.7947,428.0833,361.7384,418.25,362.3794,408.4167,362.6506,398.5833,361.5878,388.75,362.0602,388.7378,362.0306,386.9983,361.3667,385.2976,360.7964,383.4462,359.8622,381.7379,359.2737,379.9112,358.399,379.7406,358.3284,378.9704,356.5448,378.6018,354.9277,377.4937,353.0042,377.139,351.3929,376.25,349.5602,376.3189,349.5602,376.1607,347.2913,376.1321,345.0225,376.4029,342.7537,376.1502,340.4849,376.25,338.216,376.4323,338.2915,376.812,336.3778,377.9046,334.7593,378.5958,332.9745,379.2544,331.1762,379.9112,329.3772,379.9172,329.3918,381.7716,328.8687,383.525,328.1017,385.2361,327.2326,387.0164,326.5309,388.75,325.716" style="stroke:#181818;stroke-width:0.5;"/><text fill="#000000" font-family="sans-serif" font-size="12" lengthAdjust="spacing" textLength="182" x="386.25" y="348.5441">Return 422 Unprocessable Entity</text><path d="M402.25,379.2072 L402.4368,379.2072 L401.8817,384.7484 L402.4218,390.2896 L402.6053,395.8308 L401.6159,401.372 L402.25,406.9132 L402.25,406.9132 L402.25,406.8441 L411.05,406.5341 L419.85,406.5723 L428.65,406.8526 L437.45,406.2986 L446.25,406.9132 L446.25,406.9132 L446.7421,406.9132 L445.6898,404.972 L446.0742,403.0308 L446.634,401.0896 L446.1738,399.1484 L446.25,397.2072 L446.2623,397.2665 L450.2442,396.3499 L454.2822,395.7037 L458.2932,394.9271 L462.3557,394.3993 L466.25,393.0602 L466.3628,393.6459 L462.3642,392.8824 L458.2928,391.7412 L454.328,391.153 L450.3681,390.5907 L446.25,389.2072 L445.7967,388.7539 L444.6765,387.6336 L442.0636,385.0208 L440.5855,383.5427 L437.9389,380.896 L436.25,379.2072 L436.25,379.1463 L429.45,379.8664 L422.65,379.1638 L415.85,379.3008 L409.05,379.5082 L402.25,379.2072 L402.25,379.2072 " fill="#FEFFDD" style="stroke:#181818;stroke-width:0.5;"/><path d="M436.25,379.2072 L436.4368,379.2072 L435.8817,381.2072 L436.4218,383.2072 L436.6053,385.2072 L435.6159,387.2072 L436.25,389.2072 L436.25,389.1381 L438.25,388.828 L440.25,388.8663 L442.25,389.1466 L444.25,388.5926 L446.25,389.2072 L446.598,389.5551 L443.8538,386.811 L442.1257,385.0828 L440.5215,383.4786 L438.1961,381.1532 L436.25,379.2072 " fill="#FEFFDD" style="stroke:#181818;stroke-width:0.5;"/><text fill="#000000" font-family="sans-serif" font-size="13" lengthAdjust="spacing" textLength="23" x="408.25" y="398.1042">End</text><polygon fill="none" points="488.3108,395.7358,486.6984,397.939,484.7912,401.1659,482.0636,403.3406,479.1974,404.5298,476.912,404.633,473.9747,403.1457,471.2032,402.1741,469.0995,400.2013,467.9961,397.9429,467.3417,396.1447,466.7006,393.7959,465.66,391.7746,466.4596,389.8012,467.1602,387.6394,469.7893,385.9296,471.639,383.7113,473.9284,382.9746,476.6501,382.3402,480.1404,382.7171,482.0521,383.6187,484.2747,384.0273,486.9772,386.7961,487.9193,389.7191,488.3286,391.7135,487.865,395" style="stroke:#222222;stroke-width:1.0;"/><polygon fill="#222222" points="483.2831,394.5196,482.4036,395.7213,481.3634,397.4815,479.8756,398.6677,478.3122,399.3163,477.0656,399.3726,475.4635,398.5614,473.9517,398.0314,472.8043,396.9554,472.2024,395.7235,471.8455,394.7426,471.4958,393.4615,470.9282,392.359,471.3643,391.2825,471.7465,390.1034,473.1805,389.1708,474.1894,387.9608,475.4382,387.5589,476.9228,387.2129,478.8266,387.4185,479.8693,387.9103,481.0817,388.1332,482.5557,389.6434,483.0696,391.2378,483.2929,392.3256,483.04,394.1183" style="stroke:#222222;stroke-width:1.0;"/><polygon fill="none" points="11,428.9132,11,429.1234,20.9938,428.4988,30.9877,429.1065,40.9815,429.3128,50.9753,428.1998,60.9691,428.8355,70.963,428.4867,80.9568,428.5297,90.9506,428.845,100.9444,428.2218,110.9383,429.4668,120.9321,428.2829,130.9259,428.7154,140.9198,429.3451,150.9136,428.8274,160.9074,428.9814,170.9012,428.8812,180.8951,429.0917,190.8889,429.1523,200.8827,429.4989,210.8765,429.5842,220.8704,429.5924,230.8642,429.1678,240.858,429.3768,250.8519,429.6154,260.8457,428.192,270.8395,429.5917,280.8333,428.6167,290.8272,429.447,300.821,428.4181,310.8148,428.8447,320.8086,429.6548,330.8025,428.8644,340.7963,429.0185,350.7901,429.2518,360.784,429.3294,370.7778,428.9093,380.7716,429.2004,390.7654,428.3408,400.7593,429.1976,410.7531,429.4614,420.7469,429.3577,430.7407,429.5262,440.7346,428.4301,450.7284,428.261,460.7222,428.2918,470.716,428.8543,480.7099,428.7166,490.7037,429.5946,500.6975,428.7385,510.6914,428.5701,520.6852,429.1414,530.679,428.2463,540.6728,428.394,550.6667,429.5621,560.6605,429.3488,570.6543,429.6477,580.6481,428.5914,590.642,429.2324,600.6358,429.5036,610.6296,428.4408,620.6235,428.8173,630.6173,429.0392,640.6111,429.5649,650.6049,428.909,660.5988,429.3757,670.5926,428.3594,680.5864,428.2359,690.5802,429.4168,700.5741,428.1962,710.5679,429.4221,720.5617,429.1198,730.5556,428.6453,740.5494,428.5594,750.5432,429.3719,760.537,428.6138,770.5309,429.505,780.5247,428.3604,790.5185,429.5306,800.5123,429.3975,810.5062,429.1581,820.5,428.9132,820.5472,428.9132,821.2266,438.962,821.1136,449.0108,820.6693,459.0596,820.7682,469.1084,820.3697,479.1572,821.2165,489.206,820.6549,499.2548,820.6726,509.3036,819.8916,519.3524,820.0948,529.4012,821.0307,539.45,820.9298,549.4988,820.4571,559.5476,820.1778,569.5964,820.2811,579.6452,819.8138,589.694,820.9147,599.7428,821.2396,609.7916,821.0264,619.8404,821.1949,629.8892,820.3633,639.938,820.5872,649.9868,820.1124,660.0356,820.784,670.0844,820.7468,680.1332,821.0524,690.182,820.2703,700.2308,820.3656,710.2796,820.9435,720.3284,821.0673,730.3772,819.9875,740.426,820.3061,750.4748,820.6493,760.5237,820.5,770.5725,820.5,769.9616,810.5062,770.9258,800.5123,770.8304,790.5185,770.4717,780.5247,770.7147,770.5309,771.3011,760.537,770.2596,750.5432,770.8874,740.5494,770.8581,730.5556,770.6882,720.5617,770.7134,710.5679,770.6859,700.5741,769.9483,690.5802,770.1716,680.5864,770.1109,670.5926,770.6363,660.5988,770.6606,650.6049,770.7342,640.6111,770.2815,630.6173,770.5049,620.6235,770.4522,610.6296,771.1493,600.6358,770.999,590.642,770.0869,580.6481,770.4995,570.6543,769.9952,560.6605,770.8608,550.6667,771.1809,540.6728,771.117,530.679,770.1369,520.6852,771.0364,510.6914,769.8296,500.6975,770.7726,490.7037,770.2731,480.7099,770.6692,470.716,770.8128,460.7222,771.0446,450.7284,769.8525,440.7346,771.0479,430.7407,770.7506,420.7469,770.9278,410.7531,771.3203,400.7593,770.5779,390.7654,770.7477,380.7716,770.7859,370.7778,770.7697,360.784,770.5716,350.7901,771.2832,340.7963,769.9627,330.8025,771.1377,320.8086,769.9485,310.8148,770.0321,300.821,770.6125,290.8272,770.6007,280.8333,770.0796,270.8395,770.9862,260.8457,770.6813,250.8519,771.2991,240.858,771.2396,230.8642,770.1242,220.8704,770.1745,210.8765,770.4433,200.8827,770.928,190.8889,770.9754,180.8951,770.8736,170.9012,770.2305,160.9074,771.2088,150.9136,771.2062,140.9198,770.5252,130.9259,770.3334,120.9321,770.1711,110.9383,770.3579,100.9444,770.7099,90.9506,770.5041,80.9568,770.1547,70.963,771.0598,60.9691,770.1135,50.9753,771.0748,40.9815,770.9997,30.9877,770.9443,20.9938,771.265,11,770.5725,10.7541,770.5725,10.6994,760.5237,11.5189,750.4748,10.4031,740.426,10.766,730.3772,11.1155,720.3284,11.0687,710.2796,10.6415,700.2308,10.957,690.182,11.7446,680.1332,11.6485,670.0844,10.4037,660.0356,11.0785,649.9868,10.4861,639.938,10.9737,629.8892,11.293,619.8404,11.4199,609.7916,10.3353,599.7428,11.4005,589.694,11.0084,579.6452,10.4447,569.5964,10.5289,559.5476,11.3266,549.4988,11.2499,539.45,10.9836,529.4012,10.3279,519.3524,11.6581,509.3036,10.6882,499.2548,10.4719,489.206,10.9327,479.1572,11.5897,469.1084,11.6154,459.0596,11.0351,449.0108,10.8488,438.962,11,428.9132" style="stroke:#000000;stroke-width:1.5;"/><path d="M107,428.9132 L107.1868,428.9132 L106.6317,431.3268 L107.1718,433.7403 L107.3553,436.1539 L106.3659,438.5675 L107,440.9811 L106.9512,440.9322 L104.7319,442.713 L102.759,444.74 L100.9572,446.9382 L98.5654,448.5465 L97,450.9811 L97,452.4575 L87.4444,449.3003 L77.8889,450.4537 L68.3333,452.1329 L58.7778,450.7523 L49.2222,451.1631 L39.6667,450.8959 L30.1111,451.4572 L20.5556,451.6188 L11,450.9811 " fill="none" style="stroke:#000000;stroke-width:1.5;"/><text fill="#000000" font-family="sans-serif" font-size="14" lengthAdjust="spacing" textLength="86" x="14" y="444.8791">Authenticate</text><polygon fill="#F1F1F1" points="255.25,467.9811,255.25,468.1913,264.75,467.5668,274.25,468.1744,283.75,468.3808,293.25,467.2677,302.75,467.9034,312.25,467.5546,321.75,467.5976,331.25,467.9129,340.75,467.2897,350.25,467.9811,350.3206,468.1516,351.9374,468.5192,353.7603,469.3846,355.6084,470.3108,357.3101,470.8836,359.0888,471.6423,359.1098,471.651,359.8112,473.4059,360.6083,475.2006,361.3592,476.9761,362.1981,478.788,362.75,480.4811,362.9737,480.4811,362.9764,482.7499,362.8349,485.0187,362.9045,487.2876,362.9841,489.5564,362.75,491.8252,362.5279,491.7332,362.2267,493.6795,361.1942,495.3229,360.7177,497.1966,359.6686,498.8331,359.0888,500.664,359.0801,500.6429,357.4157,501.6247,355.5471,502.1135,353.799,502.8932,352.061,503.6973,350.25,504.3252,350.25,504.7414,340.75,504.3213,331.25,504.6124,321.75,503.7528,312.25,504.6096,302.75,504.8734,293.25,504.7697,283.75,504.9382,274.25,503.8421,264.75,503.673,255.25,504.3252,255.1707,504.1338,253.4747,503.5748,251.6894,502.8002,250.0336,502.3383,248.1567,501.3425,246.4112,500.664,246.3055,500.6203,245.7492,498.9254,244.7413,497.0434,244.0546,495.2945,243.6821,493.6757,242.75,491.8252,242.8952,491.8252,242.9948,489.5564,242.6427,487.2876,242.8564,485.0187,242.9468,482.7499,242.75,480.4811,242.6045,480.4208,243.4527,478.7011,244.2533,476.9616,245.1474,475.2609,245.6776,473.4095,246.4112,471.6423,246.4702,471.7847,248.1083,470.7395,249.8603,469.9692,251.7787,469.6006,253.3908,468.4925,255.25,467.9811" style="stroke:#181818;stroke-width:0.5;"/><text fill="#000000" font-family="sans-serif" font-size="12" lengthAdjust="spacing" textLength="100" x="252.75" y="490.8092">Unhash password</text><polygon fill="#F1F1F1" points="166.25,524.3252,166.25,524.5354,176.3611,523.9109,186.4722,524.5185,196.5833,524.7249,206.6944,523.6118,216.8056,524.2475,226.9167,523.8987,237.0278,523.9417,247.1389,524.257,257.25,523.6338,267.3611,524.8788,277.4722,523.6949,287.5833,524.1274,297.6944,524.7571,307.8056,524.2394,317.9167,524.3934,328.0278,524.2933,338.1389,524.5037,348.25,524.5643,358.3611,524.9109,368.4722,524.9963,378.5833,525.0045,388.6944,524.5798,398.8056,524.7888,408.9167,525.0274,419.0278,523.604,429.1389,525.0037,439.25,524.3252,439.1801,524.2553,441.7758,526.851,443.9333,529.0085,446.4339,531.5091,449.0248,534.1,451.25,536.3252,451.2385,536.3137,448.8748,538.75,446.5298,541.205,444.1481,543.6233,441.6491,545.9243,439.25,548.3252,439.25,548.6124,429.1389,547.7528,419.0278,548.6096,408.9167,548.8734,398.8056,548.7697,388.6944,548.9382,378.5833,547.8421,368.4722,547.673,358.3611,547.7038,348.25,548.2663,338.1389,548.1287,328.0278,549.0066,317.9167,548.1505,307.8056,547.9821,297.6944,548.5535,287.5833,547.6584,277.4722,547.8061,267.3611,548.9742,257.25,548.7609,247.1389,549.0597,237.0278,548.0034,226.9167,548.6444,216.8056,548.9156,206.6944,547.8528,196.5833,548.2293,186.4722,548.4512,176.3611,548.977,166.25,548.3252,166.249,548.3242,163.959,546.0342,161.3195,543.3947,158.8904,540.9656,156.7687,538.8439,154.25,536.3252,154.081,536.1562,156.77,534.0452,159.0987,531.5739,161.3869,529.0621,163.7666,526.6418,166.25,524.3252" style="stroke:#181818;stroke-width:0.5;"/><text fill="#000000" font-family="sans-serif" font-size="11" lengthAdjust="spacing" textLength="273" x="166.25" y="540.5932">User and password match user records in database?</text><text fill="#000000" font-family="sans-serif" font-size="11" lengthAdjust="spacing" textLength="17" x="137.25" y="533.1022">yes</text><text fill="#000000" font-family="sans-serif" font-size="11" lengthAdjust="spacing" textLength="14" x="451.25" y="533.1022">no</text><path d="M188.5,558.3252 L189.0605,558.3252 L187.3951,567.3782 L189.0154,576.4312 L189.5658,585.4842 L186.5976,594.5372 L188.5,603.5902 L188.4865,603.5225 L184.4257,604.0185 L180.4331,604.856 L176.4881,605.9308 L172.3795,606.1876 L168.5,607.5902 L168.5965,608.0728 L172.3901,607.8409 L176.4655,609.0179 L180.5753,610.3667 L184.485,610.7155 L188.5,611.5902 L188.682,611.5902 L188.4148,620.6433 L188.9761,629.6963 L189.1377,638.7493 L190.0618,647.8023 L188.5,656.8553 L188.5,656.8553 L188.5,658.6448 L198.6905,658.6666 L208.881,657.5343 L219.0714,658.0915 L229.2619,658.7279 L239.4524,654.9321 L249.6429,658.6646 L259.8333,656.0646 L270.0238,658.2788 L280.2143,655.5352 L290.4048,656.6726 L300.5952,658.8329 L310.7857,656.7253 L320.9762,657.1361 L331.1667,657.7583 L341.3571,657.9652 L351.5476,656.8449 L361.7381,657.6212 L371.9286,655.3288 L382.119,657.6136 L392.3095,658.3171 L402.5,656.8553 L402.5,656.8553 L403.6854,656.8553 L404.1347,647.0186 L401.2118,637.1819 L400.7608,627.3453 L400.8429,617.5086 L402.343,607.6719 L401.9759,597.8352 L404.3171,587.9986 L402.0342,578.1619 L402.5,568.3252 L402.2844,568.1096 L400.6435,566.4687 L398.0809,563.9061 L396.1737,561.9989 L394.9079,560.7331 L392.5,558.3252 L392.5,559.487 L382.3,560.2838 L372.1,557.4671 L361.9,559.1764 L351.7,559.8997 L341.5,557.0655 L331.3,558.0696 L321.1,558.6612 L310.9,560.0632 L300.7,558.314 L290.5,559.5587 L280.3,556.8484 L270.1,556.5192 L259.9,559.6682 L249.7,556.4134 L239.5,559.6824 L229.3,558.8762 L219.1,557.6108 L208.9,557.3818 L198.7,559.5486 L188.5,558.3252 L188.5,558.3252 " fill="#FEFFDD" style="stroke:#181818;stroke-width:0.5;"/><path d="M392.5,558.3252 L392.6868,558.3252 L392.1317,560.3252 L392.6718,562.3252 L392.8553,564.3252 L391.8659,566.3252 L392.5,568.3252 L392.5,568.2561 L394.5,567.9461 L396.5,567.9843 L398.5,568.2646 L400.5,567.7107 L402.5,568.3252 L402.848,568.6732 L400.1038,565.929 L398.3757,564.2009 L396.7715,562.5967 L394.4461,560.2713 L392.5,558.3252 " fill="#FEFFDD" style="stroke:#181818;stroke-width:0.5;"/><text fill="#000000" font-family="sans-serif" font-size="13" lengthAdjust="spacing" textLength="68" x="194.5" y="577.2222">JSON Body:</text><text fill="#000000" font-family="sans-serif" font-size="13" lengthAdjust="spacing" textLength="5" x="194.5" y="594.9282">{</text><text fill="#000000" font-family="sans-serif" font-size="13" lengthAdjust="spacing" textLength="181" x="206.5" y="612.6342">"access_token": "token_value",</text><text fill="#000000" font-family="sans-serif" font-size="13" lengthAdjust="spacing" textLength="133" x="206.5" y="630.3403">"token_type": "bearer"</text><text fill="#000000" font-family="sans-serif" font-size="13" lengthAdjust="spacing" textLength="5" x="194.5" y="648.0463">}</text><polygon fill="#F1F1F1" points="50,589.4182,50,589.6284,59.6364,589.0039,69.2727,589.6115,78.9091,589.8179,88.5455,588.7048,98.1818,589.3405,107.8182,588.9917,117.4545,589.0347,127.0909,589.35,136.7273,588.7268,146.3636,589.9718,156,589.4182,155.9196,589.2241,157.7425,590.0895,159.5906,591.0157,161.2924,591.5885,163.0798,592.3681,164.8388,593.0794,164.829,593.0753,165.626,594.8699,166.3769,596.6454,167.2159,598.4574,167.9744,600.236,168.5,601.9182,168.7264,601.9182,168.5849,604.187,168.6545,606.4558,168.7341,608.7247,168.2596,610.9935,168.5,613.2623,168.709,613.3489,167.6765,614.9922,167.1999,616.8659,166.1509,618.5025,165.55,620.3246,164.8388,622.1011,164.9334,622.3295,163.0649,622.8184,161.3167,623.598,159.5787,624.4021,157.8209,625.1582,156,625.7623,156,625.7584,146.3636,626.0495,136.7273,625.1899,127.0909,626.0467,117.4545,626.3105,107.8182,626.2068,98.1818,626.3753,88.5455,625.2792,78.9091,625.1101,69.2727,625.1409,59.6364,625.7034,50,625.7623,49.9749,625.7018,48.3192,625.2399,46.4422,624.244,44.6529,623.46,42.9581,622.9037,41.1612,622.1011,40.9558,622.0161,40.2691,620.2671,39.8965,618.6484,39.0986,616.8534,38.4584,615.1238,37.5,613.2623,37.3927,613.2623,37.6064,610.9935,37.6968,608.7247,37.3425,606.4558,37.468,604.187,37.5,601.9182,37.5388,601.9343,38.4329,600.2336,38.9632,598.3821,39.8392,596.6739,40.2584,594.7765,41.1612,593.0794,41.0748,592.8708,42.9932,592.5022,44.6052,591.3941,46.5294,591.0394,48.2586,590.2141,50,589.4182" style="stroke:#181818;stroke-width:0.5;"/><text fill="#000000" font-family="sans-serif" font-size="12" lengthAdjust="spacing" textLength="111" x="47.5" y="612.2463">Generate JWT token</text><polygon fill="#F1F1F1" points="35.5,677.3753,35.5,677.5855,45.1429,676.961,54.7857,677.5686,64.4286,677.775,74.0714,676.6619,83.7143,677.2976,93.3571,676.9488,103,676.9918,112.6429,677.3072,122.2857,676.684,131.9286,677.929,141.5714,676.7451,151.2143,677.1776,160.8571,677.8073,170.5,677.3753,170.4891,677.3489,172.2765,678.1286,174.0315,678.83,175.8261,679.627,177.6016,680.3779,179.3388,681.0365,179.5192,681.1112,180.2777,682.8899,181.0125,684.6587,181.6139,686.3723,182.4105,688.1667,183,689.8753,183.2341,689.8753,182.7596,692.1442,183.2262,694.413,182.9012,696.6818,183.1779,698.9506,183,701.2194,182.8476,701.1563,182.2467,702.9785,181.7639,704.8496,180.7883,706.5165,180.1035,708.3039,179.3388,710.0583,179.382,710.1626,177.6242,710.9187,175.8028,711.5215,174.0722,712.3434,172.1947,712.8109,170.5,713.7194,170.5,714.0038,160.8571,714.2676,151.2143,714.164,141.5714,714.3325,131.9286,713.2364,122.2857,713.0673,112.6429,713.098,103,713.6606,93.3571,713.5229,83.7143,714.4009,74.0714,713.5448,64.4286,713.3764,54.7857,713.9477,45.1429,713.0526,35.5,713.7194,35.4338,713.5596,33.815,713.1871,32.02,712.3891,30.2904,711.7489,28.3879,710.6914,26.6612,710.0583,26.7595,710.099,26.1108,708.3658,25.0512,706.4625,24.4349,704.7428,23.771,703.0033,23,701.2194,23.2173,701.2194,22.9986,698.9506,23.1542,696.6818,22.8154,694.413,22.7742,692.1442,23,689.8753,23.1551,689.9396,23.5114,688.0161,24.6212,686.4047,25.2603,684.5984,25.8464,682.7701,26.6612,681.0365,26.616,680.9275,28.4875,680.4455,30.1585,679.4798,32.04,679.0221,33.6617,677.9373,35.5,677.3753" style="stroke:#181818;stroke-width:0.5;"/><text fill="#000000" font-family="sans-serif" font-size="12" lengthAdjust="spacing" textLength="140" x="33" y="700.2034">Return 200 OK with token</text><path d="M28,730.8664 L28.1868,730.8664 L27.6317,736.4076 L28.1718,741.9488 L28.3553,747.49 L27.3659,753.0313 L28,758.5725 L28,758.5725 L28,758.5034 L36.8,758.1933 L45.6,758.2316 L54.4,758.5119 L63.2,757.9579 L72,758.5725 L72,758.5725 L72.4921,758.5725 L71.4398,756.6313 L71.8242,754.69 L72.384,752.7488 L71.9238,750.8076 L72,748.8664 L72.0123,748.9258 L75.9942,748.0092 L80.0322,747.363 L84.0432,746.5864 L88.1057,746.0586 L92,744.7194 L92.1128,745.3052 L88.1142,744.5417 L84.0428,743.4005 L80.078,742.8123 L76.1181,742.25 L72,740.8664 L71.5467,740.4131 L70.4265,739.2929 L67.8136,736.6801 L66.3355,735.202 L63.6889,732.5553 L62,730.8664 L62,730.8056 L55.2,731.5256 L48.4,730.8231 L41.6,730.96 L34.8,731.1674 L28,730.8664 L28,730.8664 " fill="#FEFFDD" style="stroke:#181818;stroke-width:0.5;"/><path d="M62,730.8664 L62.1868,730.8664 L61.6317,732.8664 L62.1718,734.8664 L62.3553,736.8664 L61.3659,738.8664 L62,740.8664 L62,740.7974 L64,740.4873 L66,740.5256 L68,740.8059 L70,740.2519 L72,740.8664 L72.348,741.2144 L69.6038,738.4703 L67.8757,736.7421 L66.2715,735.1379 L63.9461,732.8125 L62,730.8664 " fill="#FEFFDD" style="stroke:#181818;stroke-width:0.5;"/><text fill="#000000" font-family="sans-serif" font-size="13" lengthAdjust="spacing" textLength="23" x="34" y="749.7635">End</text><polygon fill="none" points="114.0608,747.3951,112.4484,749.5982,110.5412,752.8252,107.8136,754.9998,104.9474,756.1891,102.662,756.2923,99.7247,754.805,96.9532,753.8334,94.8495,751.8606,93.7461,749.6022,93.0917,747.804,92.4506,745.4551,91.41,743.4339,92.2096,741.4604,92.9102,739.2987,95.5393,737.5889,97.389,735.3705,99.6784,734.6339,102.4001,733.9995,105.8904,734.3764,107.8021,735.278,110.0247,735.6866,112.7272,738.4554,113.6693,741.3784,114.0786,743.3728,113.615,746.6593" style="stroke:#222222;stroke-width:1.0;"/><polygon fill="#222222" points="109.0331,746.1789,108.1536,747.3806,107.1134,749.1407,105.6256,750.3269,104.0622,750.9756,102.8156,751.0319,101.2135,750.2207,99.7017,749.6907,98.5543,748.6146,97.9524,747.3828,97.5955,746.4019,97.2458,745.1207,96.6782,744.0182,97.1143,742.9418,97.4965,741.7627,98.9305,740.8301,99.9394,739.62,101.1882,739.2182,102.6728,738.8722,104.5766,739.0778,105.6193,739.5696,106.8317,739.7925,108.3057,741.3027,108.8196,742.8971,109.0429,743.9849,108.79,745.7776" style="stroke:#222222;stroke-width:1.0;"/><path d="M602.5,562.6442 L602.6868,562.6442 L602.1317,564.6149 L602.6718,566.5855 L602.8553,568.5561 L601.8659,570.5267 L602.5,572.4973 L602.4865,572.4295 L598.4257,572.9255 L594.4331,573.763 L590.4881,574.8379 L586.3795,575.0946 L582.5,576.4973 L582.5965,576.9798 L586.3901,576.7479 L590.4655,577.9249 L594.5753,579.2738 L598.485,579.6225 L602.5,580.4973 L602.5607,580.4973 L602.4716,582.4679 L602.6587,584.4385 L602.7126,586.4091 L603.0206,588.3797 L602.5,590.3503 L602.5,590.3503 L602.5,592.1397 L612.4,592.1616 L622.3,591.0293 L632.2,591.5865 L642.1,592.2229 L652,588.4271 L661.9,592.1596 L671.8,589.5596 L681.7,591.7738 L691.6,589.0302 L701.5,590.1676 L711.4,592.3279 L721.3,590.2203 L731.2,590.6311 L741.1,591.2533 L751,591.4602 L760.9,590.3399 L770.8,591.1162 L780.7,588.8238 L790.6,591.1086 L800.5,590.3503 L800.5,590.3503 L800.9873,590.3503 L800.8951,586.8091 L801.0449,583.2679 L800.0706,579.7267 L799.9203,576.1855 L800.5,572.6442 L800.1094,572.2537 L798.463,570.6072 L796.3765,568.5207 L794.9283,567.0725 L792.3902,564.5345 L790.5,562.6442 L790.5,561.7294 L780.6053,563.253 L770.7105,560.866 L760.8158,561.2599 L750.9211,564.3748 L741.0263,563.806 L731.1316,564.6029 L721.2368,561.7861 L711.3421,563.4954 L701.4474,564.2187 L691.5526,561.3845 L681.6579,562.3886 L671.7632,562.9802 L661.8684,564.3823 L651.9737,562.6331 L642.0789,563.8778 L632.1842,561.1675 L622.2895,560.8382 L612.3947,563.9872 L602.5,562.6442 L602.5,562.6442 " fill="#FEFFDD" style="stroke:#181818;stroke-width:0.5;"/><path d="M790.5,562.6442 L790.6868,562.6442 L790.1317,564.6442 L790.6718,566.6442 L790.8553,568.6442 L789.8659,570.6442 L790.5,572.6442 L790.5,572.5752 L792.5,572.2651 L794.5,572.3034 L796.5,572.5837 L798.5,572.0297 L800.5,572.6442 L800.848,572.9922 L798.1038,570.2481 L796.3757,568.5199 L794.7715,566.9157 L792.4461,564.5903 L790.5,562.6442 " fill="#FEFFDD" style="stroke:#181818;stroke-width:0.5;"/><text fill="#000000" font-family="sans-serif" font-size="13" lengthAdjust="spacing" textLength="177" x="608.5" y="581.5413">{"detail": "Invalid credentials"}</text><polygon fill="#F1F1F1" points="435,558.3252,435,558.5354,444.6429,557.9109,454.2857,558.5185,463.9286,558.7249,473.5714,557.6118,483.2143,558.2475,492.8571,557.8987,502.5,557.9417,512.1429,558.257,521.7857,557.6338,531.4286,558.8788,541.0714,557.6949,550.7143,558.1274,560.3571,558.7571,570,558.3252,569.9891,558.2988,571.7765,559.0784,573.5315,559.7798,575.3261,560.5769,577.1016,561.3278,578.8388,561.9864,579.0192,562.0611,579.7777,563.8397,580.5125,565.6085,581.1139,567.3221,581.9105,569.1166,582.5,570.8252,582.7341,570.8252,582.2596,573.094,582.7262,575.3628,582.4012,577.6317,582.6779,579.9005,582.5,582.1693,582.3476,582.1062,581.7467,583.9283,581.2639,585.7994,580.2883,587.4664,579.6035,589.2538,578.8388,591.0082,578.882,591.1124,577.1242,591.8686,575.3028,592.4714,573.5722,593.2933,571.6947,593.7608,570,594.6693,570,594.9537,560.3571,595.2175,550.7143,595.1138,541.0714,595.2823,531.4286,594.1862,521.7857,594.0171,512.1429,594.0479,502.5,594.6104,492.8571,594.4728,483.2143,595.3507,473.5714,594.4946,463.9286,594.3263,454.2857,594.8976,444.6429,594.0025,435,594.6693,434.9338,594.5094,433.315,594.1369,431.52,593.339,429.7904,592.6988,427.8879,591.6413,426.1612,591.0082,426.2595,591.0489,425.6108,589.3157,424.5512,587.4124,423.9349,585.6926,423.271,583.9532,422.5,582.1693,422.7173,582.1693,422.4986,579.9005,422.6542,577.6317,422.3154,575.3628,422.2742,573.094,422.5,570.8252,422.6551,570.8894,423.0114,568.966,424.1212,567.3546,424.7603,565.5483,425.3464,563.72,426.1612,561.9864,426.116,561.8774,427.9875,561.3954,429.6585,560.4297,431.54,559.9719,433.1617,558.8872,435,558.3252" style="stroke:#181818;stroke-width:0.5;"/><text fill="#000000" font-family="sans-serif" font-size="12" lengthAdjust="spacing" textLength="140" x="432.5" y="581.1533">Return 401 Unauthorized</text><path d="M427.5,629.6693 L427.6868,629.6693 L427.1317,635.2105 L427.6718,640.7517 L427.8553,646.2929 L426.8659,651.8341 L427.5,657.3753 L427.5,657.3753 L427.5,657.3063 L436.3,656.9962 L445.1,657.0344 L453.9,657.3147 L462.7,656.7608 L471.5,657.3753 L471.5,657.3753 L471.9921,657.3753 L470.9398,655.4341 L471.3242,653.4929 L471.884,651.5517 L471.4238,649.6105 L471.5,647.6693 L471.5123,647.7287 L475.4942,646.8121 L479.5322,646.1659 L483.5432,645.3893 L487.6057,644.8615 L491.5,643.5223 L491.6128,644.108 L487.6142,643.3446 L483.5428,642.2034 L479.578,641.6152 L475.6181,641.0529 L471.5,639.6693 L471.0467,639.216 L469.9265,638.0958 L467.3136,635.483 L465.8355,634.0048 L463.1889,631.3582 L461.5,629.6693 L461.5,629.6084 L454.7,630.3285 L447.9,629.626 L441.1,629.7629 L434.3,629.9703 L427.5,629.6693 L427.5,629.6693 " fill="#FEFFDD" style="stroke:#181818;stroke-width:0.5;"/><path d="M461.5,629.6693 L461.6868,629.6693 L461.1317,631.6693 L461.6718,633.6693 L461.8553,635.6693 L460.8659,637.6693 L461.5,639.6693 L461.5,639.6002 L463.5,639.2902 L465.5,639.3284 L467.5,639.6087 L469.5,639.0548 L471.5,639.6693 L471.848,640.0173 L469.1038,637.2732 L467.3757,635.545 L465.7715,633.9408 L463.4461,631.6154 L461.5,629.6693 " fill="#FEFFDD" style="stroke:#181818;stroke-width:0.5;"/><text fill="#000000" font-family="sans-serif" font-size="13" lengthAdjust="spacing" textLength="23" x="433.5" y="648.5663">End</text><polygon fill="none" points="513.5608,646.198,511.9484,648.4011,510.0412,651.628,507.3136,653.8027,504.4474,654.9919,502.162,655.0951,499.2247,653.6079,496.4532,652.6362,494.3495,650.6635,493.2461,648.4051,492.5917,646.6069,491.9506,644.258,490.91,642.2368,491.7096,640.2633,492.4102,638.1015,495.0393,636.3918,496.889,634.1734,499.1784,633.4368,501.9001,632.8024,505.3904,633.1793,507.3021,634.0809,509.5247,634.4895,512.2272,637.2583,513.1693,640.1813,513.5786,642.1757,513.115,645.4622" style="stroke:#222222;stroke-width:1.0;"/><polygon fill="#222222" points="508.5331,644.9818,507.6536,646.1835,506.6134,647.9436,505.1256,649.1298,503.5622,649.7785,502.3156,649.8348,500.7135,649.0235,499.2017,648.4936,498.0543,647.4175,497.4524,646.1857,497.0955,645.2048,496.7458,643.9236,496.1782,642.8211,496.6143,641.7447,496.9965,640.5655,498.4305,639.6329,499.4394,638.4229,500.6882,638.0211,502.1728,637.6751,504.0766,637.8807,505.1193,638.3724,506.3317,638.5953,507.8057,640.1056,508.3196,641.6999,508.5429,642.7878,508.29,644.5804" style="stroke:#222222;stroke-width:1.0;"/><path d="M302.75,73.9209 L302.8434,73.9209 L302.5659,82.9101 L302.8359,91.8993 L302.9276,100.8885 L302.4329,109.8777 L302.75,118.8669 " fill="#181818" style="stroke:#181818;stroke-width:1.0;"/><polygon fill="#181818" points="298.75,108.8669,298.815,108.8929,299.4218,110.8156,300.4098,112.8908,301.2737,114.9164,301.7292,116.7786,302.75,118.8669,302.7259,118.8573,303.418,116.8141,304.2313,114.8194,305.1289,112.8585,305.736,110.7813,306.75,108.8669,306.8805,108.9974,305.8014,109.5184,305.1034,110.4203,304.4518,111.3687,303.5298,112.0467,302.75,112.8669,302.7661,112.883,301.9425,112.0594,301.1921,111.309,300.4064,110.5233,299.688,109.805,298.75,108.8669" style="stroke:#181818;stroke-width:1.0;"/><path d="M302.75,155.211 L303.0302,155.211 L302.1976,165.4296 L303.0077,175.6482 L303.2829,185.8668 L301.7988,196.0854 L302.75,206.304 " fill="#181818" style="stroke:#181818;stroke-width:1.0;"/><polygon fill="#181818" points="298.75,196.304,298.815,196.33,299.4218,198.2527,300.4098,200.3279,301.2737,202.3535,301.7292,204.2157,302.75,206.304,302.7259,206.2944,303.418,204.2512,304.2313,202.2565,305.1289,200.2956,305.736,198.2184,306.75,196.304,306.8805,196.4345,305.8014,196.9555,305.1034,197.8574,304.4518,198.8058,303.5298,199.4838,302.75,200.304,302.7661,200.3201,301.9425,199.4965,301.1921,198.7461,300.4064,197.9604,299.688,197.2421,298.75,196.304" style="stroke:#181818;stroke-width:1.0;"/><path d="M477.25,362.0602 L477.3434,362.0602 L477.0659,366.0602 L477.3359,370.0602 L477.4276,374.0602 L476.9329,378.0602 L477.25,382.0602 " fill="#181818" style="stroke:#181818;stroke-width:1.0;"/><polygon fill="#181818" points="473.25,372.0602,473.315,372.0862,473.9218,374.0089,474.9098,376.0841,475.7737,378.1096,476.2292,379.9718,477.25,382.0602,477.2259,382.0505,477.918,380.0074,478.7313,378.0127,479.6289,376.0517,480.236,373.9746,481.25,372.0602,481.3805,372.1907,480.3014,372.7116,479.6034,373.6135,478.9518,374.562,478.0298,375.2399,477.25,376.0602,477.2661,376.0762,476.4425,375.2526,475.6921,374.5022,474.9064,373.7165,474.188,372.9982,473.25,372.0602" style="stroke:#181818;stroke-width:1.0;"/><path d="M138.25,303.716 L138.25,303.8095 L136.25,303.5319 L134.25,303.802 L132.25,303.8937 L130.25,303.399 L128.25,303.716 " fill="#181818" style="stroke:#181818;stroke-width:1.0;"/><path d="M128.25,303.716 L128.3434,303.716 L128.0659,308.116 L128.3359,312.516 L128.4276,316.916 L127.9329,321.316 L128.25,325.716 " fill="#181818" style="stroke:#181818;stroke-width:1.0;"/><polygon fill="#181818" points="124.25,315.716,124.315,315.7421,124.9218,317.6648,125.9098,319.74,126.7737,321.7655,127.2292,323.6277,128.25,325.716,128.2259,325.7064,128.918,323.6632,129.7313,321.6686,130.6289,319.7076,131.236,317.6305,132.25,315.716,132.3805,315.8465,131.3014,316.3675,130.6034,317.2694,129.9518,318.2179,129.0298,318.8958,128.25,319.716,128.2661,319.7321,127.4425,318.9085,126.6921,318.1581,125.9064,317.3724,125.188,316.6541,124.25,315.716" style="stroke:#181818;stroke-width:1.0;"/><path d="M467.25,303.716 L467.25,303.8095 L469.25,303.5319 L471.25,303.802 L473.25,303.8937 L475.25,303.399 L477.25,303.716 " fill="#181818" style="stroke:#181818;stroke-width:1.0;"/><path d="M477.25,303.716 L477.3434,303.716 L477.0659,308.116 L477.3359,312.516 L477.4276,316.916 L476.9329,321.316 L477.25,325.716 " fill="#181818" style="stroke:#181818;stroke-width:1.0;"/><polygon fill="#181818" points="473.25,315.716,473.315,315.7421,473.9218,317.6648,474.9098,319.74,475.7737,321.7655,476.2292,323.6277,477.25,325.716,477.2259,325.7064,477.918,323.6632,478.7313,321.6686,479.6289,319.7076,480.236,317.6305,481.25,315.716,481.3805,315.8465,480.3014,316.3675,479.6034,317.2694,478.9518,318.2179,478.0298,318.8958,477.25,319.716,477.2661,319.7321,476.4425,318.9085,475.6921,318.1581,474.9064,317.3724,474.188,316.6541,473.25,315.716" style="stroke:#181818;stroke-width:1.0;"/><path d="M128.25,362.0602 L128.5302,362.0602 L127.6976,372.0308 L128.5077,382.0014 L128.7829,391.972 L127.2988,401.9426 L128.25,411.9132 " fill="#181818" style="stroke:#181818;stroke-width:1.0;"/><path d="M128.25,411.9132 L128.25,412.1934 L138.5147,411.3607 L148.7794,412.1709 L159.0441,412.4461 L169.3088,410.962 L179.5735,411.8096 L189.8382,411.3445 L200.1029,411.4018 L210.3676,411.8223 L220.6324,410.9913 L230.8971,412.6514 L241.1618,411.0728 L251.4265,411.6495 L261.6912,412.4891 L271.9559,411.7988 L282.2206,412.0042 L292.4853,411.8706 L302.75,411.9132 " fill="#181818" style="stroke:#181818;stroke-width:1.0;"/><path d="M302.75,411.9132 L303.0302,411.9132 L302.1976,421.2578 L303.0077,430.6025 L303.2829,439.9471 L301.7988,449.2918 L302.6464,458.6364 L302.75,467.9811 " fill="#181818" style="stroke:#181818;stroke-width:1.0;"/><polygon fill="#181818" points="298.75,457.9811,298.815,458.0071,299.4218,459.9298,300.4098,462.005,301.2737,464.0306,301.7292,465.8928,302.75,467.9811,302.7259,467.9715,303.418,465.9283,304.2313,463.9336,305.1289,461.9726,305.736,459.8955,306.75,457.9811,306.8805,458.1116,305.8014,458.6325,305.1034,459.5345,304.4518,460.4829,303.5298,461.1609,302.75,461.9811,302.7661,461.9972,301.9425,461.1736,301.1921,460.4232,300.4064,459.6375,299.688,458.9191,298.75,457.9811" style="stroke:#181818;stroke-width:1.0;"/><path d="M302.75,242.6481 L303.0302,242.6481 L302.1976,252.4617 L303.0077,262.2753 L303.2829,272.0889 L301.7988,281.9025 L302.75,291.716 " fill="#181818" style="stroke:#181818;stroke-width:1.0;"/><polygon fill="#181818" points="298.75,281.716,298.815,281.7421,299.4218,283.6648,300.4098,285.74,301.2737,287.7655,301.7292,289.6277,302.75,291.716,302.7259,291.7064,303.418,289.6632,304.2313,287.6686,305.1289,285.7076,305.736,283.6305,306.75,281.716,306.8805,281.8465,305.8014,282.3675,305.1034,283.2694,304.4518,284.2179,303.5298,284.8958,302.75,285.716,302.7661,285.7321,301.9425,284.9085,301.1921,284.1581,300.4064,283.3724,299.688,282.6541,298.75,281.716" style="stroke:#181818;stroke-width:1.0;"/><path d="M103,625.7623 L103.2802,625.7623 L102.4476,636.0849 L103.2577,646.4075 L103.5329,656.7301 L102.0488,667.0527 L103,677.3753 " fill="#181818" style="stroke:#181818;stroke-width:1.0;"/><polygon fill="#181818" points="99,667.3753,99.065,667.4014,99.6718,669.324,100.6598,671.3993,101.5237,673.4248,101.9792,675.287,103,677.3753,102.9759,677.3657,103.668,675.3225,104.4813,673.3279,105.3789,671.3669,105.986,669.2897,107,667.3753,107.1305,667.5058,106.0514,668.0268,105.3534,668.9287,104.7018,669.8771,103.7798,670.5551,103,671.3753,103.0161,671.3914,102.1925,670.5678,101.4421,669.8174,100.6564,669.0317,99.938,668.3134,99,667.3753" style="stroke:#181818;stroke-width:1.0;"/><path d="M103,713.7194 L103.0934,713.7194 L102.8159,717.7194 L103.0859,721.7194 L103.1776,725.7194 L102.6829,729.7194 L103,733.7194 " fill="#181818" style="stroke:#181818;stroke-width:1.0;"/><polygon fill="#181818" points="99,723.7194,99.065,723.7455,99.6718,725.6682,100.6598,727.7434,101.5237,729.7689,101.9792,731.6311,103,733.7194,102.9759,733.7098,103.668,731.6666,104.4813,729.672,105.3789,727.711,105.986,725.6339,107,723.7194,107.1305,723.8499,106.0514,724.3709,105.3534,725.2728,104.7018,726.2213,103.7798,726.8992,103,727.7194,103.0161,727.7355,102.1925,726.9119,101.4421,726.1615,100.6564,725.3758,99.938,724.6575,99,723.7194" style="stroke:#181818;stroke-width:1.0;"/><path d="M502.5,594.6693 L502.5934,594.6693 L502.3159,602.2399 L502.5859,609.8105 L502.6776,617.3811 L502.1829,624.9517 L502.5,632.5223 " fill="#181818" style="stroke:#181818;stroke-width:1.0;"/><polygon fill="#181818" points="498.5,622.5223,498.565,622.5483,499.1718,624.471,500.1598,626.5463,501.0237,628.5718,501.4792,630.434,502.5,632.5223,502.4759,632.5127,503.168,630.4695,503.9813,628.4748,504.8789,626.5139,505.486,624.4367,506.5,622.5223,506.6305,622.6528,505.5514,623.1738,504.8534,624.0757,504.2018,625.0241,503.2798,625.7021,502.5,626.5223,502.5161,626.5384,501.6925,625.7148,500.9421,624.9644,500.1564,624.1787,499.438,623.4604,498.5,622.5223" style="stroke:#181818;stroke-width:1.0;"/><path d="M154.25,536.3252 L154.25,536.6054 L144,535.7728 L133.75,536.5829 L123.5,536.8581 L113.25,535.374 L103,536.3252 " fill="#181818" style="stroke:#181818;stroke-width:1.0;"/><path d="M103,536.3252 L103.2802,536.3252 L102.4476,546.9438 L103.2577,557.5624 L103.5329,568.181 L102.0488,578.7996 L103,589.4182 " fill="#181818" style="stroke:#181818;stroke-width:1.0;"/><polygon fill="#181818" points="99,579.4182,99.065,579.4442,99.6718,581.3669,100.6598,583.4421,101.5237,585.4677,101.9792,587.3299,103,589.4182,102.9759,589.4086,103.668,587.3654,104.4813,585.3707,105.3789,583.4097,105.986,581.3326,107,579.4182,107.1305,579.5487,106.0514,580.0696,105.3534,580.9716,104.7018,581.92,103.7798,582.598,103,583.4182,103.0161,583.4343,102.1925,582.6107,101.4421,581.8603,100.6564,581.0745,99.938,580.3562,99,579.4182" style="stroke:#181818;stroke-width:1.0;"/><path d="M451.25,536.3252 L451.25,536.6054 L461.5,535.7728 L471.75,536.5829 L482,536.8581 L492.25,535.374 L502.5,536.3252 " fill="#181818" style="stroke:#181818;stroke-width:1.0;"/><path d="M502.5,536.3252 L502.5934,536.3252 L502.3159,540.7252 L502.5859,545.1252 L502.6776,549.5252 L502.1829,553.9252 L502.5,558.3252 " fill="#181818" style="stroke:#181818;stroke-width:1.0;"/><polygon fill="#181818" points="498.5,548.3252,498.565,548.3512,499.1718,550.2739,500.1598,552.3491,501.0237,554.3747,501.4792,556.2369,502.5,558.3252,502.4759,558.3156,503.168,556.2724,503.9813,554.2777,504.8789,552.3168,505.486,550.2396,506.5,548.3252,506.6305,548.4557,505.5514,548.9766,504.8534,549.8786,504.2018,550.827,503.2798,551.505,502.5,552.3252,502.5161,552.3413,501.6925,551.5177,500.9421,550.7673,500.1564,549.9816,499.438,549.2632,498.5,548.3252" style="stroke:#181818;stroke-width:1.0;"/><path d="M302.75,504.3252 L302.8434,504.3252 L302.5659,508.3252 L302.8359,512.3252 L302.9276,516.3252 L302.4329,520.3252 L302.75,524.3252 " fill="#181818" style="stroke:#181818;stroke-width:1.0;"/><polygon fill="#181818" points="298.75,514.3252,298.815,514.3512,299.4218,516.2739,300.4098,518.3491,301.2737,520.3747,301.7292,522.2369,302.75,524.3252,302.7259,524.3156,303.418,522.2724,304.2313,520.2777,305.1289,518.3168,305.736,516.2396,306.75,514.3252,306.8805,514.4557,305.8014,514.9766,305.1034,515.8786,304.4518,516.827,303.5298,517.505,302.75,518.3252,302.7661,518.3413,301.9425,517.5177,301.1921,516.7673,300.4064,515.9816,299.688,515.2632,298.75,514.3252" style="stroke:#181818;stroke-width:1.0;"/><!--SRC=[dPDBRnen4CVl-ob6UoAe4e_sj4I9aYYgcZv08RH7PDO3wsBihJqBeeZldh492qH4aUB3ofwnv_6R__gvCgLmOW65C7Bb514Q85TXuciNAT9uQvr41vtpzZkhhOE95layYMPeDY-hgnzsfWmCdCtH-yjMTTLi9eaduIWnbX2ScXMKmJ1QiaVCKIqH1ltX4pZyLw4d80ijKL7HqY5Mx-XT0hmUXlrVS6lbEel7JVo6bLOUtTY81QOPf7-5zsgHVZguIxQikFQ3jzFzd4R_Da4Z8IHAie5m7dTP9fobboJSEtUeh87qjz1AYh1FNpAhAJHkj8O5qnHatHgc2hNqK3gxL18bi0E4Gs0kLBnq0bFh5eAkBuB9G6ED_gAkDBkpXfIfi1TDgBcUXh575nwHAcVWIxSB8rFkO8i9p-2U7zAwLzyyPhv99P9GElJ_Kt7_PXQPAyT5xefEj_LBJxOy3QDnob7kZTnLPQIQ9jiJEZTLw8PKBWZtVBAHAOGlO4-_LrCRyRWYdBsB6L9UG1WZ5vQpnGTeZ5LCXCStO7r5WuuJmiEV9zRE7Csvzg6sdT7GVcrEJb4q8Wzinp5k01StuwNG5Hvfgxw-SzEwZ1gS8C_TfIVN3eHhoRqUQxVTXlvtM2agNZVqxbJUragxmre9_vLrwZ_AzpNopIo3sY5dVOIf2lq1VJm3]--></g></svg>