<?xml version="1.0" encoding="us-ascii" standalone="no"?><svg xmlns="http://www.w3.org/2000/svg" xmlns:xlink="http://www.w3.org/1999/xlink" contentStyleType="text/css" height="1037px" preserveAspectRatio="none" style="width:1185px;height:1037px;background:#FFFFFF;" version="1.1" viewBox="0 0 1185 1037" width="1185px" zoomAndPan="magnify"><defs/><g><polygon fill="none" points="460.5313,15,460.5313,15.2102,470.5962,14.5857,480.6611,15.1933,490.726,15.3997,500.7909,14.2866,510.8558,14.9223,520.9207,14.5735,530.9856,14.6165,541.0505,14.9318,551.1154,14.3086,561.1803,15.5536,571.2452,14.3697,581.3101,14.8022,591.375,15.4319,601.4399,14.9142,611.5048,15.0682,621.5697,14.9681,631.6346,15.1785,641.6995,15.2391,651.7644,15.5857,661.8293,15.6711,671.8942,15.6793,681.9591,15.2546,692.024,15.4636,702.0889,15.7022,712.1538,14.2788,722.2188,15,722.4449,15,722.1199,20.8136,722.3967,26.6272,722.0537,32.4408,722.1959,38.2543,722.2188,44.0679,722.2188,44.8095,712.1538,44.0192,702.0889,44.1732,692.024,44.4065,681.9591,44.4841,671.8942,44.064,661.8293,44.3551,651.7644,43.4955,641.6995,44.3523,631.6346,44.6161,621.5697,44.5124,611.5048,44.6809,601.4399,43.5848,591.375,43.4157,581.3101,43.4465,571.2452,44.009,561.1803,43.8714,551.1154,44.7493,541.0505,43.8932,530.9856,43.7249,520.9207,44.2962,510.8558,43.4011,500.7909,43.5488,490.726,44.7169,480.6611,44.5036,470.5962,44.8024,460.5313,44.0679,460.424,44.0679,460.6376,38.2543,460.7281,32.4408,460.3738,26.6272,460.4993,20.8136,460.5313,15" style="stroke:#000000;stroke-width:1.0;"/><text fill="#000000" font-family="sans-serif" font-size="14" font-weight="bold" lengthAdjust="spacing" text-decoration="underline" textLength="251.6875" x="465.5313" y="34.9659">Send a Transaction to Another User</text><path d="M568.25,50.0679 L568.4368,50.0679 L567.8817,52.0385 L568.4218,54.0091 L568.6053,55.9797 L567.6159,57.9503 L568.25,59.9209 L568.2365,59.8532 L564.1757,60.3492 L560.1831,61.1867 L556.2381,62.2615 L552.1295,62.5183 L548.25,63.9209 L548.3465,64.4035 L552.1401,64.1716 L556.2155,65.3485 L560.3253,66.6974 L564.235,67.0462 L568.25,67.9209 L568.3107,67.9209 L568.2216,69.8915 L568.4087,71.8621 L568.4626,73.8327 L568.7706,75.8033 L568.25,77.7739 L568.25,77.7739 L568.25,79.5634 L578.25,79.5853 L588.25,78.4529 L598.25,79.0102 L608.25,79.6466 L618.25,77.7739 L618.25,77.7739 L617.6089,77.7739 L618.8531,74.2327 L617.9864,70.6915 L618.7245,67.1503 L617.81,63.6091 L618.25,60.0679 L618.2069,60.0249 L616.7161,58.534 L614.2194,56.0373 L612.3162,54.1341 L610.4628,52.2808 L608.25,50.0679 L608.25,50.4379 L600.25,50.0644 L592.25,50.3232 L584.25,49.5591 L576.25,50.3207 L568.25,50.0679 L568.25,50.0679 " fill="#FEFFDD" style="stroke:#181818;stroke-width:0.5;"/><path d="M608.25,50.0679 L608.4368,50.0679 L607.8817,52.0679 L608.4218,54.0679 L608.6053,56.0679 L607.6159,58.0679 L608.25,60.0679 L608.25,59.9988 L610.25,59.6888 L612.25,59.727 L614.25,60.0073 L616.25,59.4534 L618.25,60.0679 L618.598,60.4159 L615.8538,57.6718 L614.1257,55.9436 L612.5215,54.3394 L610.1961,52.014 L608.25,50.0679 " fill="#FEFFDD" style="stroke:#181818;stroke-width:0.5;"/><text fill="#000000" font-family="sans-serif" font-size="13" lengthAdjust="spacing" textLength="29" x="574.25" y="68.9649">Start</text><polygon fill="#222222" points="548.3052,66.3533,546.8394,68.3562,545.1056,71.2897,542.626,73.2667,540.0203,74.3478,537.9427,74.4417,535.2724,73.0896,532.7529,72.2063,530.8405,70.4129,529.8373,68.3598,529.2424,66.725,528.6596,64.5897,527.7136,62.7523,528.4406,60.9582,529.0775,58.9929,531.4675,57.4386,533.1491,55.4219,535.2304,54.7522,537.7047,54.1755,540.8776,54.5182,542.6155,55.3378,544.6361,55.7093,547.0929,58.2264,547.9493,60.8836,548.3214,62.6967,547.9,65.6844" style="stroke:#222222;stroke-width:1.0;"/><path d="M763.25,87.7739 L763.8105,87.7739 L762.1451,96.8269 L763.7654,105.8799 L764.3158,114.933 L761.3476,123.986 L763.25,133.039 L763.2365,132.9712 L759.1757,133.4672 L755.1831,134.3047 L751.2381,135.3796 L747.1295,135.6364 L743.25,137.039 L743.3465,137.5215 L747.1401,137.2896 L751.2155,138.4666 L755.3253,139.8155 L759.235,140.1642 L763.25,141.039 L763.432,141.039 L763.1648,150.092 L763.7261,159.145 L763.8877,168.198 L764.8118,177.251 L763.25,186.304 L763.25,186.304 L763.25,188.0935 L773.3929,188.1154 L783.5357,186.983 L793.6786,187.5402 L803.8214,188.1766 L813.9643,184.3809 L824.1071,188.1134 L834.25,185.5133 L844.3929,187.7275 L854.5357,184.984 L864.6786,186.1214 L874.8214,188.2816 L884.9643,186.1741 L895.1071,186.5848 L905.25,187.207 L915.3929,187.414 L925.5357,186.2936 L935.6786,187.0699 L945.8214,184.7776 L955.9643,187.0624 L966.1071,187.7659 L976.25,186.304 L976.25,186.304 L977.4354,186.304 L977.8847,176.4673 L974.9618,166.6307 L974.5108,156.794 L974.5929,146.9573 L976.093,137.1206 L975.7259,127.284 L978.0671,117.4473 L975.7842,107.6106 L976.25,97.7739 L976.0344,97.5583 L974.3935,95.9174 L971.8309,93.3548 L969.9237,91.4476 L968.6579,90.1818 L966.25,87.7739 L966.25,88.9357 L956.1,89.7326 L945.95,86.9158 L935.8,88.6251 L925.65,89.3484 L915.5,86.5142 L905.35,87.5183 L895.2,88.1099 L885.05,89.512 L874.9,87.7628 L864.75,89.0074 L854.6,86.2972 L844.45,85.9679 L834.3,89.1169 L824.15,85.8621 L814,89.1312 L803.85,88.3249 L793.7,87.0595 L783.55,86.8305 L773.4,88.9973 L763.25,87.7739 L763.25,87.7739 " fill="#FEFFDD" style="stroke:#181818;stroke-width:0.5;"/><path d="M966.25,87.7739 L966.4368,87.7739 L965.8817,89.7739 L966.4218,91.7739 L966.6053,93.7739 L965.6159,95.7739 L966.25,97.7739 L966.25,97.7049 L968.25,97.3948 L970.25,97.433 L972.25,97.7133 L974.25,97.1594 L976.25,97.7739 L976.598,98.1219 L973.8538,95.3778 L972.1257,93.6496 L970.5215,92.0454 L968.1961,89.72 L966.25,87.7739 " fill="#FEFFDD" style="stroke:#181818;stroke-width:0.5;"/><text fill="#000000" font-family="sans-serif" font-size="13" lengthAdjust="spacing" textLength="68" x="769.25" y="106.6709">JSON Body:</text><text fill="#000000" font-family="sans-serif" font-size="13" lengthAdjust="spacing" textLength="5" x="769.25" y="124.377">{</text><text fill="#000000" font-family="sans-serif" font-size="13" lengthAdjust="spacing" textLength="180" x="781.25" y="142.083">"receiver_account_id": "UUID",</text><text fill="#000000" font-family="sans-serif" font-size="13" lengthAdjust="spacing" textLength="112" x="781.25" y="159.789">"amount": "10.000"</text><text fill="#000000" font-family="sans-serif" font-size="13" lengthAdjust="spacing" textLength="5" x="769.25" y="177.495">}</text><polygon fill="#F1F1F1" points="345.75,118.8669,345.75,119.0771,355.6218,118.4526,365.4936,119.0602,375.3654,119.2666,385.2372,118.1535,395.109,118.7892,404.9808,118.4404,414.8526,118.4834,424.7244,118.7988,434.5962,118.1755,444.4679,119.4206,454.3397,118.2366,464.2115,118.6692,474.0833,119.2989,483.9551,118.7811,493.8269,118.9352,503.6987,118.835,513.5705,119.0454,523.4423,119.1061,533.3141,119.4526,543.1859,119.538,553.0577,119.5462,562.9295,119.1215,572.8013,119.3305,582.6731,119.5691,592.5449,118.1457,602.4167,119.5454,612.2885,118.5704,622.1603,119.4007,632.0321,118.3719,641.9038,118.7984,651.7756,119.6085,661.6474,118.8182,671.5192,118.9722,681.391,119.2055,691.2628,119.2831,701.1346,118.863,711.0064,119.1541,720.8782,118.2945,730.75,118.8669,730.7863,118.9545,732.5877,119.768,734.3422,120.4683,736.1315,121.2524,737.7594,121.6471,739.5888,122.5281,739.388,122.4449,740.1297,124.2166,741.0352,126.0561,741.725,127.8063,742.7276,129.6861,743.25,131.3669,743.1918,131.3669,743.1356,133.6357,743.3261,135.9046,743.0277,138.1734,743.077,140.4422,743.25,142.711,743.4499,142.7938,742.6519,144.5344,742.0117,146.3403,740.9542,147.9733,740.4194,149.8228,739.5888,151.5499,739.6641,151.7317,737.7608,152.1366,736.0411,152.9848,734.3016,153.7854,732.6009,154.6795,730.75,155.211,730.75,155.2068,720.8782,155.6736,711.0064,154.6572,701.1346,154.5338,691.2628,155.7146,681.391,154.4941,671.5192,155.72,661.6474,155.4177,651.7756,154.9431,641.9038,154.8573,632.0321,155.6698,622.1603,154.9117,612.2885,155.8029,602.4167,154.6583,592.5449,155.8285,582.6731,155.6953,572.8013,155.456,562.9295,155.2583,553.0577,155.9376,543.1859,155.8246,533.3141,155.3803,523.4423,155.4792,513.5705,155.0808,503.6987,155.9275,493.8269,155.3659,483.9551,155.3836,474.0833,154.6027,464.2115,154.8058,454.3397,155.7418,444.4679,155.6408,434.5962,155.1681,424.7244,154.8889,414.8526,154.9921,404.9808,154.5249,395.109,155.6258,385.2372,155.9506,375.3654,155.7374,365.4936,155.906,355.6218,155.0743,345.75,155.211,345.7611,155.2379,343.9328,154.3594,342.2507,153.834,340.4782,153.0903,338.7494,152.4522,336.9112,151.5499,336.8404,151.5206,336.1375,149.765,335.5833,148.0709,334.8892,146.3189,333.8244,144.4134,333.25,142.711,333.1854,142.711,333.2998,140.4422,333.0464,138.1734,333.3678,135.9046,333.336,133.6357,333.25,131.3669,333.219,131.3541,334.026,129.6173,334.9389,127.9243,335.3503,126.0237,336.2759,124.336,336.9112,122.5281,336.9476,122.6161,338.6937,121.8315,340.4647,121.107,342.2289,120.3663,343.9026,119.4069,345.75,118.8669" style="stroke:#181818;stroke-width:0.5;"/><text fill="#000000" font-family="sans-serif" font-size="12" lengthAdjust="spacing" textLength="390" x="343.25" y="141.695">Receive POST request to /transactions/send with Authorization header</text><polygon fill="#F1F1F1" points="420.25,206.304,420.25,206.5142,430.0833,205.8897,439.9167,206.4973,449.75,206.7037,459.5833,205.5906,469.4167,206.2263,479.25,205.8775,489.0833,205.9205,498.9167,206.2359,508.75,205.6126,518.5833,206.8577,528.4167,205.6737,538.25,206.1062,548.0833,206.736,557.9167,206.2182,567.75,206.3723,577.5833,206.2721,587.4167,206.4825,597.25,206.5431,607.0833,206.8897,616.9167,206.9751,626.75,206.9833,636.5833,206.5586,646.4167,206.7676,656.25,206.304,656.3396,206.5203,657.9258,206.8142,659.8721,207.9774,661.5155,208.4094,663.3892,209.3973,665.0888,209.9652,664.9364,209.902,665.8,211.7242,666.7817,213.5953,667.2705,215.2623,668.0502,217.0497,668.75,218.804,668.8629,218.804,668.8887,221.0728,668.7487,223.3417,668.8457,225.6105,668.5592,227.8793,668.75,230.1481,668.8376,230.1844,668.1866,231.9858,667.4224,233.7404,666.7421,235.5296,665.6723,237.1576,665.0888,238.987,665.0056,238.7861,663.2418,239.5278,661.5458,240.4333,659.7605,241.1231,658.1047,242.1257,656.25,242.6481,656.25,242.4735,646.4167,242.3051,636.5833,242.8764,626.75,241.9813,616.9167,242.129,607.0833,243.2971,597.25,243.0838,587.4167,243.3826,577.5833,242.3263,567.75,242.9673,557.9167,243.2385,548.0833,242.1757,538.25,242.5523,528.4167,242.7741,518.5833,243.2999,508.75,242.6439,498.9167,243.1107,489.0833,242.0943,479.25,241.9709,469.4167,243.1517,459.5833,241.9312,449.75,243.1571,439.9167,242.8548,430.0833,242.3802,420.25,242.6481,420.2049,242.5392,418.5408,242.0572,416.6763,241.0915,415.0222,240.6337,413.1084,239.549,411.4112,238.987,411.6013,239.0657,410.8281,237.281,410.0221,235.4827,409.229,233.6897,408.706,232.0086,407.75,230.1481,407.9545,230.1481,407.8064,227.8793,407.8394,225.6105,407.7066,223.3417,407.9888,221.0728,407.75,218.804,407.7977,218.8238,408.5354,217.0583,409.0271,215.1909,409.8219,213.449,410.8424,211.8007,411.4112,209.9652,411.466,210.0975,413.1735,209.2197,414.9056,208.4015,416.6865,207.7011,418.3947,206.8249,420.25,206.304" style="stroke:#181818;stroke-width:0.5;"/><text fill="#000000" font-family="sans-serif" font-size="12" lengthAdjust="spacing" textLength="241" x="417.75" y="229.1321">Run Authorization Token Validation Process</text><polygon fill="#F1F1F1" points="428.75,262.6481,428.75,262.8583,438.7045,262.2338,448.6591,262.8414,458.6136,263.0478,468.5682,261.9347,478.5227,262.5704,488.4773,262.2216,498.4318,262.2646,508.3864,262.58,518.3409,261.9568,528.2955,263.2018,538.25,262.0178,548.2045,262.4504,558.1591,263.0801,568.1136,262.5624,578.0682,262.7164,588.0227,262.6162,597.9773,262.8267,607.9318,262.8873,617.8864,263.2338,627.8409,263.3192,637.7955,263.3274,647.75,262.6481,647.7825,262.7265,649.5769,263.5231,651.3751,264.3289,652.9613,264.6227,654.9076,265.786,656.5888,266.3093,656.4975,266.2715,657.4855,268.1452,657.9009,269.7817,658.7644,271.6039,659.7462,273.475,660.25,275.1481,660.2338,275.1481,660.2851,277.417,660.3629,279.6858,660.3887,281.9546,660.2487,284.2234,660.25,286.4922,660.3385,286.5289,659.3415,288.187,658.8731,290.0641,658.2221,291.8655,657.458,293.62,656.5888,295.3311,656.667,295.5199,654.7594,295.9145,652.9701,296.5947,651.2063,297.3364,649.5103,298.2419,647.75,298.9922,647.75,298.7957,637.7955,299.6737,627.8409,298.8176,617.8864,298.6492,607.9318,299.2205,597.9773,298.3254,588.0227,298.4731,578.0682,299.6412,568.1136,299.4279,558.1591,299.7267,548.2045,298.6705,538.25,299.3114,528.2955,299.5827,518.3409,298.5198,508.3864,298.8964,498.4318,299.1182,488.4773,299.644,478.5227,298.9881,468.5682,299.4548,458.6136,298.4385,448.6591,298.315,438.7045,299.4959,428.75,298.9922,428.6585,298.7715,427.0472,298.4168,425.2408,297.5914,423.4125,296.713,421.6338,295.9544,419.9112,295.3311,420.0524,295.3896,419.0867,293.5251,418.629,291.871,417.5442,289.9573,417.1724,288.3388,416.25,286.4922,416.4114,286.4922,416.3317,284.2234,416.2657,281.9546,416.4922,279.6858,416.4545,277.417,416.25,275.1481,416.3021,275.1697,417.0648,273.4146,417.6743,271.596,418.6673,269.9362,419.2266,268.0968,419.9112,266.3093,419.9332,266.3624,421.6013,265.3897,423.395,264.72,425.2822,264.276,427.0371,263.5127,428.75,262.6481" style="stroke:#181818;stroke-width:0.5;"/><text fill="#000000" font-family="sans-serif" font-size="12" lengthAdjust="spacing" textLength="224" x="426.25" y="285.4762">Validate request body for required fields</text><polygon fill="#F1F1F1" points="480.25,318.9922,480.25,319.2024,489.9167,318.5779,499.5833,319.1855,509.25,319.3919,518.9167,318.2788,528.5833,318.9145,538.25,318.5658,547.9167,318.6087,557.5833,318.9241,567.25,318.3009,576.9167,319.5459,586.5833,318.362,596.25,318.9922,596.2034,318.9456,598.7518,321.4941,601.0298,323.772,603.4661,326.2083,605.8425,328.5847,608.25,330.9922,608.2921,331.0343,605.9064,333.4486,603.588,335.9303,601.2082,338.3504,598.8101,340.7523,596.25,342.9922,596.25,343.2469,586.5833,343.4558,576.9167,343.6945,567.25,342.2711,557.5833,343.6708,547.9167,342.6957,538.25,343.5261,528.5833,342.4972,518.9167,342.9237,509.25,343.7339,499.5833,342.9435,489.9167,343.0975,480.25,342.9922,480.3298,343.0721,477.9481,340.6904,475.4491,338.1913,473.1177,335.8599,470.5151,333.2573,468.25,330.9922,468.317,331.0593,470.7792,328.7215,473.1548,326.297,475.5945,323.9367,477.7361,321.2784,480.25,318.9922" style="stroke:#181818;stroke-width:0.5;"/><text fill="#000000" font-family="sans-serif" font-size="11" lengthAdjust="spacing" textLength="116" x="480.25" y="335.2602">Request body is valid?</text><text fill="#000000" font-family="sans-serif" font-size="11" lengthAdjust="spacing" textLength="17" x="451.25" y="327.7693">yes</text><text fill="#000000" font-family="sans-serif" font-size="11" lengthAdjust="spacing" textLength="14" x="608.25" y="327.7693">no</text><polygon fill="#F1F1F1" points="68.75,352.9922,68.75,353.2024,78.681,352.5779,88.6121,353.1855,98.5431,353.3919,108.4741,352.2788,118.4052,352.9145,128.3362,352.5658,138.2672,352.6087,148.1983,352.9241,158.1293,352.3009,168.0603,353.5459,177.9914,352.362,187.9224,352.7945,197.8534,353.4242,207.7845,352.9065,217.7155,353.0605,227.6466,352.9603,237.5776,353.1708,247.5086,353.2314,257.4397,353.5779,267.3707,353.6633,277.3017,353.6715,287.2328,353.2469,297.1638,353.4558,307.0948,353.6945,317.0259,352.2711,326.9569,353.6708,336.8879,352.6957,346.819,353.5261,356.75,352.9922,356.6869,352.8398,358.509,353.7034,360.3801,354.6851,362.0471,355.1739,363.8345,355.9536,365.5888,356.6534,365.6931,356.6966,366.4493,358.4743,367.0521,360.1884,367.874,361.9933,368.3415,363.6515,369.25,365.4922,369.3448,365.4922,369.4327,367.7611,369.3982,370.0299,369.4543,372.2987,369.089,374.5675,369.25,376.8364,369.0492,376.7532,368.3264,378.5249,367.7674,380.3644,366.9928,382.1146,366.5309,383.9943,365.5888,385.6752,365.5666,385.6214,363.7773,386.3018,362.0824,387.21,360.2005,387.6665,358.4515,388.4443,356.75,389.3364,356.75,389.9853,346.819,389.772,336.8879,390.0708,326.9569,389.0146,317.0259,389.6556,307.0948,389.9268,297.1638,388.864,287.2328,389.2405,277.3017,389.4623,267.3707,389.9881,257.4397,389.3322,247.5086,389.7989,237.5776,388.7826,227.6466,388.6591,217.7155,389.84,207.7845,388.6194,197.8534,389.8453,187.9224,389.543,177.9914,389.0684,168.0603,388.9826,158.1293,389.7951,148.1983,389.037,138.2672,389.9282,128.3362,388.7836,118.4052,389.9538,108.4741,389.8207,98.5431,389.5813,88.6121,389.3836,78.681,390.063,68.75,389.3364,68.8283,389.5253,67.0038,388.6562,65.2487,387.9545,63.4301,387.0995,61.7703,386.6281,59.9112,385.6752,59.9589,385.6949,59.2321,383.9294,58.2594,382.0621,57.5897,380.3202,57.1457,378.6718,56.25,376.8364,56.3933,376.8364,56.2357,374.5675,56.1426,372.2987,56.177,370.0299,56.0213,367.7611,56.25,365.4922,56.3777,365.5451,57.21,363.8188,57.8766,362.0239,58.6607,360.2776,59.1368,358.4037,59.9112,356.6534,59.9223,356.6803,61.6295,355.8018,63.4829,355.2764,65.2459,354.5327,67.0527,353.8946,68.75,352.9922" style="stroke:#181818;stroke-width:0.5;"/><text fill="#000000" font-family="sans-serif" font-size="12" lengthAdjust="spacing" textLength="293" x="66.25" y="375.8203">Check if the receiver account ID is correctly provided</text><polygon fill="#F1F1F1" points="142.75,409.3364,142.75,409.5465,152.75,408.922,162.75,409.5296,172.75,409.736,182.75,408.623,192.75,409.2586,202.75,408.9099,212.75,408.9529,222.75,409.2682,232.75,408.645,242.75,409.89,252.75,408.7061,262.75,409.1386,272.75,409.7683,282.75,409.3364,282.7298,409.3161,285.1661,411.7524,287.5425,414.1288,289.9921,416.5784,292.4064,418.9927,294.75,421.3364,294.888,421.4744,292.5082,423.8945,290.1101,426.2965,287.61,428.5964,285.2593,431.0456,282.75,433.3364,282.75,434.0386,272.75,432.6152,262.75,434.0149,252.75,433.0399,242.75,433.8702,232.75,432.8413,222.75,433.2679,212.75,434.078,202.75,433.2876,192.75,433.4417,182.75,433.675,172.75,433.7526,162.75,433.3325,152.75,433.6236,142.75,433.3364,142.6151,433.2014,140.417,431.0034,138.0792,428.6656,135.6548,426.2411,133.2945,423.8809,130.75,421.3364,130.6361,421.2225,132.9963,418.7826,135.4035,416.3899,137.9361,414.1225,140.3037,411.69,142.75,409.3364" style="stroke:#181818;stroke-width:0.5;"/><text fill="#000000" font-family="sans-serif" font-size="11" lengthAdjust="spacing" textLength="140" x="142.75" y="425.6043">Receiver account ID exists?</text><text fill="#000000" font-family="sans-serif" font-size="11" lengthAdjust="spacing" textLength="17" x="113.75" y="418.1134">yes</text><text fill="#000000" font-family="sans-serif" font-size="11" lengthAdjust="spacing" textLength="14" x="294.75" y="418.1134">no</text><polygon fill="#F1F1F1" points="62.75,443.3364,62.75,443.5465,72.4167,442.922,82.0833,443.5296,91.75,443.736,101.4167,442.623,111.0833,443.2586,120.75,442.9099,130.4167,442.9529,140.0833,443.2682,149.75,442.645,159.4167,443.89,169.0833,442.7061,178.75,443.3364,178.7248,443.2755,180.5729,444.2016,182.2746,444.7744,184.062,445.5541,185.817,446.2555,187.5888,446.9975,187.6438,447.0203,188.3947,448.7958,189.2337,450.6078,189.9922,452.3864,190.727,454.1552,191.25,455.8364,191.3349,455.8364,191.4045,458.1052,191.4841,460.374,191.0096,462.6428,191.4762,464.9117,191.25,467.1805,191.1587,467.1427,190.6822,469.0163,189.6331,470.6529,189.0322,472.475,188.5495,474.3461,187.5888,476.0193,187.5826,476.0043,185.8345,476.784,184.0965,477.5881,182.3386,478.3442,180.5173,478.947,178.75,479.6805,178.75,479.9677,169.0833,479.1081,159.4167,479.9649,149.75,480.2287,140.0833,480.125,130.4167,480.2935,120.75,479.1974,111.0833,479.0283,101.4167,479.0591,91.75,479.6216,82.0833,479.4839,72.4167,480.3619,62.75,479.6805,62.7277,479.6267,60.9385,478.8426,59.2436,478.2863,57.3616,477.2784,55.6127,476.5917,53.9112,476.0193,54.111,476.1021,53.3131,474.3071,52.6729,472.5775,51.6154,470.675,51.0805,468.989,50.25,467.1805,50.4468,467.1805,50.0925,464.9117,50.218,462.6428,50.292,460.374,50.4673,458.1052,50.25,455.8364,50.2487,455.8358,51.1247,454.1276,51.5439,452.2302,52.2381,450.4467,53.334,448.8295,53.9112,446.9975,53.8197,446.7767,55.7439,446.422,57.4731,445.5967,59.1803,444.7183,60.9371,443.9596,62.75,443.3364" style="stroke:#181818;stroke-width:0.5;"/><text fill="#000000" font-family="sans-serif" font-size="12" lengthAdjust="spacing" textLength="121" x="60.25" y="466.1644">Get receiver currency</text><path d="M401.75,447.6554 L401.9368,447.6554 L401.3817,449.626 L401.9218,451.5966 L402.1053,453.5672 L401.1159,455.5378 L401.75,457.5084 L401.7365,457.4407 L397.6757,457.9367 L393.6831,458.7741 L389.7381,459.849 L385.6295,460.1058 L381.75,461.5084 L381.8465,461.991 L385.6401,461.759 L389.7155,462.936 L393.8253,464.2849 L397.735,464.6337 L401.75,465.5084 L401.8107,465.5084 L401.7216,467.479 L401.9087,469.4496 L401.9626,471.4202 L402.2706,473.3908 L401.75,475.3614 L401.75,475.3614 L401.75,477.1509 L411.6111,477.1728 L421.4722,476.0404 L431.3333,476.5977 L441.1944,477.234 L451.0556,473.4383 L460.9167,477.1708 L470.7778,474.5707 L480.6389,476.7849 L490.5,474.0414 L500.3611,475.1788 L510.2222,477.339 L520.0833,475.2315 L529.9444,475.6422 L539.8056,476.2644 L549.6667,476.4714 L559.5278,475.351 L569.3889,476.1273 L579.25,473.835 L589.1111,476.1198 L598.9722,476.8233 L608.8333,476.5468 L618.6944,476.9962 L628.5556,474.0732 L638.4167,473.6223 L648.2778,473.7044 L658.1389,475.2044 L668,474.8373 L677.8611,477.1785 L687.7222,474.8956 L697.5833,474.4466 L707.4444,475.9701 L717.3056,473.5832 L727.1667,473.9771 L737.0278,477.092 L746.8889,476.5232 L756.75,475.3614 L756.75,475.3614 L757.4029,475.3614 L756.464,471.8202 L757.0337,468.279 L757.2748,464.7378 L756.3301,461.1966 L756.75,457.6554 L756.6897,457.5952 L754.8292,455.7346 L753.1597,454.0651 L750.7474,451.6528 L749.0407,449.9462 L746.75,447.6554 L746.75,446.1786 L736.8929,445.8494 L727.0357,448.9984 L717.1786,445.7436 L707.3214,449.0126 L697.4643,448.2064 L687.6071,446.941 L677.75,446.712 L667.8929,448.8788 L658.0357,446.8572 L648.1786,449.2337 L638.3214,446.1814 L628.4643,449.3019 L618.6071,448.9469 L608.75,448.3087 L598.8929,447.7813 L589.0357,449.593 L579.1786,449.2916 L569.3214,448.1068 L559.4643,448.3706 L549.6071,447.308 L539.75,449.5659 L529.8929,448.0684 L520.0357,448.1156 L510.1786,446.0331 L500.3214,446.5748 L490.4643,449.0707 L480.6071,448.8014 L470.75,447.5409 L460.8929,446.7963 L451.0357,447.0716 L441.1786,445.8256 L431.3214,448.7614 L421.4643,449.6276 L411.6071,449.0591 L401.75,447.6554 L401.75,447.6554 " fill="#FEFFDD" style="stroke:#181818;stroke-width:0.5;"/><path d="M746.75,447.6554 L746.9368,447.6554 L746.3817,449.6554 L746.9218,451.6554 L747.1053,453.6554 L746.1159,455.6554 L746.75,457.6554 L746.75,457.5863 L748.75,457.2763 L750.75,457.3145 L752.75,457.5948 L754.75,457.0409 L756.75,457.6554 L757.098,458.0034 L754.3538,455.2593 L752.6257,453.5311 L751.0215,451.9269 L748.6961,449.6015 L746.75,447.6554 " fill="#FEFFDD" style="stroke:#181818;stroke-width:0.5;"/><text fill="#000000" font-family="sans-serif" font-size="13" lengthAdjust="spacing" textLength="334" x="407.75" y="466.5524">{"detail": "Receiver account ID is not correctly provided"}</text><polygon fill="#F1F1F1" points="240.25,443.3364,240.25,443.5465,250.1731,442.922,260.0962,443.5296,270.0192,443.736,279.9423,442.623,289.8654,443.2586,299.7885,442.9099,309.7115,442.9529,319.6346,443.2682,329.5577,442.645,339.4808,443.89,349.4038,442.7061,359.3269,443.1386,369.25,443.3364,369.3051,443.4694,371.0068,444.0422,372.7942,444.8218,374.5492,445.5232,376.3438,446.3203,378.0888,446.9975,378.1625,447.028,379.0014,448.84,379.76,450.6187,380.4947,452.3875,381.0962,454.1011,381.75,455.8364,381.9045,455.8364,381.9841,458.1052,381.5096,460.374,381.9762,462.6428,381.6512,464.9117,381.75,467.1805,381.9144,467.2486,380.8653,468.8851,380.2644,470.7073,379.7817,472.5784,378.8061,474.2453,378.0888,476.0193,378.1023,476.0517,376.3643,476.8558,374.6064,477.612,372.785,478.2148,371.0544,479.0367,369.25,479.6805,369.25,479.1081,359.3269,479.9649,349.4038,480.2287,339.4808,480.125,329.5577,480.2935,319.6346,479.1974,309.7115,479.0283,299.7885,479.0591,289.8654,479.6216,279.9423,479.4839,270.0192,480.3619,260.0962,479.5058,250.1731,479.3374,240.25,479.6805,240.2791,479.7508,238.3972,478.7429,236.6482,478.0561,235.0295,477.6836,233.2345,476.8857,231.4112,476.0193,231.6374,476.113,230.5798,474.2105,230.045,472.5245,229.3963,470.7913,228.3368,468.888,227.75,467.1805,227.718,467.1805,227.792,464.9117,227.9673,462.6428,227.7486,460.374,227.9042,458.1052,227.75,455.8364,227.5795,455.7657,228.2737,453.9822,229.3696,452.3651,229.7259,450.4416,230.8357,448.8302,231.4112,446.9975,231.4375,447.0612,233.1448,446.1828,234.9016,445.4241,236.773,444.9421,238.444,443.9764,240.25,443.3364" style="stroke:#181818;stroke-width:0.5;"/><text fill="#000000" font-family="sans-serif" font-size="12" lengthAdjust="spacing" textLength="134" x="237.75" y="466.1644">Return 400 Bad Request</text><path d="M229.75,496.8275 L229.9368,496.8275 L229.3817,502.3687 L229.9218,507.9099 L230.1053,513.4511 L229.1159,518.9923 L229.75,524.5335 L229.75,524.5335 L229.75,524.4644 L238.55,524.1544 L247.35,524.1926 L256.15,524.4729 L264.95,523.9189 L273.75,524.5335 L273.75,524.5335 L274.2421,524.5335 L273.1898,522.5923 L273.5742,520.6511 L274.134,518.7099 L273.6738,516.7687 L273.75,514.8275 L273.7623,514.8869 L277.7442,513.9703 L281.7822,513.3241 L285.7932,512.5474 L289.8557,512.0196 L293.75,510.6805 L293.8628,511.2662 L289.8642,510.5028 L285.7928,509.3615 L281.828,508.7733 L277.8681,508.211 L273.75,506.8275 L273.2967,506.3742 L272.1765,505.2539 L269.5636,502.6411 L268.0855,501.163 L265.4389,498.5163 L263.75,496.8275 L263.75,496.7666 L256.95,497.4867 L250.15,496.7841 L243.35,496.9211 L236.55,497.1285 L229.75,496.8275 L229.75,496.8275 " fill="#FEFFDD" style="stroke:#181818;stroke-width:0.5;"/><path d="M263.75,496.8275 L263.9368,496.8275 L263.3817,498.8275 L263.9218,500.8275 L264.1053,502.8275 L263.1159,504.8275 L263.75,506.8275 L263.75,506.7584 L265.75,506.4484 L267.75,506.4866 L269.75,506.7669 L271.75,506.2129 L273.75,506.8275 L274.098,507.1755 L271.3538,504.4313 L269.6257,502.7032 L268.0215,501.099 L265.6961,498.7736 L263.75,496.8275 " fill="#FEFFDD" style="stroke:#181818;stroke-width:0.5;"/><text fill="#000000" font-family="sans-serif" font-size="13" lengthAdjust="spacing" textLength="23" x="235.75" y="515.7245">End</text><polygon fill="none" points="315.8108,513.3561,314.1984,515.5593,312.2912,518.7862,309.5636,520.9609,306.6974,522.1501,304.412,522.2533,301.4747,520.766,298.7032,519.7944,296.5995,517.8217,295.4961,515.5632,294.8417,513.765,294.2006,511.4162,293.16,509.3949,293.9596,507.4215,294.6602,505.2597,297.2893,503.55,299.139,501.3316,301.4284,500.5949,304.1501,499.9605,307.6404,500.3374,309.5521,501.239,311.7747,501.6477,314.4772,504.4165,315.4193,507.3394,315.8286,509.3338,315.365,512.6203" style="stroke:#222222;stroke-width:1.0;"/><polygon fill="#222222" points="310.7831,512.1399,309.9036,513.3416,308.8634,515.1018,307.3756,516.288,305.8122,516.9366,304.5656,516.9929,302.9635,516.1817,301.4517,515.6517,300.3043,514.5757,299.7024,513.3438,299.3455,512.3629,298.9958,511.0818,298.4282,509.9793,298.8643,508.9028,299.2465,507.7237,300.6805,506.7911,301.6894,505.5811,302.9382,505.1793,304.4228,504.8332,306.3266,505.0388,307.3693,505.5306,308.5817,505.7535,310.0557,507.2637,310.5696,508.8581,310.7929,509.9459,310.54,511.7386" style="stroke:#222222;stroke-width:1.0;"/><path d="M960.75,357.3113 L960.9368,357.3113 L960.3817,359.2819 L960.9218,361.2525 L961.1053,363.2231 L960.1159,365.1937 L960.75,367.1643 L960.7365,367.0966 L956.6757,367.5926 L952.6831,368.43 L948.7381,369.5049 L944.6295,369.7617 L940.75,371.1643 L940.8465,371.6469 L944.6401,371.4149 L948.7155,372.5919 L952.8253,373.9408 L956.735,374.2895 L960.75,375.1643 L960.8107,375.1643 L960.7216,377.1349 L960.9087,379.1055 L960.9626,381.0761 L961.2706,383.0467 L960.75,385.0173 L960.75,385.0173 L960.75,386.8068 L970.8929,386.8287 L981.0357,385.6963 L991.1786,386.2535 L1001.3214,386.8899 L1011.4643,383.0941 L1021.6071,386.8267 L1031.75,384.2266 L1041.8929,386.4408 L1052.0357,383.6972 L1062.1786,384.8346 L1072.3214,386.9949 L1082.4643,384.8874 L1092.6071,385.2981 L1102.75,385.9203 L1112.8929,386.1273 L1123.0357,385.0069 L1133.1786,385.7832 L1143.3214,383.4909 L1153.4643,385.7757 L1163.6071,386.4792 L1173.75,385.0173 L1173.75,385.0173 L1174.1451,385.0173 L1174.2949,381.4761 L1173.3206,377.9349 L1173.1703,374.3937 L1173.1976,370.8525 L1173.75,367.3113 L1173.713,367.2743 L1171.6265,365.1878 L1170.1783,363.7396 L1167.6402,361.2015 L1165.5344,359.0957 L1163.75,357.3113 L1163.75,357.92 L1153.6,355.5331 L1143.45,355.927 L1133.3,359.0418 L1123.15,358.4731 L1113,359.2699 L1102.85,356.4532 L1092.7,358.1625 L1082.55,358.8857 L1072.4,356.0515 L1062.25,357.0557 L1052.1,357.6472 L1041.95,359.0493 L1031.8,357.3001 L1021.65,358.5448 L1011.5,355.8345 L1001.35,355.5053 L991.2,358.6543 L981.05,355.3995 L970.9,358.6685 L960.75,357.3113 L960.75,357.3113 " fill="#FEFFDD" style="stroke:#181818;stroke-width:0.5;"/><path d="M1163.75,357.3113 L1163.9368,357.3113 L1163.3817,359.3113 L1163.9218,361.3113 L1164.1053,363.3113 L1163.1159,365.3113 L1163.75,367.3113 L1163.75,367.2422 L1165.75,366.9322 L1167.75,366.9704 L1169.75,367.2507 L1171.75,366.6967 L1173.75,367.3113 L1174.098,367.6593 L1171.3538,364.9151 L1169.6257,363.187 L1168.0215,361.5828 L1165.6961,359.2574 L1163.75,357.3113 " fill="#FEFFDD" style="stroke:#181818;stroke-width:0.5;"/><text fill="#000000" font-family="sans-serif" font-size="13" lengthAdjust="spacing" textLength="192" x="966.75" y="376.2083">{"detail": "Invalid request body"}</text><polygon fill="#F1F1F1" points="799.25,352.9922,799.25,353.2024,809.1731,352.5779,819.0962,353.1855,829.0192,353.3919,838.9423,352.2788,848.8654,352.9145,858.7885,352.5658,868.7115,352.6087,878.6346,352.9241,888.5577,352.3009,898.4808,353.5459,908.4038,352.362,918.3269,352.7945,928.25,352.9922,928.3051,353.1253,930.0068,353.6981,931.7942,354.4777,933.5492,355.1791,935.3438,355.9762,937.0888,356.6534,937.1625,356.6839,938.0014,358.4959,938.76,360.2745,939.4947,362.0434,940.0962,363.757,940.75,365.4922,940.9045,365.4922,940.9841,367.7611,940.5096,370.0299,940.9762,372.2987,940.6512,374.5675,940.75,376.8364,940.9144,376.9045,939.8653,378.541,939.2644,380.3632,938.7817,382.2343,937.8061,383.9012,937.0888,385.6752,937.1023,385.7076,935.3643,386.5117,933.6064,387.2678,931.785,387.8707,930.0544,388.6926,928.25,389.3364,928.25,388.7639,918.3269,389.6207,908.4038,389.8846,898.4808,389.7809,888.5577,389.9494,878.6346,388.8533,868.7115,388.6842,858.7885,388.715,848.8654,389.2775,838.9423,389.1398,829.0192,390.0178,819.0962,389.1617,809.1731,388.9933,799.25,389.3364,799.2791,389.4067,797.3972,388.3988,795.6482,387.712,794.0295,387.3395,792.2345,386.5416,790.4112,385.6752,790.6374,385.7689,789.5798,383.8664,789.045,382.1804,788.3963,380.4472,787.3368,378.5439,786.75,376.8364,786.718,376.8364,786.792,374.5675,786.9673,372.2987,786.7486,370.0299,786.9042,367.7611,786.75,365.4922,786.5795,365.4216,787.2737,363.6381,788.3696,362.021,788.7259,360.0975,789.8357,358.4861,790.4112,356.6534,790.4375,356.717,792.1448,355.8387,793.9016,355.08,795.773,354.598,797.444,353.6323,799.25,352.9922" style="stroke:#181818;stroke-width:0.5;"/><text fill="#000000" font-family="sans-serif" font-size="12" lengthAdjust="spacing" textLength="134" x="796.75" y="375.8203">Return 422 Bad Request</text><path d="M788.75,409.3364 L788.9368,409.3364 L788.3817,414.8776 L788.9218,420.4188 L789.1053,425.96 L788.1159,431.5012 L788.75,437.0424 L788.75,437.0424 L788.75,436.9733 L797.55,436.6633 L806.35,436.7015 L815.15,436.9818 L823.95,436.4278 L832.75,437.0424 L832.75,437.0424 L833.2421,437.0424 L832.1898,435.1012 L832.5742,433.16 L833.134,431.2188 L832.6738,429.2776 L832.75,427.3364 L832.7623,427.3958 L836.7442,426.4792 L840.7822,425.8329 L844.7932,425.0563 L848.8557,424.5285 L852.75,423.1894 L852.8628,423.7751 L848.8642,423.0116 L844.7928,421.8704 L840.828,421.2822 L836.8681,420.7199 L832.75,419.3364 L832.2967,418.8831 L831.1765,417.7628 L828.5636,415.15 L827.0855,413.6719 L824.4389,411.0252 L822.75,409.3364 L822.75,409.2755 L815.95,409.9956 L809.15,409.293 L802.35,409.43 L795.55,409.6374 L788.75,409.3364 L788.75,409.3364 " fill="#FEFFDD" style="stroke:#181818;stroke-width:0.5;"/><path d="M822.75,409.3364 L822.9368,409.3364 L822.3817,411.3364 L822.9218,413.3364 L823.1053,415.3364 L822.1159,417.3364 L822.75,419.3364 L822.75,419.2673 L824.75,418.9573 L826.75,418.9955 L828.75,419.2758 L830.75,418.7218 L832.75,419.3364 L833.098,419.6843 L830.3538,416.9402 L828.6257,415.2121 L827.0215,413.6079 L824.6961,411.2824 L822.75,409.3364 " fill="#FEFFDD" style="stroke:#181818;stroke-width:0.5;"/><text fill="#000000" font-family="sans-serif" font-size="13" lengthAdjust="spacing" textLength="23" x="794.75" y="428.2334">End</text><polygon fill="none" points="874.8108,425.865,873.1984,428.0682,871.2912,431.2951,868.5636,433.4698,865.6974,434.659,863.412,434.7622,860.4747,433.2749,857.7032,432.3033,855.5995,430.3305,854.4961,428.0721,853.8417,426.2739,853.2006,423.9251,852.16,421.9038,852.9596,419.9304,853.6602,417.7686,856.2893,416.0588,858.139,413.8405,860.4284,413.1038,863.1501,412.4694,866.6404,412.8463,868.5521,413.7479,870.7747,414.1566,873.4772,416.9253,874.4193,419.8483,874.8286,421.8427,874.365,425.1292" style="stroke:#222222;stroke-width:1.0;"/><polygon fill="#222222" points="869.7831,424.6488,868.9036,425.8505,867.8634,427.6107,866.3756,428.7969,864.8122,429.4455,863.5656,429.5018,861.9635,428.6906,860.4517,428.1606,859.3043,427.0846,858.7024,425.8527,858.3455,424.8718,857.9958,423.5907,857.4282,422.4882,857.8643,421.4117,858.2465,420.2326,859.6805,419.3,860.6894,418.09,861.9382,417.6882,863.4228,417.3421,865.3266,417.5477,866.3693,418.0395,867.5817,418.2624,869.0557,419.7726,869.5696,421.367,869.7929,422.4548,869.54,424.2475" style="stroke:#222222;stroke-width:1.0;"/><polygon fill="#F1F1F1" points="319.25,544.5335,319.25,544.7437,329.2045,544.1192,339.1591,544.7268,349.1136,544.9332,359.0682,543.8201,369.0227,544.4558,378.9773,544.107,388.9318,544.15,398.8864,544.4653,408.8409,543.8421,418.7955,545.0871,428.75,543.9032,438.7045,544.3357,448.6591,544.9654,458.6136,544.4477,468.5682,544.6017,478.5227,544.5015,488.4773,544.712,498.4318,544.7726,508.3864,545.1192,518.3409,545.2045,528.2955,545.2127,538.25,544.7881,548.2045,544.9971,558.1591,545.2357,568.1136,543.8123,578.0682,545.212,588.0227,544.237,597.9773,545.0673,607.9318,544.0385,617.8864,544.465,627.8409,545.2751,637.7955,544.4847,647.75,544.6388,657.7045,544.8721,667.6591,544.9497,677.6136,544.5296,687.5682,544.8207,697.5227,543.9611,707.4773,544.8179,717.4318,545.0817,727.3864,544.978,737.3409,545.1465,747.2955,544.0504,757.25,544.5335,757.1668,544.3326,758.9385,545.0743,760.778,545.9798,762.5282,546.6697,764.408,547.6723,766.0888,548.1946,766.035,548.1724,766.7154,549.9187,767.6236,551.7593,768.0802,553.4129,768.8579,555.1995,769.75,557.0335,769.9663,557.0335,769.8952,559.3023,769.9948,561.5711,769.6427,563.84,769.8564,566.1088,769.75,568.3776,769.9318,568.4529,768.8723,570.0851,768.256,571.9009,767.5921,573.697,767.0218,575.5318,766.0888,577.2164,766.0883,577.2151,764.3801,578.0911,762.4827,578.5104,760.6991,579.2046,759.082,580.3005,757.25,580.8776,757.25,580.1607,747.2955,581.3866,737.3409,581.0842,727.3864,580.6097,717.4318,580.5238,707.4773,581.3364,697.5227,580.5783,687.5682,581.4695,677.6136,580.3249,667.6591,581.495,657.7045,581.3619,647.75,581.1226,637.7955,580.9248,627.8409,581.6042,617.8864,581.4912,607.9318,581.0469,597.9773,581.1458,588.0227,580.7473,578.0682,581.594,568.1136,581.0325,558.1591,581.0502,548.2045,580.2692,538.25,580.4724,528.2955,581.4083,518.3409,581.3074,508.3864,580.8347,498.4318,580.5554,488.4773,580.6587,478.5227,580.1914,468.5682,581.2923,458.6136,581.6172,448.6591,581.404,438.7045,581.5725,428.75,580.7409,418.7955,580.9648,408.8409,580.49,398.8864,581.1616,388.9318,581.1244,378.9773,581.43,369.0227,580.6479,359.0682,580.7432,349.1136,581.3211,339.1591,581.4449,329.2045,580.3651,319.25,580.8776,319.2253,580.8179,317.5013,580.1913,315.6365,579.225,313.9918,578.7897,312.2118,578.0281,310.4112,577.2164,310.3801,577.2036,309.7227,575.4668,309.1711,573.7738,308.1181,571.8732,307.5792,570.1855,306.75,568.3776,306.8452,568.3776,306.7886,566.1088,306.797,563.84,306.7878,561.5711,306.5419,559.3023,306.75,557.0335,306.6266,556.9824,307.3401,555.2068,308.2341,553.5061,308.9738,551.7414,309.7287,549.983,310.4112,548.1946,310.374,548.105,312.1703,547.4416,313.9314,546.6932,315.7881,546.1756,317.5366,545.3971,319.25,544.5335" style="stroke:#181818;stroke-width:0.5;"/><text fill="#000000" font-family="sans-serif" font-size="12" lengthAdjust="spacing" textLength="443" x="316.75" y="567.3616">Get assosiated current user account and account currency and account balance</text><polygon fill="#F1F1F1" points="489.75,600.8776,489.75,601.0878,499.45,600.4633,509.15,601.0709,518.85,601.2773,528.55,600.1642,538.25,600.7999,547.95,600.4511,557.65,600.4941,567.35,600.8094,577.05,600.1862,586.75,600.8776,586.8805,601.0081,589.0014,603.129,591.5034,605.631,594.0518,608.1794,596.3298,610.4574,598.75,612.8776,598.7661,612.8937,596.3425,615.2701,593.9921,617.7197,591.6064,620.134,589.288,622.6156,586.75,624.8776,586.75,625.5486,577.05,625.5569,567.35,625.1322,557.65,625.3412,547.95,625.5798,538.25,624.1564,528.55,625.5561,518.85,624.5811,509.15,625.4114,499.45,624.3826,489.75,624.8776,489.7339,624.8615,487.5248,622.6524,484.9385,620.0661,482.5748,617.7024,480.2298,615.3574,477.75,612.8776,477.8481,612.9757,480.1491,610.4767,482.6177,608.1453,484.8151,605.5427,487.417,603.3446,489.75,600.8776" style="stroke:#181818;stroke-width:0.5;"/><text fill="#000000" font-family="sans-serif" font-size="11" lengthAdjust="spacing" textLength="97" x="489.75" y="617.1456">Sufficient balance?</text><text fill="#000000" font-family="sans-serif" font-size="11" lengthAdjust="spacing" textLength="17" x="460.75" y="609.6546">yes</text><text fill="#000000" font-family="sans-serif" font-size="11" lengthAdjust="spacing" textLength="14" x="598.75" y="609.6546">no</text><polygon fill="#F1F1F1" points="23.5,634.8776,23.5,635.0878,33.5217,634.4633,43.5435,635.0709,53.5652,635.2773,63.587,634.1642,73.6087,634.7999,83.6304,634.4511,93.6522,634.4941,103.6739,634.8094,113.6957,634.1862,123.7174,635.4312,133.7391,634.2473,143.7609,634.6798,153.7826,635.3095,163.8043,634.7918,173.8261,634.9458,183.8478,634.8456,193.8696,635.0561,203.8913,635.1167,213.913,635.4633,223.9348,635.5486,233.9565,635.5569,243.9783,635.1322,254,635.3412,264.0217,635.5798,274.0435,634.1564,284.0652,635.5561,294.087,634.5811,304.1087,635.4114,314.1304,634.3826,324.1522,634.8091,334.1739,635.6192,344.1957,634.8289,354.2174,634.9829,364.2391,635.2162,374.2609,635.2938,384.2826,634.8737,394.3043,635.1648,404.3261,634.3052,414.3478,635.162,424.3696,635.4258,434.3913,635.3221,444.413,635.4906,454.4348,634.3945,464.4565,634.2254,474.4783,634.2562,484.5,634.8776,484.4925,634.8595,486.2427,635.5493,488.1225,636.5519,489.781,637.0205,491.5273,637.7009,493.3388,638.5388,493.4091,638.5679,493.8657,640.2215,494.6434,642.0081,495.7354,643.9248,496.4019,645.6654,497,647.3776,497.2448,647.3776,496.8927,649.6464,497.1064,651.9152,497.1968,654.1841,496.8425,656.4529,497,658.7217,496.9705,658.7095,496.3066,660.5055,495.7362,662.3404,494.802,664.0245,494.2135,665.8518,493.3388,667.5605,493.2682,667.39,491.4847,668.0842,489.8675,669.1801,487.9441,669.5365,486.3327,670.6462,484.5,671.2217,484.5,671.4283,474.4783,670.9538,464.4565,670.8679,454.4348,671.6805,444.413,670.9224,434.3913,671.8136,424.3696,670.669,414.3478,671.8391,404.3261,671.706,394.3043,671.4667,384.2826,671.2689,374.2609,671.9483,364.2391,671.8353,354.2174,671.391,344.1957,671.4899,334.1739,671.0914,324.1522,671.9382,314.1304,671.3766,304.1087,671.3943,294.087,670.6134,284.0652,670.8165,274.0435,671.7525,264.0217,671.6515,254,671.1788,243.9783,670.8995,233.9565,671.0028,223.9348,670.5355,213.913,671.6364,203.8913,671.9613,193.8696,671.7481,183.8478,671.9166,173.8261,671.085,163.8043,671.3089,153.7826,670.8341,143.7609,671.5058,133.7391,671.4685,123.7174,671.7741,113.6957,670.9921,103.6739,671.0873,93.6522,671.6652,83.6304,671.789,73.6087,670.7092,63.587,671.0278,53.5652,671.371,43.5435,670.6109,33.5217,671.5751,23.5,671.2217,23.5329,671.3012,21.7194,670.4584,19.9826,669.8011,18.2896,669.2494,16.389,668.1964,14.6612,667.5605,14.7582,667.6007,14.0169,665.8292,13.2324,664.0398,12.5079,662.2752,11.7672,660.504,11,658.7217,10.7919,658.7217,10.8664,656.4529,10.8462,654.1841,11.0213,651.9152,11.0294,649.6464,11,647.3776,11.0498,647.3982,11.6426,645.5727,12.4437,643.8334,13.1597,642.059,14.1066,640.3801,14.6612,638.5388,14.7156,638.6701,16.367,637.657,18.1874,637.0518,19.8908,636.1643,21.769,635.6986,23.5,634.8776" style="stroke:#181818;stroke-width:0.5;"/><text fill="#000000" font-family="sans-serif" font-size="12" lengthAdjust="spacing" textLength="466" x="21" y="657.7057">Calculate exchange rate if currencies are different and add 5% fee to exchange rate</text><polygon fill="#F1F1F1" points="66.5,691.2217,66.5,691.4319,76.3684,690.8074,86.2368,691.415,96.1053,691.6214,105.9737,690.5083,115.8421,691.144,125.7105,690.7952,135.5789,690.8382,145.4474,691.1536,155.3158,690.5303,165.1842,691.7754,175.0526,690.5914,184.9211,691.0239,194.7895,691.6537,204.6579,691.1359,214.5263,691.2899,224.3947,691.1898,234.2632,691.4002,244.1316,691.4608,254,691.8074,263.8684,691.8928,273.7368,691.901,283.6053,691.4763,293.4737,691.6853,303.3421,691.9239,313.2105,690.5005,323.0789,691.9002,332.9474,690.9252,342.8158,691.7555,352.6842,690.7267,362.5526,691.1532,372.4211,691.9633,382.2895,691.173,392.1579,691.327,402.0263,691.5603,411.8947,691.6379,421.7632,691.2178,431.6316,691.5089,441.5,691.2217,441.427,691.0454,443.304,692.0415,445.1055,692.855,446.86,693.5553,448.6493,694.3394,450.3388,694.8829,450.1901,694.8213,450.8702,696.5674,451.6119,698.3391,452.5174,700.1787,453.2072,701.9289,454,703.7217,454.2271,703.7217,453.9418,705.9905,453.8856,708.2594,454.0761,710.5282,453.7777,712.797,454,715.0658,453.8401,714.9996,453.4676,716.9164,452.6697,718.6569,452.0295,720.4628,450.972,722.0958,450.3388,723.9047,450.3796,724.003,448.6464,724.8187,446.743,725.2236,445.0233,726.0718,443.2838,726.8724,441.5,727.5658,441.5,728.2176,431.6316,727.5616,421.7632,728.0284,411.8947,727.012,402.0263,726.8886,392.1579,728.0694,382.2895,726.8489,372.4211,728.0748,362.5526,727.7725,352.6842,727.2979,342.8158,727.2121,332.9474,728.0246,323.0789,727.2665,313.2105,728.1577,303.3421,727.0131,293.4737,728.1833,283.6053,728.0501,273.7368,727.8108,263.8684,727.613,254,728.2924,244.1316,728.1794,234.2632,727.7351,224.3947,727.834,214.5263,727.4356,204.6579,728.2823,194.7895,727.7207,184.9211,727.7384,175.0526,726.9575,165.1842,727.1606,155.3158,728.0966,145.4474,727.9956,135.5789,727.5229,125.7105,727.2437,115.8421,727.3469,105.9737,726.8796,96.1053,727.9806,86.2368,728.3054,76.3684,728.0922,66.5,727.5658,66.5886,727.7798,64.7148,726.7915,62.9756,726.1282,61.1473,725.2498,59.4652,724.7244,57.6612,723.9047,57.7372,723.9361,57.099,722.2074,56.126,720.3398,55.4231,718.5842,54.8688,716.8902,54,715.0658,54.1891,715.0658,53.8292,712.797,53.9354,710.5282,54.0498,708.2594,53.7964,705.9905,54,703.7217,54.1088,703.7668,54.8117,701.9869,55.4334,700.1733,56.2405,698.4366,57.1533,696.7436,57.6612,694.8829,57.6213,694.7865,59.4691,694.2476,61.2331,693.5064,62.9792,692.7218,64.7502,691.9973,66.5,691.2217" style="stroke:#181818;stroke-width:0.5;"/><text fill="#000000" font-family="sans-serif" font-size="12" lengthAdjust="spacing" textLength="380" x="64" y="714.0498">Create a new transaction record in the database with panding status</text><polygon fill="#F1F1F1" points="128.5,747.5658,128.5,747.776,138.54,747.1515,148.58,747.7591,158.62,747.9655,168.66,746.8524,178.7,747.4881,188.74,747.1393,198.78,747.1823,208.82,747.4977,218.86,746.8745,228.9,748.1195,238.94,746.9355,248.98,747.3681,259.02,747.9978,269.06,747.48,279.1,747.6341,289.14,747.5339,299.18,747.7444,309.22,747.805,319.26,748.1515,329.3,748.2369,339.34,748.2451,349.38,747.8205,359.42,748.0294,369.46,748.2681,379.5,747.5658,379.408,747.3437,381.3543,748.507,382.9977,748.939,384.8714,749.9269,386.5079,750.3423,388.3388,751.227,388.3177,751.2183,389.2995,753.0894,389.7883,754.7563,390.568,756.5437,391.3721,758.3413,392,760.0658,392.1387,760.0658,391.9987,762.3346,392.0957,764.6035,391.8092,766.8723,392.0948,769.1411,392,771.4099,392.1688,771.4799,391.4047,773.2344,390.7243,775.0237,389.6545,776.6516,388.8702,778.3978,388.3388,780.2488,388.2596,780.0574,386.5636,780.9629,384.7782,781.6527,383.1225,782.6553,381.2455,783.1239,379.5,783.9099,379.5,783.5669,369.46,784.1382,359.42,783.2431,349.38,783.3908,339.34,784.5589,329.3,784.3456,319.26,784.6444,309.22,783.5881,299.18,784.2291,289.14,784.5004,279.1,783.4375,269.06,783.8141,259.02,784.0359,248.98,784.5617,238.94,783.9057,228.9,784.3725,218.86,783.3562,208.82,783.2327,198.78,784.4136,188.74,783.193,178.7,784.4189,168.66,784.1166,158.62,783.642,148.58,783.5562,138.54,784.3687,128.5,783.9099,128.4618,783.8178,126.8077,783.36,124.894,782.2752,123.2755,781.9034,121.4907,781.1302,119.6612,780.2488,119.7366,780.28,118.9435,778.487,118.4205,776.8059,117.6534,775.0237,116.7844,773.1993,116,771.4099,116.0894,771.4099,115.9566,769.1411,116.2388,766.8723,116.0516,764.6035,116.0575,762.3346,116,760.0658,115.8127,759.9882,116.6074,758.2464,117.6279,756.598,118.329,754.8173,118.9157,752.9893,119.6612,751.227,119.6201,751.1278,121.401,750.4273,123.1092,749.5512,125.0174,749.158,126.8266,748.5258,128.5,747.5658" style="stroke:#181818;stroke-width:0.5;"/><text fill="#000000" font-family="sans-serif" font-size="12" lengthAdjust="spacing" textLength="256" x="126" y="770.3939">Update sender and receiver account balances</text><path d="M512.5,793.9099 L513.0605,793.9099 L511.3951,803.8577 L513.0154,813.8055 L513.5658,823.7533 L510.5976,833.7011 L512.2928,843.6489 L511.3627,853.5967 L511.4773,863.5444 L512.3182,873.4922 L512.5,883.44 L512.3795,882.8374 L508.5965,884.7226 L504.3901,884.4907 L500.4655,885.6676 L496.5753,887.0165 L492.5,887.44 L492.485,887.3653 L496.5119,888.2995 L500.4944,889.0122 L504.5311,889.9956 L508.5417,890.8485 L512.5,891.44 L514.0618,891.44 L514.2895,901.3878 L514.3114,911.3356 L513.179,921.2834 L513.7362,931.2312 L514.3726,941.179 L510.5768,951.1267 L514.3094,961.0745 L511.7093,971.0223 L512.5,980.9701 L512.5,980.9701 L512.5,982.3936 L522.6429,979.65 L532.7857,980.7874 L542.9286,982.9477 L553.0714,980.8401 L563.2143,981.2509 L573.3571,981.8731 L583.5,982.0801 L593.6429,980.9597 L603.7857,981.736 L613.9286,979.4437 L624.0714,981.7285 L634.2143,982.432 L644.3571,982.1555 L654.5,982.6048 L664.6429,979.6819 L674.7857,979.2309 L684.9286,979.313 L695.0714,980.8131 L705.2143,980.446 L715.3571,982.7872 L725.5,980.9701 L725.5,980.9701 L725.0342,980.9701 L724.5852,971.1334 L726.1087,961.2968 L723.7218,951.4601 L724.1157,941.6234 L727.2305,931.7867 L726.6618,921.95 L727.4586,912.1134 L724.6419,902.2767 L726.3512,892.44 L727.0745,882.6033 L724.2403,872.7667 L725.2444,862.93 L725.836,853.0933 L727.238,843.2566 L725.4888,833.42 L726.7335,823.5833 L724.0232,813.7466 L725.5,803.9099 L725.0743,803.4843 L723.8165,802.2265 L721.0494,799.4593 L719.8199,798.2298 L717.6299,796.0398 L715.5,793.9099 L715.5,793.1955 L705.35,792.9665 L695.2,795.1333 L685.05,793.1117 L674.9,795.4882 L664.75,792.436 L654.6,795.5564 L644.45,795.2014 L634.3,794.5632 L624.15,794.0359 L614,795.8476 L603.85,795.5461 L593.7,794.3613 L583.55,794.6251 L573.4,793.5626 L563.25,795.8205 L553.1,794.3229 L542.95,794.3701 L532.8,792.2877 L522.65,792.8293 L512.5,793.9099 L512.5,793.9099 " fill="#FEFFDD" style="stroke:#181818;stroke-width:0.5;"/><path d="M715.5,793.9099 L715.6868,793.9099 L715.1317,795.9099 L715.6718,797.9099 L715.8553,799.9099 L714.8659,801.9099 L715.5,803.9099 L715.5,803.8409 L717.5,803.5308 L719.5,803.5691 L721.5,803.8494 L723.5,803.2954 L725.5,803.9099 L725.848,804.2579 L723.1038,801.5138 L721.3757,799.7856 L719.7715,798.1814 L717.4461,795.856 L715.5,793.9099 " fill="#FEFFDD" style="stroke:#181818;stroke-width:0.5;"/><text fill="#000000" font-family="sans-serif" font-size="13" lengthAdjust="spacing" textLength="68" x="518.5" y="812.807">JSON Body:</text><text fill="#000000" font-family="sans-serif" font-size="13" lengthAdjust="spacing" textLength="5" x="518.5" y="830.513">{</text><text fill="#000000" font-family="sans-serif" font-size="13" lengthAdjust="spacing" textLength="147" x="530.5" y="848.219">"transaction_id": "UUID",</text><text fill="#000000" font-family="sans-serif" font-size="13" lengthAdjust="spacing" textLength="174" x="530.5" y="865.925">"sender_account_id": "UUID",</text><text fill="#000000" font-family="sans-serif" font-size="13" lengthAdjust="spacing" textLength="180" x="530.5" y="883.631">"receiver_account_id": "UUID",</text><text fill="#000000" font-family="sans-serif" font-size="13" lengthAdjust="spacing" textLength="108" x="530.5" y="901.337">"amount": "0.000",</text><text fill="#000000" font-family="sans-serif" font-size="13" lengthAdjust="spacing" textLength="143" x="530.5" y="919.0431">"from_currency": "BHD",</text><text fill="#000000" font-family="sans-serif" font-size="13" lengthAdjust="spacing" textLength="126" x="530.5" y="936.7491">"to_currency": "USD",</text><text fill="#000000" font-family="sans-serif" font-size="13" lengthAdjust="spacing" textLength="166" x="530.5" y="954.4551">"exchange_rate": "0.000000"</text><text fill="#000000" font-family="sans-serif" font-size="13" lengthAdjust="spacing" textLength="5" x="518.5" y="972.1611">}</text><polygon fill="#F1F1F1" points="28,869.268,28,869.4781,38.0444,868.8536,48.0889,869.4613,58.1333,869.6676,68.1778,868.5546,78.2222,869.1903,88.2667,868.8415,98.3111,868.8845,108.3556,869.1998,118.4,868.5766,128.4444,869.8216,138.4889,868.6377,148.5333,869.0702,158.5778,869.6999,168.6222,869.1822,178.6667,869.3362,188.7111,869.236,198.7556,869.4465,208.8,869.5071,218.8444,869.8537,228.8889,869.939,238.9333,869.9472,248.9778,869.5226,259.0222,869.7315,269.0667,869.9702,279.1111,868.5468,289.1556,869.9465,299.2,868.9715,309.2444,869.8018,319.2889,868.7729,329.3333,869.1995,339.3778,870.0096,349.4222,869.2192,359.4667,869.3733,369.5111,869.6066,379.5556,869.6842,389.6,869.2641,399.6444,869.5552,409.6889,868.6955,419.7333,869.5524,429.7778,869.8162,439.8222,869.7125,449.8667,869.881,459.9111,868.7849,469.9556,868.6158,480,869.268,479.9207,869.0766,481.7603,869.9821,483.5105,870.6719,485.3902,871.6745,487.0488,872.1431,488.8388,872.9291,488.7332,872.8854,489.6414,874.726,490.0979,876.3796,490.8757,878.1662,491.9676,880.083,492.5,881.768,492.6452,881.768,492.7448,884.0368,492.3927,886.3056,492.6064,888.5744,492.6968,890.8433,492.5,893.1121,492.3545,893.0518,491.7382,894.8676,491.0743,896.6637,490.504,898.4985,489.5698,900.1826,488.8388,901.9509,488.8978,902.0934,487.0004,902.5126,485.2169,903.2068,483.5998,904.3027,481.6763,904.6591,480,905.6121,480,906.121,469.9556,905.8187,459.9111,905.3442,449.8667,905.2583,439.8222,906.0708,429.7778,905.3127,419.7333,906.2039,409.6889,905.0593,399.6444,906.2295,389.6,906.0964,379.5556,905.857,369.5111,905.6593,359.4667,906.3387,349.4222,906.2257,339.3778,905.7813,329.3333,905.8803,319.2889,905.4818,309.2444,906.3285,299.2,905.7669,289.1556,905.7847,279.1111,905.0037,269.0667,905.2069,259.0222,906.1428,248.9778,906.0418,238.9333,905.5691,228.8889,905.2899,218.8444,905.3932,208.8,904.9259,198.7556,906.0268,188.7111,906.3516,178.6667,906.1385,168.6222,906.307,158.5778,905.4754,148.5333,905.6993,138.4889,905.2245,128.4444,905.8961,118.4,905.8588,108.3556,906.1645,98.3111,905.3824,88.2667,905.4777,78.2222,906.0555,68.1778,906.1794,58.1333,905.0995,48.0889,905.4182,38.0444,905.7613,28,905.6121,27.9221,905.424,26.2773,904.9887,24.4974,904.2271,22.6838,903.3843,20.9471,902.727,19.1612,901.9509,19.3856,902.0439,18.3326,900.1432,17.7937,898.4556,17.0524,896.6841,16.2679,894.8946,15.5,893.1121,15.547,893.1121,15.5378,890.8433,15.2919,888.5744,15.3664,886.3056,15.3462,884.0368,15.5,881.768,15.5197,881.7761,16.2594,880.0114,17.0143,878.2531,17.6071,876.4275,18.4081,874.6883,19.1612,872.9291,19.1458,872.8921,21.0025,872.3745,22.7511,871.596,24.4025,870.5829,26.2229,869.9777,28,869.268" style="stroke:#181818;stroke-width:0.5;"/><text fill="#000000" font-family="sans-serif" font-size="12" lengthAdjust="spacing" textLength="457" x="25.5" y="892.0961">Return 200 OK with transaction details and update transaction status to completed</text><path d="M179,998.1171 L179.1868,998.1171 L178.6317,1003.6583 L179.1718,1009.1995 L179.3553,1014.7407 L178.3659,1020.2819 L179,1025.8231 L179,1025.8231 L179,1025.754 L187.8,1025.444 L196.6,1025.4822 L205.4,1025.7625 L214.2,1025.2086 L223,1025.8231 L223,1025.8231 L223.4921,1025.8231 L222.4398,1023.8819 L222.8242,1021.9407 L223.384,1019.9995 L222.9238,1018.0583 L223,1016.1171 L223.0123,1016.1765 L226.9942,1015.2599 L231.0322,1014.6137 L235.0432,1013.837 L239.1057,1013.3093 L243,1011.9701 L243.1128,1012.5558 L239.1142,1011.7924 L235.0428,1010.6511 L231.078,1010.0629 L227.1181,1009.5006 L223,1008.1171 L222.5467,1007.6638 L221.4265,1006.5436 L218.8136,1003.9307 L217.3355,1002.4526 L214.6889,999.806 L213,998.1171 L213,998.0562 L206.2,998.7763 L199.4,998.0738 L192.6,998.2107 L185.8,998.4181 L179,998.1171 L179,998.1171 " fill="#FEFFDD" style="stroke:#181818;stroke-width:0.5;"/><path d="M213,998.1171 L213.1868,998.1171 L212.6317,1000.1171 L213.1718,1002.1171 L213.3553,1004.1171 L212.3659,1006.1171 L213,1008.1171 L213,1008.048 L215,1007.738 L217,1007.7762 L219,1008.0565 L221,1007.5025 L223,1008.1171 L223.348,1008.4651 L220.6038,1005.7209 L218.8757,1003.9928 L217.2715,1002.3886 L214.9461,1000.0632 L213,998.1171 " fill="#FEFFDD" style="stroke:#181818;stroke-width:0.5;"/><text fill="#000000" font-family="sans-serif" font-size="13" lengthAdjust="spacing" textLength="23" x="185" y="1017.0141">End</text><polygon fill="none" points="265.0608,1014.6457,263.4484,1016.8489,261.5412,1020.0758,258.8136,1022.2505,255.9474,1023.4397,253.662,1023.5429,250.7247,1022.0556,247.9532,1021.084,245.8495,1019.1113,244.7461,1016.8529,244.0917,1015.0546,243.4506,1012.7058,242.41,1010.6846,243.2096,1008.7111,243.9102,1006.5493,246.5393,1004.8396,248.389,1002.6212,250.6784,1001.8845,253.4001,1001.2502,256.8904,1001.6271,258.8021,1002.5286,261.0247,1002.9373,263.7272,1005.7061,264.6693,1008.6291,265.0786,1010.6235,264.615,1013.91" style="stroke:#222222;stroke-width:1.0;"/><polygon fill="#222222" points="260.0331,1013.4295,259.1536,1014.6313,258.1134,1016.3914,256.6256,1017.5776,255.0622,1018.2263,253.8156,1018.2826,252.2135,1017.4713,250.7017,1016.9413,249.5543,1015.8653,248.9524,1014.6334,248.5955,1013.6526,248.2458,1012.3714,247.6782,1011.2689,248.1143,1010.1925,248.4965,1009.0133,249.9305,1008.0807,250.9394,1006.8707,252.1882,1006.4689,253.6728,1006.1229,255.5766,1006.3284,256.6193,1006.8202,257.8317,1007.0431,259.3057,1008.5534,259.8196,1010.1477,260.0429,1011.2356,259.79,1013.0282" style="stroke:#222222;stroke-width:1.0;"/><path d="M919.5,639.1966 L919.6868,639.1966 L919.1317,641.1672 L919.6718,643.1378 L919.8553,645.1084 L918.8659,647.0791 L919.5,649.0497 L919.4865,648.9819 L915.4257,649.4779 L911.4331,650.3154 L907.4881,651.3902 L903.3795,651.647 L899.5,653.0497 L899.5965,653.5322 L903.3901,653.3003 L907.4655,654.4773 L911.5753,655.8261 L915.485,656.1749 L919.5,657.0497 L919.5607,657.0497 L919.4716,659.0203 L919.6587,660.9909 L919.7126,662.9615 L920.0206,664.9321 L919.5,666.9027 L919.5,666.9027 L919.5,668.6921 L929.2619,668.714 L939.0238,667.5817 L948.7857,668.1389 L958.5476,668.7753 L968.3095,664.9795 L978.0714,668.712 L987.8333,666.112 L997.5952,668.3262 L1007.3571,665.5826 L1017.119,666.72 L1026.881,668.8803 L1036.6429,666.7727 L1046.4048,667.1835 L1056.1667,667.8057 L1065.9286,668.0126 L1075.6905,666.8922 L1085.4524,667.6686 L1095.2143,665.3762 L1104.9762,667.661 L1114.7381,668.3645 L1124.5,666.9027 L1124.5,666.9027 L1124.8951,666.9027 L1125.0449,663.3615 L1124.0706,659.8203 L1123.9203,656.2791 L1123.9476,652.7378 L1124.5,649.1966 L1124.463,649.1596 L1122.3765,647.0731 L1120.9283,645.6249 L1118.3902,643.0869 L1116.2844,640.981 L1114.5,639.1966 L1114.5,639.8054 L1104.75,637.4184 L1095,637.8123 L1085.25,640.9272 L1075.5,640.3584 L1065.75,641.1553 L1056,638.3385 L1046.25,640.0478 L1036.5,640.7711 L1026.75,637.9369 L1017,638.941 L1007.25,639.5326 L997.5,640.9347 L987.75,639.1855 L978,640.4302 L968.25,637.7199 L958.5,637.3906 L948.75,640.5396 L939,637.2848 L929.25,640.5539 L919.5,639.1966 L919.5,639.1966 " fill="#FEFFDD" style="stroke:#181818;stroke-width:0.5;"/><path d="M1114.5,639.1966 L1114.6868,639.1966 L1114.1317,641.1966 L1114.6718,643.1966 L1114.8553,645.1966 L1113.8659,647.1966 L1114.5,649.1966 L1114.5,649.1276 L1116.5,648.8175 L1118.5,648.8558 L1120.5,649.1361 L1122.5,648.5821 L1124.5,649.1966 L1124.848,649.5446 L1122.1038,646.8005 L1120.3757,645.0723 L1118.7715,643.4681 L1116.4461,641.1427 L1114.5,639.1966 " fill="#FEFFDD" style="stroke:#181818;stroke-width:0.5;"/><text fill="#000000" font-family="sans-serif" font-size="13" lengthAdjust="spacing" textLength="184" x="925.5" y="658.0937">{"detail": "Insufficient balance"}</text><polygon fill="#F1F1F1" points="758,634.8776,758,635.0878,767.9231,634.4633,777.8462,635.0709,787.7692,635.2773,797.6923,634.1642,807.6154,634.7999,817.5385,634.4511,827.4615,634.4941,837.3846,634.8094,847.3077,634.1862,857.2308,635.4312,867.1538,634.2473,877.0769,634.6798,887,634.8776,887.0551,635.0106,888.7568,635.5834,890.5442,636.3631,892.2992,637.0645,894.0938,637.8615,895.8388,638.5388,895.9125,638.5693,896.7514,640.3812,897.51,642.1599,898.2447,643.9287,898.8462,645.6423,899.5,647.3776,899.6545,647.3776,899.7341,649.6464,899.2596,651.9152,899.7262,654.1841,899.4012,656.4529,899.5,658.7217,899.6644,658.7898,898.6153,660.4263,898.0144,662.2485,897.5317,664.1196,896.5561,665.7866,895.8388,667.5605,895.8523,667.593,894.1143,668.3971,892.3564,669.1532,890.535,669.756,888.8044,670.5779,887,671.2217,887,670.6493,877.0769,671.5061,867.1538,671.7699,857.2308,671.6662,847.3077,671.8347,837.3846,670.7386,827.4615,670.5695,817.5385,670.6003,807.6154,671.1628,797.6923,671.0252,787.7692,671.9031,777.8462,671.047,767.9231,670.8787,758,671.2217,758.0291,671.292,756.1472,670.2841,754.3982,669.5974,752.7795,669.2249,750.9845,668.4269,749.1612,667.5605,749.3874,667.6542,748.3298,665.7517,747.795,664.0657,747.1463,662.3326,746.0868,660.4292,745.5,658.7217,745.468,658.7217,745.542,656.4529,745.7173,654.1841,745.4986,651.9152,745.6542,649.6464,745.5,647.3776,745.3295,647.307,746.0237,645.5234,747.1196,643.9063,747.4759,641.9828,748.5857,640.3715,749.1612,638.5388,749.1875,638.6024,750.8948,637.724,752.6516,636.9653,754.523,636.4833,756.194,635.5176,758,634.8776" style="stroke:#181818;stroke-width:0.5;"/><text fill="#000000" font-family="sans-serif" font-size="12" lengthAdjust="spacing" textLength="134" x="755.5" y="657.7057">Return 400 Bad Request</text><path d="M747.5,691.2217 L747.6868,691.2217 L747.1317,696.7629 L747.6718,702.3041 L747.8553,707.8453 L746.8659,713.3865 L747.5,718.9277 L747.5,718.9277 L747.5,718.8586 L756.3,718.5486 L765.1,718.5868 L773.9,718.8671 L782.7,718.3132 L791.5,718.9277 L791.5,718.9277 L791.9921,718.9277 L790.9398,716.9865 L791.3242,715.0453 L791.884,713.1041 L791.4238,711.1629 L791.5,709.2217 L791.5123,709.2811 L795.4942,708.3645 L799.5322,707.7183 L803.5432,706.9417 L807.6057,706.4139 L811.5,705.0747 L811.6128,705.6604 L807.6142,704.897 L803.5428,703.7558 L799.578,703.1675 L795.6181,702.6052 L791.5,701.2217 L791.0467,700.7684 L789.9265,699.6482 L787.3136,697.0353 L785.8355,695.5572 L783.1889,692.9106 L781.5,691.2217 L781.5,691.1608 L774.7,691.8809 L767.9,691.1784 L761.1,691.3153 L754.3,691.5227 L747.5,691.2217 L747.5,691.2217 " fill="#FEFFDD" style="stroke:#181818;stroke-width:0.5;"/><path d="M781.5,691.2217 L781.6868,691.2217 L781.1317,693.2217 L781.6718,695.2217 L781.8553,697.2217 L780.8659,699.2217 L781.5,701.2217 L781.5,701.1526 L783.5,700.8426 L785.5,700.8808 L787.5,701.1611 L789.5,700.6072 L791.5,701.2217 L791.848,701.5697 L789.1038,698.8256 L787.3757,697.0974 L785.7715,695.4932 L783.4461,693.1678 L781.5,691.2217 " fill="#FEFFDD" style="stroke:#181818;stroke-width:0.5;"/><text fill="#000000" font-family="sans-serif" font-size="13" lengthAdjust="spacing" textLength="23" x="753.5" y="710.1187">End</text><polygon fill="none" points="833.5608,707.7504,831.9484,709.9535,830.0412,713.1804,827.3136,715.3551,824.4474,716.5443,822.162,716.6475,819.2247,715.1603,816.4532,714.1886,814.3495,712.2159,813.2461,709.9575,812.5917,708.1593,811.9506,705.8104,810.91,703.7892,811.7096,701.8157,812.4102,699.6539,815.0393,697.9442,816.889,695.7258,819.1784,694.9892,821.9001,694.3548,825.3904,694.7317,827.3021,695.6332,829.5247,696.0419,832.2272,698.8107,833.1693,701.7337,833.5786,703.7281,833.115,707.0146" style="stroke:#222222;stroke-width:1.0;"/><polygon fill="#222222" points="828.5331,706.5342,827.6536,707.7359,826.6134,709.496,825.1256,710.6822,823.5622,711.3309,822.3156,711.3872,820.7135,710.5759,819.2017,710.0459,818.0543,708.9699,817.4524,707.7381,817.0955,706.7572,816.7458,705.476,816.1782,704.3735,816.6143,703.2971,816.9965,702.1179,818.4305,701.1853,819.4394,699.9753,820.6882,699.5735,822.1728,699.2275,824.0766,699.4331,825.1193,699.9248,826.3317,700.1477,827.8057,701.658,828.3196,703.2523,828.5429,704.3402,828.29,706.1328" style="stroke:#222222;stroke-width:1.0;"/><path d="M538.25,73.9209 L538.3434,73.9209 L538.0659,82.9101 L538.3359,91.8993 L538.4276,100.8885 L537.9329,109.8777 L538.25,118.8669 " fill="#181818" style="stroke:#181818;stroke-width:1.0;"/><polygon fill="#181818" points="534.25,108.8669,534.315,108.8929,534.9218,110.8156,535.9098,112.8908,536.7737,114.9164,537.2292,116.7786,538.25,118.8669,538.2259,118.8573,538.918,116.8141,539.7313,114.8194,540.6289,112.8585,541.236,110.7813,542.25,108.8669,542.3805,108.9974,541.3014,109.5184,540.6034,110.4203,539.9518,111.3687,539.0298,112.0467,538.25,112.8669,538.2661,112.883,537.4425,112.0594,536.6921,111.309,535.9064,110.5233,535.188,109.805,534.25,108.8669" style="stroke:#181818;stroke-width:1.0;"/><path d="M538.25,155.211 L538.5302,155.211 L537.6976,165.4296 L538.5077,175.6482 L538.7829,185.8668 L537.2988,196.0854 L538.25,206.304 " fill="#181818" style="stroke:#181818;stroke-width:1.0;"/><polygon fill="#181818" points="534.25,196.304,534.315,196.33,534.9218,198.2527,535.9098,200.3279,536.7737,202.3535,537.2292,204.2157,538.25,206.304,538.2259,206.2944,538.918,204.2512,539.7313,202.2565,540.6289,200.2956,541.236,198.2184,542.25,196.304,542.3805,196.4345,541.3014,196.9555,540.6034,197.8574,539.9518,198.8058,539.0298,199.4838,538.25,200.304,538.2661,200.3201,537.4425,199.4965,536.6921,198.7461,535.9064,197.9604,535.188,197.2421,534.25,196.304" style="stroke:#181818;stroke-width:1.0;"/><path d="M538.25,242.6481 L538.3434,242.6481 L538.0659,246.6481 L538.3359,250.6481 L538.4276,254.6481 L537.9329,258.6481 L538.25,262.6481 " fill="#181818" style="stroke:#181818;stroke-width:1.0;"/><polygon fill="#181818" points="534.25,252.6481,534.315,252.6742,534.9218,254.5968,535.9098,256.6721,536.7737,258.6976,537.2292,260.5598,538.25,262.6481,538.2259,262.6385,538.918,260.5953,539.7313,258.6007,540.6289,256.6397,541.236,254.5625,542.25,252.6481,542.3805,252.7786,541.3014,253.2996,540.6034,254.2015,539.9518,255.1499,539.0298,255.8279,538.25,256.6481,538.2661,256.6642,537.4425,255.8406,536.6921,255.0902,535.9064,254.3045,535.188,253.5862,534.25,252.6481" style="stroke:#181818;stroke-width:1.0;"/><path d="M304.75,479.6805 L304.8434,479.6805 L304.5659,483.6805 L304.8359,487.6805 L304.9276,491.6805 L304.4329,495.6805 L304.75,499.6805 " fill="#181818" style="stroke:#181818;stroke-width:1.0;"/><polygon fill="#181818" points="300.75,489.6805,300.815,489.7065,301.4218,491.6292,302.4098,493.7044,303.2737,495.73,303.7292,497.5922,304.75,499.6805,304.7259,499.6709,305.418,497.6277,306.2313,495.633,307.1289,493.672,307.736,491.5949,308.75,489.6805,308.8805,489.811,307.8014,490.3319,307.1034,491.2339,306.4518,492.1823,305.5298,492.8603,304.75,493.6805,304.7661,493.6966,303.9425,492.8729,303.1921,492.1226,302.4064,491.3368,301.688,490.6185,300.75,489.6805" style="stroke:#181818;stroke-width:1.0;"/><path d="M130.75,421.3364 L130.75,421.4298 L128.75,421.1522 L126.75,421.4223 L124.75,421.514 L122.75,421.0193 L120.75,421.3364 " fill="#181818" style="stroke:#181818;stroke-width:1.0;"/><path d="M120.75,421.3364 L120.8434,421.3364 L120.5659,425.7364 L120.8359,430.1364 L120.9276,434.5364 L120.4329,438.9364 L120.75,443.3364 " fill="#181818" style="stroke:#181818;stroke-width:1.0;"/><polygon fill="#181818" points="116.75,433.3364,116.815,433.3624,117.4218,435.2851,118.4098,437.3603,119.2737,439.3858,119.7292,441.248,120.75,443.3364,120.7259,443.3267,121.418,441.2836,122.2313,439.2889,123.1289,437.3279,123.736,435.2508,124.75,433.3364,124.8805,433.4669,123.8014,433.9878,123.1034,434.8897,122.4518,435.8382,121.5298,436.5161,120.75,437.3364,120.7661,437.3524,119.9425,436.5288,119.1921,435.7784,118.4064,434.9927,117.688,434.2744,116.75,433.3364" style="stroke:#181818;stroke-width:1.0;"/><path d="M294.75,421.3364 L294.75,421.4298 L296.75,421.1522 L298.75,421.4223 L300.75,421.514 L302.75,421.0193 L304.75,421.3364 " fill="#181818" style="stroke:#181818;stroke-width:1.0;"/><path d="M304.75,421.3364 L304.8434,421.3364 L304.5659,425.7364 L304.8359,430.1364 L304.9276,434.5364 L304.4329,438.9364 L304.75,443.3364 " fill="#181818" style="stroke:#181818;stroke-width:1.0;"/><polygon fill="#181818" points="300.75,433.3364,300.815,433.3624,301.4218,435.2851,302.4098,437.3603,303.2737,439.3858,303.7292,441.248,304.75,443.3364,304.7259,443.3267,305.418,441.2836,306.2313,439.2889,307.1289,437.3279,307.736,435.2508,308.75,433.3364,308.8805,433.4669,307.8014,433.9878,307.1034,434.8897,306.4518,435.8382,305.5298,436.5161,304.75,437.3364,304.7661,437.3524,303.9425,436.5288,303.1921,435.7784,302.4064,434.9927,301.688,434.2744,300.75,433.3364" style="stroke:#181818;stroke-width:1.0;"/><path d="M120.75,479.6805 L121.0302,479.6805 L120.1976,489.6511 L121.0077,499.6217 L121.2829,509.5923 L119.7988,519.5629 L120.75,529.5335 " fill="#181818" style="stroke:#181818;stroke-width:1.0;"/><path d="M120.75,529.5335 L120.75,529.8137 L130.6905,528.9811 L140.631,529.7912 L150.5714,530.0664 L160.5119,528.5823 L170.4524,529.4299 L180.3929,528.9648 L190.3333,529.0221 L200.2738,529.4426 L210.2143,528.6117 L220.1548,530.2717 L230.0952,528.6931 L240.0357,529.2698 L249.9762,530.1094 L259.9167,529.4191 L269.8571,529.6245 L279.7976,529.4909 L289.7381,529.7715 L299.6786,529.8523 L309.619,530.3144 L319.5595,530.4282 L329.5,530.4392 L339.4405,529.873 L349.381,530.1516 L359.3214,530.4698 L369.2619,528.5719 L379.2024,530.4382 L389.1429,529.1381 L399.0833,530.2452 L409.0238,528.8735 L418.9643,529.4422 L428.9048,530.5223 L438.8452,529.4685 L448.7857,529.6739 L458.7262,529.985 L468.6667,530.0885 L478.6071,529.5283 L488.5476,529.9164 L498.4881,528.7703 L508.4286,529.9127 L518.369,530.2644 L528.3095,530.1262 L538.25,529.5335 " fill="#181818" style="stroke:#181818;stroke-width:1.0;"/><path d="M538.25,529.5335 L538.3434,529.5335 L538.0659,532.5335 L538.3359,535.5335 L538.4276,538.5335 L537.9329,541.5335 L538.25,544.5335 " fill="#181818" style="stroke:#181818;stroke-width:1.0;"/><polygon fill="#181818" points="534.25,534.5335,534.315,534.5595,534.9218,536.4822,535.9098,538.5574,536.7737,540.583,537.2292,542.4452,538.25,544.5335,538.2259,544.5239,538.918,542.4807,539.7313,540.486,540.6289,538.525,541.236,536.4479,542.25,534.5335,542.3805,534.664,541.3014,535.1849,540.6034,536.0869,539.9518,537.0353,539.0298,537.7133,538.25,538.5335,538.2661,538.5496,537.4425,537.726,536.6921,536.9756,535.9064,536.1898,535.188,535.4715,534.25,534.5335" style="stroke:#181818;stroke-width:1.0;"/><path d="M212.75,389.3364 L212.8434,389.3364 L212.5659,393.3364 L212.8359,397.3364 L212.9276,401.3364 L212.4329,405.3364 L212.75,409.3364 " fill="#181818" style="stroke:#181818;stroke-width:1.0;"/><polygon fill="#181818" points="208.75,399.3364,208.815,399.3624,209.4218,401.2851,210.4098,403.3603,211.2737,405.3858,211.7292,407.248,212.75,409.3364,212.7259,409.3267,213.418,407.2836,214.2313,405.2889,215.1289,403.3279,215.736,401.2508,216.75,399.3364,216.8805,399.4669,215.8014,399.9878,215.1034,400.8897,214.4518,401.8382,213.5298,402.5161,212.75,403.3364,212.7661,403.3524,211.9425,402.5288,211.1921,401.7784,210.4064,400.9927,209.688,400.2744,208.75,399.3364" style="stroke:#181818;stroke-width:1.0;"/><path d="M863.75,389.3364 L863.8434,389.3364 L863.5659,393.907 L863.8359,398.4776 L863.9276,403.0482 L863.4329,407.6188 L863.75,412.1894 " fill="#181818" style="stroke:#181818;stroke-width:1.0;"/><polygon fill="#181818" points="859.75,402.1894,859.815,402.2154,860.4218,404.1381,861.4098,406.2133,862.2737,408.2388,862.7292,410.1011,863.75,412.1894,863.7259,412.1797,864.418,410.1366,865.2313,408.1419,866.1289,406.1809,866.736,404.1038,867.75,402.1894,867.8805,402.3199,866.8014,402.8408,866.1034,403.7428,865.4518,404.6912,864.5298,405.3691,863.75,406.1894,863.7661,406.2055,862.9425,405.3818,862.1921,404.6314,861.4064,403.8457,860.688,403.1274,859.75,402.1894" style="stroke:#181818;stroke-width:1.0;"/><path d="M468.25,330.9922 L468.25,331.2725 L458.4231,330.4398 L448.5962,331.25 L438.7692,331.5252 L428.9423,330.0411 L419.1154,330.8886 L409.2885,330.4236 L399.4615,330.4809 L389.6346,330.9014 L379.8077,330.0704 L369.9808,331.7304 L360.1538,330.1519 L350.3269,330.7286 L340.5,331.5682 L330.6731,330.8779 L320.8462,331.0832 L311.0192,330.9496 L301.1923,331.2303 L291.3654,331.3111 L281.5385,331.7732 L271.7115,331.887 L261.8846,331.8979 L252.0577,331.3317 L242.2308,331.6104 L232.4038,331.9286 L222.5769,330.0307 L212.75,330.9922 " fill="#181818" style="stroke:#181818;stroke-width:1.0;"/><path d="M212.75,330.9922 L212.8434,330.9922 L212.5659,335.3922 L212.8359,339.7922 L212.9276,344.1922 L212.4329,348.5922 L212.75,352.9922 " fill="#181818" style="stroke:#181818;stroke-width:1.0;"/><polygon fill="#181818" points="208.75,342.9922,208.815,343.0183,209.4218,344.941,210.4098,347.0162,211.2737,349.0417,211.7292,350.9039,212.75,352.9922,212.7259,352.9826,213.418,350.9394,214.2313,348.9448,215.1289,346.9838,215.736,344.9067,216.75,342.9922,216.8805,343.1227,215.8014,343.6437,215.1034,344.5456,214.4518,345.4941,213.5298,346.172,212.75,346.9922,212.7661,347.0083,211.9425,346.1847,211.1921,345.4343,210.4064,344.6486,209.688,343.9303,208.75,342.9922" style="stroke:#181818;stroke-width:1.0;"/><path d="M608.25,330.9922 L608.25,331.2725 L618.0769,330.4398 L627.9038,331.25 L637.7308,331.5252 L647.5577,330.0411 L657.3846,330.8886 L667.2115,330.4236 L677.0385,330.4809 L686.8654,330.9014 L696.6923,330.0704 L706.5192,331.7304 L716.3462,330.1519 L726.1731,330.7286 L736,331.5682 L745.8269,330.8779 L755.6538,331.0832 L765.4808,330.9496 L775.3077,331.2303 L785.1346,331.3111 L794.9615,331.7732 L804.7885,331.887 L814.6154,331.8979 L824.4423,331.3317 L834.2692,331.6104 L844.0962,331.9286 L853.9231,330.0307 L863.75,330.9922 " fill="#181818" style="stroke:#181818;stroke-width:1.0;"/><path d="M863.75,330.9922 L863.8434,330.9922 L863.5659,335.3922 L863.8359,339.7922 L863.9276,344.1922 L863.4329,348.5922 L863.75,352.9922 " fill="#181818" style="stroke:#181818;stroke-width:1.0;"/><polygon fill="#181818" points="859.75,342.9922,859.815,343.0183,860.4218,344.941,861.4098,347.0162,862.2737,349.0417,862.7292,350.9039,863.75,352.9922,863.7259,352.9826,864.418,350.9394,865.2313,348.9448,866.1289,346.9838,866.736,344.9067,867.75,342.9922,867.8805,343.1227,866.8014,343.6437,866.1034,344.5456,865.4518,345.4941,864.5298,346.172,863.75,346.9922,863.7661,347.0083,862.9425,346.1847,862.1921,345.4343,861.4064,344.6486,860.688,343.9303,859.75,342.9922" style="stroke:#181818;stroke-width:1.0;"/><path d="M538.25,298.9922 L538.3434,298.9922 L538.0659,302.9922 L538.3359,306.9922 L538.4276,310.9922 L537.9329,314.9922 L538.25,318.9922 " fill="#181818" style="stroke:#181818;stroke-width:1.0;"/><polygon fill="#181818" points="534.25,308.9922,534.315,309.0183,534.9218,310.941,535.9098,313.0162,536.7737,315.0417,537.2292,316.9039,538.25,318.9922,538.2259,318.9826,538.918,316.9394,539.7313,314.9448,540.6289,312.9838,541.236,310.9067,542.25,308.9922,542.3805,309.1227,541.3014,309.6437,540.6034,310.5456,539.9518,311.4941,539.0298,312.172,538.25,312.9922,538.2661,313.0083,537.4425,312.1847,536.6921,311.4343,535.9064,310.6486,535.188,309.9303,534.25,308.9922" style="stroke:#181818;stroke-width:1.0;"/><path d="M254,671.2217 L254.0934,671.2217 L253.8159,675.2217 L254.0859,679.2217 L254.1776,683.2217 L253.6829,687.2217 L254,691.2217 " fill="#181818" style="stroke:#181818;stroke-width:1.0;"/><polygon fill="#181818" points="250,681.2217,250.065,681.2477,250.6718,683.1704,251.6598,685.2456,252.5237,687.2712,252.9792,689.1334,254,691.2217,253.9759,691.2121,254.668,689.1689,255.4813,687.1742,256.3789,685.2133,256.986,683.1361,258,681.2217,258.1305,681.3522,257.0514,681.8732,256.3534,682.7751,255.7018,683.7235,254.7798,684.4015,254,685.2217,254.0161,685.2378,253.1925,684.4142,252.4421,683.6638,251.6564,682.8781,250.938,682.1598,250,681.2217" style="stroke:#181818;stroke-width:1.0;"/><path d="M254,727.5658 L254.0934,727.5658 L253.8159,731.5658 L254.0859,735.5658 L254.1776,739.5658 L253.6829,743.5658 L254,747.5658 " fill="#181818" style="stroke:#181818;stroke-width:1.0;"/><polygon fill="#181818" points="250,737.5658,250.065,737.5918,250.6718,739.5145,251.6598,741.5898,252.5237,743.6153,252.9792,745.4775,254,747.5658,253.9759,747.5562,254.668,745.513,255.4813,743.5183,256.3789,741.5574,256.986,739.4802,258,737.5658,258.1305,737.6963,257.0514,738.2173,256.3534,739.1192,255.7018,740.0676,254.7798,740.7456,254,741.5658,254.0161,741.5819,253.1925,740.7583,252.4421,740.0079,251.6564,739.2222,250.938,738.5039,250,737.5658" style="stroke:#181818;stroke-width:1.0;"/><path d="M254,783.9099 L254.2802,783.9099 L253.4476,793.3942 L254.2577,802.8784 L254.5329,812.3626 L253.0488,821.8468 L253.8964,831.3311 L253.4313,840.8153 L253.4887,850.2995 L253.9091,859.7837 L254,869.268 " fill="#181818" style="stroke:#181818;stroke-width:1.0;"/><polygon fill="#181818" points="250,859.268,250.065,859.294,250.6718,861.2167,251.6598,863.2919,252.5237,865.3174,252.9792,867.1796,254,869.268,253.9759,869.2583,254.668,867.2152,255.4813,865.2205,256.3789,863.2595,256.986,861.1824,258,859.268,258.1305,859.3985,257.0514,859.9194,256.3534,860.8214,255.7018,861.7698,254.7798,862.4477,254,863.268,254.0161,863.284,253.1925,862.4604,252.4421,861.71,251.6564,860.9243,250.938,860.206,250,859.268" style="stroke:#181818;stroke-width:1.0;"/><path d="M254,905.6121 L254.2802,905.6121 L253.4476,915.1479 L254.2577,924.6837 L254.5329,934.2195 L253.0488,943.7553 L253.8964,953.2911 L253.4313,962.8269 L253.4887,972.3627 L253.9091,981.8985 L253.0782,991.4343 L254,1000.9701 " fill="#181818" style="stroke:#181818;stroke-width:1.0;"/><polygon fill="#181818" points="250,990.9701,250.065,990.9961,250.6718,992.9188,251.6598,994.994,252.5237,997.0196,252.9792,998.8818,254,1000.9701,253.9759,1000.9605,254.668,998.9173,255.4813,996.9226,256.3789,994.9617,256.986,992.8845,258,990.9701,258.1305,991.1006,257.0514,991.6215,256.3534,992.5235,255.7018,993.4719,254.7798,994.1499,254,994.9701,254.0161,994.9862,253.1925,994.1626,252.4421,993.4122,251.6564,992.6265,250.938,991.9082,250,990.9701" style="stroke:#181818;stroke-width:1.0;"/><path d="M822.5,671.2217 L822.5934,671.2217 L822.3159,675.7923 L822.5859,680.3629 L822.6776,684.9335 L822.1829,689.5041 L822.5,694.0747 " fill="#181818" style="stroke:#181818;stroke-width:1.0;"/><polygon fill="#181818" points="818.5,684.0747,818.565,684.1007,819.1718,686.0234,820.1598,688.0986,821.0237,690.1242,821.4792,691.9864,822.5,694.0747,822.4759,694.0651,823.168,692.0219,823.9813,690.0272,824.8789,688.0663,825.486,685.9891,826.5,684.0747,826.6305,684.2052,825.5514,684.7262,824.8534,685.6281,824.2018,686.5765,823.2798,687.2545,822.5,688.0747,822.5161,688.0908,821.6925,687.2672,820.9421,686.5168,820.1564,685.7311,819.438,685.0128,818.5,684.0747" style="stroke:#181818;stroke-width:1.0;"/><path d="M477.75,612.8776 L477.75,613.1578 L467.5795,612.3252 L457.4091,613.1353 L447.2386,613.4105 L437.0682,611.9264 L426.8977,612.774 L416.7273,612.3089 L406.5568,612.3663 L396.3864,612.7867 L386.2159,611.9558 L376.0455,613.6158 L365.875,612.0372 L355.7045,612.6139 L345.5341,613.4535 L335.3636,612.7632 L325.1932,612.9686 L315.0227,612.835 L304.8523,613.1156 L294.6818,613.1964 L284.5114,613.6585 L274.3409,613.7723 L264.1705,613.7833 L254,612.8776 " fill="#181818" style="stroke:#181818;stroke-width:1.0;"/><path d="M254,612.8776 L254.0934,612.8776 L253.8159,617.2776 L254.0859,621.6776 L254.1776,626.0776 L253.6829,630.4776 L254,634.8776 " fill="#181818" style="stroke:#181818;stroke-width:1.0;"/><polygon fill="#181818" points="250,624.8776,250.065,624.9036,250.6718,626.8263,251.6598,628.9015,252.5237,630.9271,252.9792,632.7893,254,634.8776,253.9759,634.868,254.668,632.8248,255.4813,630.8301,256.3789,628.8692,256.986,626.792,258,624.8776,258.1305,625.0081,257.0514,625.529,256.3534,626.431,255.7018,627.3794,254.7798,628.0574,254,628.8776,254.0161,628.8937,253.1925,628.0701,252.4421,627.3197,251.6564,626.534,250.938,625.8156,250,624.8776" style="stroke:#181818;stroke-width:1.0;"/><path d="M598.75,612.8776 L598.75,613.1578 L608.9205,612.3252 L619.0909,613.1353 L629.2614,613.4105 L639.4318,611.9264 L649.6023,612.774 L659.7727,612.3089 L669.9432,612.3663 L680.1136,612.7867 L690.2841,611.9558 L700.4545,613.6158 L710.625,612.0372 L720.7955,612.6139 L730.9659,613.4535 L741.1364,612.7632 L751.3068,612.9686 L761.4773,612.835 L771.6477,613.1156 L781.8182,613.1964 L791.9886,613.6585 L802.1591,613.7723 L812.3295,613.7833 L822.5,612.8776 " fill="#181818" style="stroke:#181818;stroke-width:1.0;"/><path d="M822.5,612.8776 L822.5934,612.8776 L822.3159,617.2776 L822.5859,621.6776 L822.6776,626.0776 L822.1829,630.4776 L822.5,634.8776 " fill="#181818" style="stroke:#181818;stroke-width:1.0;"/><polygon fill="#181818" points="818.5,624.8776,818.565,624.9036,819.1718,626.8263,820.1598,628.9015,821.0237,630.9271,821.4792,632.7893,822.5,634.8776,822.4759,634.868,823.168,632.8248,823.9813,630.8301,824.8789,628.8692,825.486,626.792,826.5,624.8776,826.6305,625.0081,825.5514,625.529,824.8534,626.431,824.2018,627.3794,823.2798,628.0574,822.5,628.8776,822.5161,628.8937,821.6925,628.0701,820.9421,627.3197,820.1564,626.534,819.438,625.8156,818.5,624.8776" style="stroke:#181818;stroke-width:1.0;"/><path d="M538.25,580.8776 L538.3434,580.8776 L538.0659,584.8776 L538.3359,588.8776 L538.4276,592.8776 L537.9329,596.8776 L538.25,600.8776 " fill="#181818" style="stroke:#181818;stroke-width:1.0;"/><polygon fill="#181818" points="534.25,590.8776,534.315,590.9036,534.9218,592.8263,535.9098,594.9015,536.7737,596.9271,537.2292,598.7893,538.25,600.8776,538.2259,600.868,538.918,598.8248,539.7313,596.8301,540.6289,594.8692,541.236,592.792,542.25,590.8776,542.3805,591.0081,541.3014,591.529,540.6034,592.431,539.9518,593.3794,539.0298,594.0574,538.25,594.8776,538.2661,594.8937,537.4425,594.0701,536.6921,593.3197,535.9064,592.534,535.188,591.8156,534.25,590.8776" style="stroke:#181818;stroke-width:1.0;"/><!--SRC=[bLJVRzem47xFNt6ADAb5qqghxGMgJgMTjcxIgA3i5HdxqbW4czbEMrRrVz_P3Y6GjDfuG70_lllkVFVPfLHhPjWASgR4ev7EeG9dIanixNBI5JZIHg21qsxxbIwqWKN1-389PkZrpikBAIe13EuCKvPn9pLXQxXKskM4DRDepa_AYrulIQnZnYNaG33oFdS3c0RBO88SvGF2xNXw1mP_bsYT1pbnEr1xOdsXH-bok2nThetymqAr71cn6pQ04w3Fz-du9uoqs0p2t-VmxJ-fYUNCd76kI-NcKgG3I6Upc-lq_IwChRpJUqxx7_hzVXfSBucduMibHBnK1sJkz9A6-uiLKaJ3hT4ShHqcWyg8TOSB8WSPpTGRf441cSH2KApCu6ZIZ98M7dpwvsEWiIeusg0z3dm6Lpdo9L06EM3R6bIjmSsrp-NQaCSL6rWR_I05Yc58ZdNQAVWahRFjOg7WLtIxEhmaPCKt4GyBYt2aT2DwWguq2Zxs-p1Y0ggkXdL0SnsUKu6EoSBFVDBT2OLtT9E-r7ZMwVK-U84PONzH8b9KGcR9Fj6QvDbPc-Hh16zKU96zrwnur1mEwiVQOO3CMcqbROEeHkYWj8rkcJ-gwlTsndl61IkOuXXtPLfccUGIT_QkHM45Bmk_WFZ4IGhkgIt_Zm2g2X8jC8D0B3CCd4958U3JEyWG_KtkvGuhP8CUY872HsZSh5yJaWwGAYmdBJzRC1fyEE8rOKjrJyDYhhGLqcmTBiIVkX-64ksDhXhSPbHFTqRxDVuHaPiCudlP05L6yAOx5lTzSRrQ5-Ysbt4W9Xs2iYygGJ4QoDsQ4g9YSs-Bpt_er85MHQawS6T6h-RRDV9Hesyj2AVt8cRJLiJswUV-wUjQjJ96TQnkB2hacyVGVO9TEl7w2ThMul_B2Vu5]--></g></svg>