<?xml version="1.0" encoding="us-ascii" standalone="no"?><svg xmlns="http://www.w3.org/2000/svg" xmlns:xlink="http://www.w3.org/1999/xlink" contentStyleType="text/css" height="1312px" preserveAspectRatio="none" style="width:980px;height:1312px;background:#FFFFFF;" version="1.1" viewBox="0 0 980 1312" width="980px" zoomAndPan="magnify"><defs/><g><polygon fill="none" points="429.4063,15,429.4063,15.2102,439.2969,14.5857,449.1875,15.1933,459.0781,15.3997,468.9688,14.2866,478.8594,14.9223,488.75,14.5735,498.6406,14.6165,508.5313,14.9318,518.4219,14.3086,528.3125,15.5536,538.2031,14.3697,548.0938,15,548.0278,15,548.2377,20.8136,548.0652,26.6272,548.1165,32.4408,548.0831,38.2543,548.0938,44.0679,548.0938,44.2464,538.2031,44.3071,528.3125,44.6536,518.4219,44.739,508.5313,44.7472,498.6406,44.3225,488.75,44.5315,478.8594,44.7701,468.9688,43.3467,459.0781,44.7464,449.1875,43.7714,439.2969,44.6017,429.4063,44.0679,429.2412,44.0679,429.3834,38.2543,429.6535,32.4408,429.39,26.6272,429.4414,20.8136,429.4063,15" style="stroke:#000000;stroke-width:1.0;"/><text fill="#000000" font-family="sans-serif" font-size="14" font-weight="bold" lengthAdjust="spacing" text-decoration="underline" textLength="108.6875" x="434.4063" y="34.9659">Signup Process</text><path d="M444,60.0679 L444.1868,60.0679 L443.6317,65.6091 L444.1718,71.1503 L444.3553,76.6915 L443.3659,82.2327 L444,87.7739 L444,87.5667 L454,86.6366 L464,86.7513 L474,87.5922 L484,85.9303 L494,87.7739 L494.4921,87.7739 L493.4398,84.2327 L493.8242,80.6915 L494.384,77.1503 L493.9238,73.6091 L494,70.0679 L494.0429,70.1108 L491.9799,68.0478 L490.1122,66.1801 L488.1503,64.2182 L486.3681,62.436 L484,60.0679 L484,60.6644 L476,60.6717 L468,60.2943 L460,60.48 L452,60.6921 L444,60.0679 " fill="#FEFFDD" style="stroke:#181818;stroke-width:0.5;"/><path d="M484,60.0679 L484.1868,60.0679 L483.6317,62.0679 L484.1718,64.0679 L484.3553,66.0679 L483.3659,68.0679 L484,70.0679 L484,69.9988 L486,69.6888 L488,69.727 L490,70.0073 L492,69.4534 L494,70.0679 L494.348,70.4159 L491.6038,67.6718 L489.8757,65.9436 L488.2715,64.3394 L485.9461,62.014 L484,60.0679 " fill="#FEFFDD" style="stroke:#181818;stroke-width:0.5;"/><text fill="#000000" font-family="sans-serif" font-size="13" lengthAdjust="spacing" textLength="29" x="450" y="78.9649">Start</text><path d="M394.5,107.7739 L394.6868,107.7739 L394.1317,113.3151 L394.6718,118.8563 L394.8553,124.3975 L393.8659,129.9387 L394.5,135.4799 L394.5,135.2727 L404.4333,134.3426 L414.3667,134.4573 L424.3,135.2982 L434.2333,133.6363 L444.1667,136.9563 L454.1,133.7992 L464.0333,134.9526 L473.9667,136.6318 L483.9,135.2512 L493.8333,135.6619 L503.7667,135.3948 L513.7,135.956 L523.6333,136.1176 L533.5667,137.0418 L543.5,135.4799 L544.0965,135.4799 L544.1038,131.9387 L543.7263,128.3975 L543.9121,124.8563 L544.1242,121.3151 L543.5,117.7739 L543.0467,117.3206 L541.9265,116.2004 L539.3136,113.5876 L537.8355,112.1095 L535.1889,109.4628 L533.5,107.7739 L533.5,107.5913 L523.5714,109.7515 L513.6429,107.644 L503.7143,108.0547 L493.7857,108.6769 L483.8571,108.8839 L473.9286,107.7635 L464,108.5398 L454.0714,106.2475 L444.1429,108.5323 L434.2143,109.2358 L424.2857,108.9594 L414.3571,109.4087 L404.4286,106.4857 L394.5,107.7739 " fill="#FEFFDD" style="stroke:#181818;stroke-width:0.5;"/><path d="M533.5,107.7739 L533.6868,107.7739 L533.1317,109.7739 L533.6718,111.7739 L533.8553,113.7739 L532.8659,115.7739 L533.5,117.7739 L533.5,117.7049 L535.5,117.3948 L537.5,117.433 L539.5,117.7133 L541.5,117.1594 L543.5,117.7739 L543.848,118.1219 L541.1038,115.3778 L539.3757,113.6496 L537.7715,112.0454 L535.4461,109.72 L533.5,107.7739 " fill="#FEFFDD" style="stroke:#181818;stroke-width:0.5;"/><text fill="#000000" font-family="sans-serif" font-size="13" lengthAdjust="spacing" textLength="128" x="400.5" y="126.6709">Begin Signup Process</text><polygon fill="#222222" points="384.5552,100.2063,383.0894,102.2092,381.3556,105.1428,378.876,107.1197,376.2703,108.2009,374.1927,108.2947,371.5224,106.9426,369.0029,106.0593,367.0905,104.2659,366.0873,102.2128,365.4924,100.5781,364.9096,98.4428,363.9636,96.6053,364.6906,94.8112,365.3275,92.846,367.7175,91.2916,369.3991,89.2749,371.4804,88.6052,373.9547,88.0285,377.1276,88.3712,378.8655,89.1908,380.8861,89.5623,383.3429,92.0794,384.1993,94.7366,384.5714,96.5497,384.15,99.5375" style="stroke:#222222;stroke-width:1.0;"/><path d="M509,155.4799 L509.5605,155.4799 L507.8951,165.4277 L509.5154,175.3755 L510.0658,185.3233 L507.0976,195.2711 L508.7928,205.2189 L507.8627,215.1667 L507.9773,225.1145 L508.8182,235.0622 L509,245.01 L508.8795,244.4074 L505.0965,246.2926 L500.8901,246.0607 L496.9655,247.2377 L493.0753,248.5865 L489,249.01 L488.985,248.9353 L493.0119,249.8695 L496.9944,250.5822 L501.0311,251.5656 L505.0417,252.4185 L509,253.01 L510.5618,253.01 L510.7895,262.9578 L510.8114,272.9056 L509.679,282.8534 L510.2362,292.8012 L510.8726,302.749 L507.0768,312.6968 L510.8094,322.6445 L508.2093,332.5923 L509,342.5401 L509,342.5401 L509,343.9636 L518.92,341.2201 L528.84,342.3575 L538.76,344.5177 L548.68,342.4102 L558.6,342.8209 L568.52,343.4431 L578.44,343.6501 L588.36,342.5297 L598.28,343.306 L608.2,341.0137 L618.12,343.2985 L628.04,344.002 L637.96,343.7255 L647.88,344.1748 L657.8,341.2519 L667.72,340.801 L677.64,340.883 L687.56,342.3831 L697.48,342.016 L707.4,344.3572 L717.32,342.0743 L727.24,341.6253 L737.16,343.1488 L747.08,340.7619 L757,342.5401 L757,342.5401 L755.6157,342.5401 L758.7305,332.7034 L758.1618,322.8668 L758.9586,313.0301 L756.1419,303.1934 L757.8512,293.3567 L758.5745,283.5201 L755.7403,273.6834 L756.7444,263.8467 L757.336,254.01 L758.738,244.1734 L756.9888,234.3367 L758.2335,224.5 L755.5232,214.6633 L755.194,204.8267 L758.343,194.99 L755.0882,185.1533 L758.3572,175.3166 L757,165.4799 L757.1299,165.6098 L754.8316,163.3116 L752.7776,161.2576 L751.2883,159.7683 L748.8119,157.2918 L747,155.4799 L747,157.0582 L737.0833,154.006 L727.1667,157.1264 L717.25,156.7714 L707.3333,156.1332 L697.4167,155.6059 L687.5,157.4176 L677.5833,157.1162 L667.6667,155.9313 L657.75,156.1951 L647.8333,155.1326 L637.9167,157.3905 L628,155.8929 L618.0833,155.9401 L608.1667,153.8577 L598.25,154.3994 L588.3333,156.8953 L578.4167,156.626 L568.5,155.3655 L558.5833,154.6208 L548.6667,154.8961 L538.75,153.6501 L528.8333,156.5859 L518.9167,157.4521 L509,155.4799 L509,155.4799 " fill="#FEFFDD" style="stroke:#181818;stroke-width:0.5;"/><path d="M747,155.4799 L747.1868,155.4799 L746.6317,157.4799 L747.1718,159.4799 L747.3553,161.4799 L746.3659,163.4799 L747,165.4799 L747,165.4109 L749,165.1008 L751,165.1391 L753,165.4194 L755,164.8654 L757,165.4799 L757.348,165.8279 L754.6038,163.0838 L752.8757,161.3556 L751.2715,159.7514 L748.9461,157.426 L747,155.4799 " fill="#FEFFDD" style="stroke:#181818;stroke-width:0.5;"/><text fill="#000000" font-family="sans-serif" font-size="13" lengthAdjust="spacing" textLength="68" x="515" y="174.377">JSON Body:</text><text fill="#000000" font-family="sans-serif" font-size="13" lengthAdjust="spacing" textLength="5" x="515" y="192.083">{</text><text fill="#000000" font-family="sans-serif" font-size="13" lengthAdjust="spacing" textLength="132" x="527" y="209.789">"user_name": "jassim",</text><text fill="#000000" font-family="sans-serif" font-size="13" lengthAdjust="spacing" textLength="190" x="527" y="227.495">"email": "jassim@example.com",</text><text fill="#000000" font-family="sans-serif" font-size="13" lengthAdjust="spacing" textLength="145" x="527" y="245.201">"password": "jassim123",</text><text fill="#000000" font-family="sans-serif" font-size="13" lengthAdjust="spacing" textLength="130" x="527" y="262.907">"first_name": "Jassim",</text><text fill="#000000" font-family="sans-serif" font-size="13" lengthAdjust="spacing" textLength="215" x="527" y="280.6131">"middle_name": "Salman", (optional)</text><text fill="#000000" font-family="sans-serif" font-size="13" lengthAdjust="spacing" textLength="152" x="527" y="298.3191">"last_name": "Alshomaliy"</text><text fill="#000000" font-family="sans-serif" font-size="13" lengthAdjust="spacing" textLength="165" x="527" y="316.0251">"currency": "USD" (optional)</text><text fill="#000000" font-family="sans-serif" font-size="13" lengthAdjust="spacing" textLength="5" x="515" y="333.7311">}</text><polygon fill="#F1F1F1" points="272.5,230.838,272.5,231.0482,282.7,230.4237,292.9,231.0313,303.1,231.2377,313.3,230.1246,323.5,230.7603,333.7,230.4115,343.9,230.4545,354.1,230.7698,364.3,230.1466,374.5,231.3916,384.7,230.2077,394.9,230.6402,405.1,231.2699,415.3,230.7522,425.5,230.9062,435.7,230.806,445.9,231.0165,456.1,231.0771,466.3,231.4237,476.5,230.838,476.5856,231.0446,478.3544,231.7794,480.068,232.3809,481.8624,233.1774,483.6606,233.9832,485.3388,234.4991,485.1167,234.4071,486.28,236.3535,486.712,237.9969,487.6999,239.8705,488.1153,241.5071,489,243.338,488.9772,243.338,489.2472,245.6068,488.9838,247.8756,489.0351,250.1444,489.1129,252.4133,489,254.6821,489.1282,254.7352,488.2666,256.4494,487.624,258.2543,486.627,259.9124,486.1586,261.7894,485.3388,263.5209,485.4088,263.6897,483.6278,264.3901,481.8815,265.1742,479.9739,265.5689,478.1846,266.249,476.5,267.1821,476.5,266.5607,466.3,267.1232,456.1,266.9856,445.9,267.8635,435.7,267.0074,425.5,266.839,415.3,267.4104,405.1,266.5153,394.9,266.663,384.7,267.831,374.5,267.6178,364.3,267.9166,354.1,266.8603,343.9,267.5013,333.7,267.7725,323.5,266.7097,313.3,267.0862,303.1,267.3081,292.9,267.8338,282.7,267.1779,272.5,267.1821,272.559,267.3245,270.6616,266.2793,268.8781,265.5091,267.2609,265.1405,265.3375,264.0324,263.6612,263.5209,263.8179,263.5858,262.9926,261.7795,262.1142,259.9512,261.3555,258.1725,260.8735,256.5084,260,254.6821,259.9002,254.6821,260.1973,252.4133,259.8158,250.1444,260.2058,247.8756,260.1614,245.6068,260,243.338,260.0754,243.3692,260.7468,241.5762,261.6882,239.8951,262.3857,238.1129,262.9811,236.2885,263.6612,234.4991,263.6954,234.5817,265.4123,233.7268,267.2881,233.2553,268.9842,232.3501,270.7542,231.6234,272.5,230.838" style="stroke:#181818;stroke-width:0.5;"/><text fill="#000000" font-family="sans-serif" font-size="12" lengthAdjust="spacing" textLength="209" x="270" y="253.6661">Receive POST request to /auth/signup</text><polygon fill="#F1F1F1" points="330.5,362.5401,330.5,362.7503,340.2778,362.1258,350.0556,362.7334,359.8333,362.9398,369.6111,361.8267,379.3889,362.4624,389.1667,362.1136,398.9444,362.1566,408.7222,362.472,418.5,362.5401,418.4118,362.3272,420.3384,363.4428,421.9551,363.8105,423.7781,364.6759,425.6262,365.6021,427.3388,366.2013,427.3124,366.1903,428.0921,367.9778,428.7935,369.7327,429.5905,371.5274,430.3414,373.3029,431,375.0401,431.1952,375.0401,431.2237,377.3089,431.2264,379.5778,431.0849,381.8466,431.1545,384.1154,431,386.3842,431.2163,386.4738,430.0457,388.06,429.7445,390.0063,428.712,391.6497,428.2355,393.5234,427.3388,395.2231,427.2757,395.0706,425.5623,395.9342,423.8979,396.9159,422.0293,397.4048,420.2812,398.1844,418.5,398.8842,418.5,399.2229,408.7222,399.3005,398.9444,398.8803,389.1667,399.1714,379.3889,398.3118,369.6111,399.1686,359.8333,399.4324,350.0556,399.3288,340.2778,399.4973,330.5,398.8842,330.4384,398.7355,328.649,397.9512,326.8852,397.2284,325.1892,396.6694,323.4039,395.8948,321.6612,395.2231,321.871,395.31,320.8751,393.433,320.0911,391.6438,319.5348,389.9489,318.5269,388.0669,318,386.3842,317.827,386.3842,318.2163,384.1154,318.1452,381.8466,318.2448,379.5778,317.8927,377.3089,318,375.0401,318.0983,375.0808,318.9141,373.3477,319.319,371.4443,320.1672,369.7246,320.9677,367.9851,321.6612,366.2013,321.7443,366.402,323.4284,365.4678,325.2557,364.8793,326.8938,363.834,328.6458,363.0638,330.5,362.5401" style="stroke:#181818;stroke-width:0.5;"/><text fill="#000000" font-family="sans-serif" font-size="12" lengthAdjust="spacing" textLength="93" x="328" y="385.3682">Parse JSON body</text><polygon fill="none" points="11,408.8842,11,409.0944,20.9844,408.4699,30.9688,409.0775,40.9531,409.2839,50.9375,408.1708,60.9219,408.8065,70.9063,408.4577,80.8906,408.5007,90.875,408.8161,100.8594,408.1929,110.8438,409.4379,120.8281,408.2539,130.8125,408.6865,140.7969,409.3162,150.7813,408.7985,160.7656,408.9525,170.75,408.8523,180.7344,409.0628,190.7188,409.1234,200.7031,409.4699,210.6875,409.5553,220.6719,409.5635,230.6563,409.1389,240.6406,409.3478,250.625,409.5865,260.6094,408.163,270.5938,409.5627,280.5781,408.5877,290.5625,409.418,300.5469,408.3892,310.5313,408.8157,320.5156,409.6258,330.5,408.8355,340.4844,408.9895,350.4688,409.2229,360.4531,409.3005,370.4375,408.8803,380.4219,409.1714,390.4063,408.3118,400.3906,409.1686,410.375,409.4324,420.3594,409.3288,430.3438,409.4973,440.3281,408.4011,450.3125,408.232,460.2969,408.2628,470.2813,408.8253,480.2656,408.6877,490.25,409.5656,500.2344,408.7096,510.2188,408.5412,520.2031,409.1125,530.1875,408.2174,540.1719,408.3651,550.1563,409.5332,560.1406,409.3199,570.125,409.6187,580.1094,408.5624,590.0938,409.2034,600.0781,409.4746,610.0625,408.4118,620.0469,408.7884,630.0313,409.0102,640.0156,409.536,650,408.88,659.9844,409.3468,669.9688,408.3304,679.9531,408.207,689.9375,409.3878,699.9219,408.1673,709.9063,409.3932,719.8906,409.0909,729.875,408.6163,739.8594,408.5305,749.8438,409.343,759.8281,408.5849,769.8125,409.4761,779.7969,408.3315,789.7813,409.5017,799.7656,409.3685,809.75,409.1292,819.7344,408.9314,829.7188,409.6108,839.7031,409.4978,849.6875,409.0535,859.6719,409.1524,869.6563,408.754,879.6406,409.6007,889.625,409.0391,899.6094,409.0568,909.5938,408.2759,919.5781,408.479,929.5625,409.415,939.5469,409.314,949.5313,408.8413,959.5156,408.5621,969.5,408.8842,969.2811,408.8842,968.8138,418.8855,969.9147,428.8867,970.2396,438.888,970.0264,448.8893,970.1949,458.8905,969.3633,468.8918,969.5872,478.893,969.1124,488.8943,969.784,498.8955,969.7468,508.8968,970.0524,518.8981,969.2703,528.8993,969.3656,538.9006,969.9435,548.9018,970.0673,558.9031,968.9875,568.9043,969.3061,578.9056,969.6493,588.9069,968.8892,598.9081,969.8534,608.9094,969.758,618.9106,969.3992,628.9119,969.6422,638.9131,970.2287,648.9144,969.1871,658.9157,969.815,668.9169,969.7856,678.9182,969.6158,688.9194,969.6409,698.9207,969.6135,708.9219,969.5,718.9232,969.5,718.299,959.5156,718.5224,949.5313,718.4617,939.5469,718.987,929.5625,719.0113,919.5781,719.085,909.5938,718.6322,899.6094,718.8557,889.625,718.803,879.6406,719.5001,869.6563,719.3498,859.6719,718.4377,849.6875,718.8503,839.7031,718.346,829.7188,719.2116,819.7344,719.5317,809.75,719.4678,799.7656,718.4876,789.7813,719.3872,779.7969,718.1804,769.8125,719.1234,759.8281,718.6239,749.8438,719.0199,739.8594,719.1635,729.875,719.3953,719.8906,718.2033,709.9063,719.3987,699.9219,719.1014,689.9375,719.2785,679.9531,719.671,669.9688,718.9287,659.9844,719.0985,650,719.1366,640.0156,719.1204,630.0313,718.9224,620.0469,719.6339,610.0625,718.3135,600.0781,719.4885,590.0938,718.2992,580.1094,718.3829,570.125,718.9632,560.1406,718.9515,550.1563,718.4304,540.1719,719.3369,530.1875,719.0321,520.2031,719.6499,510.2188,719.5903,500.2344,718.4749,490.25,718.5253,480.2656,718.794,470.2813,719.2787,460.2969,719.3262,450.3125,719.2244,440.3281,718.5812,430.3438,719.5596,420.3594,719.557,410.375,718.8759,400.3906,718.6841,390.4063,718.5218,380.4219,718.7086,370.4375,719.0606,360.4531,718.8548,350.4688,718.5054,340.4844,719.4106,330.5,718.4643,320.5156,719.4256,310.5313,719.3504,300.5469,719.2951,290.5625,719.6157,280.5781,718.6773,270.5938,718.6226,260.6094,719.4421,250.625,718.3263,240.6406,718.6892,230.6563,719.0387,220.6719,718.9919,210.6875,718.5648,200.7031,718.8802,190.7188,719.6678,180.7344,719.5717,170.75,718.3269,160.7656,719.0017,150.7813,718.4093,140.7969,718.8969,130.8125,719.2162,120.8281,719.3431,110.8438,718.2585,100.8594,719.3237,90.875,718.9316,80.8906,718.3679,70.9063,718.4522,60.9219,719.2498,50.9375,719.1731,40.9531,718.9068,30.9688,718.2511,20.9844,719.5813,11,718.9232,10.6882,718.9232,10.4719,708.9219,10.9327,698.9207,11.5897,688.9194,11.6154,678.9182,11.0351,668.9169,10.8488,658.9157,11.1698,648.9144,11.1862,638.9131,10.4922,628.9119,11.414,618.9106,11.5588,608.9094,10.7842,598.9081,10.5708,588.9069,11.6746,578.9056,11.021,568.9043,10.9998,558.9031,11.299,548.9018,10.3543,538.9006,11.53,528.8993,10.9846,518.8981,11.6688,508.8968,10.7841,498.8955,11.409,488.8943,10.556,478.893,11.245,468.8918,11.3793,458.8905,10.6727,448.8893,11.363,438.888,10.4286,428.8867,10.5295,418.8855,11,408.8842" style="stroke:#000000;stroke-width:1.5;"/><path d="M88,408.8842 L88.1868,408.8842 L87.6317,411.2978 L88.1718,413.7114 L88.3553,416.125 L87.3659,418.5386 L88,420.9521 L87.9512,420.9033 L85.7319,422.6841 L83.759,424.7111 L81.9572,426.9093 L79.5654,428.5176 L78,430.9521 L78,432.4285 L68.4286,429.2714 L58.8571,430.4248 L49.2857,432.104 L39.7143,430.7234 L30.1429,431.1341 L20.5714,430.867 L11,430.9521 " fill="none" style="stroke:#000000;stroke-width:1.5;"/><text fill="#000000" font-family="sans-serif" font-size="14" lengthAdjust="spacing" textLength="67" x="14" y="424.8502">Validation</text><polygon fill="#F1F1F1" points="222,447.9521,222,448.1623,231.8387,447.5378,241.6774,448.1454,251.5161,448.3518,261.3548,447.2388,271.1935,447.8744,281.0323,447.5257,290.871,447.5686,300.7097,447.884,310.5484,447.2608,320.3871,448.5058,330.2258,447.3219,340.0645,447.7544,349.9032,448.3841,359.7419,447.8664,369.5806,448.0204,379.4194,447.9202,389.2581,448.1307,399.0968,448.1913,408.9355,448.5378,418.7742,448.6232,428.6129,448.6314,438.4516,448.2068,448.2903,448.4157,458.129,448.6544,467.9677,447.231,477.8065,448.6307,487.6452,447.6556,497.4839,448.486,507.3226,447.4571,517.1613,447.8836,527,447.9521,527.1748,448.1269,529.3885,450.3407,531.8248,452.777,534.2798,455.232,536.6981,457.6503,539,459.9521,538.9991,459.9512,536.6677,462.4198,534.0651,464.6172,531.867,467.2192,529.5292,469.6814,527,471.9521,527,472.3967,517.1613,472.5652,507.3226,471.4691,497.4839,471.3,487.6452,471.3307,477.8065,471.8933,467.9677,471.7556,458.129,472.6336,448.2903,471.7775,438.4516,471.6091,428.6129,472.1804,418.7742,471.2853,408.9355,471.433,399.0968,472.6011,389.2581,472.3878,379.4194,472.6866,369.5806,471.6304,359.7419,472.2713,349.9032,472.5426,340.0645,471.4797,330.2258,471.8563,320.3871,472.0781,310.5484,472.6039,300.7097,471.948,290.871,472.4147,281.0323,471.3984,271.1935,471.2749,261.3548,472.4558,251.5161,471.2352,241.6774,472.4611,231.8387,472.1588,222,471.9521,221.9369,471.889,219.5166,469.4688,217.3081,467.2603,214.7294,464.6816,212.5395,462.4916,210,459.9521,209.8697,459.8219,212.5455,457.6977,214.9142,455.2663,217.2577,452.8099,219.6111,450.3633,222,447.9521" style="stroke:#181818;stroke-width:0.5;"/><text fill="#000000" font-family="sans-serif" font-size="11" lengthAdjust="spacing" textLength="305" x="222" y="464.2201">All mandatory fields provided and are in the right format?</text><text fill="#000000" font-family="sans-serif" font-size="11" lengthAdjust="spacing" textLength="17" x="193" y="456.7292">yes</text><text fill="#000000" font-family="sans-serif" font-size="11" lengthAdjust="spacing" textLength="14" x="539" y="456.7292">no</text><polygon fill="#F1F1F1" points="35.5,481.9521,35.5,482.1623,45.6,481.5378,55.7,482.1454,65.8,482.3518,75.9,481.2388,86,481.8744,96.1,481.5257,106.2,481.5686,116.3,481.884,126.4,481.2608,136.5,482.5058,146.6,481.3219,156.7,481.7544,166.8,482.3841,176.9,481.8664,187,482.0204,197.1,481.9202,207.2,482.1307,217.3,482.1913,227.4,482.5378,237.5,481.9521,237.5856,482.1588,239.3544,482.8936,241.068,483.495,242.8624,484.2916,244.6606,485.0973,246.3388,485.6133,246.1167,485.5213,247.28,487.4676,247.712,489.111,248.6999,490.9847,249.1153,492.6212,250,494.4521,249.9772,494.4521,250.2472,496.721,249.9838,498.9898,250.0351,501.2586,250.1129,503.5274,250,505.7963,250.1282,505.8494,249.2666,507.5635,248.624,509.3684,247.627,511.0265,247.1586,512.9036,246.3388,514.6351,246.4088,514.8039,244.6278,515.5042,242.8815,516.2883,240.9739,516.683,239.1846,517.3632,237.5,518.2963,237.5,517.6749,227.4,518.2374,217.3,518.0997,207.2,518.9777,197.1,518.1216,187,517.9532,176.9,518.5245,166.8,517.6294,156.7,517.7771,146.6,518.9452,136.5,518.7319,126.4,519.0308,116.3,517.9745,106.2,518.6155,96.1,518.8867,86,517.8239,75.9,518.2004,65.8,518.4222,55.7,518.948,45.6,518.2921,35.5,518.2963,35.559,518.4387,33.6616,517.3935,31.8781,516.6232,30.2609,516.2547,28.3375,515.1465,26.6612,514.6351,26.8179,514.7,25.9926,512.8937,25.1142,511.0654,24.3555,509.2867,23.8735,507.6225,23,505.7963,22.9002,505.7963,23.1973,503.5274,22.8158,501.2586,23.2058,498.9898,23.1614,496.721,23,494.4521,23.0754,494.4834,23.7468,492.6904,24.6882,491.0093,25.3857,489.2271,25.9811,487.4027,26.6612,485.6133,26.6954,485.6959,28.4123,484.841,30.2881,484.3695,31.9842,483.4643,33.7542,482.7375,35.5,481.9521" style="stroke:#181818;stroke-width:0.5;"/><text fill="#000000" font-family="sans-serif" font-size="12" lengthAdjust="spacing" textLength="207" x="33" y="504.7802">Check if username exists in database</text><path d="M233.5,607.1063 L233.6868,607.1063 L233.1317,609.0769 L233.6718,611.0475 L233.8553,613.0181 L232.8659,614.9887 L233.5,616.9593 L233.4865,616.8915 L229.4257,617.3875 L225.4331,618.225 L221.4881,619.2999 L217.3795,619.5566 L213.5,620.9593 L213.5965,621.4418 L217.3901,621.2099 L221.4655,622.3869 L225.5753,623.7358 L229.485,624.0845 L233.5,624.9593 L233.5607,624.9593 L233.4716,626.9299 L233.6587,628.9005 L233.7126,630.8711 L234.0206,632.8417 L233.5,634.8123 L233.5,634.8123 L233.5,636.6017 L243.3333,636.6236 L253.1667,635.4913 L263,636.0485 L272.8333,636.6849 L282.6667,632.8891 L292.5,636.6216 L302.3333,634.0216 L312.1667,636.2358 L322,633.4922 L331.8333,634.6296 L341.6667,636.7899 L351.5,634.6823 L361.3333,635.0931 L371.1667,635.7153 L381,635.9222 L390.8333,634.8019 L400.6667,635.5782 L410.5,633.2858 L420.3333,635.5706 L430.1667,636.2741 L440,635.9977 L449.8333,636.447 L459.6667,633.5241 L469.5,634.8123 L469.5,634.8123 L468.9203,634.8123 L468.9476,631.2711 L469.4477,627.7299 L469.3253,624.1887 L470.1057,620.6475 L469.5,617.1063 L469.3902,616.9965 L467.2844,614.8906 L465.6435,613.2497 L463.0809,610.6871 L461.1737,608.78 L459.5,607.1063 L459.5,608.8368 L449.6739,608.268 L439.8478,609.0649 L430.0217,606.2481 L420.1957,607.9574 L410.3696,608.6807 L400.5435,605.8465 L390.7174,606.8506 L380.8913,607.4422 L371.0652,608.8443 L361.2391,607.0951 L351.413,608.3398 L341.587,605.6295 L331.7609,605.3002 L321.9348,608.4492 L312.1087,605.1944 L302.2826,608.4635 L292.4565,607.6573 L282.6304,606.3918 L272.8043,606.1629 L262.9783,608.3296 L253.1522,606.308 L243.3261,608.6846 L233.5,607.1063 L233.5,607.1063 " fill="#FEFFDD" style="stroke:#181818;stroke-width:0.5;"/><path d="M459.5,607.1063 L459.6868,607.1063 L459.1317,609.1063 L459.6718,611.1063 L459.8553,613.1063 L458.8659,615.1063 L459.5,617.1063 L459.5,617.0372 L461.5,616.7271 L463.5,616.7654 L465.5,617.0457 L467.5,616.4917 L469.5,617.1063 L469.848,617.4542 L467.1038,614.7101 L465.3757,612.9819 L463.7715,611.3777 L461.4461,609.0523 L459.5,607.1063 " fill="#FEFFDD" style="stroke:#181818;stroke-width:0.5;"/><text fill="#000000" font-family="sans-serif" font-size="13" lengthAdjust="spacing" textLength="215" x="239.5" y="626.0033">{"detail": "Username already exists"}</text><polygon fill="#F1F1F1" points="72,602.7872,72,602.9974,81.9231,602.3729,91.8462,602.9805,101.7692,603.1869,111.6923,602.0738,121.6154,602.7095,131.5385,602.3607,141.4615,602.4037,151.3846,602.719,161.3077,602.0958,171.2308,603.3408,181.1538,602.1569,191.0769,602.5894,201,602.7872,201.0551,602.9202,202.7568,603.493,204.5442,604.2727,206.2992,604.9741,208.0938,605.7711,209.8388,606.4484,209.9125,606.4789,210.7514,608.2908,211.51,610.0695,212.2447,611.8383,212.8462,613.5519,213.5,615.2872,213.6545,615.2872,213.7341,617.556,213.2596,619.8249,213.7262,622.0937,213.4012,624.3625,213.5,626.6313,213.6644,626.6994,212.6153,628.3359,212.0144,630.1581,211.5317,632.0292,210.5561,633.6962,209.8388,635.4702,209.8523,635.5026,208.1143,636.3067,206.3564,637.0628,204.535,637.6657,202.8044,638.4875,201,639.1313,201,638.5589,191.0769,639.4157,181.1538,639.6795,171.2308,639.5759,161.3077,639.7443,151.3846,638.6482,141.4615,638.4791,131.5385,638.5099,121.6154,639.0724,111.6923,638.9348,101.7692,639.8127,91.8462,638.9566,81.9231,638.7883,72,639.1313,72.0291,639.2016,70.1472,638.1937,68.3982,637.507,66.7795,637.1345,64.9845,636.3366,63.1612,635.4702,63.3874,635.5638,62.3298,633.6613,61.795,631.9753,61.1463,630.2422,60.0868,628.3388,59.5,626.6313,59.468,626.6313,59.542,624.3625,59.7173,622.0937,59.4986,619.8249,59.6542,617.556,59.5,615.2872,59.3295,615.2166,60.0237,613.433,61.1196,611.8159,61.4759,609.8925,62.5857,608.2811,63.1612,606.4484,63.1875,606.512,64.8948,605.6336,66.6516,604.875,68.523,604.393,70.194,603.4273,72,602.7872" style="stroke:#181818;stroke-width:0.5;"/><text fill="#000000" font-family="sans-serif" font-size="12" lengthAdjust="spacing" textLength="134" x="69.5" y="625.6153">Return 400 Bad Request</text><path d="M61.5,657.2172 L61.6868,657.2172 L61.1317,662.7584 L61.6718,668.2996 L61.8553,673.8408 L60.8659,679.382 L61.5,684.9232 L61.5,684.9232 L61.5,684.8541 L70.3,684.5441 L79.1,684.5823 L87.9,684.8626 L96.7,684.3087 L105.5,684.9232 L105.5,684.9232 L105.9921,684.9232 L104.9398,682.982 L105.3242,681.0408 L105.884,679.0996 L105.4238,677.1584 L105.5,675.2172 L105.5123,675.2766 L109.4942,674.36 L113.5322,673.7138 L117.5432,672.9371 L121.6057,672.4094 L125.5,671.0702 L125.6128,671.6559 L121.6142,670.8925 L117.5428,669.7512 L113.578,669.163 L109.6181,668.6007 L105.5,667.2172 L105.0467,666.7639 L103.9265,665.6437 L101.3136,663.0308 L99.8355,661.5527 L97.1889,658.906 L95.5,657.2172 L95.5,657.1563 L88.7,657.8764 L81.9,657.1739 L75.1,657.3108 L68.3,657.5182 L61.5,657.2172 L61.5,657.2172 " fill="#FEFFDD" style="stroke:#181818;stroke-width:0.5;"/><path d="M95.5,657.2172 L95.6868,657.2172 L95.1317,659.2172 L95.6718,661.2172 L95.8553,663.2172 L94.8659,665.2172 L95.5,667.2172 L95.5,667.1481 L97.5,666.8381 L99.5,666.8763 L101.5,667.1566 L103.5,666.6026 L105.5,667.2172 L105.848,667.5652 L103.1038,664.821 L101.3757,663.0929 L99.7715,661.4887 L97.4461,659.1633 L95.5,657.2172 " fill="#FEFFDD" style="stroke:#181818;stroke-width:0.5;"/><text fill="#000000" font-family="sans-serif" font-size="13" lengthAdjust="spacing" textLength="23" x="67.5" y="676.1142">End</text><polygon fill="none" points="147.5608,673.7458,145.9484,675.949,144.0412,679.1759,141.3136,681.3506,138.4474,682.5398,136.162,682.643,133.2247,681.1557,130.4532,680.1841,128.3495,678.2114,127.2461,675.953,126.5917,674.1547,125.9506,671.8059,124.91,669.7847,125.7096,667.8112,126.4102,665.6494,129.0393,663.9397,130.889,661.7213,133.1784,660.9846,135.9001,660.3502,139.3904,660.7272,141.3021,661.6287,143.5247,662.0374,146.2272,664.8062,147.1693,667.7291,147.5786,669.7235,147.115,673.0101" style="stroke:#222222;stroke-width:1.0;"/><polygon fill="#222222" points="142.5331,672.5296,141.6536,673.7314,140.6134,675.4915,139.1256,676.6777,137.5622,677.3263,136.3156,677.3826,134.7135,676.5714,133.2017,676.0414,132.0543,674.9654,131.4524,673.7335,131.0955,672.7527,130.7458,671.4715,130.1782,670.369,130.6143,669.2926,130.9965,668.1134,132.4305,667.1808,133.4394,665.9708,134.6882,665.569,136.1728,665.223,138.0766,665.4285,139.1193,665.9203,140.3317,666.1432,141.8057,667.6535,142.3196,669.2478,142.5429,670.3357,142.29,672.1283" style="stroke:#222222;stroke-width:1.0;"/><polygon fill="#F1F1F1" points="91.5,553.2963,91.5,553.5064,101.5,552.8819,111.5,553.4895,121.5,553.6959,131.5,552.5829,141.5,553.2185,151.5,552.8698,161.5,552.9128,171.5,553.2281,181.5,553.2963,181.337,553.1333,184.0305,555.8268,186.1514,557.9477,188.6534,560.4496,191.2018,562.9981,193.5,565.2963,193.4798,565.276,191.1161,567.7123,188.6925,570.0887,186.3421,572.5383,183.9564,574.9526,181.5,577.2963,181.5,577.882,171.5,577.9673,161.5,577.9755,151.5,577.5509,141.5,577.7598,131.5,577.9985,121.5,576.5751,111.5,577.9748,101.5,576.9998,91.5,577.2963,91.6258,577.4221,88.9833,574.7796,86.6839,572.4801,84.4748,570.2711,81.8885,567.6848,79.5,565.2963,79.5248,565.3211,81.9798,562.9761,84.3981,560.5944,86.6991,558.0953,89.1677,555.764,91.5,553.2963" style="stroke:#181818;stroke-width:0.5;"/><text fill="#000000" font-family="sans-serif" font-size="11" lengthAdjust="spacing" textLength="17" x="140.5" y="589.0552">yes</text><text fill="#000000" font-family="sans-serif" font-size="11" lengthAdjust="spacing" textLength="90" x="91.5" y="569.5642">Username exists?</text><text fill="#000000" font-family="sans-serif" font-size="11" lengthAdjust="spacing" textLength="14" x="193.5" y="562.0733">no</text><path d="M723.5,491.9521 L723.6868,491.9521 L723.1317,497.4933 L723.6718,503.0346 L723.8553,508.5758 L722.8659,514.117 L723.5,519.6582 L723.5,519.4509 L733.6818,518.5208 L743.8636,518.6355 L754.0455,519.4764 L764.2273,517.8145 L774.4091,521.1345 L784.5909,517.9774 L794.7727,519.1308 L804.9545,520.81 L815.1364,519.4294 L825.3182,519.8401 L835.5,519.573 L845.6818,520.1342 L855.8636,520.2959 L866.0455,521.22 L876.2273,521.4476 L886.4091,521.4695 L896.5909,520.3372 L906.7727,520.8944 L916.9545,521.5308 L927.1364,517.735 L937.3182,521.4675 L947.5,519.6582 L947.2364,519.6582 L947.9745,516.117 L947.06,512.5758 L947.4391,509.0346 L948.1592,505.4933 L947.5,501.9521 L947.4694,501.9215 L945.5662,500.0183 L943.7128,498.165 L941.7616,496.2138 L939.4975,493.9497 L937.5,491.9521 L937.5,492.718 L927.3095,490.4257 L917.119,492.7105 L906.9286,493.414 L896.7381,493.1376 L886.5476,493.5869 L876.3571,490.6639 L866.1667,490.213 L855.9762,490.2951 L845.7857,491.7951 L835.5952,491.4281 L825.4048,493.7692 L815.2143,491.4863 L805.0238,491.0373 L794.8333,492.5609 L784.6429,490.1739 L774.4524,490.5678 L764.2619,493.6827 L754.0714,493.1139 L743.881,493.9108 L733.6905,491.094 L723.5,491.9521 " fill="#FEFFDD" style="stroke:#181818;stroke-width:0.5;"/><path d="M937.5,491.9521 L937.6868,491.9521 L937.1317,493.9521 L937.6718,495.9521 L937.8553,497.9521 L936.8659,499.9521 L937.5,501.9521 L937.5,501.8831 L939.5,501.573 L941.5,501.6113 L943.5,501.8916 L945.5,501.3376 L947.5,501.9521 L947.848,502.3001 L945.1038,499.556 L943.3757,497.8278 L941.7715,496.2236 L939.4461,493.8982 L937.5,491.9521 " fill="#FEFFDD" style="stroke:#181818;stroke-width:0.5;"/><text fill="#000000" font-family="sans-serif" font-size="13" lengthAdjust="spacing" textLength="203" x="729.5" y="510.8492">{"detail": "Missing required fields"}</text><path d="M731,539.6582 L731.1868,539.6582 L730.6317,545.1994 L731.1718,550.7406 L731.3553,556.2818 L730.3659,561.823 L731,567.3642 L731,567.1569 L740.9524,566.2269 L750.9048,566.3415 L760.8571,567.1824 L770.8095,565.5205 L780.7619,568.8406 L790.7143,565.6834 L800.6667,566.8368 L810.619,568.516 L820.5714,567.1354 L830.5238,567.5461 L840.4762,567.279 L850.4286,567.8402 L860.381,568.0019 L870.3333,568.926 L880.2857,569.1537 L890.2381,569.1755 L900.1905,568.0432 L910.1429,568.6004 L920.0952,569.2368 L930.0476,565.441 L940,567.3642 L940.6031,567.3642 L939.7364,563.823 L940.4745,560.2818 L939.56,556.7406 L939.9391,553.1994 L940,549.6582 L940.4661,550.1243 L937.9694,547.6275 L936.0662,545.7243 L934.2128,543.871 L932.2616,541.9198 L930,539.6582 L930,539.6477 L920.05,540.4241 L910.1,538.1317 L900.15,540.4165 L890.2,541.12 L880.25,540.8436 L870.3,541.2929 L860.35,538.3699 L850.4,537.919 L840.45,538.0011 L830.5,539.5011 L820.55,539.1341 L810.6,541.4753 L800.65,539.1924 L790.7,538.7434 L780.75,540.2669 L770.8,537.8799 L760.85,538.2738 L750.9,541.3887 L740.95,540.8199 L731,539.6582 " fill="#FEFFDD" style="stroke:#181818;stroke-width:0.5;"/><path d="M930,539.6582 L930.1868,539.6582 L929.6317,541.6582 L930.1718,543.6582 L930.3553,545.6582 L929.3659,547.6582 L930,549.6582 L930,549.5891 L932,549.2791 L934,549.3173 L936,549.5976 L938,549.0436 L940,549.6582 L940.348,550.0061 L937.6038,547.262 L935.8757,545.5339 L934.2715,543.9297 L931.9461,541.6042 L930,539.6582 " fill="#FEFFDD" style="stroke:#181818;stroke-width:0.5;"/><text fill="#000000" font-family="sans-serif" font-size="13" lengthAdjust="spacing" textLength="188" x="737" y="558.5552">{"detail": "Invalid email format"}</text><polygon fill="#F1F1F1" points="524,511.4861,524,511.6963,533.8333,511.0718,543.6667,511.6794,553.5,511.8858,563.3333,510.7727,573.1667,511.4084,583,511.0596,592.8333,511.1026,602.6667,511.4179,612.5,510.7947,622.3333,512.0397,632.1667,510.8558,642,511.2883,651.8333,511.9181,661.6667,511.4003,671.5,511.5543,681.3333,511.4542,691.1667,511.6646,701,511.4861,701.0305,511.5597,702.8425,512.3987,704.6211,513.1572,706.3899,513.892,708.1035,514.4935,709.8388,515.1473,709.9816,515.2064,710.7873,517.0046,711.0812,518.5908,712.2445,520.5371,712.6765,522.1805,713.5,523.9861,713.6779,523.9861,713.335,526.2549,713.4772,528.5238,713.7472,530.7926,713.4838,533.0614,713.5,535.3302,713.5324,535.3437,712.8721,537.1412,712.1637,538.9188,711.3021,540.633,710.6595,542.4379,709.8388,544.1691,709.7658,543.9928,708.1073,544.9889,706.3732,545.8023,704.5922,546.5027,702.846,547.2868,701,547.8302,701,547.3471,691.1667,547.178,681.3333,547.2088,671.5,547.7713,661.6667,547.6337,651.8333,548.5116,642,547.6555,632.1667,547.4872,622.3333,548.0585,612.5,547.1634,602.6667,547.3111,592.8333,548.4792,583,548.2659,573.1667,548.5647,563.3333,547.5084,553.5,548.1494,543.6667,548.4206,533.8333,547.3578,524,547.8302,523.9878,547.8007,522.2483,547.1368,520.5476,546.5665,518.6962,545.6322,516.9879,545.0437,515.1612,544.1691,514.9906,544.0984,514.2204,542.3149,513.8518,540.6978,512.7437,538.7743,512.389,537.1629,511.5,535.3302,511.5689,535.3302,511.4107,533.0614,511.3821,530.7926,511.6529,528.5238,511.4002,526.2549,511.5,523.9861,511.6823,524.0616,512.062,522.1478,513.1546,520.5293,513.8458,518.7446,514.5044,516.9463,515.1612,515.1473,515.1672,515.1618,517.0216,514.6388,518.775,513.8718,520.4861,513.0027,522.2664,512.3009,524,511.4861" style="stroke:#181818;stroke-width:0.5;"/><text fill="#000000" font-family="sans-serif" font-size="12" lengthAdjust="spacing" textLength="182" x="521.5" y="534.3142">Return 422 Unprocessable Entity</text><path d="M537.5,612.3642 L537.6868,612.3642 L537.1317,617.9054 L537.6718,623.4466 L537.8553,628.9878 L536.8659,634.529 L537.5,640.0702 L537.5,640.0702 L537.5,640.0011 L546.3,639.6911 L555.1,639.7293 L563.9,640.0096 L572.7,639.4556 L581.5,640.0702 L581.5,640.0702 L581.9921,640.0702 L580.9398,638.129 L581.3242,636.1878 L581.884,634.2466 L581.4238,632.3054 L581.5,630.3642 L581.5123,630.4236 L585.4942,629.507 L589.5322,628.8608 L593.5432,628.0841 L597.6057,627.5564 L601.5,626.2172 L601.6128,626.8029 L597.6142,626.0395 L593.5428,624.8982 L589.578,624.31 L585.6181,623.7477 L581.5,622.3642 L581.0467,621.9109 L579.9265,620.7907 L577.3136,618.1778 L575.8355,616.6997 L573.1889,614.053 L571.5,612.3642 L571.5,612.3033 L564.7,613.0234 L557.9,612.3209 L551.1,612.4578 L544.3,612.6652 L537.5,612.3642 L537.5,612.3642 " fill="#FEFFDD" style="stroke:#181818;stroke-width:0.5;"/><path d="M571.5,612.3642 L571.6868,612.3642 L571.1317,614.3642 L571.6718,616.3642 L571.8553,618.3642 L570.8659,620.3642 L571.5,622.3642 L571.5,622.2951 L573.5,621.9851 L575.5,622.0233 L577.5,622.3036 L579.5,621.7496 L581.5,622.3642 L581.848,622.7122 L579.1038,619.968 L577.3757,618.2399 L575.7715,616.6357 L573.4461,614.3103 L571.5,612.3642 " fill="#FEFFDD" style="stroke:#181818;stroke-width:0.5;"/><text fill="#000000" font-family="sans-serif" font-size="13" lengthAdjust="spacing" textLength="23" x="543.5" y="631.2612">End</text><polygon fill="none" points="623.5608,628.8928,621.9484,631.096,620.0412,634.3229,617.3136,636.4976,614.4474,637.6868,612.162,637.79,609.2247,636.3027,606.4532,635.3311,604.3495,633.3584,603.2461,631.1,602.5917,629.3017,601.9506,626.9529,600.91,624.9317,601.7096,622.9582,602.4102,620.7964,605.0393,619.0867,606.889,616.8683,609.1784,616.1316,611.9001,615.4972,615.3904,615.8742,617.3021,616.7757,619.5247,617.1844,622.2272,619.9532,623.1693,622.8761,623.5786,624.8705,623.115,628.1571" style="stroke:#222222;stroke-width:1.0;"/><polygon fill="#222222" points="618.5331,627.6766,617.6536,628.8783,616.6134,630.6385,615.1256,631.8247,613.5622,632.4733,612.3156,632.5296,610.7135,631.7184,609.2017,631.1884,608.0543,630.1124,607.4524,628.8805,607.0955,627.8997,606.7458,626.6185,606.1782,625.516,606.6143,624.4396,606.9965,623.2604,608.4305,622.3278,609.4394,621.1178,610.6882,620.716,612.1728,620.3699,614.0766,620.5755,615.1193,621.0673,616.3317,621.2902,617.8057,622.8005,618.3196,624.3948,618.5429,625.4827,618.29,627.2753" style="stroke:#222222;stroke-width:1.0;"/><polygon fill="none" points="279,728.9232,279,729.1334,288.9474,728.5089,298.8947,729.1165,308.8421,729.3229,318.7895,728.2098,328.7368,728.8455,338.6842,728.4967,348.6316,728.5397,358.5789,728.855,368.5263,728.2318,378.4737,729.4768,388.4211,728.2929,398.3684,728.7254,408.3158,729.3552,418.2632,728.8374,428.2105,728.9914,438.1579,728.8913,448.1053,729.1017,458.0526,729.1623,468,729.5089,477.9474,729.5943,487.8947,729.6025,497.8421,729.1778,507.7895,729.3868,517.7368,729.6254,527.6842,728.202,537.6316,729.6017,547.5789,728.6267,557.5263,729.457,567.4737,728.4282,577.4211,728.8547,587.3684,729.6648,597.3158,728.8745,607.2632,729.0285,617.2105,729.2618,627.1579,729.3394,637.1053,728.9193,647.0526,729.2104,657,728.9232,656.4276,728.9232,657.2844,738.9654,657.5482,749.0077,657.4445,759.0499,657.613,769.0922,656.5169,779.1344,656.3478,789.1766,656.3786,799.2189,656.9411,809.2611,656.8035,819.3034,657.6814,829.3456,656.8253,839.3878,656.6569,849.4301,657.2283,859.4723,656.3332,869.5146,656.4809,879.5568,657.649,889.599,657.4357,899.6413,657.7345,909.6835,656.6782,919.7258,657.3192,929.768,657.5904,939.8102,656.5276,949.8525,656.9041,959.8947,657.126,969.937,657.6518,979.9792,656.9958,990.0214,657.4626,1000.0637,656.4462,1010.1059,656.3227,1020.1482,657.5036,1030.1904,656.2831,1040.2326,657.509,1050.2749,657.2066,1060.3171,656.7321,1070.3594,656.6462,1080.4016,657.4588,1090.4438,656.7007,1100.4861,657.5919,1110.5283,656.4473,1120.5706,657.6174,1130.6128,657.4843,1140.655,657.245,1150.6973,657.0472,1160.7395,657.7266,1170.7818,657.6136,1180.824,657.1693,1190.8662,657.2682,1200.9085,656.8697,1210.9507,657.7165,1220.993,657.1549,1231.0352,657.1726,1241.0774,656.3916,1251.1197,656.5948,1261.1619,657.5307,1271.2042,657.4298,1281.2464,656.9571,1291.2886,657,1301.3309,657,1301.0087,647.0526,1301.112,637.1053,1300.6447,627.1579,1301.7456,617.2105,1302.0704,607.2632,1301.8573,597.3158,1302.0258,587.3684,1301.1942,577.4211,1301.4181,567.4737,1300.9433,557.5263,1301.6149,547.5789,1301.5776,537.6316,1301.8833,527.6842,1301.1012,517.7368,1301.1965,507.7895,1301.7743,497.8421,1301.8982,487.8947,1300.8184,477.9474,1301.137,468,1301.4801,458.0526,1300.72,448.1053,1301.6843,438.1579,1301.5889,428.2105,1301.2301,418.2632,1301.4731,408.3158,1302.0596,398.3684,1301.018,388.4211,1301.6459,378.4737,1301.6165,368.5263,1301.4467,358.5789,1301.4718,348.6316,1301.4444,338.6842,1300.7067,328.7368,1300.9301,318.7895,1300.8693,308.8421,1301.3947,298.8947,1301.419,288.9474,1301.4926,279,1301.3309,278.709,1301.3309,278.9325,1291.2886,278.8798,1281.2464,279.5769,1271.2042,279.4266,1261.1619,278.5145,1251.1197,278.9271,1241.0774,278.4228,1231.0352,279.2884,1220.993,279.6085,1210.9507,279.5446,1200.9085,278.5644,1190.8662,279.464,1180.824,278.2572,1170.7818,279.2002,1160.7395,278.7007,1150.6973,279.0967,1140.655,279.2403,1130.6128,279.4721,1120.5706,278.2801,1110.5283,279.4755,1100.4861,279.1782,1090.4438,279.3553,1080.4016,279.7478,1070.3594,279.0055,1060.3171,279.1753,1050.2749,279.2134,1040.2326,279.1972,1030.1904,278.9992,1020.1482,279.7107,1010.1059,278.3903,1000.0637,279.5653,990.0214,278.376,979.9792,278.4597,969.937,279.04,959.8947,279.0283,949.8525,278.5072,939.8102,279.4137,929.768,279.1089,919.7258,279.7267,909.6835,279.6671,899.6413,278.5517,889.599,278.6021,879.5568,278.8708,869.5146,279.3555,859.4723,279.403,849.4301,279.3012,839.3878,278.658,829.3456,279.6364,819.3034,279.6338,809.2611,278.9527,799.2189,278.7609,789.1766,278.5986,779.1344,278.7854,769.0922,279.1374,759.0499,278.9316,749.0077,278.5822,738.9654,279,728.9232" style="stroke:#000000;stroke-width:1.5;"/><path d="M469,728.9232 L469.1868,728.9232 L468.6317,731.3368 L469.1718,733.7504 L469.3553,736.164 L468.3659,738.5775 L469,740.9911 L468.9512,740.9423 L466.7319,742.7231 L464.759,744.7501 L462.9572,746.9483 L460.5654,748.5566 L459,750.9911 L459,752.4675 L449,749.3104 L439,750.4637 L429,752.143 L419,750.7624 L409,751.1731 L399,750.9059 L389,751.4672 L379,751.6288 L369,752.553 L359,752.7806 L349,752.8025 L339,751.6701 L329,752.2273 L319,752.8637 L309,749.068 L299,752.8005 L289,750.2004 L279,750.9911 " fill="none" style="stroke:#000000;stroke-width:1.5;"/><text fill="#000000" font-family="sans-serif" font-size="14" lengthAdjust="spacing" textLength="180" x="282" y="744.8891">User and Account Creation</text><polygon fill="#F1F1F1" points="334,767.9911,334,768.2013,344.125,767.5768,354.25,768.1844,364.375,768.3908,374.5,767.2777,384.625,767.9134,394.75,767.5646,404.875,767.6076,415,767.9911,414.9913,767.9701,416.6796,768.5104,418.6062,769.6261,420.2229,769.9937,422.0458,770.8591,423.8388,771.6523,423.9719,771.7074,424.5447,773.4091,425.3243,775.1965,426.0257,776.9515,426.8227,778.7461,427.5,780.4911,427.5797,780.4911,427.6952,782.7599,427.7237,785.0288,427.7264,787.2976,427.5849,789.5664,427.5,791.8352,427.6428,791.8944,426.984,793.6926,425.8134,795.2788,425.5123,797.2251,424.4798,798.8685,423.8388,800.6741,423.9069,800.8385,422.0079,801.2539,420.2946,802.1174,418.6301,803.0992,416.7616,803.588,415,804.3352,415,804.4405,404.875,804.6739,394.75,804.7515,384.625,804.3313,374.5,804.6224,364.375,803.7628,354.25,804.6196,344.125,804.8834,334,804.3352,334.0567,804.4721,332.3104,803.7918,330.4028,802.722,328.6135,801.9377,326.8497,801.2149,325.1612,800.6741,325.143,800.6666,324.3684,798.8812,323.9065,797.2255,322.9107,795.3485,322.1266,793.5592,321.5,791.8352,321.5761,791.8352,321.2777,789.5664,321.327,787.2976,321.7163,785.0288,321.6452,782.7599,321.5,780.4911,321.7262,780.5848,322.1331,778.6823,323.0628,776.9963,323.8785,775.2631,324.2835,773.3598,325.1612,771.6523,325.1489,771.6228,326.945,770.9589,328.7798,770.3885,330.4639,769.4543,332.2912,768.8658,334,767.9911" style="stroke:#181818;stroke-width:0.5;"/><text fill="#000000" font-family="sans-serif" font-size="12" lengthAdjust="spacing" textLength="86" x="331.5" y="790.8192">Hash password</text><polygon fill="#F1F1F1" points="311,824.3352,311,824.5454,320.7692,823.9209,330.5385,824.5285,340.3077,824.7349,350.0769,823.6218,359.8462,824.2575,369.6154,823.9087,379.3846,823.9517,389.1538,824.2671,398.9231,823.6439,408.6923,824.8889,418.4615,823.705,428.2308,824.1375,438,824.3352,438.0551,824.4683,439.7568,825.0411,441.5442,825.8207,443.2992,826.5221,445.0938,827.3191,446.8388,827.9964,446.9125,828.0269,447.7514,829.8389,448.51,831.6175,449.2447,833.3863,449.8462,835.0999,450.5,836.8352,450.6545,836.8352,450.7341,839.1041,450.2596,841.3729,450.7262,843.6417,450.4012,845.9105,450.5,848.1793,450.6644,848.2474,449.6153,849.884,449.0144,851.7061,448.5317,853.5773,447.5561,855.2442,446.8388,857.0182,446.8523,857.0506,445.1143,857.8547,443.3564,858.6108,441.535,859.2137,439.8044,860.0356,438,860.6793,438,860.1069,428.2308,860.9637,418.4615,861.2275,408.6923,861.1239,398.9231,861.2924,389.1538,860.1963,379.3846,860.0272,369.6154,860.0579,359.8462,860.6205,350.0769,860.4828,340.3077,861.3608,330.5385,860.5047,320.7692,860.3363,311,860.6793,311.0291,860.7496,309.1472,859.7418,307.3982,859.055,305.7795,858.6825,303.9845,857.8846,302.1612,857.0182,302.3874,857.1119,301.3298,855.2094,300.795,853.5234,300.1463,851.7902,299.0868,849.8869,298.5,848.1793,298.468,848.1793,298.542,845.9105,298.7173,843.6417,298.4986,841.3729,298.6542,839.1041,298.5,836.8352,298.3295,836.7646,299.0237,834.9811,300.1196,833.3639,300.4759,831.4405,301.5857,829.8291,302.1612,827.9964,302.1875,828.06,303.8948,827.1817,305.6516,826.423,307.523,825.941,309.194,824.9753,311,824.3352" style="stroke:#181818;stroke-width:0.5;"/><text fill="#000000" font-family="sans-serif" font-size="12" lengthAdjust="spacing" textLength="132" x="308.5" y="847.1633">Create new user record</text><polygon fill="#F1F1F1" points="329,880.6793,329,880.8895,339.1111,880.265,349.2222,880.8726,359.3333,881.079,369.4444,879.966,379.5556,880.6016,389.6667,880.2529,399.7778,880.2959,409.8889,880.6112,420,880.6793,419.9118,880.4664,421.8384,881.5821,423.4551,881.9497,425.2781,882.8151,427.1262,883.7413,428.8388,884.3405,428.8124,884.3296,429.5921,886.117,430.2935,887.872,431.0905,889.6666,431.8414,891.4421,432.5,893.1793,432.6952,893.1793,432.7237,895.4482,432.7264,897.717,432.5849,899.9858,432.6545,902.2546,432.5,904.5235,432.7163,904.613,431.5457,906.1992,431.2445,908.1455,430.212,909.7889,429.7355,911.6626,428.8388,913.3623,428.7757,913.2099,427.0623,914.0734,425.3979,915.0551,423.5293,915.544,421.7812,916.3237,420,917.0235,420,917.3621,409.8889,917.4397,399.7778,917.0196,389.6667,917.3107,379.5556,916.451,369.4444,917.3079,359.3333,917.5717,349.2222,917.468,339.1111,917.6365,329,917.0235,328.9384,916.8747,327.149,916.0904,325.3852,915.3676,323.6892,914.8086,321.9039,914.034,320.1612,913.3623,320.371,913.4492,319.3751,911.5722,318.5911,909.783,318.0348,908.0881,317.0269,906.2062,316.5,904.5235,316.327,904.5235,316.7163,902.2546,316.6452,899.9858,316.7448,897.717,316.3927,895.4482,316.5,893.1793,316.5983,893.2201,317.4141,891.4869,317.819,889.5836,318.6672,887.8638,319.4677,886.1244,320.1612,884.3405,320.2443,884.5412,321.9284,883.607,323.7557,883.0185,325.3938,881.9733,327.1458,881.203,329,880.6793" style="stroke:#181818;stroke-width:0.5;"/><text fill="#000000" font-family="sans-serif" font-size="12" lengthAdjust="spacing" textLength="96" x="326.5" y="903.5074">Save to database</text><polygon fill="#F1F1F1" points="301.5,937.0235,301.5,937.2336,311.2333,936.6091,320.9667,937.2168,330.7,937.4231,340.4333,936.3101,350.1667,936.9458,359.9,936.597,369.6333,936.64,379.3667,936.9553,389.1,936.3321,398.8333,937.5771,408.5667,936.3932,418.3,936.8257,428.0333,937.4554,437.7667,936.9377,447.5,937.0235,447.5087,937.0445,449.2637,937.7459,451.0583,938.5429,452.8338,939.2938,454.6458,940.1328,456.3388,940.6846,456.5455,940.7702,457.2803,942.539,457.8817,944.2526,458.6783,946.0471,459.484,947.8453,460,949.5235,459.7596,949.5235,460.2262,951.7923,459.9012,954.0611,460.1779,956.3299,459.835,958.5988,460,960.8676,459.9789,960.8588,459.4962,962.7299,458.5205,964.3969,457.8357,966.1843,457.1754,967.9818,456.3388,969.7064,456.3919,969.8346,454.5706,970.4374,452.8399,971.2593,450.9625,971.7268,449.304,972.7229,447.5,973.3676,447.5,973.9158,437.7667,973.8121,428.0333,973.9806,418.3,972.8845,408.5667,972.7154,398.8333,972.7462,389.1,973.3087,379.3667,973.1711,369.6333,974.049,359.9,973.1929,350.1667,973.0245,340.4333,973.5958,330.7,972.7007,320.9667,972.8485,311.2333,974.0165,301.5,973.3676,301.5556,973.5017,299.8259,972.8615,297.9234,971.804,296.2374,971.2692,294.5042,970.6205,292.6612,969.7064,292.5157,969.6462,291.8994,967.9264,291.2355,966.1869,290.6652,964.4863,289.7309,962.6348,289,960.8676,289.1542,960.8676,288.8154,958.5988,288.7742,956.3299,289.1679,954.0611,288.761,951.7923,289,949.5235,289.1567,949.5884,289.7959,947.7821,290.382,945.9538,291.0878,944.175,292.0702,942.5109,292.6612,940.6846,292.623,940.5924,294.5044,940.1347,296.1262,939.0499,298.0432,938.6781,299.794,937.9048,301.5,937.0235" style="stroke:#181818;stroke-width:0.5;"/><text fill="#000000" font-family="sans-serif" font-size="12" lengthAdjust="spacing" textLength="151" x="299" y="959.8516">Create new account record</text><polygon fill="#F1F1F1" points="321.5,993.3676,321.5,993.5778,331.1364,992.9533,340.7727,993.5609,350.4091,993.7673,360.0455,992.6542,369.6818,993.2899,379.3182,992.9411,388.9545,992.9841,398.5909,993.2994,408.2273,992.6762,417.8636,993.9212,427.5,993.3676,427.4196,993.1735,429.2425,994.0389,431.0906,994.9651,432.7924,995.5379,434.5798,996.3175,436.3388,997.0287,436.329,997.0247,437.126,998.8193,437.8769,1000.5948,438.7159,1002.4068,439.4744,1004.1854,440,1005.8676,440.2264,1005.8676,440.0849,1008.1364,440.1545,1010.4052,440.2341,1012.674,439.7596,1014.9429,440,1017.2117,440.209,1017.2982,439.1765,1018.9416,438.6999,1020.8153,437.6509,1022.4518,437.05,1024.274,436.3388,1026.0505,436.4334,1026.2789,434.5649,1026.7678,432.8167,1027.5474,431.0787,1028.3515,429.3209,1029.1076,427.5,1029.7117,427.5,1029.7078,417.8636,1029.9989,408.2273,1029.1393,398.5909,1029.9961,388.9545,1030.2599,379.3182,1030.1562,369.6818,1030.3247,360.0455,1029.2286,350.4091,1029.0595,340.7727,1029.0903,331.1364,1029.6528,321.5,1029.7117,321.4749,1029.6512,319.8192,1029.1893,317.9422,1028.1934,316.1529,1027.4093,314.4581,1026.8531,312.6612,1026.0505,312.4558,1025.9655,311.7691,1024.2165,311.3965,1022.5978,310.5986,1020.8028,309.9584,1019.0732,309,1017.2117,308.8927,1017.2117,309.1064,1014.9429,309.1968,1012.674,308.8425,1010.4052,308.968,1008.1364,309,1005.8676,309.0388,1005.8836,309.9329,1004.183,310.4632,1002.3315,311.3392,1000.6233,311.7584,998.7259,312.6612,997.0287,312.5748,996.8202,314.4932,996.4516,316.1052,995.3435,318.0294,994.9888,319.7586,994.1634,321.5,993.3676" style="stroke:#181818;stroke-width:0.5;"/><text fill="#000000" font-family="sans-serif" font-size="12" lengthAdjust="spacing" textLength="111" x="319" y="1016.1957">Link account to user</text><path d="M459,1039.7117 L459.5605,1039.7117 L457.8951,1049.55 L459.5154,1059.3883 L460.0658,1069.2266 L457.0976,1079.0649 L458.7928,1088.9032 L457.8627,1098.7415 L457.9773,1108.5799 L458.8182,1118.4182 L457.1563,1128.2565 L459,1138.0948 L459.0965,1138.5774 L454.8901,1138.3454 L450.9655,1139.5224 L447.0753,1140.8713 L442.985,1141.22 L439,1142.0948 L439.0119,1142.1543 L442.9944,1142.8669 L447.0311,1143.8504 L451.0417,1144.7032 L455.1021,1145.8053 L459,1146.0948 L460.7895,1146.0948 L460.8114,1155.9331 L459.679,1165.7714 L460.2362,1175.6097 L460.8726,1185.448 L457.0768,1195.2863 L460.8094,1205.1246 L458.2093,1214.9629 L460.4235,1224.8013 L457.6799,1234.6396 L459,1244.4779 L459,1244.4779 L459,1244.2952 L468.8947,1246.4555 L478.7895,1244.3479 L488.6842,1244.7587 L498.5789,1245.3809 L508.4737,1245.5878 L518.3684,1244.4675 L528.2632,1245.2438 L538.1579,1242.9514 L548.0526,1245.2362 L557.9474,1245.9397 L567.8421,1245.6633 L577.7368,1246.1126 L587.6316,1243.1897 L597.5263,1242.7387 L607.4211,1242.8208 L617.3158,1244.3209 L627.2105,1243.9538 L637.1053,1246.295 L647,1244.4779 L647,1244.4779 L646.5342,1244.4779 L646.0852,1234.227 L647.6087,1223.9762 L645.2218,1213.7253 L645.6157,1203.4745 L648.7305,1193.2236 L648.1618,1182.9728 L648.9586,1172.7219 L646.1419,1162.4711 L647.8512,1152.2202 L648.5745,1141.9694 L645.7403,1131.7185 L646.7444,1121.4677 L647.336,1111.2168 L648.738,1100.966 L646.9888,1090.7151 L648.2335,1080.4642 L645.5232,1070.2134 L645.194,1059.9625 L647,1049.7117 L647.3165,1050.0282 L644.5494,1047.2611 L643.3199,1046.0316 L641.1299,1043.8416 L638.8316,1041.5433 L637,1039.7117 L637,1038.7683 L627.1111,1040.9351 L617.2222,1038.9135 L607.3333,1041.29 L597.4444,1038.2377 L587.5556,1041.3582 L577.6667,1041.0032 L567.7778,1040.3649 L557.8889,1039.8376 L548,1041.6493 L538.1111,1041.3479 L528.2222,1040.163 L518.3333,1040.4269 L508.4444,1039.3643 L498.5556,1041.6222 L488.6667,1040.1247 L478.7778,1040.1719 L468.8889,1038.0894 L459,1039.7117 L459,1039.7117 " fill="#FEFFDD" style="stroke:#181818;stroke-width:0.5;"/><path d="M637,1039.7117 L637.1868,1039.7117 L636.6317,1041.7117 L637.1718,1043.7117 L637.3553,1045.7117 L636.3659,1047.7117 L637,1049.7117 L637,1049.6426 L639,1049.3326 L641,1049.3708 L643,1049.6511 L645,1049.0971 L647,1049.7117 L647.348,1050.0597 L644.6038,1047.3155 L642.8757,1045.5874 L641.2715,1043.9832 L638.9461,1041.6578 L637,1039.7117 " fill="#FEFFDD" style="stroke:#181818;stroke-width:0.5;"/><text fill="#000000" font-family="sans-serif" font-size="13" lengthAdjust="spacing" textLength="95" x="465" y="1058.6087">JSON Response:</text><text fill="#000000" font-family="sans-serif" font-size="13" lengthAdjust="spacing" textLength="5" x="465" y="1076.3147">{</text><text fill="#000000" font-family="sans-serif" font-size="13" lengthAdjust="spacing" textLength="105" x="477" y="1094.0207">"user_id": "UUID",</text><text fill="#000000" font-family="sans-serif" font-size="13" lengthAdjust="spacing" textLength="132" x="477" y="1111.7268">"user_name": "jassim",</text><text fill="#000000" font-family="sans-serif" font-size="13" lengthAdjust="spacing" textLength="61" x="477" y="1129.4328">"email": "",</text><text fill="#000000" font-family="sans-serif" font-size="13" lengthAdjust="spacing" textLength="130" x="477" y="1147.1388">"first_name": "Jassim",</text><text fill="#000000" font-family="sans-serif" font-size="13" lengthAdjust="spacing" textLength="154" x="477" y="1164.8448">"middle_name": "Salman",</text><text fill="#000000" font-family="sans-serif" font-size="13" lengthAdjust="spacing" textLength="155" x="477" y="1182.5508">"last_name": "Alshomaliy",</text><text fill="#000000" font-family="sans-serif" font-size="13" lengthAdjust="spacing" textLength="127" x="477" y="1200.2568">"account_id": "UUID",</text><text fill="#000000" font-family="sans-serif" font-size="13" lengthAdjust="spacing" textLength="104" x="477" y="1217.9629">"currency": "USD"</text><text fill="#000000" font-family="sans-serif" font-size="13" lengthAdjust="spacing" textLength="5" x="465" y="1235.6689">}</text><polygon fill="#F1F1F1" points="322.5,1123.9227,322.5,1124.1329,332.9,1123.5084,343.3,1124.116,353.7,1124.3224,364.1,1123.2093,374.5,1123.845,384.9,1123.4962,395.3,1123.5392,405.7,1123.8546,416.1,1123.2314,426.5,1123.9227,426.5706,1124.0932,428.1874,1124.4609,430.0103,1125.3263,431.8584,1126.2524,433.5601,1126.8252,435.3388,1127.5839,435.3598,1127.5926,436.0612,1129.3476,436.8583,1131.1422,437.6092,1132.9177,438.4481,1134.7297,439,1136.4227,439.2237,1136.4227,439.2264,1138.6915,439.0849,1140.9604,439.1545,1143.2292,439.2341,1145.498,439,1147.7668,438.7779,1147.6748,438.4767,1149.6212,437.4442,1151.2646,436.9677,1153.1382,435.9186,1154.7748,435.3388,1156.6057,435.3301,1156.5846,433.6657,1157.5663,431.7971,1158.0551,430.049,1158.8348,428.311,1159.6389,426.5,1160.2668,426.5,1160.6831,416.1,1160.2629,405.7,1160.5541,395.3,1159.6944,384.9,1160.5512,374.5,1160.815,364.1,1160.7114,353.7,1160.8799,343.3,1159.7838,332.9,1159.6147,322.5,1160.2668,322.4207,1160.0755,320.7247,1159.5165,318.9394,1158.7419,317.2836,1158.28,315.4067,1157.2841,313.6612,1156.6057,313.5555,1156.5619,312.9992,1154.867,311.9913,1152.9851,311.3046,1151.2362,310.9321,1149.6174,310,1147.7668,310.1452,1147.7668,310.2448,1145.498,309.8927,1143.2292,310.1064,1140.9604,310.1968,1138.6915,310,1136.4227,309.8545,1136.3625,310.7027,1134.6427,311.5033,1132.9033,312.3974,1131.2026,312.9276,1129.3511,313.6612,1127.5839,313.7202,1127.7263,315.3583,1126.6811,317.1103,1125.9109,319.0287,1125.5423,320.6408,1124.4342,322.5,1123.9227" style="stroke:#181818;stroke-width:0.5;"/><text fill="#000000" font-family="sans-serif" font-size="12" lengthAdjust="spacing" textLength="109" x="320" y="1146.7508">Return 201 Created</text><path d="M289.5,1261.6249 L289.6868,1261.6249 L289.1317,1267.1661 L289.6718,1272.7073 L289.8553,1278.2485 L288.8659,1283.7897 L289.5,1289.3309 L289.5,1289.3309 L289.5,1289.1236 L300.3,1288.1936 L311.1,1288.3082 L321.9,1289.1491 L332.7,1287.4872 L343.5,1289.3309 L343.5,1289.3309 L343.9921,1289.3309 L342.9398,1287.3897 L343.3242,1285.4485 L343.884,1283.5073 L343.4238,1281.5661 L343.5,1279.6249 L343.5123,1279.6843 L347.4942,1278.7677 L351.5322,1278.1215 L355.5432,1277.3448 L359.6057,1276.817 L363.5,1275.4779 L363.6128,1276.0636 L359.6142,1275.3002 L355.5428,1274.1589 L351.578,1273.5707 L347.6181,1273.0084 L343.5,1271.6249 L343.0467,1271.1716 L341.9265,1270.0513 L339.3136,1267.4385 L337.8355,1265.9604 L335.1889,1263.3137 L333.5,1261.6249 L333.5,1261.564 L324.7,1262.2841 L315.9,1261.5815 L307.1,1261.7185 L298.3,1261.9259 L289.5,1261.6249 L289.5,1261.6249 " fill="#FEFFDD" style="stroke:#181818;stroke-width:0.5;"/><path d="M333.5,1261.6249 L333.6868,1261.6249 L333.1317,1263.6249 L333.6718,1265.6249 L333.8553,1267.6249 L332.8659,1269.6249 L333.5,1271.6249 L333.5,1271.5558 L335.5,1271.2458 L337.5,1271.284 L339.5,1271.5643 L341.5,1271.0103 L343.5,1271.6249 L343.848,1271.9729 L341.1038,1269.2287 L339.3757,1267.5006 L337.7715,1265.8964 L335.4461,1263.571 L333.5,1261.6249 " fill="#FEFFDD" style="stroke:#181818;stroke-width:0.5;"/><text fill="#000000" font-family="sans-serif" font-size="13" lengthAdjust="spacing" textLength="33" x="295.5" y="1280.5219">"End"</text><polygon fill="none" points="385.5608,1278.1535,383.9484,1280.3567,382.0412,1283.5836,379.3136,1285.7583,376.4474,1286.9475,374.162,1287.0507,371.2247,1285.5634,368.4532,1284.5918,366.3495,1282.6191,365.2461,1280.3606,364.5917,1278.5624,363.9506,1276.2136,362.91,1274.1923,363.7096,1272.2189,364.4102,1270.0571,367.0393,1268.3474,368.889,1266.129,371.1784,1265.3923,373.9001,1264.7579,377.3904,1265.1348,379.3021,1266.0364,381.5247,1266.4451,384.2272,1269.2139,385.1693,1272.1368,385.5786,1274.1312,385.115,1277.4177" style="stroke:#222222;stroke-width:1.0;"/><polygon fill="#222222" points="380.5331,1276.9373,379.6536,1278.139,378.6134,1279.8992,377.1256,1281.0854,375.5622,1281.734,374.3156,1281.7903,372.7135,1280.9791,371.2017,1280.4491,370.0543,1279.3731,369.4524,1278.1412,369.0955,1277.1603,368.7458,1275.8792,368.1782,1274.7767,368.6143,1273.7002,368.9965,1272.5211,370.4305,1271.5885,371.4394,1270.3785,372.6882,1269.9767,374.1728,1269.6306,376.0766,1269.8362,377.1193,1270.328,378.3317,1270.5509,379.8057,1272.0611,380.3196,1273.6555,380.5429,1274.7433,380.29,1276.536" style="stroke:#222222;stroke-width:1.0;"/><path d="M374.5,107.7739 L374.7802,107.7739 L373.9476,118.0293 L374.7577,128.2846 L375.0329,138.5399 L373.5488,148.7953 L374.3964,159.0506 L373.9313,169.306 L373.9887,179.5613 L374.4091,189.8166 L373.5782,200.072 L375.2382,210.3273 L373.6596,220.5826 L374.5,230.838 " fill="#181818" style="stroke:#181818;stroke-width:1.0;"/><polygon fill="#181818" points="370.5,220.838,370.565,220.864,371.1718,222.7867,372.1598,224.8619,373.0237,226.8875,373.4792,228.7497,374.5,230.838,374.4759,230.8284,375.168,228.7852,375.9813,226.7905,376.8789,224.8295,377.486,222.7524,378.5,220.838,378.6305,220.9685,377.5514,221.4894,376.8534,222.3914,376.2018,223.3398,375.2798,224.0178,374.5,224.838,374.5161,224.8541,373.6925,224.0304,372.9421,223.2801,372.1564,222.4943,371.438,221.776,370.5,220.838" style="stroke:#181818;stroke-width:1.0;"/><path d="M374.5,267.1821 L374.7802,267.1821 L373.9476,276.7179 L374.7577,286.2537 L375.0329,295.7895 L373.5488,305.3253 L374.3964,314.8611 L373.9313,324.3969 L373.9887,333.9327 L374.4091,343.4685 L373.5782,353.0043 L374.5,362.5401 " fill="#181818" style="stroke:#181818;stroke-width:1.0;"/><polygon fill="#181818" points="370.5,352.5401,370.565,352.5661,371.1718,354.4888,372.1598,356.564,373.0237,358.5896,373.4792,360.4518,374.5,362.5401,374.4759,362.5305,375.168,360.4873,375.9813,358.4926,376.8789,356.5317,377.486,354.4545,378.5,352.5401,378.6305,352.6706,377.5514,353.1916,376.8534,354.0935,376.2018,355.0419,375.2798,355.7199,374.5,356.5401,374.5161,356.5562,373.6925,355.7326,372.9421,354.9822,372.1564,354.1965,371.438,353.4782,370.5,352.5401" style="stroke:#181818;stroke-width:1.0;"/><path d="M136.5,639.1313 L136.5934,639.1313 L136.3159,643.3191 L136.5859,647.5069 L136.6776,651.6946 L136.1829,655.8824 L136.5,660.0702 " fill="#181818" style="stroke:#181818;stroke-width:1.0;"/><polygon fill="#181818" points="132.5,650.0702,132.565,650.0962,133.1718,652.0189,134.1598,654.0941,135.0237,656.1197,135.4792,657.9819,136.5,660.0702,136.4759,660.0606,137.168,658.0174,137.9813,656.0227,138.8789,654.0618,139.486,651.9846,140.5,650.0702,140.6305,650.2007,139.5514,650.7216,138.8534,651.6236,138.2018,652.572,137.2798,653.25,136.5,654.0702,136.5161,654.0863,135.6925,653.2627,134.9421,652.5123,134.1564,651.7266,133.438,651.0082,132.5,650.0702" style="stroke:#181818;stroke-width:1.0;"/><path d="M136.5,577.2963 L136.5934,577.2963 L136.3159,582.3944 L136.5859,587.4926 L136.6776,592.5908 L136.1829,597.689 L136.5,602.7872 " fill="#181818" style="stroke:#181818;stroke-width:1.0;"/><polygon fill="#181818" points="132.5,592.7872,132.565,592.8132,133.1718,594.7359,134.1598,596.8111,135.0237,598.8367,135.4792,600.6989,136.5,602.7872,136.4759,602.7776,137.168,600.7344,137.9813,598.7397,138.8789,596.7788,139.486,594.7016,140.5,592.7872,140.6305,592.9177,139.5514,593.4386,138.8534,594.3406,138.2018,595.289,137.2798,595.967,136.5,596.7872,136.5161,596.8033,135.6925,595.9797,134.9421,595.2293,134.1564,594.4436,133.438,593.7253,132.5,592.7872" style="stroke:#181818;stroke-width:1.0;"/><path d="M193.5,565.2963 L193.5,565.5765 L203.5556,564.7438 L213.6111,565.554 L223.6667,565.8292 L233.7222,564.3451 L243.7778,565.1926 L253.8333,564.7276 L263.8889,564.7849 L273.9444,565.2054 L284,564.3744 L294.0556,566.0344 L304.1111,564.4559 L314.1667,565.0326 L324.2222,565.8722 L334.2778,565.1819 L344.3333,565.3872 L354.3889,565.2537 L364.4444,565.5343 L374.5,565.2963 " fill="#181818" style="stroke:#181818;stroke-width:1.0;"/><polygon fill="#181818" points="370.5,672.4321,370.565,672.4581,371.1718,674.3808,372.1598,676.456,373.0237,678.4816,373.4792,680.3438,374.5,682.4321,374.4759,682.4225,375.168,680.3793,375.9813,678.3846,376.8789,676.4237,377.486,674.3465,378.5,672.4321,378.6305,672.5626,377.5514,673.0835,376.8534,673.9855,376.2018,674.9339,375.2798,675.6119,374.5,676.4321,374.5161,676.4482,373.6925,675.6246,372.9421,674.8742,372.1564,674.0885,371.438,673.3701,370.5,672.4321" style="stroke:#181818;stroke-width:1.0;"/><path d="M374.5,565.2963 L374.7802,565.2963 L373.9476,575.431 L374.7577,585.5657 L375.0329,595.7005 L373.5488,605.8352 L374.3964,615.97 L373.9313,626.1047 L373.9887,636.2395 L374.4091,646.3742 L373.5782,656.5089 L375.2382,666.6437 L373.6596,676.7784 L374.2363,686.9132 L375.0759,697.0479 L374.3856,707.1827 L374.591,717.3174 L374.4574,727.4521 L374.738,737.5869 L374.8188,747.7216 L375.2809,757.8564 L374.5,767.9911 " fill="#181818" style="stroke:#181818;stroke-width:1.0;"/><polygon fill="#181818" points="370.5,757.9911,370.565,758.0171,371.1718,759.9398,372.1598,762.015,373.0237,764.0406,373.4792,765.9028,374.5,767.9911,374.4759,767.9815,375.168,765.9383,375.9813,763.9436,376.8789,761.9827,377.486,759.9055,378.5,757.9911,378.6305,758.1216,377.5514,758.6426,376.8534,759.5445,376.2018,760.4929,375.2798,761.1709,374.5,761.9911,374.5161,762.0072,373.6925,761.1836,372.9421,760.4332,372.1564,759.6475,371.438,758.9292,370.5,757.9911" style="stroke:#181818;stroke-width:1.0;"/><path d="M136.5,518.2963 L136.5934,518.2963 L136.3159,525.2963 L136.5859,532.2963 L136.6776,539.2963 L136.1829,546.2963 L136.5,553.2963 " fill="#181818" style="stroke:#181818;stroke-width:1.0;"/><polygon fill="#181818" points="132.5,543.2963,132.565,543.3223,133.1718,545.245,134.1598,547.3202,135.0237,549.3457,135.4792,551.2079,136.5,553.2963,136.4759,553.2866,137.168,551.2435,137.9813,549.2488,138.8789,547.2878,139.486,545.2107,140.5,543.2963,140.6305,543.4268,139.5514,543.9477,138.8534,544.8496,138.2018,545.7981,137.2798,546.476,136.5,547.2963,136.5161,547.3123,135.6925,546.4887,134.9421,545.7383,134.1564,544.9526,133.438,544.2343,132.5,543.2963" style="stroke:#181818;stroke-width:1.0;"/><path d="M612.5,547.8302 L612.7802,547.8302 L611.9476,557.4569 L612.7577,567.0836 L613.0329,576.7103 L611.5488,586.3371 L612.3964,595.9638 L611.9313,605.5905 L612.5,615.2172 " fill="#181818" style="stroke:#181818;stroke-width:1.0;"/><polygon fill="#181818" points="608.5,605.2172,608.565,605.2432,609.1718,607.1659,610.1598,609.2411,611.0237,611.2667,611.4792,613.1289,612.5,615.2172,612.4759,615.2076,613.168,613.1644,613.9813,611.1697,614.8789,609.2088,615.486,607.1316,616.5,605.2172,616.6305,605.3477,615.5514,605.8686,614.8534,606.7706,614.2018,607.719,613.2798,608.397,612.5,609.2172,612.5161,609.2333,611.6925,608.4097,610.9421,607.6593,610.1564,606.8736,609.438,606.1552,608.5,605.2172" style="stroke:#181818;stroke-width:1.0;"/><path d="M210,459.9521 L210,460.2324 L199.5,459.3997 L189,460.2099 L178.5,460.4851 L168,459.001 L157.5,459.8485 L147,459.3835 L136.5,459.9521 " fill="#181818" style="stroke:#181818;stroke-width:1.0;"/><path d="M136.5,459.9521 L136.5934,459.9521 L136.3159,464.3521 L136.5859,468.7521 L136.6776,473.1521 L136.1829,477.5521 L136.5,481.9521 " fill="#181818" style="stroke:#181818;stroke-width:1.0;"/><polygon fill="#181818" points="132.5,471.9521,132.565,471.9782,133.1718,473.9009,134.1598,475.9761,135.0237,478.0016,135.4792,479.8638,136.5,481.9521,136.4759,481.9425,137.168,479.8993,137.9813,477.9047,138.8789,475.9437,139.486,473.8666,140.5,471.9521,140.6305,472.0826,139.5514,472.6036,138.8534,473.5055,138.2018,474.454,137.2798,475.1319,136.5,475.9521,136.5161,475.9682,135.6925,475.1446,134.9421,474.3942,134.1564,473.6085,133.438,472.8902,132.5,471.9521" style="stroke:#181818;stroke-width:1.0;"/><path d="M539,459.9521 L539,460.2324 L549.5,459.3997 L560,460.2099 L570.5,460.4851 L581,459.001 L591.5,459.8485 L602,459.3835 L612.5,459.9521 " fill="#181818" style="stroke:#181818;stroke-width:1.0;"/><path d="M612.5,459.9521 L612.7802,459.9521 L611.9476,470.2589 L612.7577,480.5657 L613.0329,490.8725 L611.5488,501.1793 L612.5,511.4861 " fill="#181818" style="stroke:#181818;stroke-width:1.0;"/><polygon fill="#181818" points="608.5,501.4861,608.565,501.5121,609.1718,503.4348,610.1598,505.51,611.0237,507.5356,611.4792,509.3978,612.5,511.4861,612.4759,511.4765,613.168,509.4333,613.9813,507.4386,614.8789,505.4777,615.486,503.4005,616.5,501.4861,616.6305,501.6166,615.5514,502.1375,614.8534,503.0395,614.2018,503.9879,613.2798,504.6659,612.5,505.4861,612.5161,505.5022,611.6925,504.6786,610.9421,503.9282,610.1564,503.1425,609.438,502.4242,608.5,501.4861" style="stroke:#181818;stroke-width:1.0;"/><path d="M374.5,398.8842 L374.7802,398.8842 L373.9476,408.6978 L374.7577,418.5114 L375.0329,428.325 L373.5488,438.1386 L374.5,447.9521 " fill="#181818" style="stroke:#181818;stroke-width:1.0;"/><polygon fill="#181818" points="370.5,437.9521,370.565,437.9782,371.1718,439.9009,372.1598,441.9761,373.0237,444.0016,373.4792,445.8638,374.5,447.9521,374.4759,447.9425,375.168,445.8993,375.9813,443.9047,376.8789,441.9437,377.486,439.8666,378.5,437.9521,378.6305,438.0826,377.5514,438.6036,376.8534,439.5055,376.2018,440.454,375.2798,441.1319,374.5,441.9521,374.5161,441.9682,373.6925,441.1446,372.9421,440.3942,372.1564,439.6085,371.438,438.8902,370.5,437.9521" style="stroke:#181818;stroke-width:1.0;"/><path d="M374.5,804.3352 L374.5934,804.3352 L374.3159,808.3352 L374.5859,812.3352 L374.6776,816.3352 L374.1829,820.3352 L374.5,824.3352 " fill="#181818" style="stroke:#181818;stroke-width:1.0;"/><polygon fill="#181818" points="370.5,814.3352,370.565,814.3613,371.1718,816.2839,372.1598,818.3592,373.0237,820.3847,373.4792,822.2469,374.5,824.3352,374.4759,824.3256,375.168,822.2824,375.9813,820.2878,376.8789,818.3268,377.486,816.2496,378.5,814.3352,378.6305,814.4657,377.5514,814.9867,376.8534,815.8886,376.2018,816.837,375.2798,817.515,374.5,818.3352,374.5161,818.3513,373.6925,817.5277,372.9421,816.7773,372.1564,815.9916,371.438,815.2733,370.5,814.3352" style="stroke:#181818;stroke-width:1.0;"/><path d="M374.5,860.6793 L374.5934,860.6793 L374.3159,864.6793 L374.5859,868.6793 L374.6776,872.6793 L374.1829,876.6793 L374.5,880.6793 " fill="#181818" style="stroke:#181818;stroke-width:1.0;"/><polygon fill="#181818" points="370.5,870.6793,370.565,870.7054,371.1718,872.6281,372.1598,874.7033,373.0237,876.7288,373.4792,878.591,374.5,880.6793,374.4759,880.6697,375.168,878.6266,375.9813,876.6319,376.8789,874.6709,377.486,872.5938,378.5,870.6793,378.6305,870.8098,377.5514,871.3308,376.8534,872.2327,376.2018,873.1812,375.2798,873.8591,374.5,874.6793,374.5161,874.6954,373.6925,873.8718,372.9421,873.1214,372.1564,872.3357,371.438,871.6174,370.5,870.6793" style="stroke:#181818;stroke-width:1.0;"/><path d="M374.5,917.0235 L374.5934,917.0235 L374.3159,921.0235 L374.5859,925.0235 L374.6776,929.0235 L374.1829,933.0235 L374.5,937.0235 " fill="#181818" style="stroke:#181818;stroke-width:1.0;"/><polygon fill="#181818" points="370.5,927.0235,370.565,927.0495,371.1718,928.9722,372.1598,931.0474,373.0237,933.0729,373.4792,934.9351,374.5,937.0235,374.4759,937.0138,375.168,934.9707,375.9813,932.976,376.8789,931.015,377.486,928.9379,378.5,927.0235,378.6305,927.154,377.5514,927.6749,376.8534,928.5769,376.2018,929.5253,375.2798,930.2032,374.5,931.0235,374.5161,931.0395,373.6925,930.2159,372.9421,929.4655,372.1564,928.6798,371.438,927.9615,370.5,927.0235" style="stroke:#181818;stroke-width:1.0;"/><path d="M374.5,973.3676 L374.5934,973.3676 L374.3159,977.3676 L374.5859,981.3676 L374.6776,985.3676 L374.1829,989.3676 L374.5,993.3676 " fill="#181818" style="stroke:#181818;stroke-width:1.0;"/><polygon fill="#181818" points="370.5,983.3676,370.565,983.3936,371.1718,985.3163,372.1598,987.3915,373.0237,989.4171,373.4792,991.2793,374.5,993.3676,374.4759,993.358,375.168,991.3148,375.9813,989.3201,376.8789,987.3591,377.486,985.282,378.5,983.3676,378.6305,983.4981,377.5514,984.019,376.8534,984.921,376.2018,985.8694,375.2798,986.5474,374.5,987.3676,374.5161,987.3837,373.6925,986.56,372.9421,985.8097,372.1564,985.0239,371.438,984.3056,370.5,983.3676" style="stroke:#181818;stroke-width:1.0;"/><path d="M374.5,1029.7117 L374.7802,1029.7117 L373.9476,1040.1796 L374.7577,1050.6475 L375.0329,1061.1154 L373.5488,1071.5833 L374.3964,1082.0512 L373.9313,1092.519 L373.9887,1102.9869 L374.4091,1113.4548 L374.5,1123.9227 " fill="#181818" style="stroke:#181818;stroke-width:1.0;"/><polygon fill="#181818" points="370.5,1113.9227,370.565,1113.9487,371.1718,1115.8714,372.1598,1117.9467,373.0237,1119.9722,373.4792,1121.8344,374.5,1123.9227,374.4759,1123.9131,375.168,1121.8699,375.9813,1119.8753,376.8789,1117.9143,377.486,1115.8371,378.5,1113.9227,378.6305,1114.0532,377.5514,1114.5742,376.8534,1115.4761,376.2018,1116.4245,375.2798,1117.1025,374.5,1117.9227,374.5161,1117.9388,373.6925,1117.1152,372.9421,1116.3648,372.1564,1115.5791,371.438,1114.8608,370.5,1113.9227" style="stroke:#181818;stroke-width:1.0;"/><path d="M374.5,1160.2668 L374.7802,1160.2668 L373.9476,1170.6879 L374.7577,1181.109 L375.0329,1191.5302 L373.5488,1201.9513 L374.3964,1212.3724 L373.9313,1222.7935 L373.9887,1233.2146 L374.4091,1243.6357 L373.5782,1254.0568 L374.5,1264.4779 " fill="#181818" style="stroke:#181818;stroke-width:1.0;"/><polygon fill="#181818" points="370.5,1254.4779,370.565,1254.5039,371.1718,1256.4266,372.1598,1258.5018,373.0237,1260.5274,373.4792,1262.3896,374.5,1264.4779,374.4759,1264.4683,375.168,1262.4251,375.9813,1260.4304,376.8789,1258.4694,377.486,1256.3923,378.5,1254.4779,378.6305,1254.6084,377.5514,1255.1293,376.8534,1256.0313,376.2018,1256.9797,375.2798,1257.6577,374.5,1258.4779,374.5161,1258.494,373.6925,1257.6703,372.9421,1256.92,372.1564,1256.1342,371.438,1255.4159,370.5,1254.4779" style="stroke:#181818;stroke-width:1.0;"/><!--SRC=[ZLJRJjj047ttLupsAKIeGDed1z4IG2geBIXk-bfDl9Duc_Mkkxi6B9H_Ptt1bn1eyn0bUyxSpupT29MXmHGILFp12ET8WJCv1RQ5d72IPjfmCd2o__r2IsrWAJ7U1DKpZCUd-LaarYhFuCxecAmzFShFnkCWi0wD2vHs14Qi4nT2zEfbHckXO6WVX7EAITmJtDr6Fy7Gtvoi0wVX27EN7DcAFUtv2S1_RgBR7p3Jl0Yhlq_LT_bXkINpMs5AB0Js1wqLAJliO4fHo0xwGe-OPf8-n7f0oppwuBlGCKyc7_k4bJ3MjN5kNiL91UUIMaA4CaN53c6aCoUqGddGSINsN9rBc-WKfIXOnuXpOqZ5HKbOH9Tiryqs8CMXx54GX7TeBDKTMleEJOF0ZzOFqFE1_VAUEPQ_MTCriOBHkPJWy_E0DWMi14bk8JFwNd3Yu050G-27vv9c2h3I9aNt-Q1yKZ0go7OLXHS9nPlISpcDiZAWHs6TBLtu8BX4IzEMtlueKraCBVO7g8BCoUL6mQVZOvWXXtajdUc0r9VV4-FackctKL0QGbuqqTXsO6sTpbwxaxJotguKRo6Ilk4ZfRi4_JZ4AjYFjObF9h1GMRq7kFJxTQNyc8gkWhUo_owytDIwsXPX_8JgYVMoVyloMjsN0e1g3PePzim61UyfjYvhEr1KsSfA8kTnh7FbuC9tj2-my2lQ15usggukh4W4YXugZVXIuWwCqDy3VmA6KkdRO1DhOFPDg4sBUFFISGCrBPySdzJfKMFJzQbJORKvSxAPLfR2zlbfe8JwpeZgG2mMrvUztV-FCpGyHRl0FsxBU_TbI7hhiEpGcfQzKytk_MdHxOiiwkCpq51FFymBY7dTF0C0]--></g></svg>