<?xml version="1.0" encoding="us-ascii" standalone="no"?><svg xmlns="http://www.w3.org/2000/svg" xmlns:xlink="http://www.w3.org/1999/xlink" contentStyleType="text/css" height="889px" preserveAspectRatio="none" style="width:867px;height:889px;background:#FFFFFF;" version="1.1" viewBox="0 0 867 889" width="867px" zoomAndPan="magnify"><defs/><g><polygon fill="none" points="229.6563,5,229.6563,5.2102,239.7508,4.5857,249.8454,5.1933,259.9399,5.3997,270.0345,4.2866,280.129,4.9223,290.2236,4.5735,300.3181,4.6165,310.4127,4.9318,320.5072,4.3086,330.6018,5.5536,340.6963,4.3697,350.7909,4.8022,360.8854,5.4319,370.98,4.9142,381.0745,5.0682,391.1691,4.9681,401.2636,5.1785,411.3582,5.2391,421.4527,5.5857,431.5473,5.6711,441.6418,5.6793,451.7364,5.2546,461.8309,5.4636,471.9255,5.7022,482.02,4.2788,492.1146,5.6785,502.2091,4.7035,512.3037,5.5338,522.3982,4.505,532.4928,4.9315,542.5873,5.7416,552.6819,4.9513,562.7764,5.1053,572.871,5.3386,582.9655,5.4162,593.0601,4.9961,603.1546,5.2872,613.2492,4.4276,623.3438,5,623.4385,5,623.5265,10.8136,623.4919,16.6272,623.5481,22.4408,623.1827,28.2543,623.3438,34.0679,623.3438,33.4157,613.2492,33.4465,603.1546,34.009,593.0601,33.8714,582.9655,34.7493,572.871,33.8932,562.7764,33.7249,552.6819,34.2962,542.5873,33.4011,532.4928,33.5488,522.3982,34.7169,512.3037,34.5036,502.2091,34.8024,492.1146,33.7461,482.02,34.3871,471.9255,34.6583,461.8309,33.5955,451.7364,33.9721,441.6418,34.1939,431.5473,34.7197,421.4527,34.0637,411.3582,34.5305,401.2636,33.5141,391.1691,33.3907,381.0745,34.5715,370.98,33.351,360.8854,34.5769,350.7909,34.2745,340.6963,33.8,330.6018,33.7141,320.5072,34.5267,310.4127,33.7686,300.3181,34.6598,290.2236,33.5152,280.129,34.6853,270.0345,34.5522,259.9399,34.3129,249.8454,34.1151,239.7508,34.7945,229.6563,34.0679,229.8608,34.0679,229.7127,28.2543,229.7456,22.4408,229.6128,16.6272,229.8951,10.8136,229.6563,5" style="stroke:#000000;stroke-width:1.0;"/><text fill="#000000" font-family="sans-serif" font-size="14" font-weight="bold" lengthAdjust="spacing" text-decoration="underline" textLength="383.6875" x="234.6563" y="24.9659">Information Entity Diagram for peer to peer payments</text><!--class UserModel--><g id="elem_UserModel"><polygon fill="#F1F1F1" points="37,47.0679,37,47.2781,46.9143,46.6536,56.8286,47.2612,66.7429,47.4676,76.6571,46.3545,86.5714,46.9902,96.4857,46.6414,106.4,46.6844,116.3143,46.9998,126.2286,46.3765,136.1429,47.6216,146.0571,46.4376,155.9714,46.8702,165.8857,47.4999,175.8,46.9821,185.7143,47.1362,195.6286,47.036,205.5429,47.2464,215.4571,47.3071,225.3714,47.6536,235.2857,47.739,245.2,47.7472,255.1143,47.3225,265.0286,47.5315,274.9429,47.7701,284.8571,46.3467,294.7714,47.7464,304.6857,46.7714,314.6,47.6017,324.5143,46.5729,334.4286,46.9994,344.3429,47.8095,354.2571,47.0192,364.1714,47.1732,374.0857,47.4065,384,47.0679,384.0531,47.1961,384.3531,47.2132,384.7437,47.4493,384.9876,47.331,385.4505,47.7413,385.7678,47.8001,385.9366,47.8701,386.0511,48.2104,386.2494,48.5855,386.0583,48.7992,386.1527,49.1312,386.5,49.5679,385.8786,49.5679,386.4411,59.6778,386.3035,69.7877,387.1814,79.8976,386.3253,90.0075,386.1569,100.1173,386.7283,110.2272,385.8332,120.3371,385.9809,130.447,387.149,140.5569,386.9357,150.6668,387.2345,160.7766,386.1782,170.8865,386.8192,180.9964,387.0904,191.1063,386.0276,201.2162,386.4041,211.3261,386.626,221.4359,387.1518,231.5458,386.4958,241.6557,386.9626,251.7656,385.9462,261.8755,385.8227,271.9854,387.0036,282.0952,385.7831,292.2051,386.5,302.315,386.6567,302.3799,386.4172,302.6949,386.1246,302.9879,385.9517,303.3305,386.0555,303.7877,385.7678,304.0828,385.7296,303.9906,385.4897,304.4115,384.9902,304.2054,384.7859,304.7123,384.4153,304.8177,384,304.815,384,305.06,374.0857,304.8622,364.1714,305.5416,354.2571,305.4286,344.3429,304.9843,334.4286,305.0832,324.5143,304.6847,314.6,305.5315,304.6857,304.9699,294.7714,304.9876,284.8571,304.2067,274.9429,304.4098,265.0286,305.3458,255.1143,305.2448,245.2,304.7721,235.2857,304.4928,225.3714,304.5961,215.4571,304.1288,205.5429,305.2297,195.6286,305.5546,185.7143,305.3414,175.8,305.5099,165.8857,304.6783,155.9714,304.9022,146.0571,304.4274,136.1429,305.099,126.2286,305.0618,116.3143,305.3674,106.4,304.5853,96.4857,304.6806,86.5714,305.2585,76.6571,305.3823,66.7429,304.3025,56.8286,304.6211,46.9143,304.9643,37,304.815,36.9221,304.6269,36.6915,304.7774,36.3258,304.6016,35.9265,304.3446,35.6039,304.273,35.2322,304.0828,35.4566,304.1757,34.9894,303.6893,35.0363,303.4158,34.8809,303.0585,34.6821,302.6833,34.5,302.315,34.6409,302.315,34.6135,292.2051,33.8758,282.0952,34.0992,271.9854,34.0385,261.8755,34.5638,251.7656,34.5881,241.6557,34.6617,231.5458,34.209,221.4359,34.4325,211.3261,34.3798,201.2162,35.0769,191.1063,34.9266,180.9964,34.0145,170.8865,34.4271,160.7766,33.9228,150.6668,34.7884,140.5569,35.1085,130.447,35.0446,120.3371,34.0644,110.2272,34.964,100.1173,33.7572,90.0075,34.7002,79.8976,34.2007,69.7877,34.5967,59.6778,34.5,49.5679,34.574,49.5986,34.7918,49.2746,34.5712,48.769,35.0858,48.5679,35.1407,48.1764,35.2322,47.8001,35.2776,47.9096,35.6812,47.884,35.94,47.5089,36.3153,47.4148,36.6737,47.2801,37,47.0679" style="stroke:#181818;stroke-width:0.5;"/><polygon fill="#ADD1B2" points="180.8108,65.7436,179.1984,67.9467,177.2912,71.1736,174.5636,73.3483,171.6974,74.5375,169.412,74.6407,166.4747,73.1535,163.7032,72.1818,161.5995,70.2091,160.4961,67.9507,159.8417,66.1525,159.2006,63.8036,158.16,61.7824,158.9596,59.8089,159.6602,57.6471,162.2893,55.9374,164.139,53.719,166.4284,52.9824,169.1501,52.348,172.6404,52.7249,174.5521,53.6264,176.7747,54.0351,179.4772,56.8039,180.4193,59.7269,180.8286,61.7213,180.365,65.0078" style="stroke:#181818;stroke-width:1.0;"/><path d="M173.2188,69.5679 L165.9063,69.5679 L165.9063,56.896 L173.2188,56.896 L173.2188,58.771 L167.9531,58.771 L167.9531,62.0367 L172.9063,62.0367 L172.9063,63.896 L167.9531,63.896 L167.9531,67.6929 L173.2188,67.6929 L173.2188,69.5679 Z " fill="#000000"/><text fill="#000000" font-family="sans-serif" font-size="14" lengthAdjust="spacing" textLength="73" x="190.25" y="68.4999">UserModel</text><path d="M35.5,79.0679 L35.5,79.3482 L45.5,78.5155 L55.5,79.3256 L65.5,79.6008 L75.5,78.1167 L85.5,78.9643 L95.5,78.4993 L105.5,78.5566 L115.5,78.977 L125.5,78.1461 L135.5,79.8061 L145.5,78.2275 L155.5,78.8042 L165.5,79.6438 L175.5,78.9535 L185.5,79.1589 L195.5,79.0253 L205.5,79.306 L215.5,79.3868 L225.5,79.8488 L235.5,79.9627 L245.5,79.9736 L255.5,79.4074 L265.5,79.686 L275.5,80.0042 L285.5,78.1063 L295.5,79.9726 L305.5,78.6726 L315.5,79.7797 L325.5,78.4079 L335.5,78.9766 L345.5,80.0567 L355.5,79.0029 L365.5,79.2083 L375.5,79.5194 L385.5,79.0679 " fill="#F1F1F1" style="stroke:#181818;stroke-width:0.5;"/><polygon fill="#000000" points="48.5166,94.8316,48.0768,95.4325,47.5567,96.3125,46.8128,96.9056,46.0311,97.23,45.4078,97.2581,44.6067,96.8525,43.8509,96.5875,43.2771,96.0495,42.9762,95.4335,42.7977,94.9431,42.6229,94.3025,42.3391,93.7513,42.5572,93.2131,42.7482,92.6235,43.4653,92.1572,43.9697,91.5522,44.5941,91.3513,45.3364,91.1783,46.2883,91.281,46.8097,91.5269,47.4158,91.6384,48.1529,92.3935,48.4098,93.1907,48.5214,93.7346,48.395,94.6309" style="stroke:#000000;stroke-width:1.0;"/><text fill="#000000" font-family="sans-serif" font-size="14" lengthAdjust="spacing" textLength="131" x="54.5" y="98.0339">user_id : UUID &#171;PK&#187;</text><path d="M35.5,106.1358 L35.5,106.4161 L45.5,105.5834 L55.5,106.3935 L65.5,106.6687 L75.5,105.1846 L85.5,106.0322 L95.5,105.5672 L105.5,105.6245 L115.5,106.045 L125.5,105.214 L135.5,106.874 L145.5,105.2955 L155.5,105.8721 L165.5,106.7118 L175.5,106.0215 L185.5,106.2268 L195.5,106.0932 L205.5,106.3739 L215.5,106.4547 L225.5,106.9168 L235.5,107.0306 L245.5,107.0415 L255.5,106.4753 L265.5,106.7539 L275.5,107.0721 L285.5,105.1743 L295.5,107.0405 L305.5,105.7405 L315.5,106.8476 L325.5,105.4758 L335.5,106.0445 L345.5,107.1246 L355.5,106.0709 L365.5,106.2762 L375.5,106.5873 L385.5,106.1358 " fill="#F1F1F1" style="stroke:#181818;stroke-width:1.0;"/><polygon fill="#000000" points="48.5166,121.8995,48.0768,122.5004,47.5567,123.3804,46.8128,123.9735,46.0311,124.2979,45.4078,124.326,44.6067,123.9204,43.8509,123.6554,43.2771,123.1174,42.9762,122.5015,42.7977,122.011,42.6229,121.3704,42.3391,120.8192,42.5572,120.281,42.7482,119.6914,43.4653,119.2251,43.9697,118.6201,44.5941,118.4192,45.3364,118.2462,46.2883,118.349,46.8097,118.5948,47.4158,118.7063,48.1529,119.4614,48.4098,120.2586,48.5214,120.8025,48.395,121.6988" style="stroke:#000000;stroke-width:1.0;"/><text fill="#000000" font-family="sans-serif" font-size="14" lengthAdjust="spacing" textLength="173" x="54.5" y="125.1018">user_name : VARCHAR(50)</text><polygon fill="#000000" points="48.5166,140.9674,48.0768,141.5683,47.5567,142.4484,46.8128,143.0415,46.0311,143.3658,45.4078,143.3939,44.6067,142.9883,43.8509,142.7233,43.2771,142.1853,42.9762,141.5694,42.7977,141.0789,42.6229,140.4384,42.3391,139.8871,42.5572,139.3489,42.7482,138.7593,43.4653,138.293,43.9697,137.688,44.5941,137.4871,45.3364,137.3141,46.2883,137.4169,46.8097,137.6628,47.4158,137.7742,48.1529,138.5293,48.4098,139.3265,48.5214,139.8704,48.395,140.7668" style="stroke:#000000;stroke-width:1.0;"/><text fill="#000000" font-family="sans-serif" font-size="14" lengthAdjust="spacing" textLength="136" x="54.5" y="144.1697">email : VARCHAR(50)</text><polygon fill="#000000" points="48.5166,160.0353,48.0768,160.6362,47.5567,161.5163,46.8128,162.1094,46.0311,162.4337,45.4078,162.4619,44.6067,162.0562,43.8509,161.7912,43.2771,161.2532,42.9762,160.6373,42.7977,160.1469,42.6229,159.5063,42.3391,158.955,42.5572,158.4168,42.7482,157.8272,43.4653,157.3609,43.9697,156.7559,44.5941,156.555,45.3364,156.382,46.2883,156.4848,46.8097,156.7307,47.4158,156.8421,48.1529,157.5973,48.4098,158.3944,48.5214,158.9384,48.395,159.8347" style="stroke:#000000;stroke-width:1.0;"/><text fill="#000000" font-family="sans-serif" font-size="14" lengthAdjust="spacing" textLength="172" x="54.5" y="163.2376">password : VARCHAR(255)</text><polygon fill="#000000" points="48.5166,179.1033,48.0768,179.7041,47.5567,180.5842,46.8128,181.1773,46.0311,181.5016,45.4078,181.5298,44.6067,181.1241,43.8509,180.8592,43.2771,180.3211,42.9762,179.7052,42.7977,179.2148,42.6229,178.5742,42.3391,178.0229,42.5572,177.4847,42.7482,176.8951,43.4653,176.4289,43.9697,175.8238,44.5941,175.6229,45.3364,175.4499,46.2883,175.5527,46.8097,175.7986,47.4158,175.91,48.1529,176.6652,48.4098,177.4623,48.5214,178.0063,48.395,178.9026" style="stroke:#000000;stroke-width:1.0;"/><text fill="#000000" font-family="sans-serif" font-size="14" lengthAdjust="spacing" textLength="170" x="54.5" y="182.3055">first_name : VARCHAR(50)</text><text fill="#000000" font-family="sans-serif" font-size="14" lengthAdjust="spacing" textLength="190" x="54.5" y="201.3734">middle_name : VARCHAR(50)</text><polygon fill="#000000" points="48.5166,217.2391,48.0768,217.84,47.5567,218.72,46.8128,219.3131,46.0311,219.6375,45.4078,219.6656,44.6067,219.26,43.8509,218.995,43.2771,218.457,42.9762,217.841,42.7977,217.3506,42.6229,216.71,42.3391,216.1588,42.5572,215.6206,42.7482,215.031,43.4653,214.5647,43.9697,213.9597,44.5941,213.7588,45.3364,213.5858,46.2883,213.6885,46.8097,213.9344,47.4158,214.0459,48.1529,214.801,48.4098,215.5982,48.5214,216.1421,48.395,217.0384" style="stroke:#000000;stroke-width:1.0;"/><text fill="#000000" font-family="sans-serif" font-size="14" lengthAdjust="spacing" textLength="167" x="54.5" y="220.4414">last_name : VARCHAR(50)</text><text fill="#000000" font-family="sans-serif" font-size="14" lengthAdjust="spacing" textLength="188" x="54.5" y="239.5093">is_admin : BOOLEAN = False</text><text fill="#000000" font-family="sans-serif" font-size="14" lengthAdjust="spacing" textLength="326" x="54.5" y="258.5772">user_status: ENUM('active', 'suspended', 'closed')</text><text fill="#000000" font-family="sans-serif" font-size="14" lengthAdjust="spacing" textLength="162" x="54.5" y="277.6451">created_at : TIMESTAMP</text><text fill="#000000" font-family="sans-serif" font-size="14" lengthAdjust="spacing" textLength="168" x="54.5" y="296.713">updated_at : TIMESTAMP</text></g><!--class AccountModel--><g id="elem_AccountModel"><polygon fill="#F1F1F1" points="39,383.8179,39,384.0281,49.0882,383.4036,59.1765,384.0112,69.2647,384.2176,79.3529,383.1045,89.4412,383.7402,99.5294,383.3914,109.6176,383.4344,119.7059,383.7498,129.7941,383.1265,139.8824,384.3716,149.9706,383.1876,160.0588,383.6202,170.1471,384.2499,180.2353,383.7321,190.3235,383.8862,200.4118,383.786,210.5,383.9964,220.5882,384.0571,230.6765,384.4036,240.7647,384.489,250.8529,384.4972,260.9412,384.0725,271.0294,384.2815,281.1176,384.5201,291.2059,383.0967,301.2941,384.4964,311.3824,383.5214,321.4706,384.3517,331.5588,383.3229,341.6471,383.7494,351.7353,384.5595,361.8235,383.7692,371.9118,383.9232,382,383.8179,382.0432,383.9222,382.4066,384.0925,382.7066,384.1096,383.0973,384.3457,383.3412,384.2274,383.7678,384.5501,383.8553,384.5864,384.083,384.9736,384.1976,385.314,384.3959,385.689,384.2048,385.9027,384.5,386.3179,383.8478,386.3179,383.8786,396.1221,384.4411,405.9263,384.3035,415.7305,385.1814,425.5347,384.3253,435.3389,384.1569,445.1431,384.7283,454.9472,383.8332,464.7514,383.9809,474.5556,385.149,484.3598,384.9357,494.164,385.2345,503.9682,384.1782,513.7724,384.8192,523.5766,385.0904,533.3808,384.0276,543.185,384.4041,552.9891,384.5,562.7933,384.5388,562.8094,384.5543,563.23,384.2058,563.4999,384.2031,563.913,383.7437,564.1369,383.7678,564.5611,383.6814,564.3525,383.4785,564.8626,382.9692,564.6332,382.772,565.1572,382.3799,565.2105,382,565.2933,382,565.0254,371.9118,564.9396,361.8235,565.7521,351.7353,564.994,341.6471,565.8852,331.5588,564.7406,321.4706,565.9108,311.3824,565.7776,301.2941,565.5383,291.2059,565.3406,281.1176,566.0199,271.0294,565.9069,260.9412,565.4626,250.8529,565.5615,240.7647,565.1631,230.6765,566.0098,220.5882,565.4482,210.5,565.4659,200.4118,564.685,190.3235,564.8881,180.2353,565.8241,170.1471,565.7231,160.0588,565.2504,149.9706,564.9712,139.8824,565.0744,129.7941,564.6072,119.7059,565.7081,109.6176,566.0329,99.5294,565.8197,89.4412,565.9883,79.3529,565.1566,69.2647,565.3806,59.1765,564.9057,49.0882,565.5774,39,565.2933,39.0315,565.3693,38.7169,565.317,38.2636,564.9297,37.9222,564.8126,37.6424,564.8441,37.2322,564.5611,37.4069,564.6335,36.9279,564.1422,36.8796,563.8293,36.8389,563.5195,36.4583,563.069,36.5,562.7933,36.8534,562.7933,36.758,552.9891,36.3992,543.185,36.6422,533.3808,37.2287,523.5766,36.1871,513.7724,36.815,503.9682,36.7856,494.164,36.6158,484.3598,36.6409,474.5556,36.6135,464.7514,35.8758,454.9472,36.0992,445.1431,36.0385,435.3389,36.5638,425.5347,36.5881,415.7305,36.6617,405.9263,36.209,396.1221,36.5,386.3179,36.4792,386.3093,36.6094,385.949,36.9705,385.6844,37.0707,385.3117,36.9363,384.8418,37.2322,384.5501,37.2229,384.5277,37.5122,384.2259,37.9761,384.3461,38.3705,384.2982,38.7159,384.1321,39,383.8179" style="stroke:#181818;stroke-width:0.5;"/><polygon fill="#ADD1B2" points="169.3108,402.4936,167.6984,404.6967,165.7912,407.9236,163.0636,410.0983,160.1974,411.2875,157.912,411.3907,154.9747,409.9035,152.2032,408.9318,150.0995,406.9591,148.9961,404.7007,148.3417,402.9025,147.7006,400.5536,146.66,398.5324,147.4596,396.5589,148.1602,394.3971,150.7893,392.6874,152.639,390.469,154.9284,389.7324,157.6501,389.098,161.1404,389.4749,163.0521,390.3764,165.2747,390.7851,167.9772,393.5539,168.9193,396.4769,169.3286,398.4713,168.865,401.7578" style="stroke:#181818;stroke-width:1.0;"/><path d="M161.7188,406.3179 L154.4063,406.3179 L154.4063,393.646 L161.7188,393.646 L161.7188,395.521 L156.4531,395.521 L156.4531,398.7867 L161.4063,398.7867 L161.4063,400.646 L156.4531,400.646 L156.4531,404.4429 L161.7188,404.4429 L161.7188,406.3179 Z " fill="#000000"/><text fill="#000000" font-family="sans-serif" font-size="14" lengthAdjust="spacing" textLength="96" x="178.75" y="405.2499">AccountModel</text><path d="M37.5,415.8179 L37.5,416.0982 L47.3857,415.2655 L57.2714,416.0756 L67.1571,416.3508 L77.0429,414.8667 L86.9286,415.7143 L96.8143,415.2493 L106.7,415.3066 L116.5857,415.727 L126.4714,414.8961 L136.3571,416.5561 L146.2429,414.9775 L156.1286,415.5542 L166.0143,416.3938 L175.9,415.7035 L185.7857,415.9089 L195.6714,415.7753 L205.5571,416.056 L215.4429,416.1368 L225.3286,416.5988 L235.2143,416.7127 L245.1,416.7236 L254.9857,416.1574 L264.8714,416.436 L274.7571,416.7542 L284.6429,414.8563 L294.5286,416.7226 L304.4143,415.4226 L314.3,416.5297 L324.1857,415.1579 L334.0714,415.7266 L343.9571,416.8067 L353.8429,415.7529 L363.7286,415.9583 L373.6143,416.2694 L383.5,415.8179 " fill="#F1F1F1" style="stroke:#181818;stroke-width:0.5;"/><polygon fill="#000000" points="50.5166,431.5816,50.0768,432.1825,49.5567,433.0625,48.8128,433.6556,48.0311,433.98,47.4078,434.0081,46.6067,433.6025,45.8509,433.3375,45.2771,432.7995,44.9762,432.1835,44.7977,431.6931,44.6229,431.0525,44.3391,430.5013,44.5572,429.9631,44.7482,429.3735,45.4653,428.9072,45.9697,428.3022,46.5941,428.1013,47.3364,427.9283,48.2883,428.031,48.8097,428.2769,49.4158,428.3884,50.1529,429.1435,50.4098,429.9407,50.5214,430.4846,50.395,431.3809" style="stroke:#000000;stroke-width:1.0;"/><text fill="#000000" font-family="sans-serif" font-size="14" lengthAdjust="spacing" textLength="154" x="56.5" y="434.7839">account_id : UUID &#171;PK&#187;</text><path d="M37.5,442.8858 L37.5,443.1661 L47.3857,442.3334 L57.2714,443.1435 L67.1571,443.4187 L77.0429,441.9346 L86.9286,442.7822 L96.8143,442.3172 L106.7,442.3745 L116.5857,442.795 L126.4714,441.964 L136.3571,443.624 L146.2429,442.0455 L156.1286,442.6221 L166.0143,443.4618 L175.9,442.7715 L185.7857,442.9768 L195.6714,442.8432 L205.5571,443.1239 L215.4429,443.2047 L225.3286,443.6668 L235.2143,443.7806 L245.1,443.7915 L254.9857,443.2253 L264.8714,443.5039 L274.7571,443.8221 L284.6429,441.9243 L294.5286,443.7905 L304.4143,442.4905 L314.3,443.5976 L324.1857,442.2258 L334.0714,442.7945 L343.9571,443.8746 L353.8429,442.8209 L363.7286,443.0262 L373.6143,443.3373 L383.5,442.8858 " fill="#F1F1F1" style="stroke:#181818;stroke-width:1.0;"/><polygon fill="#000000" points="50.5166,458.6495,50.0768,459.2504,49.5567,460.1304,48.8128,460.7235,48.0311,461.0479,47.4078,461.076,46.6067,460.6704,45.8509,460.4054,45.2771,459.8674,44.9762,459.2515,44.7977,458.761,44.6229,458.1204,44.3391,457.5692,44.5572,457.031,44.7482,456.4414,45.4653,455.9751,45.9697,455.3701,46.5941,455.1692,47.3364,454.9962,48.2883,455.099,48.8097,455.3448,49.4158,455.4563,50.1529,456.2114,50.4098,457.0086,50.5214,457.5525,50.395,458.4488" style="stroke:#000000;stroke-width:1.0;"/><text fill="#000000" font-family="sans-serif" font-size="14" lengthAdjust="spacing" textLength="130" x="56.5" y="461.8518">user_id : UUID &#171;FK&#187;</text><text fill="#000000" font-family="sans-serif" font-size="14" lengthAdjust="spacing" textLength="162" x="56.5" y="480.9197">balance : DECIMAL(10,3)</text><text fill="#000000" font-family="sans-serif" font-size="14" lengthAdjust="spacing" textLength="201" x="56.5" y="499.9876">currency : VARCHAR(3) = 'BHD'</text><text fill="#000000" font-family="sans-serif" font-size="14" lengthAdjust="spacing" textLength="322" x="56.5" y="519.0555">account_status: ENUM('active', 'closed','blocked')</text><text fill="#000000" font-family="sans-serif" font-size="14" lengthAdjust="spacing" textLength="162" x="56.5" y="538.1234">created_at : TIMESTAMP</text><text fill="#000000" font-family="sans-serif" font-size="14" lengthAdjust="spacing" textLength="168" x="56.5" y="557.1914">updated_at : TIMESTAMP</text></g><!--class TransactionModel--><g id="elem_TransactionModel"><polygon fill="#F1F1F1" points="9.5,644.2879,9.5,644.4981,19.55,643.8736,29.6,644.4812,39.65,644.6876,49.7,643.5745,59.75,644.2102,69.8,643.8614,79.85,643.9044,89.9,644.2198,99.95,643.5965,110,644.8416,120.05,643.6576,130.1,644.0902,140.15,644.7199,150.2,644.2021,160.25,644.3562,170.3,644.256,180.35,644.4664,190.4,644.5271,200.45,644.8736,210.5,644.959,220.55,644.9672,230.6,644.5425,240.65,644.7515,250.7,644.9901,260.75,643.5667,270.8,644.9664,280.85,643.9914,290.9,644.8217,300.95,643.7929,311,644.2194,321.05,645.0295,331.1,644.2392,341.15,644.3932,351.2,644.6265,361.25,644.7041,371.3,644.284,381.35,644.5751,391.4,643.7155,401.45,644.5723,411.5,644.2879,411.5699,644.4567,411.9103,644.5713,412.2853,644.7696,412.499,644.5785,412.831,644.6729,413.2678,645.0201,413.0764,644.9409,413.3961,645.3662,413.5001,645.7022,413.917,646.1677,413.7998,646.4121,414,646.7879,413.6569,646.7879,414.2283,656.9479,413.3332,667.1078,413.4809,677.2678,414.649,687.4278,414.4357,697.5877,414.7345,707.7477,413.6782,717.9077,414.3192,728.0676,414.5904,738.2276,413.5276,748.3876,413.9041,758.5475,414.126,768.7075,414.6518,778.8674,413.9958,789.0274,414.4626,799.1874,413.4462,809.3473,413.3227,819.5073,414.5036,829.6673,413.2831,839.8272,414.509,849.9872,414.2066,860.1472,413.7321,870.3071,414,880.4671,413.8911,880.422,413.9948,880.8792,413.6149,881.136,413.7429,881.6032,413.244,881.8108,413.2678,882.2349,413.3465,882.425,412.976,882.5304,412.5919,882.6032,412.2131,882.6887,411.9462,883.0444,411.5,882.9671,411.5,883.5807,401.45,883.1363,391.4,883.2353,381.35,882.8368,371.3,883.6835,361.25,883.122,351.2,883.1397,341.15,882.3587,331.1,882.5619,321.05,883.4978,311,883.3968,300.95,882.9242,290.9,882.6449,280.85,882.7482,270.8,882.2809,260.75,883.3818,250.7,883.7066,240.65,883.4935,230.6,883.662,220.55,882.8304,210.5,883.0543,200.45,882.5795,190.4,883.2511,180.35,883.2138,170.3,883.5195,160.25,882.7374,150.2,882.8327,140.15,883.4105,130.1,883.5344,120.05,882.4546,110,882.7732,99.95,883.1163,89.9,882.3562,79.85,883.3205,69.8,883.2251,59.75,882.8663,49.7,883.1093,39.65,883.6958,29.6,882.6542,19.55,883.2821,9.5,882.9671,9.5364,883.0551,9.1612,882.8563,8.8109,882.7176,8.4538,882.5627,8.0062,882.1891,7.7322,882.2349,7.6088,882.1837,7.4437,881.8224,7.459,881.5359,7.32,881.1854,7.1963,880.8413,7,880.4671,6.709,880.4671,6.9325,870.3071,6.8798,860.1472,7.5769,849.9872,7.4266,839.8272,6.5145,829.6673,6.9271,819.5073,6.4228,809.3473,7.2884,799.1874,7.6085,789.0274,7.5446,778.8674,6.5644,768.7075,7.464,758.5475,6.2572,748.3876,7.2002,738.2276,6.7007,728.0676,7.0967,717.9077,7.2403,707.7477,7.4721,697.5877,6.2801,687.4278,7.4755,677.2678,7.1782,667.1078,7.3553,656.9479,7,646.7879,7.2303,646.8833,7.1481,646.4351,7.3469,646.1032,7.5051,645.7545,7.6465,645.3989,7.7322,645.0201,7.7321,645.0199,8.1764,645.0926,8.3616,644.5395,8.865,644.7549,9.0668,644.2422,9.5,644.2879" style="stroke:#181818;stroke-width:0.5;"/><polygon fill="#ADD1B2" points="156.8108,662.9636,155.1984,665.1667,153.2912,668.3936,150.5636,670.5683,147.6974,671.7575,145.412,671.8607,142.4747,670.3735,139.7032,669.4018,137.5995,667.4291,136.4961,665.1707,135.8417,663.3725,135.2006,661.0236,134.16,659.0024,134.9596,657.0289,135.6602,654.8671,138.2893,653.1574,140.139,650.939,142.4284,650.2024,145.1501,649.568,148.6404,649.9449,150.5521,650.8464,152.7747,651.2551,155.4772,654.0239,156.4193,656.9469,156.8286,658.9413,156.365,662.2278" style="stroke:#181818;stroke-width:1.0;"/><path d="M149.2188,666.7879 L141.9063,666.7879 L141.9063,654.116 L149.2188,654.116 L149.2188,655.991 L143.9531,655.991 L143.9531,659.2567 L148.9063,659.2567 L148.9063,661.116 L143.9531,661.116 L143.9531,664.9129 L149.2188,664.9129 L149.2188,666.7879 Z " fill="#000000"/><text fill="#000000" font-family="sans-serif" font-size="14" lengthAdjust="spacing" textLength="121" x="166.25" y="665.7199">TransactionModel</text><path d="M8,676.2879 L8,676.5682 L17.878,675.7355 L27.7561,676.5456 L37.6341,676.8208 L47.5122,675.3367 L57.3902,676.1843 L67.2683,675.7193 L77.1463,675.7766 L87.0244,676.197 L96.9024,675.3661 L106.7805,677.0261 L116.6585,675.4475 L126.5366,676.0242 L136.4146,676.8638 L146.2927,676.1735 L156.1707,676.3789 L166.0488,676.2453 L175.9268,676.526 L185.8049,676.6068 L195.6829,677.0688 L205.561,677.1827 L215.439,677.1936 L225.3171,676.6274 L235.1951,676.906 L245.0732,677.2242 L254.9512,675.3263 L264.8293,677.1926 L274.7073,675.8926 L284.5854,676.9997 L294.4634,675.6279 L304.3415,676.1966 L314.2195,677.2767 L324.0976,676.2229 L333.9756,676.4283 L343.8537,676.7394 L353.7317,676.8429 L363.6098,676.2827 L373.4878,676.6709 L383.3659,675.5247 L393.2439,676.6671 L403.122,677.0188 L413,676.2879 " fill="#F1F1F1" style="stroke:#181818;stroke-width:0.5;"/><polygon fill="#000000" points="21.0166,692.0516,20.5768,692.6525,20.0567,693.5325,19.3128,694.1256,18.5311,694.45,17.9078,694.4781,17.1067,694.0725,16.3509,693.8075,15.7771,693.2695,15.4762,692.6535,15.2977,692.1631,15.1229,691.5225,14.8391,690.9713,15.0572,690.4331,15.2482,689.8435,15.9653,689.3772,16.4697,688.7722,17.0941,688.5713,17.8364,688.3983,18.7883,688.501,19.3097,688.7469,19.9158,688.8584,20.6529,689.6135,20.9098,690.4107,21.0214,690.9546,20.895,691.8509" style="stroke:#000000;stroke-width:1.0;"/><text fill="#000000" font-family="sans-serif" font-size="14" lengthAdjust="spacing" textLength="177" x="27" y="695.2539">transaction_id : UUID &#171;PK&#187;</text><path d="M8,703.3558 L8,703.6361 L17.878,702.8034 L27.7561,703.6135 L37.6341,703.8887 L47.5122,702.4046 L57.3902,703.2522 L67.2683,702.7872 L77.1463,702.8445 L87.0244,703.265 L96.9024,702.434 L106.7805,704.094 L116.6585,702.5155 L126.5366,703.0921 L136.4146,703.9318 L146.2927,703.2415 L156.1707,703.4468 L166.0488,703.3132 L175.9268,703.5939 L185.8049,703.6747 L195.6829,704.1368 L205.561,704.2506 L215.439,704.2615 L225.3171,703.6953 L235.1951,703.9739 L245.0732,704.2921 L254.9512,702.3943 L264.8293,704.2605 L274.7073,702.9605 L284.5854,704.0676 L294.4634,702.6958 L304.3415,703.2645 L314.2195,704.3446 L324.0976,703.2909 L333.9756,703.4962 L343.8537,703.8073 L353.7317,703.9108 L363.6098,703.3506 L373.4878,703.7388 L383.3659,702.5926 L393.2439,703.735 L403.122,704.0868 L413,703.3558 " fill="#F1F1F1" style="stroke:#181818;stroke-width:1.0;"/><polygon fill="#000000" points="21.0166,719.1195,20.5768,719.7204,20.0567,720.6004,19.3128,721.1935,18.5311,721.5179,17.9078,721.546,17.1067,721.1404,16.3509,720.8754,15.7771,720.3374,15.4762,719.7215,15.2977,719.231,15.1229,718.5904,14.8391,718.0392,15.0572,717.501,15.2482,716.9114,15.9653,716.4451,16.4697,715.8401,17.0941,715.6392,17.8364,715.4662,18.7883,715.569,19.3097,715.8148,19.9158,715.9263,20.6529,716.6814,20.9098,717.4786,21.0214,718.0225,20.895,718.9188" style="stroke:#000000;stroke-width:1.0;"/><text fill="#000000" font-family="sans-serif" font-size="14" lengthAdjust="spacing" textLength="206" x="27" y="722.3218">sender_account_id : UUID &#171;FK&#187;</text><polygon fill="#000000" points="21.0166,738.1874,20.5768,738.7883,20.0567,739.6684,19.3128,740.2615,18.5311,740.5858,17.9078,740.6139,17.1067,740.2083,16.3509,739.9433,15.7771,739.4053,15.4762,738.7894,15.2977,738.2989,15.1229,737.6584,14.8391,737.1071,15.0572,736.5689,15.2482,735.9793,15.9653,735.513,16.4697,734.908,17.0941,734.7071,17.8364,734.5341,18.7883,734.6369,19.3097,734.8828,19.9158,734.9942,20.6529,735.7493,20.9098,736.5465,21.0214,737.0904,20.895,737.9868" style="stroke:#000000;stroke-width:1.0;"/><text fill="#000000" font-family="sans-serif" font-size="14" lengthAdjust="spacing" textLength="213" x="27" y="741.3897">receiver_account_id : UUID &#171;FK&#187;</text><polygon fill="#000000" points="21.0166,757.2553,20.5768,757.8562,20.0567,758.7363,19.3128,759.3294,18.5311,759.6537,17.9078,759.6819,17.1067,759.2762,16.3509,759.0112,15.7771,758.4732,15.4762,757.8573,15.2977,757.3669,15.1229,756.7263,14.8391,756.175,15.0572,755.6368,15.2482,755.0472,15.9653,754.5809,16.4697,753.9759,17.0941,753.775,17.8364,753.602,18.7883,753.7048,19.3097,753.9507,19.9158,754.0621,20.6529,754.8173,20.9098,755.6144,21.0214,756.1584,20.895,757.0547" style="stroke:#000000;stroke-width:1.0;"/><text fill="#000000" font-family="sans-serif" font-size="14" lengthAdjust="spacing" textLength="161" x="27" y="760.4576">amount : DECIMAL(10,3)</text><polygon fill="#000000" points="21.0166,776.3233,20.5768,776.9241,20.0567,777.8042,19.3128,778.3973,18.5311,778.7216,17.9078,778.7498,17.1067,778.3441,16.3509,778.0792,15.7771,777.5411,15.4762,776.9252,15.2977,776.4348,15.1229,775.7942,14.8391,775.2429,15.0572,774.7047,15.2482,774.1151,15.9653,773.6489,16.4697,773.0438,17.0941,772.8429,17.8364,772.6699,18.7883,772.7727,19.3097,773.0186,19.9158,773.13,20.6529,773.8852,20.9098,774.6823,21.0214,775.2263,20.895,776.1226" style="stroke:#000000;stroke-width:1.0;"/><text fill="#000000" font-family="sans-serif" font-size="14" lengthAdjust="spacing" textLength="188" x="27" y="779.5255">from_currency : VARCHAR(3)</text><polygon fill="#000000" points="21.0166,795.3912,20.5768,795.992,20.0567,796.8721,19.3128,797.4652,18.5311,797.7895,17.9078,797.8177,17.1067,797.4121,16.3509,797.1471,15.7771,796.6091,15.4762,795.9931,15.2977,795.5027,15.1229,794.8621,14.8391,794.3109,15.0572,793.7726,15.2482,793.1831,15.9653,792.7168,16.4697,792.1118,17.0941,791.9109,17.8364,791.7378,18.7883,791.8406,19.3097,792.0865,19.9158,792.198,20.6529,792.9531,20.9098,793.7503,21.0214,794.2942,20.895,795.1905" style="stroke:#000000;stroke-width:1.0;"/><text fill="#000000" font-family="sans-serif" font-size="14" lengthAdjust="spacing" textLength="169" x="27" y="798.5934">to_currency : VARCHAR(3)</text><polygon fill="#000000" points="21.0166,814.4591,20.5768,815.06,20.0567,815.94,19.3128,816.5331,18.5311,816.8575,17.9078,816.8856,17.1067,816.48,16.3509,816.215,15.7771,815.677,15.4762,815.061,15.2977,814.5706,15.1229,813.93,14.8391,813.3788,15.0572,812.8406,15.2482,812.251,15.9653,811.7847,16.4697,811.1797,17.0941,810.9788,17.8364,810.8058,18.7883,810.9085,19.3097,811.1544,19.9158,811.2659,20.6529,812.021,20.9098,812.8182,21.0214,813.3621,20.895,814.2584" style="stroke:#000000;stroke-width:1.0;"/><text fill="#000000" font-family="sans-serif" font-size="14" lengthAdjust="spacing" textLength="207" x="27" y="817.6614">exchange_rate : DECIMAL(10,6)</text><text fill="#000000" font-family="sans-serif" font-size="14" lengthAdjust="spacing" textLength="381" x="27" y="836.7293">transaction_status: ENUM('pending', 'completed', 'failed')</text><text fill="#000000" font-family="sans-serif" font-size="14" lengthAdjust="spacing" textLength="162" x="27" y="855.7972">created_at : TIMESTAMP</text><text fill="#000000" font-family="sans-serif" font-size="14" lengthAdjust="spacing" textLength="168" x="27" y="874.8651">updated_at : TIMESTAMP</text></g><g id="elem_GMN8"><path d="M422,153.2379 L422.1868,153.2379 L421.6317,156.9779 L422.1718,160.7179 L422.3553,164.4579 L421.3659,168.1979 L422,171.9379 L421.9922,171.8693 L414.947,172.3613 L407.9413,173.1992 L400.9631,174.2777 L393.8903,174.5273 L386.95,175.9379 L387.0058,176.4269 L393.8965,176.1813 L400.9501,177.3633 L408.0235,178.7194 L414.9814,179.0622 L422,179.9379 L422.0607,179.9379 L421.9716,183.6803 L422.1587,187.4227 L422.2126,191.1651 L422.5206,194.9075 L422,198.6499 L422,198.6499 L422,200.4394 L432.0909,200.4613 L442.1818,199.329 L452.2727,199.8862 L462.3636,200.5226 L472.4545,196.7268 L482.5455,200.4593 L492.6364,197.8593 L502.7273,200.0734 L512.8182,197.3299 L522.9091,198.4673 L533,200.6276 L543.0909,198.52 L553.1818,198.9308 L563.2727,199.553 L573.3636,199.7599 L583.4545,198.6395 L593.5455,199.4159 L603.6364,197.1235 L613.7273,199.4083 L623.8182,200.1118 L633.9091,199.8354 L644,200.2847 L654.0909,197.3617 L664.1818,196.9108 L674.2727,196.9929 L684.3636,198.4929 L694.4545,198.1259 L704.5455,200.467 L714.6364,198.1841 L724.7273,197.7351 L734.8182,199.2587 L744.9091,196.8717 L755,198.6499 L755,198.6499 L754.5386,198.6499 L755.5768,191.5675 L755.3873,184.4851 L755.6529,177.4027 L754.714,170.3203 L755,163.2379 L755.2006,163.4385 L753.3711,161.609 L750.7031,158.941 L748.9397,157.1777 L747.0792,155.3171 L745,153.2379 L745,154.9759 L734.9063,153.2267 L724.8125,154.4714 L714.7188,151.7612 L704.625,151.4319 L694.5313,154.5809 L684.4375,151.3261 L674.3438,154.5951 L664.25,153.7889 L654.1563,152.5235 L644.0625,152.2945 L633.9688,154.4613 L623.875,152.4397 L613.7813,154.8162 L603.6875,151.7639 L593.5938,154.8844 L583.5,154.5294 L573.4063,153.8912 L563.3125,153.3638 L553.2188,155.1755 L543.125,154.8741 L533.0313,153.6893 L522.9375,153.9531 L512.8438,152.8905 L502.75,155.1485 L492.6563,153.6509 L482.5625,153.6981 L472.4688,151.6156 L462.375,152.1573 L452.2813,154.6532 L442.1875,154.3839 L432.0938,153.1234 L422,153.2379 L422,153.2379 " fill="#FEFFDD" style="stroke:#181818;stroke-width:0.5;"/><path d="M745,153.2379 L745.1868,153.2379 L744.6317,155.2379 L745.1718,157.2379 L745.3553,159.2379 L744.3659,161.2379 L745,163.2379 L745,163.1688 L747,162.8588 L749,162.897 L751,163.1773 L753,162.6234 L755,163.2379 L755.348,163.5859 L752.6038,160.8418 L750.8757,159.1136 L749.2715,157.5094 L746.9461,155.184 L745,153.2379 " fill="#FEFFDD" style="stroke:#181818;stroke-width:0.5;"/><text fill="#000000" font-family="sans-serif" font-size="13" lengthAdjust="spacing" textLength="271" x="428" y="172.1349">UserModel represents the user in the system.</text><text fill="#000000" font-family="sans-serif" font-size="13" lengthAdjust="spacing" textLength="312" x="428" y="189.8409">It contains personal information and account status.</text></g><g id="elem_GMN11"><path d="M419.5,451.8479 L419.6868,451.8479 L419.1317,455.5879 L419.6718,459.3279 L419.8553,463.0679 L418.8659,466.8079 L419.5,470.5479 L419.4921,470.4793 L412.5404,470.9713 L405.6288,471.8093 L398.745,472.8877 L391.7654,473.1374 L384.92,474.5479 L384.9765,475.0368 L391.7716,474.7914 L398.7318,475.9733 L405.7121,477.3293 L412.5752,477.6722 L419.5,478.5479 L419.5607,478.5479 L419.4716,482.2903 L419.6587,486.0327 L419.7126,489.7751 L420.0206,493.5175 L419.5,497.2599 L419.5,497.2599 L419.5,499.0494 L429.629,499.0713 L439.7581,497.939 L449.8871,498.4962 L460.0161,499.1326 L470.1452,495.3368 L480.2742,499.0693 L490.4032,496.4693 L500.5323,498.6834 L510.6613,495.9399 L520.7903,497.0773 L530.9194,499.2376 L541.0484,497.13 L551.1774,497.5408 L561.3065,498.163 L571.4355,498.3699 L581.5645,497.2495 L591.6935,498.0259 L601.8226,495.7335 L611.9516,498.0183 L622.0806,498.7218 L632.2097,498.4454 L642.3387,498.8947 L652.4677,495.9717 L662.5968,495.5208 L672.7258,495.6029 L682.8548,497.1029 L692.9839,496.7359 L703.1129,499.077 L713.2419,496.7941 L723.371,496.3451 L733.5,497.2599 L733.5,497.2599 L733.7029,497.2599 L732.9073,490.1775 L733.0386,483.0951 L734.0768,476.0127 L733.8873,468.9303 L733.5,461.8479 L733.9617,462.3096 L731.2977,459.6457 L729.7006,458.0485 L727.8711,456.219 L725.2031,453.551 L723.5,451.8479 L723.5,451.5923 L713.3667,452.1839 L703.2333,453.5859 L693.1,451.8367 L682.9667,453.0814 L672.8333,450.3712 L662.7,450.0419 L652.5667,453.1909 L642.4333,449.9361 L632.3,453.2051 L622.1667,452.3989 L612.0333,451.1335 L601.9,450.9045 L591.7667,453.0713 L581.6333,451.0497 L571.5,453.4262 L561.3667,450.3739 L551.2333,453.4944 L541.1,453.1394 L530.9667,452.5012 L520.8333,451.9738 L510.7,453.7855 L500.5667,453.4841 L490.4333,452.2993 L480.3,452.5631 L470.1667,451.5005 L460.0333,453.7585 L449.9,452.2609 L439.7667,452.3081 L429.6333,450.2256 L419.5,451.8479 L419.5,451.8479 " fill="#FEFFDD" style="stroke:#181818;stroke-width:0.5;"/><path d="M723.5,451.8479 L723.6868,451.8479 L723.1317,453.8479 L723.6718,455.8479 L723.8553,457.8479 L722.8659,459.8479 L723.5,461.8479 L723.5,461.7788 L725.5,461.4688 L727.5,461.507 L729.5,461.7873 L731.5,461.2334 L733.5,461.8479 L733.848,462.1959 L731.1038,459.4518 L729.3757,457.7236 L727.7715,456.1194 L725.4461,453.794 L723.5,451.8479 " fill="#FEFFDD" style="stroke:#181818;stroke-width:0.5;"/><text fill="#000000" font-family="sans-serif" font-size="13" lengthAdjust="spacing" textLength="269" x="425.5" y="470.7449">AccountModel represents the user's account.</text><text fill="#000000" font-family="sans-serif" font-size="13" lengthAdjust="spacing" textLength="293" x="425.5" y="488.4509">It contains balance, currency, and account status.</text></g><g id="elem_GMN14"><path d="M449,740.9179 L449.1868,740.9179 L448.6317,744.6599 L449.1718,748.4019 L449.3553,752.1439 L448.3659,755.8859 L449,759.6279 L448.9921,759.5593 L442.0146,760.0513 L435.077,760.8893 L428.1671,761.9677 L421.1616,762.2174 L414.29,763.6279 L414.3463,764.1168 L421.1679,763.8714 L428.1539,765.0533 L435.16,766.4093 L442.0493,766.7522 L449,767.6279 L449.0607,767.6279 L448.9716,771.3683 L449.1587,775.1087 L449.2126,778.8491 L449.5206,782.5895 L449,786.3299 L449,786.3299 L449,788.1194 L459.0244,788.1413 L469.0488,787.009 L479.0732,787.5662 L489.0976,788.2026 L499.122,784.4068 L509.1463,788.1393 L519.1707,785.5393 L529.1951,787.7534 L539.2195,785.0099 L549.2439,786.1473 L559.2683,788.3076 L569.2927,786.2 L579.3171,786.6108 L589.3415,787.233 L599.3659,787.4399 L609.3902,786.3195 L619.4146,787.0959 L629.439,784.8035 L639.4634,787.0883 L649.4878,787.7918 L659.5122,787.5154 L669.5366,787.9647 L679.561,785.0417 L689.5854,784.5908 L699.6098,784.6729 L709.6341,786.1729 L719.6585,785.8059 L729.6829,788.147 L739.7073,785.8641 L749.7317,785.4151 L759.7561,786.9387 L769.7805,784.5517 L779.8049,784.9456 L789.8293,788.0605 L799.8537,787.4917 L809.878,788.2886 L819.9024,785.4718 L829.9268,787.1811 L839.9512,787.9044 L849.9756,785.0702 L860,786.3299 L860,786.3299 L859.9148,786.3299 L860.112,779.2475 L860.5793,772.1651 L859.9963,765.0827 L860.4112,758.0003 L860,750.9179 L859.6519,750.5698 L857.5743,748.4922 L856.3165,747.2345 L853.5494,744.4673 L852.3199,743.2378 L850,740.9179 L850,741.4689 L839.975,740.2035 L829.95,739.9745 L819.925,742.1413 L809.9,740.1197 L799.875,742.4962 L789.85,739.4439 L779.825,742.5644 L769.8,742.2094 L759.775,741.5712 L749.75,741.0438 L739.725,742.8555 L729.7,742.5541 L719.675,741.3693 L709.65,741.6331 L699.625,740.5705 L689.6,742.8285 L679.575,741.3309 L669.55,741.3781 L659.525,739.2956 L649.5,739.8373 L639.475,742.3332 L629.45,742.0639 L619.425,740.8034 L609.4,740.0588 L599.375,740.3341 L589.35,739.0881 L579.325,742.0239 L569.3,742.8901 L559.275,742.3216 L549.25,742.7711 L539.225,740.5533 L529.2,741.1505 L519.175,739.8843 L509.15,741.6754 L499.125,741.576 L489.1,742.391 L479.075,740.3055 L469.05,740.5595 L459.025,742.1005 L449,740.9179 L449,740.9179 " fill="#FEFFDD" style="stroke:#181818;stroke-width:0.5;"/><path d="M850,740.9179 L850.1868,740.9179 L849.6317,742.9179 L850.1718,744.9179 L850.3553,746.9179 L849.3659,748.9179 L850,750.9179 L850,750.8488 L852,750.5388 L854,750.577 L856,750.8573 L858,750.3034 L860,750.9179 L860.348,751.2659 L857.6038,748.5218 L855.8757,746.7936 L854.2715,745.1894 L851.9461,742.864 L850,740.9179 " fill="#FEFFDD" style="stroke:#181818;stroke-width:0.5;"/><text fill="#000000" font-family="sans-serif" font-size="13" lengthAdjust="spacing" textLength="390" x="455" y="759.8149">TransactionModel represents the transactions between accounts.</text><text fill="#000000" font-family="sans-serif" font-size="13" lengthAdjust="spacing" textLength="390" x="455" y="777.5209">It contains details about the sender, receiver, amount, and status.</text></g><!--link UserModel to AccountModel--><g id="link_UserModel_AccountModel"><path d="M210.5,313.3079 L210.7802,313.3079 L209.9476,323.6546 L210.7577,334.0013 L211.0329,344.3479 L209.5488,354.6946 L210.3964,365.0413 L210.5,375.3879 " fill="none" style="stroke:#181818;stroke-width:1.0;"/><path d="M206.5,309.3079 L206.5,309.4013 L208.1,309.1238 L209.7,309.3938 L211.3,309.4856 L212.9,308.9909 L214.5,309.3079 " fill="none" style="stroke:#181818;stroke-width:1.0;"/><path d="M206.5,312.3079 L206.5,312.4013 L208.1,312.1238 L209.7,312.3938 L211.3,312.4856 L212.9,311.9909 L214.5,312.3079 " fill="none" style="stroke:#181818;stroke-width:1.0;"/><path d="M210.5,313.3079 L210.5934,313.3079 L210.3159,311.7079 L210.5859,310.1079 L210.6776,308.5079 L210.1829,306.9079 L210.5,305.3079 " fill="none" style="stroke:#181818;stroke-width:1.0;"/><path d="M214.5,379.3879 L214.5,379.4813 L212.9,379.2038 L211.3,379.4738 L209.7,379.5656 L208.1,379.0709 L206.5,379.3879 " fill="none" style="stroke:#181818;stroke-width:1.0;"/><path d="M214.5,376.3879 L214.5,376.4813 L212.9,376.2038 L211.3,376.4738 L209.7,376.5656 L208.1,376.0709 L206.5,376.3879 " fill="none" style="stroke:#181818;stroke-width:1.0;"/><path d="M210.5,375.3879 L210.5934,375.3879 L210.3159,376.9879 L210.5859,378.5879 L210.6776,380.1879 L210.1829,381.7879 L210.5,383.3879 " fill="none" style="stroke:#181818;stroke-width:1.0;"/><text fill="#000000" font-family="sans-serif" font-size="13" lengthAdjust="spacing" textLength="34" x="211.5" y="349.7149">Owns</text></g><!--link AccountModel to TransactionModel--><g id="link_AccountModel_TransactionModel"><path d="M173.16,573.278 L173.2506,573.3006 L172.4306,575.4442 L172.1418,577.7202 L171.6801,579.9532 L170.6493,582.0443 L170.4062,584.3317 L170.3722,584.3258 L169.8382,586.4905 L169.4758,588.685 L169.2327,590.9002 L168.5785,593.044 L168.5,595.2879 L168.741,595.3374 L167.6025,598.2674 L167.1678,601.3418 L166.8189,604.4338 L165.9704,607.4233 L165.3847,610.4668 L165.415,610.4677 L165.4675,613.5666 L165.6579,616.6698 L165.7818,619.7709 L166.0327,622.876 L165.8694,625.9681 " fill="none" style="stroke:#181818;stroke-width:1.0;"/><path d="M170.395,568.3429 L170.4203,568.4329 L171.885,568.5997 L173.4983,569.2936 L175.0632,569.8159 L176.469,569.7738 L178.095,570.513 " fill="none" style="stroke:#181818;stroke-width:1.0;"/><path d="M169.5812,571.2305 L169.6065,571.3204 L171.0713,571.4872 L172.6845,572.1812 L174.2494,572.7035 L175.6552,572.6613 L177.2813,573.4005 " fill="none" style="stroke:#181818;stroke-width:1.0;"/><path d="M173.16,573.278 L173.2499,573.3033 L173.4167,571.688 L174.1107,570.2213 L174.633,568.7061 L174.5908,567.0319 L175.33,565.5779 " fill="none" style="stroke:#181818;stroke-width:1.0;"/><path d="M167.1586,635.8847 L167.2255,635.9499 L168.423,637.1881 L170.0127,638.8085 L171.4746,640.3045 L172.5167,641.3911 L174.1399,643.0444 " fill="none" style="stroke:#181818;stroke-width:1.0;"/><path d="M167.1586,635.8847 L167.24,635.9306 L166.0146,637.5355 L165.266,639.4096 L164.3622,641.1961 L162.9477,642.6941 L162.2401,644.5914 " fill="none" style="stroke:#181818;stroke-width:1.0;"/><path d="M167.1586,635.8847 L167.2513,635.8967 L167.1823,637.4476 L167.6564,639.069 L167.9536,640.6675 L167.6693,642.1904 L168.19,643.8179 " fill="none" style="stroke:#181818;stroke-width:1.0;"/><polygon fill="none" points="170.4072,630.9077,169.8209,631.7089,169.1274,632.8823,168.1355,633.6731,167.0932,634.1055,166.2622,634.143,165.1941,633.6022,164.1863,633.2489,163.4213,632.5315,163.02,631.7103,162.7821,631.0564,162.5489,630.2023,162.1706,629.4673,162.4613,628.7497,162.7161,627.9636,163.6721,627.3418,164.3447,626.5351,165.1772,626.2673,166.167,626.0366,167.4362,626.1736,168.1313,626.5015,168.9395,626.6501,169.9223,627.6569,170.2648,628.7198,170.4137,629.4451,170.2451,630.6402" style="stroke:#181818;stroke-width:1.0;"/><text fill="#000000" font-family="sans-serif" font-size="13" lengthAdjust="spacing" textLength="36" x="169.5" y="610.1849">Sends</text></g><!--link AccountModel to TransactionModel--><g id="link_AccountModel_TransactionModel"><path d="M210.5,573.5979 L210.7802,573.5979 L209.9476,584.0639 L210.7577,594.5299 L211.0329,604.9959 L209.5488,615.4619 L210.5,625.9279 " fill="none" style="stroke:#181818;stroke-width:1.0;"/><path d="M206.5,569.5979 L206.5,569.6913 L208.1,569.4138 L209.7,569.6838 L211.3,569.7756 L212.9,569.2809 L214.5,569.5979 " fill="none" style="stroke:#181818;stroke-width:1.0;"/><path d="M206.5,572.5979 L206.5,572.6913 L208.1,572.4138 L209.7,572.6838 L211.3,572.7756 L212.9,572.2809 L214.5,572.5979 " fill="none" style="stroke:#181818;stroke-width:1.0;"/><path d="M210.5,573.5979 L210.5934,573.5979 L210.3159,571.9979 L210.5859,570.3979 L210.6776,568.7979 L210.1829,567.1979 L210.5,565.5979 " fill="none" style="stroke:#181818;stroke-width:1.0;"/><path d="M210.5,635.9279 L210.5747,635.984 L211.5527,637.4174 L212.9687,639.1795 L214.2421,640.8345 L215.0463,642.1377 L216.5,643.9279 " fill="none" style="stroke:#181818;stroke-width:1.0;"/><path d="M210.5,635.9279 L210.5747,635.984 L209.1527,637.4174 L208.1687,639.1795 L207.0421,640.8345 L205.4463,642.1377 L204.5,643.9279 " fill="none" style="stroke:#181818;stroke-width:1.0;"/><path d="M210.5,635.9279 L210.5934,635.9279 L210.3159,637.5279 L210.5859,639.1279 L210.6776,640.7279 L210.1829,642.3279 L210.5,643.9279 " fill="none" style="stroke:#181818;stroke-width:1.0;"/><polygon fill="none" points="214.5221,630.9009,213.9358,631.702,213.2423,632.8754,212.2504,633.6662,211.2081,634.0987,210.3771,634.1362,209.309,633.5954,208.3012,633.2421,207.5362,632.5247,207.1349,631.7035,206.897,631.0496,206.6638,630.1954,206.2855,629.4605,206.5762,628.7428,206.831,627.9567,207.787,627.335,208.4596,626.5283,209.2921,626.2604,210.2819,626.0298,211.5511,626.1668,212.2462,626.4947,213.0544,626.6433,214.0372,627.6501,214.3797,628.713,214.5286,629.4382,214.36,630.6333" style="stroke:#181818;stroke-width:1.0;"/><text fill="#000000" font-family="sans-serif" font-size="13" lengthAdjust="spacing" textLength="51" x="211.5" y="610.1849">Recieves</text></g><!--SRC=[hLLDR-8m4BtdL_WM6a6ttQfxg5Yaj50LRMch5lQAZ3s0XMD7jbCMbVxtdJXy10ZThdQv9F5xdddpF6FiJAYK6fgGALLyReHpe8Wp6GHs0pdX95nhmy6Gy-hr6osr8ID9sIpmooIAcbchgyRQ9DG9hKX78R0WRK4d-MO4I0eOqUdYcT950ihPvfUi5KL100L_OC7qD0Vv5X3yHHb-3mKdLsGmwBP9i_dqezNoKADHOYYQ079-niytT_5pxVBif00XeK9M0IcrTewrbB2lbvShS2oCTSTY9e9p2KSpIdfygx13oXEX4Bf-VBpln0_aExcbqeA7VINMKPVPAz9v6FHg8MLEl49O9w7DR0gA0yy_cDGMtugep01rm8VKOTn-jzTvwSUzfo9YogkWzutTCMCwKwxiE2sMFc5wcN6xPeoef8hbrRSxDzrUV5yxFwjVh9Hcne1YYv8r5oTeGNXzrmuzOvtyc0khmklXI6es-oyMz0rLDi-WLTa6jrt-s0gRduePLjcsCIKom01B-1ED9ZbOwLqqDZePLZgu4gm_Gk4Nmv6VmD2W6xi9lXMKSi6xzkTz9zJ4-w-JL88hkd2Ci_LlHx2PTh9SDXhBvKu_8lbnhcomivRpzDl1eI7t1LL-clmCJC0hs41fjCE8oTGHFTxUFbxtLfs1r83DholYfk07bU0Ov-zsOHqaftv3rn6cbQD2MRpaZDMAIkHjBqMyTDSjJWgFJx4DESbLx4af5-A3xrHM8IYqwz27ObP3MTzCOFrlfEpxvyCVcBedgTHEc1_S7F2VPfNG7YhaW4-99OnqvWfZ_LpLoNfqKBAVZaBwlkJV]--></g></svg>